<?xml version="1.0" encoding="UTF-8"?>
<svg width="386px" height="496px" viewBox="0 0 386 496" version="1.1" xmlns="http://www.w3.org/2000/svg" xmlns:xlink="http://www.w3.org/1999/xlink">
    <!-- Generator: sketchtool 56.3 (101010) - https://sketch.com -->
    <title>A1BCD29F-2E39-4DBB-8C62-3F50B95C8F14</title>
    <desc>Created with sketchtool.</desc>
    <g id="WD---Site-vitrine" stroke="none" stroke-width="1" fill="none" fill-rule="evenodd">
        <g id="Desktop---Home-HD" transform="translate(-1054.000000, -2295.000000)">
            <g id="Group-35" transform="translate(-0.168592, 2140.000000)">
                <g id="Group-39" transform="translate(934.412931, 116.884060)">
                    <path d="M524.461852,278.292446 C496.522175,175.380481 408.910467,80.6252452 324.429397,98.8008463 C239.948328,116.976447 283.204992,222.920111 221.873165,261.391666 C160.541338,299.863222 39.9891919,313.659746 73.9064151,428.315459 C107.823638,542.971173 402.164041,572.712433 490.344012,496.088725 C578.523984,419.465017 552.401528,381.20441 524.461852,278.292446 Z" id="Path-2" fill="#292188" transform="translate(309.500000, 317.548991) scale(-1, 1) rotate(118.000000) translate(-309.500000, -317.548991) "></path>
                    <path d="M251.833614,115.013076 C271.78169,90.355589 235.093286,46 183.788417,46 C132.483549,46 123.836899,98.4164207 161.95334,143.669499 C200.06978,188.922577 231.885538,139.670563 251.833614,115.013076 Z" id="Path-5-Copy-3" fill="#585AFA" transform="translate(197.862426, 104.051687) rotate(36.000000) translate(-197.862426, -104.051687) "></path>
                </g>
            </g>
        </g>
    </g>
</svg>