<?xml version="1.0" encoding="UTF-8"?>
<svg width="141px" height="122px" viewBox="0 0 141 122" version="1.1" xmlns="http://www.w3.org/2000/svg" xmlns:xlink="http://www.w3.org/1999/xlink">
    <!-- Generator: sketchtool 56.3 (101010) - https://sketch.com -->
    <title>D2B96808-24CA-497F-B68D-CBCAFBAD1B15</title>
    <desc>Created with sketchtool.</desc>
    <defs>
        <polygon id="path-1" points="0 0.144135189 103.578429 0.144135189 103.578429 75.1491054 0 75.1491054"></polygon>
    </defs>
    <g id="WD---Site-vitrine" stroke="none" stroke-width="1" fill="none" fill-rule="evenodd">
        <g id="Desktop---Home-HD" transform="translate(-409.000000, -2472.000000)">
            <g id="Group-35" transform="translate(-0.168592, 2140.000000)">
                <g id="Group-62" transform="translate(408.909606, 332.000000)">
                    <g id="Group-7" transform="translate(0.258986, 0.000000)">
                        <path d="M137.106213,80.0130762 C156.512357,55.355589 96.9079091,0 65.512451,0 C34.1169929,0 -10.89554,41.9200616 3.76503318,95.9850714 C18.4256064,150.050081 117.700068,104.670563 137.106213,80.0130762 Z" id="Path-5-Copy" fill="#585AFA"></path>
                        <g id="Group-38" transform="translate(11.000000, 10.000000)">
                            <g id="Group-3" transform="translate(0.000000, 24.620875)">
                                <mask id="mask-2" fill="white">
                                    <use xlink:href="#path-1"></use>
                                </mask>
                                <g id="Clip-2"></g>
                                <path d="M97.833499,75.1491054 L5.74502982,75.1491054 C2.56968191,75.1491054 -9.94035785e-05,72.577336 -9.94035785e-05,69.404175 L-9.94035785e-05,5.88906561 C-9.94035785e-05,2.71550696 2.56968191,0.144135189 5.74502982,0.144135189 L97.833499,0.144135189 C101.006859,0.144135189 103.578429,2.71550696 103.578429,5.88906561 L103.578429,69.404175 C103.578429,72.577336 101.006859,75.1491054 97.833499,75.1491054" id="Fill-1" fill="#3B35B9" mask="url(#mask-2)"></path>
                            </g>
                            <path d="M26.7875149,74.7682306 L10.7149503,74.7682306 C9.72727634,74.7682306 8.92926441,75.5682306 8.92926441,76.5541153 C8.92926441,77.5398012 9.72727634,78.34 10.7149503,78.34 L26.7875149,78.34 C27.7751889,78.34 28.5733996,77.5398012 28.5733996,76.5541153 C28.5733996,75.5682306 27.7751889,74.7682306 26.7875149,74.7682306" id="Fill-4" fill="#D5F2FF"></path>
                            <path d="M51.7892644,76.5541948 C51.7892644,75.5683101 50.9908549,74.7683101 50.0035785,74.7683101 L33.9310139,74.7683101 C32.94334,74.7683101 32.1449304,75.5683101 32.1449304,76.5541948 C32.1449304,77.5398807 32.94334,78.3398807 33.9310139,78.3398807 L50.0035785,78.3398807 C50.9908549,78.3398807 51.7892644,77.5398807 51.7892644,76.5541948" id="Fill-6" fill="#D5F2FF"></path>
                            <path d="M12.5007753,83.6974751 L10.7150895,83.6974751 C9.72741551,83.6974751 8.92920477,84.4974751 8.92920477,85.483161 C8.92920477,86.4690457 9.72741551,87.2692445 10.7150895,87.2692445 L12.5007753,87.2692445 C13.4884493,87.2692445 14.28666,86.4690457 14.28666,85.483161 C14.28666,84.4974751 13.4884493,83.6974751 12.5007753,83.6974751" id="Fill-8" fill="#D5F2FF"></path>
                            <path d="M23.2157853,83.6974751 L19.6442147,83.6974751 C18.6565408,83.6974751 17.85833,84.4974751 17.85833,85.483161 C17.85833,86.4690457 18.6565408,87.2692445 19.6442147,87.2692445 L23.2157853,87.2692445 C24.2034592,87.2692445 25.00167,86.4690457 25.00167,85.483161 C25.00167,84.4974751 24.2034592,83.6974751 23.2157853,83.6974751" id="Fill-10" fill="#D5F2FF"></path>
                            <path d="M32.1450298,83.6974751 L30.3593439,83.6974751 C29.37167,83.6974751 28.5734592,84.4974751 28.5734592,85.483161 C28.5734592,86.4690457 29.37167,87.2692445 30.3593439,87.2692445 L32.1450298,87.2692445 C33.1327038,87.2692445 33.9309145,86.4690457 33.9309145,85.483161 C33.9309145,84.4974751 33.1327038,83.6974751 32.1450298,83.6974751" id="Fill-12" fill="#D5F2FF"></path>
                            <path d="M42.8600199,83.6974751 L39.2884493,83.6974751 C38.3007753,83.6974751 37.5025646,84.4974751 37.5025646,85.483161 C37.5025646,86.4690457 38.3007753,87.2692445 39.2884493,87.2692445 L42.8600199,87.2692445 C43.8476938,87.2692445 44.6459046,86.4690457 44.6459046,85.483161 C44.6459046,84.4974751 43.8476938,83.6974751 42.8600199,83.6974751" id="Fill-14" fill="#D5F2FF"></path>
                            <path d="M48.735507,84.2152684 C48.4122465,84.5546322 48.2176143,85.0190457 48.2176143,85.4832604 C48.2176143,85.947674 48.4122465,86.4118887 48.735507,86.7512525 C49.0728827,87.0727237 49.5390855,87.2691451 50.003499,87.2691451 C50.4677137,87.2691451 50.930338,87.0727237 51.2712922,86.7512525 C51.5927634,86.4118887 51.7891849,85.947674 51.7891849,85.4832604 C51.7891849,85.0190457 51.5927634,84.5546322 51.2712922,84.2152684 C50.5927634,83.5546322 49.3748708,83.5546322 48.735507,84.2152684" id="Fill-16" fill="#D5F2FF"></path>
                            <path d="M82.1485089,80.1257455 C82.1485089,86.0442346 77.3516899,90.8406561 71.4335984,90.8406561 C65.5151093,90.8406561 60.7184891,86.0442346 60.7184891,80.1257455 C60.7184891,74.2074553 65.5151093,69.410835 71.4335984,69.410835 C77.3516899,69.410835 82.1485089,74.2074553 82.1485089,80.1257455" id="Fill-18" fill="#F05068"></path>
                            <path d="M94.6492843,80.1257455 C94.6492843,86.0442346 89.852664,90.8406561 83.9343738,90.8406561 C78.0160835,90.8406561 73.2192644,86.0442346 73.2192644,80.1257455 C73.2192644,74.2074553 78.0160835,69.410835 83.9343738,69.410835 C89.852664,69.410835 94.6492843,74.2074553 94.6492843,80.1257455" id="Fill-20" fill="#FBAA95"></path>
                            <path d="M37.0472565,60.4814911 L12.9562028,60.4814911 C11.7204175,60.4814911 10.7150497,59.4779125 10.7150497,58.240338 L10.7150497,41.2926243 C10.7150497,40.0552485 11.7204175,39.0514712 12.9562028,39.0514712 L37.0472565,39.0514712 C38.284831,39.0514712 39.2884095,40.0552485 39.2884095,41.2926243 L39.2884095,58.240338 C39.2884095,59.4779125 38.284831,60.4814911 37.0472565,60.4814911" id="Fill-22" fill="#FF6786"></path>
                            <path d="M12.9562425,40.8374354 C12.7027634,40.8374354 12.5007753,41.0408151 12.5007753,41.2927038 L12.5007753,58.2402187 C12.5007753,58.4921074 12.7027634,58.6956859 12.9562425,58.6956859 L37.0472962,58.6956859 C37.2989861,58.6956859 37.5025646,58.4921074 37.5025646,58.2402187 L37.5025646,41.2927038 C37.5025646,41.0408151 37.2989861,40.8374354 37.0472962,40.8374354 L12.9562425,40.8374354 Z M37.0472962,62.2674553 L12.9562425,62.2674553 C10.7363618,62.2674553 8.92920477,60.4600994 8.92920477,58.2402187 L8.92920477,41.2927038 C8.92920477,39.0730219 10.7363618,37.265666 12.9562425,37.265666 L37.0472962,37.265666 C39.2669781,37.265666 41.074334,39.0730219 41.074334,41.2927038 L41.074334,58.2402187 C41.074334,60.4600994 39.2669781,62.2674553 37.0472962,62.2674553 L37.0472962,62.2674553 Z" id="Fill-24" fill="#FBAA95"></path>
                            <path d="M39.2884891,41.2927237 C39.2884891,40.0551491 38.2847117,39.0515706 37.047336,39.0515706 L28.5735785,39.0515706 L23.6711928,39.0515706 C22.431829,39.0515706 21.4300398,40.0551491 21.4300398,41.2927237 L21.4300398,46.1949105 L21.4300398,58.2402386 C21.4300398,59.4780119 22.431829,60.4815905 23.6711928,60.4815905 L26.3322266,60.4815905 C27.5698012,60.4815905 28.5735785,59.4780119 28.5735785,58.2402386 L28.5735785,48.4362624 C28.5735785,47.1984891 29.5769583,46.1949105 30.8145328,46.1949105 L37.047336,46.1949105 C38.2847117,46.1949105 39.2884891,45.1911332 39.2884891,43.9537575 L39.2884891,41.2927237 Z" id="Fill-26" fill="#FF6786"></path>
                            <path d="M23.6712525,40.8374354 C23.4177734,40.8374354 23.2157853,41.0408151 23.2157853,41.2927038 L23.2157853,58.2402187 C23.2157853,58.4921074 23.4177734,58.6956859 23.6712525,58.6956859 L26.3322863,58.6956859 C26.5839761,58.6956859 26.7875547,58.4921074 26.7875547,58.2402187 L26.7875547,48.4362425 C26.7875547,46.2163618 28.5949105,44.409006 30.8145924,44.409006 L37.0471968,44.409006 C37.2990855,44.409006 37.5024652,44.2054274 37.5024652,43.9537376 L37.5024652,41.2927038 C37.5024652,41.0408151 37.2990855,40.8374354 37.0471968,40.8374354 L23.6712525,40.8374354 Z M26.3322863,62.2674553 L23.6712525,62.2674553 C21.4515706,62.2674553 19.6442147,60.4600994 19.6442147,58.2402187 L19.6442147,41.2927038 C19.6442147,39.0730219 21.4515706,37.265666 23.6712525,37.265666 L37.0471968,37.265666 C39.2668787,37.265666 41.0742346,39.0730219 41.0742346,41.2927038 L41.0742346,43.9537376 C41.0742346,46.1734195 39.2668787,47.9807753 37.0471968,47.9807753 L30.8145924,47.9807753 C30.5609145,47.9807753 30.3593241,48.1843539 30.3593241,48.4362425 L30.3593241,58.2402187 C30.3593241,60.4600994 28.5519682,62.2674553 26.3322863,62.2674553 L26.3322863,62.2674553 Z" id="Fill-28" fill="#FBAA95"></path>
                            <path d="M39.2884891,55.123996 L28.5735785,55.123996 C27.5859046,55.123996 26.787495,54.3241948 26.787495,53.3383101 C26.787495,52.3526243 27.5859046,51.5524254 28.5735785,51.5524254 L39.2884891,51.5524254 C40.2759642,51.5524254 41.074175,52.3526243 41.074175,53.3383101 C41.074175,54.3241948 40.2759642,55.123996 39.2884891,55.123996" id="Fill-30" fill="#FBAA95"></path>
                            <path d="M21.4300199,47.9807157 L10.7151093,47.9807157 C9.72743539,47.9807157 8.92922465,47.1807157 8.92922465,46.1950298 C8.92922465,45.2091451 9.72743539,44.4089463 10.7151093,44.4089463 L21.4300199,44.4089463 C22.4176938,44.4089463 23.2157058,45.2091451 23.2157058,46.1950298 C23.2157058,47.1807157 22.4176938,47.9807157 21.4300199,47.9807157" id="Fill-32" fill="#FBAA95"></path>
                            <path d="M21.4300199,55.123996 L10.7151093,55.123996 C9.72743539,55.123996 8.92922465,54.3241948 8.92922465,53.3383101 C8.92922465,52.3526243 9.72743539,51.5524254 10.7151093,51.5524254 L21.4300199,51.5524254 C22.4176938,51.5524254 23.2157058,52.3526243 23.2157058,53.3383101 C23.2157058,54.3241948 22.4176938,55.123996 21.4300199,55.123996" id="Fill-34" fill="#FBAA95"></path>
                            <path d="M88.9603777,10.2477336 C91.5053082,4.21572565 97.3190258,0.00121272366 104.081054,0.00121272366 C113.19,0.00121272366 119.750239,7.79345924 120.574891,17.080338 C120.574891,17.080338 121.020219,19.3857058 120.040298,23.536004 C118.706103,29.1882903 115.569722,34.2099602 111.341292,38.0425646 L88.9603777,58.0107555 L66.9566004,38.041173 C62.728171,34.2099602 59.5915905,29.1870974 58.2573956,23.5348111 C57.277674,19.3843141 57.7228032,17.0791451 57.7228032,17.0791451 C58.5474553,7.7922664 65.1076938,1.98807157e-05 74.216839,1.98807157e-05 C80.9800596,1.98807157e-05 86.4154473,4.21572565 88.9603777,10.2477336" id="Fill-36" fill="#FF6786"></path>
                        </g>
                    </g>
                </g>
            </g>
        </g>
    </g>
</svg>