<?xml version="1.0" encoding="UTF-8"?>
<svg width="126px" height="112px" viewBox="0 0 126 112" version="1.1" xmlns="http://www.w3.org/2000/svg" xmlns:xlink="http://www.w3.org/1999/xlink">
    <!-- Generator: sketchtool 56.3 (101010) - https://sketch.com -->
    <title>1E34D8DF-62C8-41E3-9A64-B8CAD8BCB264</title>
    <desc>Created with sketchtool.</desc>
    <defs>
        <polygon id="path-1" points="0.000134730539 2.99401198e-05 69.3586677 2.99401198e-05 69.3586677 83.2335329 0.000134730539 83.2335329"></polygon>
    </defs>
    <g id="WD---Site-vitrine" stroke="none" stroke-width="1" fill="none" fill-rule="evenodd">
        <g id="Desktop---Home-HD" transform="translate(-901.000000, -2483.000000)">
            <g id="Group-35" transform="translate(-0.168592, 2140.000000)">
                <g id="Group-9" transform="translate(878.168592, 312.000000)">
                    <g id="Group-65" transform="translate(0.032466, 0.143032)">
                        <path d="M148.493805,94.1963443 C168.275538,71.2598136 131.893071,30 81.0160227,30 C30.1389749,30 -3.63242984,75.4019868 34.1661657,117.49665 C71.9647613,159.591313 128.712072,117.132875 148.493805,94.1963443 Z" id="Path-5-Copy-4" fill="#585AFA" transform="translate(85.986336, 82.685027) scale(1, -1) rotate(36.000000) translate(-85.986336, -82.685027) "></path>
                        <g id="Group-220" transform="translate(37.967534, 30.856968)">
                            <g id="Group-3" transform="translate(0.000000, 16.742964)">
                                <mask id="mask-2" fill="white">
                                    <use xlink:href="#path-1"></use>
                                </mask>
                                <g id="Clip-2"></g>
                                <path d="M69.3586677,3.46679641 L69.3586677,45.0835629 C69.3586677,48.1891018 68.7540269,51.270988 67.5448952,54.3215868 C66.3315719,57.3760778 64.8318713,60.0852096 63.045494,62.4525749 C61.2591168,64.8200898 59.1272305,67.1206886 56.6537275,69.3626048 C54.1763323,71.600479 51.8913024,73.4614072 49.7947455,74.941497 C47.7022305,76.4256287 45.5154042,77.8233832 43.2422006,79.1425449 C40.9651048,80.4578144 39.3474401,81.3569162 38.389506,81.8241317 C37.4354641,82.2950898 36.6658533,82.6563174 36.0887575,82.9076647 C35.652979,83.1235329 35.1859132,83.2335629 34.6793263,83.2335629 C34.1728892,83.2335629 33.7017814,83.1235329 33.2698952,82.9076647 C32.6926497,82.6563174 31.9231886,82.2950898 30.9652545,81.8241317 C30.0112126,81.3569162 28.3936976,80.4578144 26.1166018,79.1425449 C23.8393563,77.8233832 21.6564222,76.4256287 19.5598653,74.941497 C17.4672006,73.4614072 15.1823204,71.600479 12.7049251,69.3626048 C10.2314222,67.1206886 8.09953593,64.8200898 6.31315868,62.4525749 C4.52288922,60.0852096 3.02318862,57.3760778 1.81390719,54.3215868 C0.604625749,51.270988 0.000134730539,48.1891018 0.000134730539,45.0835629 L0.000134730539,3.46679641 C0.000134730539,2.52832335 0.341601796,1.7157485 1.02872754,1.02862275 C1.71585329,0.341497006 2.52842814,2.99401198e-05 3.4667515,2.99401198e-05 L65.8919012,2.99401198e-05 C66.8302246,2.99401198e-05 67.6429491,0.341497006 68.3300749,1.02862275 C69.0172006,1.7157485 69.3586677,2.52832335 69.3586677,3.46679641" id="Fill-1" fill="#FBAA95" mask="url(#mask-2)"></path>
                            </g>
                            <path d="M34.6792964,16.7429641 L34.6792964,99.976497 C34.1728593,99.976497 33.7017515,99.8666168 33.2698653,99.6505988 C32.6926198,99.3994012 31.9231587,99.038024 30.9652246,98.5670659 C30.0111826,98.0998503 28.3936677,97.2007485 26.1165719,95.885479 C23.8393263,94.5663174 21.6563922,93.1685629 19.5598353,91.6844311 C17.4671707,90.204491 15.1822904,88.3434132 12.7048952,86.1055389 C10.2313922,83.8636228 8.09950599,81.563024 6.31327844,79.1956587 C4.52300898,76.8281437 3.02315868,74.119012 1.81387725,71.064521 C0.604595808,68.0139222 0.000104790419,64.9320359 0.000104790419,61.826497 L0.000104790419,20.2097305 C0.000104790419,19.2714072 0.341571856,18.4586826 1.0286976,17.7715569 C1.71582335,17.0844311 2.5283982,16.7429641 3.46672156,16.7429641 L34.6792964,16.7429641 Z" id="Fill-4" fill="#FF6786"></path>
                            <path d="M65.1122305,24.8811826 L65.1122305,61.401991 C65.1122305,64.1272904 64.5816916,66.8317814 63.5204641,69.5088772 C62.4557934,72.1894162 61.1397754,74.5666617 59.5721108,76.6442066 C58.0044461,78.7217515 56.133488,80.7409132 53.962979,82.7081287 C51.7890269,84.6719012 49.7837874,86.3051347 47.9439671,87.6039371 C46.1075898,88.9061826 44.1884281,90.1328293 42.1936677,91.2904641 C40.1954641,92.4446557 38.7758533,93.2337275 37.9351347,93.6436078 C37.098009,94.0572305 36.4227096,94.3741467 35.9162725,94.5946557 C35.5337874,94.7840269 35.1237575,94.8805838 34.6792964,94.8805838 C34.2348353,94.8805838 33.821512,94.7840269 33.4424701,94.5946557 C32.9360329,94.3741467 32.2607335,94.0572305 31.420015,93.6436078 C30.5828892,93.2337275 29.1632784,92.4446557 27.1650749,91.2904641 C25.1667216,90.1328293 23.251003,88.9061826 21.4111826,87.6039371 C19.5749551,86.3051347 17.5697156,84.6719012 15.3957635,82.7081287 C13.2251048,80.7409132 11.3541467,78.7217515 9.78663174,76.6442066 C8.21552395,74.5666617 6.89950599,72.1894162 5.83827844,69.5088772 C4.7770509,66.8317814 4.24651198,64.1272904 4.24651198,61.401991 L4.24651198,24.8811826 C4.24651198,24.0576796 4.54621257,23.344506 5.14905689,22.741512 C5.7522006,22.1386677 6.46522455,21.8389671 7.28872754,21.8389671 L62.070015,21.8389671 C62.893518,21.8389671 63.6065419,22.1386677 64.2095359,22.741512 C64.8125299,23.344506 65.1122305,24.0576796 65.1122305,24.8811826" id="Fill-6" fill="#4C4CE0"></path>
                            <path d="M34.7048802,21.8389222 L34.7048802,94.8805389 C34.2589222,94.8805389 33.8470958,94.7829341 33.4691018,94.5961078 C32.959521,94.3751497 32.2842216,94.0567365 31.443503,93.6447605 C30.6068263,93.2329341 29.1884132,92.4431138 27.1924551,91.2920659 C25.1924551,90.1327844 23.2771856,88.9055389 21.4384132,87.6019461 C19.5996407,86.3067365 17.5952994,84.6717066 15.4210479,82.7097305 C13.250988,80.7393713 11.3782335,78.7221557 9.81116766,76.645509 C8.23991018,74.5648204 6.92359281,72.191018 5.86176647,69.5070359 C4.80458084,66.8317365 4.27374251,64.126497 4.27374251,61.4002994 L4.27374251,24.879491 C4.27374251,24.0556886 4.5708982,23.3464072 5.17389222,22.7434132 C5.77688623,22.1404192 6.49035928,21.8389222 7.31416168,21.8389222 L34.7048802,21.8389222 Z" id="Fill-8" fill="#3B35B9"></path>
                            <path d="M28.8917066,74.3826647 C28.8917066,73.6407485 28.3213473,73.0425449 27.6393114,73.0425449 C26.9460479,73.0425449 26.3869162,73.6407485 26.3869162,74.3826647 C26.3869162,75.1244311 26.9460479,75.7227844 27.6393114,75.7227844 C28.3213473,75.7227844 28.8917066,75.1244311 28.8917066,74.3826647" id="Fill-10" fill="#F05068"></path>
                            <path d="M27.0799401,71.0562126 C27.0799401,70.3142964 26.5208084,69.7162425 25.8275449,69.7162425 C25.1342814,69.7162425 24.5752994,70.3142964 24.5752994,71.0562126 C24.5752994,71.7981287 25.1342814,72.3963323 25.8275449,72.3963323 C26.5208084,72.3843563 27.0799401,71.7861527 27.0799401,71.0562126" id="Fill-12" fill="#F05068"></path>
                            <path d="M30.6919012,71.0562126 C30.6919012,70.3142964 30.1327695,69.7162425 29.439506,69.7162425 C28.7462425,69.7162425 28.1871108,70.3142964 28.1871108,71.0562126 C28.1871108,71.7981287 28.7462425,72.3963323 29.439506,72.3963323 C30.1327695,72.3843563 30.6919012,71.7861527 30.6919012,71.0562126" id="Fill-14" fill="#F05068"></path>
                            <path d="M34.2921707,71.0562126 C34.2921707,70.3142964 33.7331886,69.7162425 33.0397754,69.7162425 C32.346512,69.7162425 31.7875299,70.3142964 31.7875299,71.0562126 C31.7875299,71.7981287 32.346512,72.3963323 33.0397754,72.3963323 C33.7331886,72.3843563 34.2921707,71.7861527 34.2921707,71.0562126" id="Fill-16" fill="#F05068"></path>
                            <path d="M37.8933234,71.0562126 C37.8933234,70.3142964 37.3341916,69.7162425 36.6409281,69.7162425 C35.9476647,69.7162425 35.3885329,70.3142964 35.3885329,71.0562126 C35.3885329,71.7981287 35.9476647,72.3963323 36.6409281,72.3963323 C37.3341916,72.3843563 37.8933234,71.7861527 37.8933234,71.0562126" id="Fill-18" fill="#F05068"></path>
                            <path d="M45.1055539,71.0562126 C45.1055539,70.3142964 44.5464222,69.7162425 43.8531587,69.7162425 C43.1598952,69.7162425 42.6009132,70.3142964 42.6009132,71.0562126 C42.6009132,71.7981287 43.1598952,72.3963323 43.8531587,72.3963323 C44.5464222,72.3843563 45.1055539,71.7861527 45.1055539,71.0562126" id="Fill-20" fill="#F05068"></path>
                            <path d="M48.7058234,71.0562126 C48.7058234,70.3142964 48.1468413,69.7162425 47.4535778,69.7162425 C46.7601647,69.7162425 46.2011826,70.3142964 46.2011826,71.0562126 C46.2011826,71.7981287 46.7601647,72.3963323 47.4535778,72.3963323 C48.1468413,72.3843563 48.7058234,71.7861527 48.7058234,71.0562126" id="Fill-22" fill="#F05068"></path>
                            <path d="M32.4926946,74.3826647 C32.4926946,73.6407485 31.9337126,73.0425449 31.2404491,73.0425449 C30.5470359,73.0425449 29.9880539,73.6407485 29.9880539,74.3826647 C29.9880539,75.1244311 30.5470359,75.7227844 31.2404491,75.7227844 C31.9337126,75.7227844 32.4926946,75.1244311 32.4926946,74.3826647" id="Fill-24" fill="#F05068"></path>
                            <path d="M36.0926796,74.3826647 C36.0926796,73.6407485 35.5336976,73.0425449 34.8402844,73.0425449 C34.147021,73.0425449 33.5880389,73.6407485 33.5880389,74.3826647 C33.5880389,75.1244311 34.147021,75.7227844 34.8402844,75.7227844 C35.5336976,75.7227844 36.0926796,75.1244311 36.0926796,74.3826647" id="Fill-26" fill="#F05068"></path>
                            <path d="M43.2938024,74.3826647 C43.2938024,73.6407485 42.7346707,73.0425449 42.0526347,73.0425449 C41.3592216,73.0425449 40.8002395,73.6407485 40.8002395,74.3826647 C40.8002395,75.1244311 41.3592216,75.7227844 42.0526347,75.7227844 C42.7346707,75.7227844 43.2938024,75.1244311 43.2938024,74.3826647" id="Fill-28" fill="#F05068"></path>
                            <path d="M25.2801796,67.8016916 C25.2801796,67.0599251 24.7210479,66.4617216 24.0277844,66.4617216 C23.334521,66.4617216 22.7753892,67.0599251 22.7753892,67.8016916 C22.7753892,68.5436078 23.334521,69.1418114 24.0277844,69.1418114 C24.7210479,69.1418114 25.2801796,68.5436078 25.2801796,67.8016916" id="Fill-30" fill="#F05068"></path>
                            <path d="M28.8917066,67.8016916 C28.8917066,67.0599251 28.3325749,66.4617216 27.6393114,66.4617216 C26.9460479,66.4617216 26.3869162,67.0599251 26.3869162,67.8016916 C26.3869162,68.5436078 26.9460479,69.1418114 27.6393114,69.1418114 C28.3213473,69.1418114 28.8917066,68.5436078 28.8917066,67.8016916" id="Fill-32" fill="#F05068"></path>
                            <path d="M27.0799401,64.4872156 C27.0799401,63.7454491 26.5208084,63.1472455 25.8275449,63.1472455 C25.1342814,63.1472455 24.5752994,63.7454491 24.5752994,64.4872156 C24.5752994,65.2291317 25.1342814,65.8273353 25.8275449,65.8273353 C26.5208084,65.8273353 27.0799401,65.2291317 27.0799401,64.4872156" id="Fill-34" fill="#F05068"></path>
                            <path d="M23.479521,64.4872156 C23.479521,63.7454491 22.9205389,63.1472455 22.2272754,63.1472455 C21.534012,63.1472455 20.9748802,63.7454491 20.9748802,64.4872156 C20.9748802,65.2291317 21.534012,65.8273353 22.2272754,65.8273353 C22.9205389,65.8273353 23.479521,65.2291317 23.479521,64.4872156" id="Fill-36" fill="#F05068"></path>
                            <path d="M21.6790269,67.8016916 C21.6790269,67.0599251 21.1200449,66.4617216 20.4266317,66.4617216 C19.7333683,66.4617216 19.1743862,67.0599251 19.1743862,67.8016916 C19.1743862,68.5436078 19.7333683,69.1418114 20.4266317,69.1418114 C21.1200449,69.1418114 21.6790269,68.5436078 21.6790269,67.8016916" id="Fill-38" fill="#F05068"></path>
                            <path d="M19.878518,64.4872156 C19.878518,63.7454491 19.3193862,63.1472455 18.6261228,63.1472455 C17.9328593,63.1472455 17.3738772,63.7454491 17.3738772,64.4872156 C17.3738772,65.2291317 17.9328593,65.8273353 18.6261228,65.8273353 C19.3193862,65.8273353 19.878518,65.2291317 19.878518,64.4872156" id="Fill-40" fill="#F05068"></path>
                            <path d="M30.6919012,64.4872156 C30.6919012,63.7454491 30.1327695,63.1472455 29.439506,63.1472455 C28.7462425,63.1472455 28.1871108,63.7454491 28.1871108,64.4872156 C28.1871108,65.2291317 28.7462425,65.8273353 29.439506,65.8273353 C30.1327695,65.8273353 30.6919012,65.2291317 30.6919012,64.4872156" id="Fill-42" fill="#F05068"></path>
                            <path d="M34.2921707,64.4872156 C34.2921707,63.7454491 33.7331886,63.1472455 33.0397754,63.1472455 C32.346512,63.1472455 31.7875299,63.7454491 31.7875299,64.4872156 C31.7875299,65.2291317 32.346512,65.8273353 33.0397754,65.8273353 C33.7331886,65.8273353 34.2921707,65.2291317 34.2921707,64.4872156" id="Fill-44" fill="#F05068"></path>
                            <path d="M37.8933234,64.4872156 C37.8933234,63.7454491 37.3341916,63.1472455 36.6409281,63.1472455 C35.9476647,63.1472455 35.3885329,63.7454491 35.3885329,64.4872156 C35.3885329,65.2291317 35.9476647,65.8273353 36.6409281,65.8273353 C37.3341916,65.8273353 37.8933234,65.2291317 37.8933234,64.4872156" id="Fill-46" fill="#F05068"></path>
                            <path d="M41.4931587,64.4872156 C41.4931587,63.7454491 40.9341766,63.1472455 40.2409132,63.1472455 C39.5476497,63.1472455 38.988518,63.7454491 38.988518,64.4872156 C38.988518,65.2291317 39.5476497,65.8273353 40.2409132,65.8273353 C40.9341766,65.8273353 41.4931587,65.2291317 41.4931587,64.4872156" id="Fill-48" fill="#F05068"></path>
                            <path d="M45.1055539,64.4872156 C45.1055539,63.7454491 44.5464222,63.1472455 43.8531587,63.1472455 C43.1598952,63.1472455 42.6009132,63.7454491 42.6009132,64.4872156 C42.6009132,65.2291317 43.1598952,65.8273353 43.8531587,65.8273353 C44.5464222,65.8273353 45.1055539,65.2291317 45.1055539,64.4872156" id="Fill-50" fill="#F05068"></path>
                            <path d="M48.7058234,64.4872156 C48.7058234,63.7454491 48.1468413,63.1472455 47.4535778,63.1472455 C46.7601647,63.1472455 46.2011826,63.7454491 46.2011826,64.4872156 C46.2011826,65.2291317 46.7601647,65.8273353 47.4535778,65.8273353 C48.1468413,65.8273353 48.7058234,65.2291317 48.7058234,64.4872156" id="Fill-52" fill="#F05068"></path>
                            <path d="M32.4926946,67.8016916 C32.4926946,67.0599251 31.9337126,66.4617216 31.2404491,66.4617216 C30.5470359,66.4617216 29.9880539,67.0599251 29.9880539,67.8016916 C29.9880539,68.5436078 30.5470359,69.1418114 31.2404491,69.1418114 C31.9337126,69.1418114 32.4926946,68.5436078 32.4926946,67.8016916" id="Fill-54" fill="#F05068"></path>
                            <path d="M36.0926796,67.8016916 C36.0926796,67.0599251 35.5336976,66.4617216 34.8402844,66.4617216 C34.147021,66.4617216 33.5880389,67.0599251 33.5880389,67.8016916 C33.5880389,68.5436078 34.147021,69.1418114 34.8402844,69.1418114 C35.5336976,69.1418114 36.0926796,68.5436078 36.0926796,67.8016916" id="Fill-56" fill="#F05068"></path>
                            <path d="M39.6938323,67.8016916 C39.6938323,67.0599251 39.1347006,66.4617216 38.4414371,66.4617216 C37.7481737,66.4617216 37.1891916,67.0599251 37.1891916,67.8016916 C37.1891916,68.5436078 37.7481737,69.1418114 38.4414371,69.1418114 C39.1347006,69.1418114 39.6938323,68.5436078 39.6938323,67.8016916" id="Fill-58" fill="#F05068"></path>
                            <path d="M46.9060629,67.8016916 C46.9060629,67.0599251 46.3470808,66.4617216 45.6536677,66.4617216 C44.9604042,66.4617216 44.4014222,67.0599251 44.4014222,67.8016916 C44.4014222,68.5436078 44.9604042,69.1418114 45.6536677,69.1418114 C46.3470808,69.1418114 46.9060629,68.5436078 46.9060629,67.8016916" id="Fill-60" fill="#F05068"></path>
                            <path d="M52.3065419,64.4872156 C52.3065419,63.7454491 51.7475599,63.1472455 51.0542964,63.1472455 C50.3608832,63.1472455 49.8019012,63.7454491 49.8019012,64.4872156 C49.8019012,65.2291317 50.3608832,65.8273353 51.0542964,65.8273353 C51.7475599,65.8273353 52.3065419,65.2291317 52.3065419,64.4872156" id="Fill-62" fill="#F05068"></path>
                            <path d="M50.5063323,67.8016916 C50.5063323,67.0599251 49.9473503,66.4617216 49.2540868,66.4617216 C48.5606737,66.4617216 48.0016916,67.0599251 48.0016916,67.8016916 C48.0016916,68.5436078 48.5606737,69.1418114 49.2540868,69.1418114 C49.9473503,69.1418114 50.5063323,68.5436078 50.5063323,67.8016916" id="Fill-64" fill="#F05068"></path>
                            <path d="M18.0790419,61.2088623 C18.0790419,60.4670958 17.5200599,59.8688922 16.8266467,59.8688922 C16.1333832,59.8688922 15.5744012,60.4670958 15.5744012,61.2088623 C15.5744012,61.9507784 16.1333832,62.548982 16.8266467,62.548982 C17.5200599,62.537006 18.0790419,61.9388024 18.0790419,61.2088623" id="Fill-66" fill="#F05068"></path>
                            <path d="M25.2801796,61.2088623 C25.2801796,60.4670958 24.7210479,59.8688922 24.0277844,59.8688922 C23.334521,59.8688922 22.7753892,60.4670958 22.7753892,61.2088623 C22.7753892,61.9507784 23.334521,62.548982 24.0277844,62.548982 C24.7210479,62.537006 25.2801796,61.9388024 25.2801796,61.2088623" id="Fill-68" fill="#F05068"></path>
                            <path d="M36.0926796,61.2088623 C36.0926796,60.4670958 35.5336976,59.8688922 34.8402844,59.8688922 C34.147021,59.8688922 33.5880389,60.4670958 33.5880389,61.2088623 C33.5880389,61.9507784 34.147021,62.548982 34.8402844,62.548982 C35.5336976,62.537006 36.0926796,61.9388024 36.0926796,61.2088623" id="Fill-70" fill="#F05068"></path>
                            <path d="M39.6938323,61.2088623 C39.6938323,60.4670958 39.1347006,59.8688922 38.4414371,59.8688922 C37.7481737,59.8688922 37.1891916,60.4670958 37.1891916,61.2088623 C37.1891916,61.9507784 37.7481737,62.548982 38.4414371,62.548982 C39.1347006,62.537006 39.6938323,61.9388024 39.6938323,61.2088623" id="Fill-72" fill="#F05068"></path>
                            <path d="M43.2938024,61.2088623 C43.2938024,60.4670958 42.7346707,59.8688922 42.0414072,59.8688922 C41.3481437,59.8688922 40.789012,60.4670958 40.789012,61.2088623 C40.789012,61.9507784 41.3481437,62.548982 42.0414072,62.548982 C42.7346707,62.537006 43.2938024,61.9388024 43.2938024,61.2088623" id="Fill-74" fill="#F05068"></path>
                            <path d="M23.479521,57.918518 C23.479521,57.1766018 22.9205389,56.5783982 22.2272754,56.5783982 C21.534012,56.5783982 20.9748802,57.1766018 20.9748802,57.918518 C20.9748802,58.6602844 21.534012,59.2586377 22.2272754,59.2586377 C22.9205389,59.2586377 23.479521,58.6602844 23.479521,57.918518" id="Fill-76" fill="#F05068"></path>
                            <path d="M18.0790419,54.6280389 C18.0790419,53.8862725 17.5200599,53.2880689 16.8266467,53.2880689 C16.1333832,53.2880689 15.5744012,53.8862725 15.5744012,54.6280389 C15.5744012,55.3699551 16.1333832,55.9681587 16.8266467,55.9681587 C17.5200599,55.9681587 18.0790419,55.3699551 18.0790419,54.6280389" id="Fill-78" fill="#F05068"></path>
                            <path d="M16.2785479,57.918518 C16.2785479,57.1766018 15.7194162,56.5783982 15.0261527,56.5783982 C14.3328892,56.5783982 13.7737575,57.1766018 13.7737575,57.918518 C13.7737575,58.6602844 14.3328892,59.2586377 15.0261527,59.2586377 C15.7194162,59.2586377 16.2785479,58.6602844 16.2785479,57.918518" id="Fill-80" fill="#F05068"></path>
                            <path d="M25.2801796,54.6280389 C25.2801796,53.8862725 24.7210479,53.2880689 24.0277844,53.2880689 C23.334521,53.2880689 22.7753892,53.8862725 22.7753892,54.6280389 C22.7753892,55.3699551 23.334521,55.9681587 24.0277844,55.9681587 C24.7210479,55.9681587 25.2801796,55.3699551 25.2801796,54.6280389" id="Fill-82" fill="#F05068"></path>
                            <path d="M36.0926796,54.6280389 C36.0926796,53.8862725 35.5336976,53.2880689 34.8402844,53.2880689 C34.147021,53.2880689 33.5880389,53.8862725 33.5880389,54.6280389 C33.5880389,55.3699551 34.147021,55.9681587 34.8402844,55.9681587 C35.5336976,55.9681587 36.0926796,55.3699551 36.0926796,54.6280389" id="Fill-84" fill="#F05068"></path>
                            <path d="M39.6938323,54.6280389 C39.6938323,53.8862725 39.1347006,53.2880689 38.4414371,53.2880689 C37.7481737,53.2880689 37.1891916,53.8862725 37.1891916,54.6280389 C37.1891916,55.3699551 37.7481737,55.9681587 38.4414371,55.9681587 C39.1347006,55.9681587 39.6938323,55.3699551 39.6938323,54.6280389" id="Fill-86" fill="#F05068"></path>
                            <path d="M27.0799401,57.918518 C27.0799401,57.1766018 26.5208084,56.5783982 25.8275449,56.5783982 C25.1342814,56.5783982 24.5752994,57.1766018 24.5752994,57.918518 C24.5752994,58.6602844 25.1342814,59.2586377 25.8275449,59.2586377 C26.5208084,59.2586377 27.0799401,58.6602844 27.0799401,57.918518" id="Fill-88" fill="#F05068"></path>
                            <path d="M34.2921707,57.918518 C34.2921707,57.1766018 33.7331886,56.5783982 33.0397754,56.5783982 C32.346512,56.5783982 31.7875299,57.1766018 31.7875299,57.918518 C31.7875299,58.6602844 32.346512,59.2586377 33.0397754,59.2586377 C33.7331886,59.2586377 34.2921707,58.6602844 34.2921707,57.918518" id="Fill-90" fill="#F05068"></path>
                            <path d="M37.8933234,57.918518 C37.8933234,57.1766018 37.3341916,56.5783982 36.6409281,56.5783982 C35.9476647,56.5783982 35.3885329,57.1766018 35.3885329,57.918518 C35.3885329,58.6602844 35.9476647,59.2586377 36.6409281,59.2586377 C37.3341916,59.2586377 37.8933234,58.6602844 37.8933234,57.918518" id="Fill-92" fill="#F05068"></path>
                            <path d="M45.1055539,57.918518 C45.1055539,57.1766018 44.5464222,56.5783982 43.8531587,56.5783982 C43.1598952,56.5783982 42.6009132,57.1766018 42.6009132,57.918518 C42.6009132,58.6602844 43.1598952,59.2586377 43.8531587,59.2586377 C44.5464222,59.2586377 45.1055539,58.6602844 45.1055539,57.918518" id="Fill-94" fill="#F05068"></path>
                            <path d="M46.950509,61.2088623 C46.950509,60.4670958 46.3913772,59.8688922 45.6981138,59.8688922 C45.0048503,59.8688922 44.4458683,60.4670958 44.4458683,61.2088623 C44.4458683,61.9507784 45.0048503,62.548982 45.6981138,62.548982 C46.3913772,62.537006 46.950509,61.9388024 46.950509,61.2088623" id="Fill-96" fill="#F05068"></path>
                            <path d="M50.5509132,61.2088623 C50.5509132,60.4670958 49.9917814,59.8688922 49.298518,59.8688922 C48.6052545,59.8688922 48.0461228,60.4670958 48.0461228,61.2088623 C48.0461228,61.9507784 48.6052545,62.548982 49.298518,62.548982 C49.9917814,62.537006 50.5509132,61.9388024 50.5509132,61.2088623" id="Fill-98" fill="#F05068"></path>
                            <path d="M54.1627395,61.2088623 C54.1627395,60.4670958 53.6037575,59.8688922 52.9103443,59.8688922 C52.2172305,59.8688922 51.6580988,60.4670958 51.6580988,61.2088623 C51.6580988,61.9507784 52.2172305,62.548982 52.9103443,62.548982 C53.5923802,62.537006 54.1627395,61.9388024 54.1627395,61.2088623" id="Fill-100" fill="#F05068"></path>
                            <path d="M50.5509132,54.6280389 C50.5509132,53.8862725 49.9917814,53.2880689 49.298518,53.2880689 C48.6052545,53.2880689 48.0461228,53.8862725 48.0461228,54.6280389 C48.0461228,55.3699551 48.6052545,55.9681587 49.298518,55.9681587 C49.9917814,55.9681587 50.5509132,55.3699551 50.5509132,54.6280389" id="Fill-102" fill="#F05068"></path>
                            <path d="M54.1627395,54.6280389 C54.1627395,53.8862725 53.6037575,53.2880689 52.9103443,53.2880689 C52.2172305,53.2880689 51.6580988,53.8862725 51.6580988,54.6280389 C51.6580988,55.3699551 52.2172305,55.9681587 52.9103443,55.9681587 C53.5923802,55.9681587 54.1627395,55.3699551 54.1627395,54.6280389" id="Fill-104" fill="#F05068"></path>
                            <path d="M48.751003,57.918518 C48.751003,57.1766018 48.192021,56.5783982 47.4987575,56.5783982 C46.8053443,56.5783982 46.2463623,57.1766018 46.2463623,57.918518 C46.2463623,58.6602844 46.8053443,59.2586377 47.4987575,59.2586377 C48.192021,59.2586377 48.751003,58.6602844 48.751003,57.918518" id="Fill-106" fill="#F05068"></path>
                            <path d="M52.3514222,57.918518 C52.3514222,57.1766018 51.7922904,56.5783982 51.0990269,56.5783982 C50.4057635,56.5783982 49.8466317,57.1766018 49.8466317,57.918518 C49.8466317,58.6602844 50.4057635,59.2586377 51.0990269,59.2586377 C51.7922904,59.2586377 52.3514222,58.6602844 52.3514222,57.918518" id="Fill-108" fill="#F05068"></path>
                            <path d="M55.9633832,57.918518 C55.9633832,57.1766018 55.4042515,56.5783982 54.710988,56.5783982 C54.0177246,56.5783982 53.4585928,57.1766018 53.4585928,57.918518 C53.4585928,58.6602844 54.0177246,59.2586377 54.710988,59.2586377 C55.4042515,59.2586377 55.9633832,58.6602844 55.9633832,57.918518" id="Fill-110" fill="#F05068"></path>
                            <path d="M40.8446557,34.8735479 C40.8446557,35.6153144 41.4037874,36.213518 42.0970509,36.213518 C42.7903144,36.213518 43.3492964,35.6153144 43.3492964,34.8735479 C43.3492964,34.1316317 42.7903144,33.5334281 42.0970509,33.5334281 C41.4037874,33.5334281 40.8446557,34.1316317 40.8446557,34.8735479" id="Fill-112" fill="#F05068"></path>
                            <path d="M42.6455838,38.1997156 C42.6455838,38.941482 43.2045659,39.5398353 43.8978293,39.5398353 C44.5912425,39.5398353 45.1502246,38.941482 45.1502246,38.1997156 C45.1502246,37.4579491 44.5912425,36.8595958 43.8978293,36.8595958 C43.2045659,36.8715719 42.6455838,37.4697754 42.6455838,38.1997156" id="Fill-114" fill="#F05068"></path>
                            <path d="M46.2463024,38.1997156 C46.2463024,38.941482 46.8052844,39.5398353 47.4986976,39.5398353 C48.1919611,39.5398353 48.7509431,38.941482 48.7509431,38.1997156 C48.7509431,37.4579491 48.1919611,36.8595958 47.4986976,36.8595958 C46.8166617,36.8715719 46.2463024,37.4697754 46.2463024,38.1997156" id="Fill-116" fill="#F05068"></path>
                            <path d="M39.0453144,38.1997156 C39.0453144,38.941482 39.6042964,39.5398353 40.2975599,39.5398353 C40.9909731,39.5398353 41.5499551,38.941482 41.5499551,38.1997156 C41.5499551,37.4579491 40.9909731,36.8595958 40.2975599,36.8595958 C39.6042964,36.8715719 39.0453144,37.4697754 39.0453144,38.1997156" id="Fill-118" fill="#F05068"></path>
                            <path d="M35.4441766,38.1997156 C35.4441766,38.941482 36.0031587,39.5398353 36.6965719,39.5398353 C37.3898353,39.5398353 37.9488174,38.941482 37.9488174,38.1997156 C37.9488174,37.4579491 37.3898353,36.8595958 36.6965719,36.8595958 C36.0031587,36.8715719 35.4441766,37.4697754 35.4441766,38.1997156" id="Fill-120" fill="#F05068"></path>
                            <path d="M31.8329341,38.1997156 C31.8329341,38.941482 32.3920659,39.5398353 33.0853293,39.5398353 C33.7785928,39.5398353 34.3377246,38.941482 34.3377246,38.1997156 C34.3377246,37.4579491 33.7785928,36.8595958 33.0853293,36.8595958 C32.4032934,36.8715719 31.8329341,37.4697754 31.8329341,38.1997156" id="Fill-122" fill="#F05068"></path>
                            <path d="M28.2319311,38.1997156 C28.2319311,38.941482 28.7909132,39.5398353 29.4841766,39.5398353 C30.1775898,39.5398353 30.7365719,38.941482 30.7365719,38.1997156 C30.7365719,37.4579491 30.1775898,36.8595958 29.4841766,36.8595958 C28.7909132,36.8715719 28.2319311,37.4697754 28.2319311,38.1997156" id="Fill-124" fill="#F05068"></path>
                            <path d="M24.631512,38.1997156 C24.631512,38.941482 25.1906437,39.5398353 25.8839072,39.5398353 C26.5771707,39.5398353 27.1363024,38.941482 27.1363024,38.1997156 C27.1363024,37.4579491 26.5771707,36.8595958 25.8839072,36.8595958 C25.1906437,36.8715719 24.631512,37.4697754 24.631512,38.1997156" id="Fill-126" fill="#F05068"></path>
                            <path d="M21.0308084,38.1997156 C21.0308084,38.941482 21.5899401,39.5398353 22.2832036,39.5398353 C22.9764671,39.5398353 23.5354491,38.941482 23.5354491,38.1997156 C23.5354491,37.4579491 22.9764671,36.8595958 22.2832036,36.8595958 C21.5899401,36.8715719 21.0308084,37.4697754 21.0308084,38.1997156" id="Fill-128" fill="#F05068"></path>
                            <path d="M37.2446707,34.8735479 C37.2446707,35.6153144 37.8036527,36.213518 38.4970659,36.213518 C39.1903293,36.213518 39.7493114,35.6153144 39.7493114,34.8735479 C39.7493114,34.1316317 39.1903293,33.5334281 38.4970659,33.5334281 C37.8036527,33.5334281 37.2446707,34.1316317 37.2446707,34.8735479" id="Fill-130" fill="#F05068"></path>
                            <path d="M33.6436677,34.8735479 C33.6436677,35.6153144 34.2026497,36.213518 34.8959132,36.213518 C35.5893263,36.213518 36.1483084,35.6153144 36.1483084,34.8735479 C36.1483084,34.1316317 35.5893263,33.5334281 34.8959132,33.5334281 C34.2026497,33.5334281 33.6436677,34.1316317 33.6436677,34.8735479" id="Fill-132" fill="#F05068"></path>
                            <path d="M26.4321707,34.8735479 C26.4321707,35.6153144 26.9911527,36.213518 27.6844162,36.213518 C28.3776796,36.213518 28.9368114,35.6153144 28.9368114,34.8735479 C28.9368114,34.1316317 28.3776796,33.5334281 27.6844162,33.5334281 C26.9911527,33.5334281 26.4321707,34.1316317 26.4321707,34.8735479" id="Fill-134" fill="#F05068"></path>
                            <path d="M44.4457934,41.4543862 C44.4457934,42.1961527 45.0047754,42.794506 45.6980389,42.794506 C46.3913024,42.794506 46.9504341,42.1961527 46.9504341,41.4543862 C46.9504341,40.7124701 46.3913024,40.1142665 45.6980389,40.1142665 C45.0047754,40.1142665 44.4457934,40.7124701 44.4457934,41.4543862" id="Fill-136" fill="#F05068"></path>
                            <path d="M40.8446557,41.4543862 C40.8446557,42.1961527 41.4037874,42.794506 42.0970509,42.794506 C42.7903144,42.794506 43.3492964,42.1961527 43.3492964,41.4543862 C43.3492964,40.7124701 42.7903144,40.1142665 42.0970509,40.1142665 C41.4037874,40.1142665 40.8446557,40.7124701 40.8446557,41.4543862" id="Fill-138" fill="#F05068"></path>
                            <path d="M42.6455838,44.7686976 C42.6455838,45.5104641 43.2045659,46.1088174 43.8978293,46.1088174 C44.5912425,46.1088174 45.1502246,45.5104641 45.1502246,44.7686976 C45.1502246,44.0267814 44.5912425,43.4285778 43.8978293,43.4285778 C43.2045659,43.4285778 42.6455838,44.0267814 42.6455838,44.7686976" id="Fill-140" fill="#F05068"></path>
                            <path d="M46.2463024,44.7686976 C46.2463024,45.5104641 46.8052844,46.1088174 47.4986976,46.1088174 C48.1919611,46.1088174 48.7509431,45.5104641 48.7509431,44.7686976 C48.7509431,44.0267814 48.1919611,43.4285778 47.4986976,43.4285778 C46.8166617,43.4285778 46.2463024,44.0267814 46.2463024,44.7686976" id="Fill-142" fill="#F05068"></path>
                            <path d="M48.0573204,41.4543862 C48.0573204,42.1961527 48.6163024,42.794506 49.3097156,42.794506 C50.002979,42.794506 50.5619611,42.1961527 50.5619611,41.4543862 C50.5619611,40.7124701 50.002979,40.1142665 49.3097156,40.1142665 C48.6163024,40.1142665 48.0573204,40.7124701 48.0573204,41.4543862" id="Fill-144" fill="#F05068"></path>
                            <path d="M49.8578293,44.7686976 C49.8578293,45.5104641 50.4168114,46.1088174 51.1102246,46.1088174 C51.803488,46.1088174 52.3624701,45.5104641 52.3624701,44.7686976 C52.3624701,44.0267814 51.803488,43.4285778 51.1102246,43.4285778 C50.4168114,43.4285778 49.8578293,44.0267814 49.8578293,44.7686976" id="Fill-146" fill="#F05068"></path>
                            <path d="M39.0453144,44.7686976 C39.0453144,45.5104641 39.6042964,46.1088174 40.2975599,46.1088174 C40.9909731,46.1088174 41.5499551,45.5104641 41.5499551,44.7686976 C41.5499551,44.0267814 40.9909731,43.4285778 40.2975599,43.4285778 C39.6042964,43.4285778 39.0453144,44.0267814 39.0453144,44.7686976" id="Fill-148" fill="#F05068"></path>
                            <path d="M35.4441766,44.7686976 C35.4441766,45.5104641 36.0031587,46.1088174 36.6965719,46.1088174 C37.3898353,46.1088174 37.9488174,45.5104641 37.9488174,44.7686976 C37.9488174,44.0267814 37.3898353,43.4285778 36.6965719,43.4285778 C36.0031587,43.4285778 35.4441766,44.0267814 35.4441766,44.7686976" id="Fill-150" fill="#F05068"></path>
                            <path d="M28.2319311,44.7686976 C28.2319311,45.5104641 28.7909132,46.1088174 29.4841766,46.1088174 C30.1775898,46.1088174 30.7365719,45.5104641 30.7365719,44.7686976 C30.7365719,44.0267814 30.1775898,43.4285778 29.4841766,43.4285778 C28.7909132,43.4285778 28.2319311,44.0267814 28.2319311,44.7686976" id="Fill-152" fill="#F05068"></path>
                            <path d="M24.631512,44.7686976 C24.631512,45.5104641 25.1906437,46.1088174 25.8839072,46.1088174 C26.5771707,46.1088174 27.1363024,45.5104641 27.1363024,44.7686976 C27.1363024,44.0267814 26.5771707,43.4285778 25.8839072,43.4285778 C25.1906437,43.4285778 24.631512,44.0267814 24.631512,44.7686976" id="Fill-154" fill="#F05068"></path>
                            <path d="M21.0308084,44.7686976 C21.0308084,45.5104641 21.5899401,46.1088174 22.2832036,46.1088174 C22.9764671,46.1088174 23.5354491,45.5104641 23.5354491,44.7686976 C23.5354491,44.0267814 22.9764671,43.4285778 22.2832036,43.4285778 C21.5899401,43.4285778 21.0308084,44.0267814 21.0308084,44.7686976" id="Fill-156" fill="#F05068"></path>
                            <path d="M37.2446707,41.4543862 C37.2446707,42.1961527 37.8036527,42.794506 38.4970659,42.794506 C39.1903293,42.794506 39.7493114,42.1961527 39.7493114,41.4543862 C39.7493114,40.7124701 39.1903293,40.1142665 38.4970659,40.1142665 C37.8036527,40.1142665 37.2446707,40.7124701 37.2446707,41.4543862" id="Fill-158" fill="#F05068"></path>
                            <path d="M33.6436677,41.4543862 C33.6436677,42.1961527 34.2026497,42.794506 34.8959132,42.794506 C35.5893263,42.794506 36.1483084,42.1961527 36.1483084,41.4543862 C36.1483084,40.7124701 35.5893263,40.1142665 34.8959132,40.1142665 C34.2026497,40.1142665 33.6436677,40.7124701 33.6436677,41.4543862" id="Fill-160" fill="#F05068"></path>
                            <path d="M22.8313174,41.4543862 C22.8313174,42.1961527 23.3904491,42.794506 24.0837126,42.794506 C24.776976,42.794506 25.3361078,42.1961527 25.3361078,41.4543862 C25.3361078,40.7124701 24.776976,40.1142665 24.0837126,40.1142665 C23.3904491,40.1142665 22.8313174,40.7124701 22.8313174,41.4543862" id="Fill-162" fill="#F05068"></path>
                            <path d="M17.4305389,44.7686976 C17.4305389,45.5104641 17.989521,46.1088174 18.6827844,46.1088174 C19.3761976,46.1088174 19.9351796,45.5104641 19.9351796,44.7686976 C19.9351796,44.0267814 19.3761976,43.4285778 18.6827844,43.4285778 C17.989521,43.4285778 17.4305389,44.0267814 17.4305389,44.7686976" id="Fill-164" fill="#F05068"></path>
                            <path d="M48.0573204,48.0472006 C48.0573204,48.7891168 48.6163024,49.3873204 49.3097156,49.3873204 C50.002979,49.3873204 50.5619611,48.7891168 50.5619611,48.0472006 C50.5619611,47.3052844 50.002979,46.7070808 49.3097156,46.7070808 C48.6163024,46.7190569 48.0573204,47.3172605 48.0573204,48.0472006" id="Fill-166" fill="#F05068"></path>
                            <path d="M51.6580389,48.0472006 C51.6580389,48.7891168 52.2171707,49.3873204 52.9102844,49.3873204 C53.6036976,49.3873204 54.1626796,48.7891168 54.1626796,48.0472006 C54.1626796,47.3052844 53.6036976,46.7070808 52.9102844,46.7070808 C52.2171707,46.7190569 51.6580389,47.3172605 51.6580389,48.0472006" id="Fill-168" fill="#F05068"></path>
                            <path d="M40.8446557,48.0472006 C40.8446557,48.7891168 41.4037874,49.3873204 42.0970509,49.3873204 C42.7903144,49.3873204 43.3492964,48.7891168 43.3492964,48.0472006 C43.3492964,47.3052844 42.7903144,46.7070808 42.0970509,46.7070808 C41.4037874,46.7190569 40.8446557,47.3172605 40.8446557,48.0472006" id="Fill-170" fill="#F05068"></path>
                            <path d="M37.2446707,48.0472006 C37.2446707,48.7891168 37.8036527,49.3873204 38.4970659,49.3873204 C39.1903293,49.3873204 39.7493114,48.7891168 39.7493114,48.0472006 C39.7493114,47.3052844 39.1903293,46.7070808 38.4970659,46.7070808 C37.8036527,46.7190569 37.2446707,47.3172605 37.2446707,48.0472006" id="Fill-172" fill="#F05068"></path>
                            <path d="M30.0324401,48.0472006 C30.0324401,48.7891168 30.5915719,49.3873204 31.2846856,49.3873204 C31.9780988,49.3873204 32.5372305,48.7891168 32.5372305,48.0472006 C32.5372305,47.3052844 31.9780988,46.7070808 31.2846856,46.7070808 C30.5915719,46.7190569 30.0324401,47.3172605 30.0324401,48.0472006" id="Fill-174" fill="#F05068"></path>
                            <path d="M26.4321707,48.0472006 C26.4321707,48.7891168 26.9911527,49.3873204 27.6844162,49.3873204 C28.3776796,49.3873204 28.9368114,48.7891168 28.9368114,48.0472006 C28.9368114,47.3052844 28.3776796,46.7070808 27.6844162,46.7070808 C26.9911527,46.7190569 26.4321707,47.3172605 26.4321707,48.0472006" id="Fill-176" fill="#F05068"></path>
                            <path d="M53.4585329,51.3375449 C53.4585329,52.0794611 54.0176647,52.6776647 54.7109281,52.6776647 C55.4041916,52.6776647 55.9633234,52.0794611 55.9633234,51.3375449 C55.9633234,50.5957784 55.4041916,49.9975749 54.7109281,49.9975749 C54.0176647,49.9975749 53.4585329,50.5957784 53.4585329,51.3375449" id="Fill-178" fill="#F05068"></path>
                            <path d="M35.4441766,51.3375449 C35.4441766,52.0794611 36.0031587,52.6776647 36.6965719,52.6776647 C37.3898353,52.6776647 37.9488174,52.0794611 37.9488174,51.3375449 C37.9488174,50.5957784 37.3898353,49.9975749 36.6965719,49.9975749 C36.0031587,49.9975749 35.4441766,50.5957784 35.4441766,51.3375449" id="Fill-180" fill="#F05068"></path>
                            <path d="M22.7865719,48.0472006 C22.7865719,48.7891168 23.3455539,49.3873204 24.0389671,49.3873204 C24.7322305,49.3873204 25.2912126,48.7891168 25.2912126,48.0472006 C25.2912126,47.3052844 24.7322305,46.7070808 24.0389671,46.7070808 C23.3455539,46.7190569 22.7865719,47.3172605 22.7865719,48.0472006" id="Fill-182" fill="#F05068"></path>
                            <path d="M19.1743114,48.0472006 C19.1743114,48.7891168 19.7332934,49.3873204 20.4265569,49.3873204 C21.1199701,49.3873204 21.6789521,48.7891168 21.6789521,48.0472006 C21.6789521,47.3052844 21.1199701,46.7070808 20.4265569,46.7070808 C19.7332934,46.7190569 19.1743114,47.3172605 19.1743114,48.0472006" id="Fill-184" fill="#F05068"></path>
                            <path d="M20.9748204,51.3375449 C20.9748204,52.0794611 21.5339521,52.6776647 22.2272156,52.6776647 C22.920479,52.6776647 23.4794611,52.0794611 23.4794611,51.3375449 C23.4794611,50.5957784 22.920479,49.9975749 22.2272156,49.9975749 C21.5451796,49.9975749 20.9748204,50.5957784 20.9748204,51.3375449" id="Fill-186" fill="#F05068"></path>
                            <path d="M13.7736976,51.3375449 C13.7736976,52.0794611 14.3328293,52.6776647 15.0260928,52.6776647 C15.7193563,52.6776647 16.278488,52.0794611 16.278488,51.3375449 C16.278488,50.5957784 15.7193563,49.9975749 15.0260928,49.9975749 C14.3328293,49.9975749 13.7736976,50.5957784 13.7736976,51.3375449" id="Fill-188" fill="#F05068"></path>
                            <path d="M19.878518,51.3375449 C19.878518,50.5957784 19.3193862,49.9975749 18.6261228,49.9975749 C17.9328593,49.9975749 17.3738772,50.5957784 17.3738772,51.3375449 C17.3738772,52.0794611 17.9328593,52.6776647 18.6261228,52.6776647 C19.3193862,52.6776647 19.878518,52.067485 19.878518,51.3375449" id="Fill-190" fill="#F05068"></path>
                            <path d="M27.0799401,51.3375449 C27.0799401,50.5957784 26.5208084,49.9975749 25.8275449,49.9975749 C25.1342814,49.9975749 24.5752994,50.5957784 24.5752994,51.3375449 C24.5752994,52.0794611 25.1342814,52.6776647 25.8275449,52.6776647 C26.5208084,52.6776647 27.0799401,52.067485 27.0799401,51.3375449" id="Fill-192" fill="#F05068"></path>
                            <path d="M30.6919012,51.3375449 C30.6919012,50.5957784 30.1327695,49.9975749 29.439506,49.9975749 C28.7462425,49.9975749 28.1871108,50.5957784 28.1871108,51.3375449 C28.1871108,52.0794611 28.7462425,52.6776647 29.439506,52.6776647 C30.1327695,52.6776647 30.6919012,52.067485 30.6919012,51.3375449" id="Fill-194" fill="#F05068"></path>
                            <path d="M34.2921707,51.3375449 C34.2921707,50.5957784 33.7331886,49.9975749 33.0397754,49.9975749 C32.346512,49.9975749 31.7875299,50.5957784 31.7875299,51.3375449 C31.7875299,52.0794611 32.346512,52.6776647 33.0397754,52.6776647 C33.7331886,52.6776647 34.2921707,52.067485 34.2921707,51.3375449" id="Fill-196" fill="#F05068"></path>
                            <path d="M41.4931587,51.3375449 C41.4931587,50.5957784 40.9341766,49.9975749 40.2409132,49.9975749 C39.5476497,49.9975749 38.988518,50.5957784 38.988518,51.3375449 C38.988518,52.0794611 39.5476497,52.6776647 40.2409132,52.6776647 C40.9341766,52.6776647 41.4931587,52.067485 41.4931587,51.3375449" id="Fill-198" fill="#F05068"></path>
                            <path d="M45.1055539,51.3375449 C45.1055539,50.5957784 44.5464222,49.9975749 43.8531587,49.9975749 C43.1598952,49.9975749 42.6009132,50.5957784 42.6009132,51.3375449 C42.6009132,52.0794611 43.1598952,52.6776647 43.8531587,52.6776647 C44.5464222,52.6776647 45.1055539,52.067485 45.1055539,51.3375449" id="Fill-200" fill="#F05068"></path>
                            <path d="M52.3514222,51.3375449 C52.3514222,50.5957784 51.7922904,49.9975749 51.0990269,49.9975749 C50.4057635,49.9975749 49.8466317,50.5957784 49.8466317,51.3375449 C49.8466317,52.0794611 50.4057635,52.6776647 51.0990269,52.6776647 C51.7922904,52.6776647 52.3514222,52.067485 52.3514222,51.3375449" id="Fill-202" fill="#F05068"></path>
                            <path d="M21.7239072,54.6280389 C21.7239072,53.8862725 21.1647754,53.2880689 20.471512,53.2880689 C19.7782485,53.2880689 19.2191168,53.8862725 19.2191168,54.6280389 C19.2191168,55.3699551 19.7782485,55.9681587 20.471512,55.9681587 C21.1647754,55.9681587 21.7239072,55.3699551 21.7239072,54.6280389" id="Fill-204" fill="#F05068"></path>
                            <path d="M32.5372904,54.6280389 C32.5372904,53.8862725 31.9781587,53.2880689 31.2847455,53.2880689 C30.5916317,53.2880689 30.0325,53.8862725 30.0325,54.6280389 C30.0325,55.3699551 30.5916317,55.9681587 31.2847455,55.9681587 C31.9781587,55.9681587 32.5372904,55.3699551 32.5372904,54.6280389" id="Fill-206" fill="#F05068"></path>
                            <path d="M43.3493563,54.6280389 C43.3493563,53.8862725 42.7903743,53.2880689 42.0971108,53.2880689 C41.4038473,53.2880689 40.8447156,53.8862725 40.8447156,54.6280389 C40.8447156,55.3699551 41.4038473,55.9681587 42.0971108,55.9681587 C42.7903743,55.9681587 43.3493563,55.3699551 43.3493563,54.6280389" id="Fill-208" fill="#F05068"></path>
                            <path d="M46.950509,54.6280389 C46.950509,53.8862725 46.3913772,53.2880689 45.6981138,53.2880689 C45.0048503,53.2880689 44.4458683,53.8862725 44.4458683,54.6280389 C44.4458683,55.3699551 45.0048503,55.9681587 45.6981138,55.9681587 C46.3913772,55.9681587 46.950509,55.3699551 46.950509,54.6280389" id="Fill-210" fill="#F05068"></path>
                            <path d="M19.878518,57.918518 C19.878518,57.1766018 19.3193862,56.5783982 18.6261228,56.5783982 C17.9328593,56.5783982 17.3738772,57.1766018 17.3738772,57.918518 C17.3738772,58.6602844 17.9328593,59.2586377 18.6261228,59.2586377 C19.3193862,59.2586377 19.878518,58.6602844 19.878518,57.918518" id="Fill-212" fill="#F05068"></path>
                            <path d="M30.6919012,57.918518 C30.6919012,57.1766018 30.1327695,56.5783982 29.439506,56.5783982 C28.7462425,56.5783982 28.1871108,57.1766018 28.1871108,57.918518 C28.1871108,58.6602844 28.7462425,59.2586377 29.439506,59.2586377 C30.1327695,59.2586377 30.6919012,58.6602844 30.6919012,57.918518" id="Fill-214" fill="#F05068"></path>
                            <path d="M21.7690719,61.197021 C21.7690719,60.4551048 21.2099401,59.8569012 20.5166766,59.8569012 C19.8234132,59.8569012 19.2642814,60.4551048 19.2642814,61.197021 C19.2642814,61.9389371 19.8234132,62.5371407 20.5166766,62.5371407 C21.2099401,62.5371407 21.7690719,61.9389371 21.7690719,61.197021" id="Fill-216" fill="#F05068"></path>
                            <path d="M64.8335778,7.71648204 C66.7498952,3.17441617 71.1275898,0.000913173653 76.2193563,0.000913173653 C83.0783383,0.000913173653 88.0181587,5.86842814 88.6392665,12.8613922 C88.6392665,12.8613922 88.9744461,14.5973204 88.2365719,17.7224701 C87.2319311,21.9786078 84.8702545,25.7598952 81.6862725,28.6458234 L64.8335778,43.6817515 L48.2648653,28.6447754 C45.0808832,25.7598952 42.7190569,21.9777096 41.7144162,17.7215719 C40.9766916,14.5962725 41.3118713,12.860494 41.3118713,12.860494 C41.9328293,5.86752994 46.8726497,1.49700599e-05 53.7317814,1.49700599e-05 C58.8244461,1.49700599e-05 62.9172605,3.17441617 64.8335778,7.71648204" id="Fill-218" fill="#FF6786"></path>
                        </g>
                    </g>
                </g>
            </g>
        </g>
    </g>
</svg>