<?xml version="1.0" encoding="UTF-8"?>
<svg width="141px" height="119px" viewBox="0 0 141 119" version="1.1" xmlns="http://www.w3.org/2000/svg" xmlns:xlink="http://www.w3.org/1999/xlink">
    <!-- Generator: sketchtool 56.3 (101010) - https://sketch.com -->
    <title>0AF41E57-800A-4981-BCCF-0D00F7444410</title>
    <desc>Created with sketchtool.</desc>
    <defs>
        <polygon id="path-1" points="0.0266120219 0.0198724954 75.4164688 0.0198724954 75.4164688 75.4098361 0.0266120219 75.4098361"></polygon>
    </defs>
    <g id="WD---Site-vitrine" stroke="none" stroke-width="1" fill="none" fill-rule="evenodd">
        <g id="Desktop---Home-HD" transform="translate(-649.000000, -2482.000000)">
            <g id="Group-35" transform="translate(-0.168592, 2140.000000)">
                <g id="Group-10" transform="translate(649.168592, 342.000000)">
                    <g id="Group-63" transform="translate(0.000000, 0.000128)">
                        <path d="M134.119707,72.4341241 C157.846267,43.3387102 114.594895,26.5750455 53.5720657,26.5750455 C-7.45076335,26.5750455 -10.0743854,77.0311536 17.6685934,106.72538 C45.4115722,136.419605 110.393148,101.529538 134.119707,72.4341241 Z" id="Path-5-Copy-3" fill="#585AFA"></path>
                        <g id="Group-40" transform="translate(0.727678, 0.000000)">
                            <g id="Group-3" transform="translate(27.379790, 24.567996)">
                                <mask id="mask-2" fill="white">
                                    <use xlink:href="#path-1"></use>
                                </mask>
                                <g id="Clip-2"></g>
                                <path d="M59.3737887,0.0198724954 C59.1823497,32.7171403 32.7236976,59.1757923 0.0266120219,59.3670492 C10.1195082,72.12898 26.6439162,77.960674 42.510765,74.3617668 C58.3783424,70.7621311 70.7688707,58.3717851 74.3683242,42.5040255 C77.9672313,26.6371767 72.1357195,10.1127687 59.3737887,0.0198724954" id="Fill-1" fill="#292188" mask="url(#mask-2)"></path>
                            </g>
                            <path d="M86.753579,24.5878689 C69.9410107,11.2667395 45.813324,12.66 30.6459288,27.8273953 C15.4783514,42.9949727 14.085273,67.1226594 27.4064024,83.9350455 C60.103488,83.7437887 86.5621401,57.2851366 86.753579,24.5878689" id="Fill-4" fill="#3B35B9"></path>
                            <path d="M80.934763,32.9432605 C77.7143623,34.4004554 75.9371309,32.6815118 73.6487885,34.4004554 C70.8218304,36.5279599 69.6855827,42.0365209 72.1915936,46.0580146 C73.9653641,48.8913479 77.1458741,49.6020947 80.7369488,50.3862477 C84.371375,42.9301457 86.4063477,34.797541 86.71163,26.5082878 C85.6520672,29.2966302 83.5930508,31.5906193 80.934763,32.9432605" id="Fill-6" fill="#D5F2FF"></path>
                            <path d="M87.2139251,24.949326 C87.0822311,25.4808379 86.9122858,26.0016029 86.705182,26.5083424 C86.4006282,34.7974135 84.3649269,42.9302004 80.7312293,50.3861202 L80.9346901,50.4296539 C85.933233,51.5225501 87.8713022,49.2057923 92.5922493,50.4296539 C94.6984424,51.0336612 96.6743987,52.0220036 98.4210289,53.3440437 C100.445437,55.0139891 101.941612,57.2360291 102.727222,59.7398543 C102.75928,59.0680874 102.792631,58.3965027 102.792631,57.7156284 C102.804089,45.0036066 97.0798632,32.9653552 87.2139251,24.949326" id="Fill-8" fill="#8CD3FF"></path>
                            <path d="M59.0768395,75.2019126 C61.9620854,78.3931694 62.7198268,83.7849727 60.5340344,86.8594718 C58.7566209,89.3662113 56.3232876,88.5059199 54.7052548,91.2310565 C53.4813932,93.5057377 53.4813932,96.2430783 54.7052548,98.517031 C54.9300271,98.9283242 55.1983331,99.3132058 55.5058013,99.6667577 C57.1742894,99.8682149 58.8533422,99.9705829 60.5340344,99.9742274 C75.9442348,99.9784153 90.1333058,91.5911658 97.5600818,78.0886157 C94.9098085,76.3153916 90.7693714,73.96949 86.7635426,73.7447177 C82.6580781,73.3434426 78.5398632,74.3729508 75.1059834,76.6591075 C70.8076228,79.8068306 69.9624497,84.2660291 67.8200089,83.945082 C66.3045262,83.7266849 65.4741073,81.2782332 64.9056191,79.5734973 C63.6041619,75.6915301 64.3099907,73.0645719 64.2979688,70.8873406 C62.5185517,72.31102 60.6593532,73.6316029 58.7289342,74.8418033 C58.8790253,74.9891621 59.0028869,75.1193989 59.0768395,75.2019126" id="Fill-10" fill="#8CD3FF"></path>
                            <path d="M63.4484242,67.9159381 C61.9478778,65.8175774 59.1500636,65.4241348 56.1624497,65.0015483 C49.8968759,64.1270492 47.4342166,66.8230419 44.5048905,65.0015483 C42.1178231,63.4119308 40.957896,60.5139344 41.5905007,57.7155738 C42.8150909,54.0583789 48.162814,55.2971767 54.7052548,50.4295993 C56.8185517,48.8705829 61.8453277,45.1259563 61.9912293,40.229235 C62.1371309,35.4350638 57.4595353,34.0653005 56.1624497,28.5716758 C55.5988796,26.2051913 56.65061,20.7627505 59.3160016,15.5010018 C43.6289342,15.9443534 29.4812111,25.0467213 22.5744716,39.137796 L22.5744716,39.151275 C21.6394989,44.3283242 21.6642712,49.6334244 22.646967,54.801184 C23.5364024,60.6740437 24.3517029,66.0070128 28.4757466,70.8303279 C30.2830326,72.9578324 33.0657284,76.1929872 37.218916,76.6591075 C41.823834,77.1693078 47.9003368,74.2257741 48.8764752,73.7447177 C50.1821218,72.8873406 51.6890435,72.3849727 53.2480599,72.2875228 C55.3313022,72.4204918 57.2881328,73.3319672 58.7289342,74.8418033 C60.659171,73.6316029 62.5185517,72.31102 64.2979688,70.8871585 C64.3471492,69.8306922 64.0489707,68.7867942 63.4484242,67.9159381" id="Fill-12" fill="#D5F2FF"></path>
                            <path d="M93.8805371,9.38907104 C96.2122311,3.86247723 101.538825,0.00109289617 107.734271,0.00109289617 C116.079991,0.00109289617 122.090555,7.14043716 122.846111,15.6491803 C122.846111,15.6491803 123.254125,17.7613843 122.356311,21.5639344 C121.133907,26.742623 118.260319,31.3435337 114.386184,34.8550091 L93.8805371,53.1500911 L73.7204279,34.8537341 C69.8462931,31.3435337 66.9725226,26.7415301 65.7501182,21.5628415 C64.8524861,17.7601093 65.2603186,15.6480874 65.2603186,15.6480874 C66.0158741,7.13934426 72.0264388,-1.98951966e-13 80.3723404,-1.98951966e-13 C86.5688796,-1.98951966e-13 91.5488432,3.86247723 93.8805371,9.38907104" id="Fill-14" fill="#FF6786"></path>
                        </g>
                    </g>
                </g>
            </g>
        </g>
    </g>
</svg>