<?xml version="1.0" encoding="UTF-8"?>
<svg width="595px" height="565px" viewBox="0 0 595 565" version="1.1" xmlns="http://www.w3.org/2000/svg" xmlns:xlink="http://www.w3.org/1999/xlink">
    <!-- Generator: sketchtool 56.3 (101010) - https://sketch.com -->
    <title>0A9C6F00-873C-400F-A200-AA98FCEF2226</title>
    <desc>Created with sketchtool.</desc>
    <g id="WD---Site-vitrine" stroke="none" stroke-width="1" fill="none" fill-rule="evenodd">
        <g id="Desktop---Home-HD" transform="translate(-36.000000, -2225.000000)">
            <g id="Group-35" transform="translate(-0.168592, 2140.000000)">
                <g id="Group-46" transform="translate(0.000000, 37.829521)">
                    <path d="M393.165069,199.792791 C372.282619,116.671588 306.800577,40.1385131 243.658411,54.8188062 C180.516245,69.4990994 212.846795,155.068982 167.006651,186.142161 C121.166507,217.21534 31.0643857,228.358686 56.4145255,320.965224 C81.7646654,413.571762 301.758217,437.593549 367.664986,375.70517 C433.571756,313.81679 414.047519,282.913993 393.165069,199.792791 Z" id="Path-2-Copy-3" fill="#8CD3FF" transform="translate(232.500000, 231.500000) rotate(159.000000) translate(-232.500000, -231.500000) "></path>
                    <path d="M592.254795,307.10601 C564.315118,188.361435 476.70341,79.0284707 392.222341,100.000318 C307.741271,120.972166 350.997935,243.214854 289.666108,287.605111 C228.334281,331.995367 107.782135,347.914433 141.699358,480.209487 C175.616582,612.504541 469.956984,646.82138 558.136956,558.409409 C646.316928,469.997438 620.194472,425.850584 592.254795,307.10601 Z" id="Path-2-Copy-4" fill="#F8F8F8" transform="translate(377.292943, 352.402023) rotate(92.000000) translate(-377.292943, -352.402023) "></path>
                    <path d="M423.55963,565.359486 C442.067511,536.759742 373.578631,496.498251 325.97783,496.498251 C278.377028,496.498251 246.320445,530.997778 281.684986,583.485953 C317.049527,635.974127 405.051749,593.959231 423.55963,565.359486 Z" id="Path-5-Copy-3" fill="#FBAA95" transform="translate(346.657388, 552.498251) rotate(36.000000) translate(-346.657388, -552.498251) "></path>
                </g>
            </g>
        </g>
    </g>
</svg>