<?xml version="1.0" encoding="UTF-8"?>
<svg width="60px" height="64px" viewBox="0 0 60 64" version="1.1" xmlns="http://www.w3.org/2000/svg" xmlns:xlink="http://www.w3.org/1999/xlink">
    <!-- Generator: sketchtool 56.3 (101010) - https://sketch.com -->
    <title>436F0FAD-3C83-42BC-A413-775FCD8C3A51</title>
    <desc>Created with sketchtool.</desc>
    <defs>
        <polygon id="path-1" points="0.065275 0.1038 0.315275 0.1038 0.315275 0.25 0.065275 0.25"></polygon>
        <polygon id="path-3" points="0.089175 0.11375 0.339175 0.11375 0.339175 0.25 0.089175 0.25"></polygon>
        <polygon id="path-5" points="0.050425 0.0849 0.300425 0.0849 0.300425 0.25 0.050425 0.25"></polygon>
        <polygon id="path-7" points="5.39422392e-05 0.0300980163 34.412344 0.0300980163 34.412344 12.882147 5.39422392e-05 12.882147"></polygon>
        <polygon id="path-9" points="0.065275 0.1038 0.315275 0.1038 0.315275 0.25 0.065275 0.25"></polygon>
        <polygon id="path-11" points="3.99399055e-05 0.0301330222 34.41233 0.0301330222 34.41233 12.882147 3.99399055e-05 12.882147"></polygon>
        <polygon id="path-13" points="2.0530059e-05 0.0532368728 7.3001867 0.0532368728 7.3001867 10.361727 2.0530059e-05 10.361727"></polygon>
    </defs>
    <g id="WD---Site-vitrine" stroke="none" stroke-width="1" fill="none" fill-rule="evenodd">
        <g id="Desktop---Home-HD" transform="translate(-570.000000, -1652.000000)">
            <g id="Group-51" transform="translate(331.000000, 1652.000000)">
                <g id="Group-52" transform="translate(239.000000, 0.000000)">
                    <path d="M20.6958529,63 C37.2643954,63 60,38.944915 60,22.3763725 C60,5.80783002 45.614073,3 35.0409918,3 C24.4679107,3 3.55271368e-15,9.73956362 3.55271368e-15,33 C3.55271368e-15,56.2604364 4.12731045,63 20.6958529,63 Z" id="Oval-Copy-3" fill="#585AFA" transform="translate(30.000000, 33.000000) rotate(-180.000000) translate(-30.000000, -33.000000) "></path>
                    <g id="Group-60" transform="translate(0.000000, 0.000000)">
                        <path d="M56.297825,5.76615403 L28.8011622,5.76615403 C26.9497736,5.76615403 25.4489335,7.26699417 25.4489335,9.11838273 L25.4489335,18.6261774 C25.4489335,20.4774959 26.9497736,21.9784061 28.8011622,21.9784061 L28.7801587,21.9784061 L25.4489335,28.4188495 L36.7193419,21.9784061 L56.297825,21.9784061 C58.1492135,21.9784061 59.6500537,20.4774959 59.6500537,18.6261774 L59.6500537,9.11838273 C59.6500537,7.26699417 58.1492135,5.76615403 56.297825,5.76615403" id="Fill-1" fill="#3B35B9"></path>
                        <path d="M9.03154026,0 L36.528203,0 C38.3795216,0 39.8804317,1.69190198 39.8804317,3.77887981 L39.8804317,14.4967561 C39.8804317,16.583734 38.3795216,18.2755659 36.528203,18.2755659 L36.5491365,18.2755659 L39.8804317,25.535706 L28.6100233,18.2755659 L9.03154026,18.2755659 C7.18015169,18.2755659 5.67924154,16.583734 5.67924154,14.4967561 L5.67924154,3.77887981 C5.67924154,1.69190198 7.18015169,0 9.03154026,0" id="Fill-3" fill="#FF6786"></path>
                        <path d="M33.1328541,5.74273512 L11.6375216,5.74273512 C11.3317806,5.74273512 11.0840793,6.03622404 11.0840793,6.3983944 C11.0840793,6.76063477 11.3317806,7.05412369 11.6375216,7.05412369 L33.1328541,7.05412369 C33.4385251,7.05412369 33.6862264,6.76063477 33.6862264,6.3983944 C33.6862264,6.03622404 33.4385251,5.74273512 33.1328541,5.74273512" id="Fill-5" fill="#FBAA95"></path>
                        <path d="M33.1328541,8.69327888 L11.6375216,8.69327888 C11.3317806,8.69327888 11.0840793,8.98676779 11.0840793,9.34900817 C11.0840793,9.71117853 11.3317806,10.0046674 11.6375216,10.0046674 L33.1328541,10.0046674 C33.4385251,10.0046674 33.6862264,9.71117853 33.6862264,9.34900817 C33.6862264,8.98676779 33.4385251,8.69327888 33.1328541,8.69327888" id="Fill-7" fill="#FBAA95"></path>
                        <path d="M33.1328541,11.4565484 L11.6375216,11.4565484 C11.3317806,11.4565484 11.0840793,11.7500373 11.0840793,12.1122077 C11.0840793,12.4743781 11.3317806,12.767867 11.6375216,12.767867 L33.1328541,12.767867 C33.4385251,12.767867 33.6862264,12.4743781 33.6862264,12.1122077 C33.6862264,11.7500373 33.4385251,11.4565484 33.1328541,11.4565484" id="Fill-9" fill="#FBAA95"></path>
                        <path d="M21.497923,48.8414142 L21.497923,50.994273 L21.4971529,50.994273 L17.2195099,53.8528495 L17.2195099,53.8514492 L17.2173396,53.8542497 L17.2111085,53.8584504 L17.2061377,53.8514492 L17.2061377,53.861951 L17.1949358,53.8542497 L12.9151225,50.994273 L12.9144224,50.994273 L12.9144224,48.9282287 C13.0054376,48.989839 13.0965228,49.0535496 13.1854376,49.1186604 C13.230175,49.1515659 13.2742824,49.1844014 13.3184597,49.2173769 C13.3624971,49.2502824 13.4059743,49.283888 13.4493116,49.3181937 C13.5018203,49.3594306 13.55993,49.4043081 13.6230105,49.4525461 C13.6481447,49.4715193 13.674119,49.4911225 13.7006534,49.5114259 C13.7405601,49.5415309 13.7825671,49.572266 13.8252742,49.6038413 C13.8686814,49.6353466 13.9135589,49.6675519 13.9589965,49.7004574 C13.9898716,49.722161 14.0213069,49.7444947 14.0528121,49.7669685 C14.0689848,49.7781704 14.0850175,49.7893722 14.1011902,49.8005741 C14.1333956,49.8229778 14.1669312,49.8460817 14.1999067,49.8684854 C14.2167095,49.8803874 14.2334422,49.8915893 14.2509452,49.9027911 C14.3013536,49.9370268 14.3538623,49.9714026 14.4063711,50.0064084 C14.423874,50.0183104 14.442147,50.0295123 14.4596499,50.0407141 C14.4952859,50.063818 14.531762,50.0869218 14.568168,50.1100257 C14.6227071,50.1442614 14.6787865,50.1786371 14.7347258,50.2122427 C14.771902,50.2345764 14.8097083,50.2570502 14.8482147,50.2794539 C14.8670478,50.2906558 14.886021,50.3017876 14.9049242,50.3130595 L15.0203734,50.3781704 C15.6364761,50.7198273 16.3029872,50.9900023 16.854049,50.9752999 C16.854049,50.9752999 18.6945858,51.2659183 20.5722987,49.5688355 C20.8635473,49.3055916 21.1743991,49.0640513 21.497923,48.8414142" id="Fill-11" fill="#1A0F5B"></path>
                        <path d="M12.6588168,35.2341284 L15.3217806,35.2341284 C15.5645111,35.2341284 15.8057713,35.1974422 16.0368098,35.1232299 C16.5193302,34.9685041 17.286168,34.6833466 17.8668448,34.4627398 C18.3845811,34.265937 18.9550362,34.2589358 19.4776733,34.4424364 L22.2806604,35.4264504 C24.1664247,36.1192859 24.3588168,37.8896709 24.3588168,37.8896709 L24.3588168,42.8929148 C24.3588168,42.8929148 24.606238,41.2227165 25.4615006,39.8509778 C25.6692252,39.5179323 25.7828541,39.1348285 25.7828541,38.742273 L25.7828541,34.4259137 C25.7828541,34.4259137 25.5134492,32.3091809 23.4352229,31.8088075 C23.4352229,31.8088075 24.281944,30.006077 22.0881984,29.5796359 L14.0058413,29.5796359 C11.0512789,29.5796359 8.6561797,31.9747351 8.6561797,34.9292975 L8.6561797,38.1006861 C8.6561797,38.7879207 8.88623804,39.4566021 9.31659977,39.9922614 C9.6551762,40.4138716 10.0067048,41.0766721 10.0610338,42.0356219 L10.0610338,37.8319113 C10.5805204,35.5035333 12.6588168,35.2341284 12.6588168,35.2341284" id="Fill-13" fill="#FBAA95"></path>
                        <path d="M16.853839,50.9751949 C16.853839,50.9751949 18.6949358,51.2658833 20.5720187,49.5690105 C20.8635473,49.3054866 21.174119,49.0641564 21.4976429,48.8413092 C21.5295683,48.8192555 21.5608635,48.7964317 21.5929988,48.7748681 C22.4241074,48.2167351 24.0205834,46.6688471 24.3587398,42.8931179 L24.3587398,37.889874 C24.3587398,37.889874 24.1663477,36.1194889 22.2805834,35.4266534 L19.4775963,34.4426394 C18.9549592,34.2591389 18.3845041,34.26614 17.8667678,34.4629428 C17.286091,34.6836196 16.5192532,34.9687071 16.0367328,35.1234329 C15.8056943,35.1975753 15.5644341,35.2343314 15.3217036,35.2343314 L12.6587398,35.2343314 C12.6587398,35.2343314 10.5805134,35.5037363 10.0609568,37.8321144 L10.0609568,42.035825 L10.0609568,43.0086371 C10.0609568,43.0086371 10.1514119,47.0977386 12.8586931,48.8897573 C12.8775963,48.9024294 12.8957993,48.9159417 12.9145624,48.9287538 C13.0974329,49.0521144 13.2756826,49.1826161 13.4491715,49.3187888 C14.1313652,49.8543081 15.7309218,51.0047398 16.853839,50.9751949" id="Fill-15" fill="#292188"></path>
                        <polygon id="Fill-17" fill="#E56353" points="17.3482964 63.7041914 17.2145741 63.8379137 17.2103734 63.8302124"></polygon>
                        <polygon id="Fill-19" fill="#E56353" points="17.201986 63.8301984 17.1977853 63.8378996 17.064063 63.7041774"></polygon>
                        <g id="Group-23" transform="translate(17.152859, 63.776289)">
                            <mask id="mask-2" fill="white">
                                <use xlink:href="#path-1"></use>
                            </mask>
                            <g id="Clip-22"></g>
                            <polygon id="Fill-21" fill="#E56353" mask="url(#mask-2)" points="0.212775 0.227425 0.190275 0.250175 0.167775 0.227425 0.190275 0.207425"></polygon>
                        </g>
                        <polygon id="Fill-24" fill="#E56353" points="17.2349329 53.8658086 17.2349329 53.8679086 17.2319329 53.8698086"></polygon>
                        <polygon id="Fill-26" fill="#E56353" points="17.2271243 53.8742163 17.2201243 53.8792163 17.2201243 53.8641163"></polygon>
                        <g id="Group-30" transform="translate(17.152859, 63.776289)">
                            <mask id="mask-4" fill="white">
                                <use xlink:href="#path-3"></use>
                            </mask>
                            <g id="Clip-29"></g>
                            <polygon id="Fill-28" fill="#3A556A" mask="url(#mask-4)" points="0.237925 0.250125 0.190425 0.250125 0.212675 0.227375"></polygon>
                        </g>
                        <g id="Group-33" transform="translate(17.152859, 63.776289)">
                            <mask id="mask-6" fill="white">
                                <use xlink:href="#path-5"></use>
                            </mask>
                            <g id="Clip-32"></g>
                            <polygon id="Fill-31" fill="#2F4859" mask="url(#mask-6)" points="0.1903 0.2074 0.1678 0.2274 0.16055 0.22015 0.1753 0.1924"></polygon>
                        </g>
                        <g id="Group-36" transform="translate(0.000000, 50.964154)">
                            <mask id="mask-8" fill="white">
                                <use xlink:href="#path-7"></use>
                            </mask>
                            <g id="Clip-35"></g>
                            <path d="M34.3905368,11.0226301 L33.6133372,6.33184831 C33.4040723,5.06673746 32.5275263,4.01306184 31.3219253,3.57688915 L29.9840023,3.0924084 L28.6453792,3.57688915 C27.4390782,4.01306184 26.5625321,5.06673746 26.3531972,6.33184831 L25.5761377,11.0226301 C25.4150408,11.9964924 26.166266,12.88221 27.1534306,12.88221 L32.8131739,12.88221 C33.8003384,12.88221 34.5515636,11.9964924 34.3905368,11.0226301 L34.3905368,11.0226301 Z M17.2145741,12.8737386 L17.2103734,12.8660373 L17.3482964,12.7400163 L17.2145741,12.8737386 Z M23.8068728,0.857705951 L21.497958,0.0300980163 L21.4971879,0.0300980163 L17.2194749,2.88867445 L17.2173746,2.89007468 L17.2110735,2.89427538 L17.2061727,2.89777596 L17.1949708,2.89007468 L12.9151575,0.0300980163 L12.9144574,0.0300980163 L10.6061727,0.857705951 L3.09112019,3.57688915 C1.88481914,4.01306184 1.00827305,5.06673746 0.798938156,6.33184831 L0.0218786464,11.0226301 C-0.139218203,11.9964924 0.612007001,12.88221 1.59917153,12.88221 L17.2061727,12.88221 L17.1998716,12.875839 L17.1978413,12.8737386 L17.064049,12.7400163 L17.201972,12.8660373 L17.2061727,12.8703081 L17.2124737,12.875839 L17.2194749,12.88221 L24.2829522,12.88221 C23.2957876,12.88221 22.5445624,11.9964924 22.7056593,11.0226301 L23.4827188,6.33184831 C23.6920537,5.06673746 24.5685998,4.01306184 25.7749008,3.57688915 L28.5487631,2.57362194 L23.8068728,0.857705951 Z" id="Fill-34" fill="#292188" mask="url(#mask-8)"></path>
                        </g>
                        <path d="M48.5086838,42.6554982 L48.4249498,43.2696406 C48.2595123,44.484133 47.6667235,45.6106908 46.7554516,46.4415193 L45.6352649,47.4629195 L47.1206324,47.7663501 C48.0081004,47.9478203 48.8268168,48.1806791 49.560189,48.4591155 C49.8286838,48.5350082 50.5547748,48.6396056 51.0677503,47.7760117 C51.1046464,47.7136313 51.1416126,47.6636429 51.1785088,47.6235263 C52.5821027,45.4344714 53.3479603,42.756035 53.3479603,39.9906441 C53.3479603,33.0132112 48.5374586,27.3365951 42.6246931,27.3365951 C36.7120677,27.3365951 31.9016359,33.0132112 31.9016359,39.9906441 C31.9016359,42.7871902 32.6849265,45.4941914 34.1191855,47.6962684 C34.1343781,47.7175519 34.1496406,47.7406558 34.1649732,47.76572 C34.2113909,47.8360117 34.2585088,47.9057433 34.3061867,47.9749148 C34.8424761,48.6706908 35.5300607,48.510014 35.7285438,48.444203 C35.7470968,48.4371319 35.766,48.4302707 35.7847631,48.4234096 L35.7849732,48.4233396 C36.4932812,48.1610058 37.2797223,47.9403291 38.1295239,47.7667001 L39.6147515,47.4631295 L38.4945648,46.4416593 C37.5831529,45.6110408 36.990154,44.4843431 36.8248565,43.2695006 L36.7411225,42.6554982 L36.7640163,38.6013326 L36.7732579,38.0597923 C37.4594422,37.8576686 40.4846464,36.8796756 42.6100607,34.7985788 C43.1107841,35.3831062 44.9884971,37.3154982 48.4770385,38.0705741 L48.48593,38.6014026" id="Fill-37" fill="#FBAA95"></path>
                        <path d="M47.052182,48.8414142 L47.052182,50.994273 L47.0514119,50.994273 L42.773769,53.8528495 L42.773769,53.8514492 L42.7715986,53.8542497 L42.7653676,53.8584504 L42.7603967,53.8514492 L42.7603967,53.861951 L42.7491949,53.8542497 L38.4693816,50.994273 L38.4686814,50.994273 L38.4686814,48.9282287 C38.5596966,48.989839 38.6507818,49.0535496 38.7396966,49.1186604 C38.7844341,49.1515659 38.8285414,49.1844014 38.8727188,49.2173769 C38.9167561,49.2502824 38.9602334,49.283888 39.0035706,49.3181937 C39.0560793,49.3594306 39.114189,49.4043081 39.1772695,49.4525461 C39.2024037,49.4715193 39.2283781,49.4911225 39.2549125,49.5114259 C39.2948191,49.5415309 39.3368261,49.572266 39.3795333,49.6038413 C39.4229405,49.6353466 39.467818,49.6675519 39.5132555,49.7004574 C39.5441307,49.722161 39.5755659,49.7444947 39.6070712,49.7669685 C39.6232439,49.7781704 39.6392765,49.7893722 39.6554492,49.8005741 C39.6876546,49.8229778 39.7211902,49.8460817 39.7541657,49.8684854 C39.7709685,49.8803874 39.7877013,49.8915893 39.8052042,49.9027911 C39.8556126,49.9370268 39.9081214,49.9714026 39.9606301,50.0064084 C39.978133,50.0183104 39.9964061,50.0295123 40.013909,50.0407141 C40.0495449,50.063818 40.086021,50.0869218 40.1224271,50.1100257 C40.1769662,50.1442614 40.2330455,50.1786371 40.2889848,50.2122427 C40.326161,50.2345764 40.3639673,50.2570502 40.4024737,50.2794539 C40.4213069,50.2906558 40.44028,50.3017876 40.4591832,50.3130595 L40.5746324,50.3781704 C41.1907351,50.7198273 41.8572462,50.9900023 42.4083081,50.9752999 C42.4083081,50.9752999 44.2488448,51.2659183 46.1265578,49.5688355 C46.4178063,49.3055916 46.7286581,49.0640513 47.052182,48.8414142" id="Fill-39" fill="#292188"></path>
                        <path d="M42.408098,50.9751949 C42.408098,50.9751949 44.2491949,51.2658833 46.1262777,49.5690105 C46.4178063,49.3054866 46.7283781,49.0641564 47.051902,48.8413092 C47.0838273,48.8192555 47.1151225,48.7964317 47.1472579,48.7748681 C47.9783664,48.2167351 49.5748425,46.6688471 49.9129988,42.8931179 L49.9129988,37.889874 C49.9129988,37.889874 49.7206068,36.1194889 47.8348425,35.4266534 L45.0318553,34.4426394 C44.5092182,34.2591389 43.9387631,34.26614 43.4210268,34.4629428 C42.8403501,34.6836196 42.0735123,34.9687071 41.5909918,35.1234329 C41.3599533,35.1975753 41.1186931,35.2343314 40.8759627,35.2343314 L38.2129988,35.2343314 C38.2129988,35.2343314 36.1347725,35.5037363 35.6152159,37.8321144 L35.6152159,42.035825 L35.6152159,43.0086371 C35.6152159,43.0086371 35.7056709,47.0977386 38.4129522,48.8897573 C38.4318553,48.9024294 38.4500583,48.9159417 38.4688215,48.9287538 C38.6516919,49.0521144 38.8299417,49.1826161 39.0034306,49.3187888 C39.6856243,49.8543081 41.2851809,51.0047398 42.408098,50.9751949" id="Fill-41" fill="#3B35B9"></path>
                        <polygon id="Fill-43" fill="#E56353" points="42.9025554 63.7041914 42.7688331 63.8379137 42.7646324 63.8302124"></polygon>
                        <polygon id="Fill-45" fill="#E56353" points="42.756245 63.8301984 42.7520443 63.8378996 42.6183221 63.7041774"></polygon>
                        <g id="Group-49" transform="translate(42.707118, 63.776289)">
                            <mask id="mask-10" fill="white">
                                <use xlink:href="#path-9"></use>
                            </mask>
                            <g id="Clip-48"></g>
                            <polygon id="Fill-47" fill="#E56353" mask="url(#mask-10)" points="0.212775 0.227425 0.190275 0.250175 0.167775 0.227425 0.190275 0.207425"></polygon>
                        </g>
                        <polygon id="Fill-50" fill="#E56353" points="42.7891919 53.8658086 42.7891919 53.8679086 42.7861919 53.8698086"></polygon>
                        <polygon id="Fill-52" fill="#E56353" points="42.7813763 53.8742163 42.7743763 53.8792163 42.7743763 53.8641163"></polygon>
                        <g id="Group-56" transform="translate(25.554259, 50.964154)">
                            <mask id="mask-12" fill="white">
                                <use xlink:href="#path-11"></use>
                            </mask>
                            <g id="Clip-55"></g>
                            <path d="M17.2145601,12.8737736 L17.2103594,12.8660723 L17.3482824,12.7400513 L17.2145601,12.8737736 Z M34.3905228,11.0226651 L33.6133232,6.33188331 C33.4040583,5.06670245 32.5275123,4.01302684 31.3219113,3.57692415 L23.8068588,0.857670945 L21.497944,0.0301330222 L21.4971739,0.0301330222 L20.4953069,0.699374562 L17.2194609,2.88870945 L17.2173606,2.89003967 L17.2110595,2.89431039 L17.2061587,2.89781097 L17.1949568,2.89003967 L15.7709195,1.93865111 L12.9151435,0.0301330222 L12.9144434,0.0301330222 L11.0465321,0.699374562 L10.6061587,0.857670945 L4.42972929,3.09244341 L3.0911762,3.57692415 C1.88480513,4.01302684 1.00832905,5.06670245 0.798924154,6.33188331 L0.0218646441,11.0226651 C-0.139232205,11.9965274 0.611992999,12.882175 1.59915753,12.882175 L17.2061587,12.882175 L17.1998576,12.875804 L17.1978273,12.8737736 L17.064105,12.7400513 L17.201958,12.8660723 L17.2061587,12.870273 L17.2124597,12.875804 L17.2194609,12.882175 L32.8131599,12.882175 C33.8003244,12.882175 34.5515496,11.9965274 34.3905228,11.0226651 L34.3905228,11.0226651 Z" id="Fill-54" fill="#3B35B9" mask="url(#mask-12)"></path>
                        </g>
                        <g id="Group-59" transform="translate(22.683781, 53.484574)">
                            <mask id="mask-14" fill="white">
                                <use xlink:href="#path-13"></use>
                            </mask>
                            <g id="Clip-58"></g>
                            <path d="M7.3001867,0.572023337 L5.96163361,1.05650408 C4.75526254,1.49260677 3.87878646,2.54628238 3.66945158,3.81146324 L2.89232205,8.50224504 C2.7312252,9.47610735 3.48252042,10.361755 4.46961494,10.361755 L1.59913652,10.361755 C0.612042007,10.361755 -0.139253209,9.47610735 0.0218436406,8.50224504 L0.798973162,3.81146324 C1.00830805,2.54628238 1.88478413,1.49260677 3.09115519,1.05650408 L5.86494749,0.0532368728 L7.3001867,0.572023337 Z" id="Fill-57" fill="#1A0F5B" mask="url(#mask-14)"></path>
                        </g>
                    </g>
                </g>
            </g>
        </g>
    </g>
</svg>