<?xml version="1.0" encoding="UTF-8"?>
<svg width="60px" height="60px" viewBox="0 0 60 60" version="1.1" xmlns="http://www.w3.org/2000/svg" xmlns:xlink="http://www.w3.org/1999/xlink">
    <!-- Generator: sketchtool 56.3 (101010) - https://sketch.com -->
    <title>1B165864-35CB-465F-9148-E73C5E101ACD</title>
    <desc>Created with sketchtool.</desc>
    <g id="WD---Site-vitrine" stroke="none" stroke-width="1" fill="none" fill-rule="evenodd">
        <g id="Desktop---Home-HD" transform="translate(-810.000000, -1655.000000)">
            <g id="Group-51" transform="translate(331.000000, 1652.000000)">
                <g id="Group-57" transform="translate(479.000000, 3.000000)">
                    <path d="M20.6958529,60 C37.2643954,60 60,35.944915 60,19.3763725 C60,2.80783002 45.614073,0 35.0409918,0 C24.4679107,0 3.55271368e-15,6.73956362 3.55271368e-15,30 C3.55271368e-15,53.2604364 4.12731045,60 20.6958529,60 Z" id="Oval-Copy-7" fill="#585AFA" transform="translate(30.000000, 30.000000) scale(1, -1) rotate(-90.000000) translate(-30.000000, -30.000000) "></path>
                    <g id="Group-37" transform="translate(0.000000, -0.000000)">
                        <path d="M60,19.8267146 C60,24.3985719 56.2755749,28.1176471 51.6973588,28.1176471 L27.8961867,28.1176471 C24.404978,28.1176471 21.363879,25.954897 20.1176471,22.9006151 C21.5220282,23.9452904 23.2607905,24.5644042 25.1285745,24.5644042 L48.9296488,24.5644042 C53.5080604,24.5644042 57.2324855,20.8453291 57.2324855,16.2733741 C57.2324855,15.1545184 57.0063066,14.0631876 56.5910915,13.0588235 C58.6937535,14.6065593 60,17.1365025 60,19.8267146" id="Fill-1" fill="#F05068"></path>
                        <path d="M58,17.8325666 C58,22.4012407 54.2769584,26.1176471 49.7003451,26.1176471 L25.9080142,26.1176471 C24.0410218,26.1176471 22.3028076,25.4990751 20.8990458,24.4550519 C18.8620426,22.9432471 17.5294118,20.5374293 17.5294118,17.8325666 C17.5294118,15.5837814 18.4067262,13.421803 20.0192887,11.835871 C21.3946176,10.4865608 23.2283896,9.68169545 25.1255736,9.51598214 C26.0977619,6.69905089 28.7773865,4.73428987 31.8364089,4.73428987 C32.4054566,4.73428987 32.9508592,4.80539347 33.4962617,4.92360685 C34.5634216,3.26666879 36.0336244,1.94105982 37.7646082,1.13619446 C39.2111658,0.378731485 40.8237282,0 42.5073239,0 C46.7607212,0 50.4757508,2.48940605 52.2155283,6.08750147 C52.8328434,7.36346472 53.2012002,8.77987951 53.2573819,10.2734451 C54.2478416,10.7389835 55.1189028,11.4002761 55.8364657,12.1987041 C56.4752765,12.9105204 56.9913668,13.731089 57.3589419,14.6203228 C57.7740029,15.6239661 58,16.7145138 58,17.8325666" id="Fill-3" fill="#FF6786"></path>
                        <path d="M32.8235294,21.1663118 L32.8235294,30.6489929 L26.8894807,30.6489929 C26.6509171,30.6482117 26.4227259,30.7458706 26.2588235,30.9190198 C26.0952147,31.0922668 26.0107683,31.325281 26.0256418,31.5628851 L27.3210088,52.2008518 L27.5977347,56.614449 C27.6500856,57.5238489 28.4038408,58.2345128 29.3166058,58.2352941 L1.72757993,58.2352941 C0.774793423,58.2322667 0.00264200839,57.4620308 0,56.5111259 L0,21.1663118 L7.77406076,13.4077012 L7.77406076,9.95907172 C7.77670277,9.00816681 8.54836492,8.23793091 9.50134713,8.23529412 L23.3217909,8.23529412 C24.2746752,8.23793091 25.0467288,9.00816681 25.0494687,9.95907172 L25.0494687,13.4077012 L32.8235294,21.1663118 Z" id="Fill-5" fill="#3B35B9"></path>
                        <polygon id="Fill-7" fill="#1A0F5B" points="32.8235294 21.1764706 17.2941176 21.1764706 25.0588724 13.4117647"></polygon>
                        <polygon id="Fill-9" fill="#292188" points="32.8235294 58.2352941 17.2941176 58.2352941 17.2941176 21.1764706 32.7689904 21.1764706 32.7689904 27.2093568"></polygon>
                        <polygon id="Fill-11" fill="#585AFA" points="25.0588235 13.4117647 17.2818595 21.1764706 0 21.1764706 7.77696403 13.4117647"></polygon>
                        <path d="M25.0588235,9.96042595 L25.0588235,13.4117647 L7.76470588,13.4117647 L7.76470588,9.96042595 C7.76735075,9.008774 8.5399466,8.23793298 9.49386296,8.23529412 L23.3292746,8.23529412 C24.283191,8.23793298 25.0561787,9.008774 25.0588235,9.96042595" id="Fill-13" fill="#3B35B9"></path>
                        <path d="M12.5824848,47.0588235 L4.59398578,47.0588235 C4.33095798,47.0588235 4.11764706,46.8463897 4.11764706,46.5843456 L4.11764706,27.1803603 C4.11764706,26.9183162 4.33095798,26.7058824 4.59398578,26.7058824 L12.5824848,26.7058824 C12.8456109,26.7058824 13.0588235,26.9183162 13.0588235,27.1803603 L13.0588235,46.5843456 C13.0588235,46.8463897 12.8456109,47.0588235 12.5824848,47.0588235" id="Fill-15" fill="#8CD3FF"></path>
                        <path d="M28.3529412,33.8191382 L28.3529412,31.3573324 C28.3529412,31.1020231 28.2178012,30.8661491 27.9985396,30.7384454 L25.8838134,29.5075425 C25.6645517,29.3798388 25.3942718,29.3798388 25.1750101,29.5075425 L23.060284,30.7384454 C22.8410223,30.8661491 22.7058824,31.1020231 22.7058824,31.3573324 L22.7058824,33.8191382 C22.7058824,34.0744475 22.8410223,34.3103215 23.060284,34.4380252 L25.1750101,35.6689281 C25.3942718,35.7966318 25.6645517,35.7966318 25.8838134,35.6689281 L27.9985396,34.4380252 C28.2178012,34.3103215 28.3529412,34.0744475 28.3529412,33.8191382" id="Fill-17" fill="#FF6786"></path>
                        <path d="M31.1266395,38.1176471 L20.049831,38.1176471 C19.8923548,38.1176471 19.7647059,38.3545697 19.7647059,38.6470086 C19.7647059,38.9395479 19.8923548,39.1764706 20.049831,39.1764706 L31.1266395,39.1764706 C31.2841158,39.1764706 31.4117647,38.9395479 31.4117647,38.6470086 C31.4117647,38.3545697 31.2841158,38.1176471 31.1266395,38.1176471" id="Fill-19" fill="#585AFA"></path>
                        <path d="M31.1266395,40.4705882 L20.049831,40.4705882 C19.8923548,40.4705882 19.7647059,40.7075334 19.7647059,40.9998996 C19.7647059,41.2924666 19.8923548,41.5294118 20.049831,41.5294118 L31.1266395,41.5294118 C31.2841158,41.5294118 31.4117647,41.2924666 31.4117647,40.9998996 C31.4117647,40.7075334 31.2841158,40.4705882 31.1266395,40.4705882" id="Fill-21" fill="#585AFA"></path>
                        <path d="M31.1266395,42.5882353 L20.049831,42.5882353 C19.8923548,42.5882353 19.7647059,42.825158 19.7647059,43.1175969 C19.7647059,43.4101361 19.8923548,43.6470588 20.049831,43.6470588 L31.1266395,43.6470588 C31.2841158,43.6470588 31.4117647,43.4101361 31.4117647,43.1175969 C31.4117647,42.825158 31.2841158,42.5882353 31.1266395,42.5882353" id="Fill-23" fill="#585AFA"></path>
                        <path d="M35.4965761,42.2352941 C35.1263359,42.2352941 34.8252905,41.9224744 34.8235294,41.5346594 C34.8218795,41.1460293 35.1218529,40.8294394 35.4936523,40.827809 L36.3826574,40.8235294 L36.3857761,40.8235294 C36.7561136,40.8235294 37.0571591,41.1364511 37.0588235,41.5241641 C37.0605701,41.9127943 36.7605967,42.2293842 36.3886998,42.2311164 L35.4996947,42.2352941 L35.4965761,42.2352941 Z" id="Fill-25" fill="#1EA4E9"></path>
                        <path d="M44.2352941,33.496606 C44.2352941,33.1262524 44.5481139,32.8251939 44.9359288,32.8235294 C45.324559,32.8217828 45.6411489,33.1217692 45.6427792,33.4936821 L45.6470588,34.3827257 L45.6470588,34.3858444 C45.6470588,34.7561005 45.3341372,35.0572565 44.9464241,35.0588235 C44.5576921,35.0605702 44.2412041,34.7605838 44.2394718,34.3887683 L44.2352941,33.4997247 L44.2352941,33.496606 Z" id="Fill-27" fill="#1EA4E9"></path>
                        <path d="M44.2352941,30.0848413 C44.2352941,29.7144877 44.5481139,29.4134292 44.9359288,29.4117647 C45.324559,29.4100181 45.6411489,29.7100045 45.6427792,30.0819174 L45.6470588,30.970961 L45.6470588,30.9740797 C45.6470588,31.3443358 45.3341372,31.6454918 44.9464241,31.6470588 C44.5576921,31.6488055 44.2412041,31.3488191 44.2394718,30.9770036 L44.2352941,30.08796 L44.2352941,30.0848413 Z" id="Fill-29" fill="#1EA4E9"></path>
                        <path d="M39.0268263,42.2352941 C38.6561264,42.2352941 38.354707,41.9338602 38.3529412,41.5602354 C38.3509991,41.1855301 38.6512475,40.8803639 39.0237038,40.8785959 L39.1497749,40.8779084 C39.3752783,40.8769262 39.6012697,40.8608183 39.8218942,40.8300758 C40.1899595,40.7784126 40.5307028,41.0382017 40.5818338,41.4092729 C40.6326721,41.780344 40.375163,42.1228334 40.0064147,42.1742019 C39.7268529,42.2129984 39.4405582,42.233428 39.1559224,42.2347048 L39.0300464,42.2352941 L39.0268263,42.2352941 Z" id="Fill-31" fill="#1EA4E9"></path>
                        <path d="M42.4268973,41.1764706 C42.217308,41.1764706 42.0110715,41.0767377 41.8825208,40.8906402 C41.67456,40.5891334 41.7490849,40.1752949 42.0494834,39.9661155 C42.2602221,39.8195457 42.4609986,39.6550874 42.6467361,39.4775494 C42.9111174,39.2243222 43.3299127,39.2346129 43.5821286,39.5001504 C43.8340572,39.765688 43.824095,40.1861626 43.5595221,40.4392937 C43.3245484,40.6642456 43.0701293,40.8723671 42.803449,41.0579837 C42.6883091,41.138097 42.5569805,41.1764706 42.4268973,41.1764706" id="Fill-33" fill="#1EA4E9"></path>
                        <path d="M44.5349114,38.3529412 C44.4620965,38.3529412 44.3881484,38.3400891 44.3158057,38.3131987 C43.9763808,38.186359 43.7994907,37.795756 43.9203766,37.4406444 C44.0051856,37.191908 44.0717673,36.9340764 44.1184217,36.6741687 C44.1851923,36.3036347 44.5266005,36.0598414 44.8800973,36.129539 C45.2340663,36.1993354 45.467055,36.5563255 45.4003789,36.9268595 C45.3410692,37.2565637 45.256638,37.5837963 45.1490684,37.8992643 C45.0540597,38.1786478 44.8028437,38.3529412 44.5349114,38.3529412" id="Fill-35" fill="#1EA4E9"></path>
                    </g>
                </g>
            </g>
        </g>
    </g>
</svg>