<?xml version="1.0" encoding="UTF-8"?>
<svg width="60px" height="77px" viewBox="0 0 60 77" version="1.1" xmlns="http://www.w3.org/2000/svg" xmlns:xlink="http://www.w3.org/1999/xlink">
    <!-- Generator: sketchtool 56.3 (101010) - https://sketch.com -->
    <title>CE40F773-A63F-472B-B207-526E417E50E8</title>
    <desc>Created with sketchtool.</desc>
    <defs>
        <polygon id="path-1" points="0.0306564143 0.0290017513 31.9379685 0.0290017513 31.9379685 39.2994746 0.0306564143 39.2994746"></polygon>
        <polygon id="path-3" points="0 65.31331 59.9940105 65.31331 59.9940105 0 0 0"></polygon>
    </defs>
    <g id="WD---Site-vitrine" stroke="none" stroke-width="1" fill="none" fill-rule="evenodd">
        <g id="Desktop---Home-HD" transform="translate(-810.000000, -1743.000000)">
            <g id="Group-51" transform="translate(331.000000, 1652.000000)">
                <g id="Group-58" transform="translate(479.000000, 91.000000)">
                    <path d="M25.1632146,75.0438154 C35.4179294,79.070318 60,77.9533975 60,61.3614348 C60,44.7694722 56.7312946,21.1209462 42.2746086,17.7169077 C27.8179226,14.3128692 5.28289736,23.4766251 0.706114749,35.7795436 C-3.87066786,48.082462 14.9084999,71.0173127 25.1632146,75.0438154 Z" id="Oval-Copy-6" fill="#585AFA" transform="translate(30.000000, 47.000000) scale(1, -1) translate(-30.000000, -47.000000) "></path>
                    <g id="Group-26" transform="translate(0.000000, -0.000000)">
                        <path d="M34.7465569,23.5982522 L13.9224588,23.5982522 C12.938711,23.5982522 12.1077478,24.3292855 11.9825989,25.3050473 L7.12690718,63.1080946 C6.97674956,64.2777268 7.88799299,65.3132785 9.06708231,65.3132785 L15.8075727,65.3132785 C16.7041051,65.3132785 17.4859965,64.7038214 17.7043503,63.833979 L24.3414431,37.4298809 L30.9784308,63.833979 C31.1970998,64.7038214 31.978676,65.3132785 32.8755236,65.3132785 L39.6152785,65.3132785 C40.7948932,65.3132785 41.7059264,64.2774116 41.5551384,63.1074641 L36.686732,25.3044168 C36.5610578,24.328655 35.7303047,23.5982522 34.7465569,23.5982522" id="Fill-1" fill="#292188"></path>
                        <path d="M13.9224799,23.5982522 C12.938732,23.5982522 12.1076637,24.3292855 11.98262,25.3050473 L7.1269282,63.1080946 C6.9766655,64.2777268 7.88790893,65.3132785 9.06710333,65.3132785 L15.8074886,65.3132785 C16.7041261,65.3132785 17.4860175,64.7038214 17.7043713,63.833979 L24.2942837,37.617972 L24.2942837,23.5982522 L13.9224799,23.5982522 Z" id="Fill-3" fill="#292188"></path>
                        <path d="M36.6867215,25.3044483 C36.5610473,24.3290018 35.7302942,23.5982837 34.7465464,23.5982837 L13.9224483,23.5982837 C12.9387005,23.5982837 12.1077373,24.329317 11.9825884,25.3050788 L11.5174046,28.9274606 L37.1532715,28.9274606 L36.6867215,25.3044483 Z" id="Fill-5" fill="#1A0F5B"></path>
                        <path d="M38.052641,35.9123853 L37.1532715,28.9274816 L31.0134116,28.9274816 C31.0134116,30.4513345 30.8488581,35.9108091 38.052641,35.9123853" id="Fill-7" fill="#3B35B9"></path>
                        <path d="M17.6697058,28.9275131 L11.5170263,28.9275131 L10.6201786,35.9124168 L10.6272189,35.9124168 C17.8341541,35.9124168 17.6697058,30.6840105 17.6697058,28.9275131" id="Fill-9" fill="#3B35B9"></path>
                        <path d="M13.9224799,23.5982522 C12.938732,23.5982522 12.1076637,24.3292855 11.98262,25.3050473 L11.517331,28.9275342 L24.3410438,28.9275342 L24.3410438,23.5982522 L13.9224799,23.5982522 Z" id="Fill-11" fill="#1A0F5B"></path>
                        <g id="Group-15" transform="translate(28.056042, 13.614536)">
                            <mask id="mask-2" fill="white">
                                <use xlink:href="#path-1"></use>
                            </mask>
                            <g id="Clip-14"></g>
                            <path d="M26.1402557,39.2994746 L5.82852189,39.2994746 C5.33748862,39.2994746 4.93955517,38.9015412 4.93955517,38.4105079 L4.93955517,34.0523643 C4.93955517,33.5615412 4.54151664,33.1633975 4.05058844,33.1633975 L0.919660245,33.1633975 C0.428837128,33.1633975 0.0306564143,32.7654641 0.0306564143,32.2745359 L0.0306564143,9.19859895 C0.0226024518,6.87246935 1.33829422,4.74378284 3.42263748,3.71064799 L10.5981541,0.122942207 C10.7216217,0.0612609457 10.8576988,0.0290017513 10.9956673,0.0290017513 L20.9730053,0.0290017513 C21.1110788,0.0290017513 21.2471559,0.0612609457 21.3705184,0.122942207 L28.5461401,3.71064799 C30.6303783,4.74378284 31.9460701,6.87246935 31.9380161,9.19859895 L31.9380161,32.2745359 C31.9380161,32.7654641 31.5400455,33.1633975 31.0490123,33.1633975 L27.9180841,33.1633975 C27.4271559,33.1633975 27.0291173,33.5615412 27.0291173,34.0523643 L27.0291173,38.4105079 C27.0291173,38.9015412 26.6311839,39.2994746 26.1402557,39.2994746" id="Fill-13" fill="#4C4CE0" mask="url(#mask-2)"></path>
                        </g>
                        <mask id="mask-4" fill="white">
                            <use xlink:href="#path-3"></use>
                        </mask>
                        <g id="Clip-17"></g>
                        <polygon id="Fill-16" fill="#3B35B9" mask="url(#mask-4)" points="42.8132049 52.9140105 45.2675306 52.9140105 45.2675306 19.7796147 42.8132049 19.7796147"></polygon>
                        <polygon id="Fill-18" fill="#1A0F5B" mask="url(#mask-4)" points="53.8579335 41.8691769 59.9940105 41.8691769 59.9940105 39.4147461 53.8579335 39.4147461"></polygon>
                        <polygon id="Fill-19" fill="#1A0F5B" mask="url(#mask-4)" points="28.086725 41.8691769 34.2228021 41.8691769 34.2228021 39.4147461 28.086725 39.4147461"></polygon>
                        <polygon id="Fill-20" fill="#1A0F5B" mask="url(#mask-4)" points="38.8370333 13.6435797 44.0404308 20.5037548 49.2437233 13.6435797"></polygon>
                        <polygon id="Fill-21" fill="#3B35B9" mask="url(#mask-4)" points="55.1220946 16.5764448 47.8817443 23.8171103 44.0403783 21.2522417 40.1993275 23.8171103 32.9587671 16.5764448 38.8370858 13.6435902 39.634634 13.6435902 44.0403783 18.0494396 48.4339335 13.6435902 49.2437758 13.6435902"></polygon>
                        <path d="M23.0787005,36.3105289 L18.7757233,40.6123503 C18.2723958,41.1156778 17.4559335,41.1156778 16.9547075,40.6123503 C16.4503292,40.1091278 16.4514851,39.2937163 16.9547075,38.7913345 L18.5781751,37.1690228 C14.2384203,36.6415271 10.3306445,34.3874816 7.69095972,30.8704939 C7.23176532,30.2569387 7.37782487,29.382683 8.02836778,28.9790753 C8.58623117,28.6324203 9.3249352,28.7532609 9.71687916,29.2807566 C11.8132014,32.0958179 14.8730963,33.9557128 18.2965639,34.5262907 L16.9947426,33.2243643 C16.5196813,32.7483573 16.4408722,31.9770788 16.8685429,31.4579895 C17.3582102,30.8621926 18.2429737,30.830669 18.7757233,31.3623678 L23.0787005,35.6662907 C23.2562837,35.843979 23.2562837,36.1318949 23.0787005,36.3105289" id="Fill-22" fill="#F05068" mask="url(#mask-4)"></path>
                        <path d="M40.6279965,23.5465324 C40.1256147,24.0488091 39.3091524,24.0488091 38.8069807,23.5465324 L37.3420771,22.0818389 C36.9312189,26.6274431 34.6352469,30.7391769 30.9764028,33.4807881 C30.3637933,33.9388266 29.4895377,33.7928722 29.0849842,33.1423292 L29.0840385,33.1403327 C28.7372785,32.58331 28.858014,31.8425044 29.3866655,31.4516112 C32.4497128,29.1756042 34.3841086,25.7638004 34.7634431,21.9819089 L33.1988196,23.5465324 C32.6955972,24.0510158 31.8812364,24.0510158 31.3779089,23.5465324 C30.8745814,23.04331 30.8745814,22.2277933 31.3779089,21.7255166 L35.4013765,17.7032049 C35.7334256,17.3710508 36.2723748,17.3710508 36.6044238,17.7032049 L40.6279965,21.7255166 C41.1301681,22.2277933 41.1301681,23.0443608 40.6279965,23.5465324" id="Fill-23" fill="#F05068" mask="url(#mask-4)"></path>
                        <path d="M11.8268511,9.77711033 C8.86058144,11.9890193 6.95539755,15.2789317 6.50881261,18.9336778 L7.77185989,17.6694746 C8.20898774,17.2323468 8.90366375,17.122014 9.41844483,17.4635201 C10.1224729,17.9301751 10.1918249,18.8915412 9.62755166,19.4558144 L5.33403152,23.7494396 C5.1511944,23.9321716 4.85592294,23.9321716 4.67308581,23.7494396 L0.377464098,19.4558144 C-0.125863398,18.9536427 -0.125863398,18.1371804 0.377464098,17.6347986 C0.879740806,17.132627 1.69515236,17.132627 2.19847986,17.6347986 L3.88184238,19.3182662 C4.24331349,14.7094046 6.54138704,10.5283187 10.2350123,7.75119089 C10.8464658,7.28989492 11.7217723,7.43690018 12.1264308,8.08628722 L12.1264308,8.08744308 C12.4741366,8.64436077 12.3534011,9.38411559 11.8268511,9.77711033" id="Fill-24" fill="#F05068" mask="url(#mask-4)"></path>
                        <path d="M33.0664203,12.0110543 C32.5095026,12.3588651 31.7697478,12.2390753 31.3779089,11.7136813 C29.2867356,8.92068651 26.244704,7.07014361 22.843303,6.4954676 L24.1557373,7.80685114 C24.6590648,8.30807706 24.6590648,9.12443433 24.1557373,9.6278669 C23.651359,10.1290928 22.8369982,10.1290928 22.3347215,9.6278669 L18.4247391,5.7189352 C18.0296427,5.3237338 18.0296427,4.68180736 18.4247391,4.28671103 L22.3347215,0.376623468 C22.8369982,-0.125548161 23.6534606,-0.125548161 24.1557373,0.376623468 C24.658014,0.879005254 24.658014,1.6954676 24.1557373,2.19763923 L22.5133555,3.84012609 C26.8121296,4.3424028 30.7432329,6.59308581 33.4005709,10.1196357 C33.8618669,10.7311944 33.7158074,11.6054501 33.0664203,12.0110543" id="Fill-25" fill="#F05068" mask="url(#mask-4)"></path>
                    </g>
                </g>
            </g>
        </g>
    </g>
</svg>