<?xml version="1.0" encoding="UTF-8"?>
<svg width="60px" height="60px" viewBox="0 0 60 60" version="1.1" xmlns="http://www.w3.org/2000/svg" xmlns:xlink="http://www.w3.org/1999/xlink">
    <!-- Generator: sketchtool 56.3 (101010) - https://sketch.com -->
    <title>08C2CC0B-32FD-4F7D-82B6-ECC8620DC739</title>
    <desc>Created with sketchtool.</desc>
    <defs>
        <polygon id="path-1" points="0.0450764706 0.00834773519 2.96519412 0.00834773519 2.96519412 5.14285714 0.0450764706 5.14285714"></polygon>
        <polygon id="path-3" points="0.007314 0.00834773519 2.985834 0.00834773519 2.985834 5.14285714 0.007314 5.14285714"></polygon>
        <polygon id="path-5" points="0.0508736842 0.0432684211 9 0.0432684211 9 8.99246579 0.0508736842 8.99246579"></polygon>
    </defs>
    <g id="WD---Site-vitrine" stroke="none" stroke-width="1" fill="none" fill-rule="evenodd">
        <g id="Desktop---Home-HD" transform="translate(-570.000000, -1863.000000)">
            <g id="Group-51" transform="translate(331.000000, 1652.000000)">
                <g id="Group-54" transform="translate(239.000000, 211.000000)">
                    <path d="M25.1632146,58.0438154 C35.4179294,62.070318 60,60.9533975 60,44.3614348 C60,27.7694722 56.7312946,4.12094616 42.2746086,0.716907696 C27.8179226,-2.68713077 5.28289736,6.47662513 0.706114749,18.7795436 C-3.87066786,31.082462 14.9084999,54.0173127 25.1632146,58.0438154 Z" id="Oval-Copy-4" fill="#585AFA"></path>
                    <g id="Group-64" transform="translate(0.000000, 17.000000)">
                        <path d="M28.9073782,20.1427488 C28.9073782,24.5298811 32.4701115,28.0925131 36.8571158,28.0925131 C41.24412,28.0925131 44.8069075,24.5298811 44.8069075,20.1427488 C44.8069075,15.755779 41.24412,12.1930386 36.8571158,12.1930386 C32.4701115,12.1930386 28.9073782,15.755779 28.9073782,20.1427488 M27.8571429,20.1427488 C27.8571429,15.1842086 31.8984781,11.1428571 36.8571158,11.1428571 C41.8158076,11.1428571 45.8571429,15.1842086 45.8571429,20.1427488 C45.8571429,25.1015057 41.8158076,29.1428571 36.8571158,29.1428571 C31.8984781,29.1428571 27.8571429,25.1015057 27.8571429,20.1427488" id="Fill-1" fill="#1A0F5B"></path>
                        <path d="M29.8209083,19.9154992 C29.8209083,23.9058231 33.068002,27.1659621 37.0713754,27.1659621 C41.0617727,27.1659621 44.3218957,23.9058231 44.3218957,19.9154992 C44.3218957,15.9251753 41.0748551,12.6650894 37.0713754,12.6650894 C33.068002,12.6650894 29.8209083,15.9251753 29.8209083,19.9154992 M29.1428571,19.9285183 C29.1428571,15.5600032 32.7028117,12 37.0713754,12 C41.4399391,12 45,15.5600032 45,19.9285183 C45,24.2970865 41.4399391,27.8571429 37.0713754,27.8571429 C32.7028117,27.8571429 29.1428571,24.2970865 29.1428571,19.9285183" id="Fill-3" fill="#FF6786"></path>
                        <path d="M0.983817191,20.1427488 C0.983817191,24.5696976 4.58643029,28.1590366 8.99997289,28.1590366 C13.4267979,28.1590366 17.0161286,24.5564255 17.0161286,20.1427488 C17.0161286,15.7159625 13.4135155,12.1265694 8.99997289,12.1265694 C4.58643029,12.1265694 0.983817191,15.7159625 0.983817191,20.1427488 M0,20.1427488 C0,15.1842086 4.04141932,11.1428571 8.99997289,11.1428571 C13.9585265,11.1428571 18,15.1842086 18,20.1427488 C18,25.1015057 13.9585265,29.1428571 8.99997289,29.1428571 C4.04141932,29.1428571 0,25.1015057 0,20.1427488" id="Fill-5" fill="#1A0F5B"></path>
                        <path d="M2.13340261,19.9285183 C2.13340261,23.8276023 5.31521191,27.0094674 9.21425912,27.0094674 C13.1133595,27.0094674 16.2951156,23.8276023 16.2951156,19.9285183 C16.2951156,16.0294343 13.1133595,12.8476755 9.21425912,12.8476755 C5.31521191,12.8476755 2.13340261,16.0164152 2.13340261,19.9285183 M1.28571429,19.9285183 C1.28571429,15.5600032 4.84563299,12 9.21425912,12 C13.5827257,12 17.1428571,15.5600032 17.1428571,19.9285183 C17.1428571,24.2970334 13.5827257,27.8571429 9.21425912,27.8571429 C4.84563299,27.8571429 1.28571429,24.2970334 1.28571429,19.9285183" id="Fill-7" fill="#FF6786"></path>
                        <path d="M14.726379,9.20740437 L15.2113274,7.11276931 L28.3208122,8.54950008 L25.5588154,20.8086032 L14.726379,9.20740437 Z M36.7955403,20.2580515 L26.4616238,21.2652076 L29.1562575,9.31481173 L36.7955403,20.2580515 Z M9.13485744,20.9966618 C9.22925369,21.0906638 9.36397988,21.1442854 9.48524444,21.1442854 C9.606509,21.1442854 9.72777356,21.1040692 9.82200498,21.0100672 C12.3281209,18.5798047 13.4463154,14.6857817 13.4868651,14.5246433 L13.4868651,14.4977778 L14.443465,10.3487239 L25.4644741,22.1379813 L25.4779357,22.1513867 C25.4915622,22.1513867 25.5049689,22.1647921 25.5184855,22.1781975 C25.5319471,22.1781975 25.5319471,22.1916029 25.5453538,22.1916029 C25.5453538,22.2051177 25.5588154,22.2051177 25.5588154,22.2051177 C25.572277,22.2185231 25.5857387,22.2185231 25.5992003,22.2319832 C25.6126619,22.2319832 25.6126619,22.2453339 25.6261236,22.2453339 L25.63975,22.2453339 C25.6532117,22.2453339 25.68008,22.2587393 25.6935966,22.2587393 C25.7070032,22.2721447 25.7070032,22.2721447 25.7204649,22.2721447 L25.7339265,22.2721447 C25.7608498,22.2857143 25.8013995,22.2857143 25.8283227,22.2857143 L25.8687076,22.2857143 L37.6982387,21.13088 L37.7117004,21.13088 C37.7521402,21.13088 37.7790635,21.13088 37.8060417,21.1174198 C37.8329649,21.1174198 37.8598882,21.1040692 37.8868664,21.0906638 C37.900328,21.0906638 37.900328,21.0772584 37.9137896,21.0772584 C37.9272513,21.0772584 37.9272513,21.0636888 37.9407679,21.0636888 L37.9542295,21.0502834 C37.9676911,21.036878 37.9811527,21.0234726 37.9946144,21.0100672 C37.9946144,21.0100672 38.008131,20.9966618 38.0215926,20.983147 C38.0350542,20.9697416 38.0350542,20.9563362 38.0485158,20.9429308 C38.0620324,20.9295254 38.0620324,20.91612 38.075494,20.9025504 C38.0889557,20.8891997 38.1024173,20.8757396 38.1024173,20.8623889 C38.1024173,20.8489835 38.1159339,20.8355781 38.1159339,20.8220086 C38.1159339,20.8086032 38.1293955,20.7951978 38.1293955,20.7817924 C38.1428571,20.768387 38.1428571,20.7549816 38.1428571,20.741412 L38.1428571,20.7012505 L38.1428571,20.6474648 L38.1428571,20.6340594 L38.1428571,20.6072486 C38.1428571,20.5938979 38.1293955,20.5669229 38.1293955,20.5535175 C38.1293955,20.5401121 38.1159339,20.5267067 38.1159339,20.5133013 C38.1159339,20.4997318 38.1159339,20.4863264 38.1024173,20.4729757 C38.0889557,20.4595156 38.0889557,20.4461649 38.075494,20.4327595 C38.075494,20.4191899 38.0620324,20.4191899 38.0620324,20.4057845 L29.4257099,8.03921936 L30.6248389,2.73544056 C30.6921471,2.4803002 30.5304976,2.21175444 30.2610452,2.15807812 C30.0049995,2.09094168 29.7355472,2.25202536 29.6817556,2.52057112 L28.5364181,7.6095352 L15.4269332,6.17285914 L16.1949605,2.86971344 C16.2218837,2.72198044 16.1949605,2.57430216 16.1006192,2.45343468 C16.0062229,2.33262192 15.8714967,2.26548548 15.7233638,2.26548548 L12.61098,2.26548548 C12.3415826,2.26548548 12.1259218,2.4803002 12.1259218,2.74884596 C12.1259218,3.01739173 12.3415826,3.23226116 12.61098,3.23226116 L15.1036343,3.23226116 L12.5571884,14.2695029 C12.4897154,14.4843724 11.3984443,18.1232003 9.14831907,20.3118373 C8.95974636,20.4997318 8.94633967,20.8086032 9.13485744,20.9966618 L9.13485744,20.9966618 Z" id="Fill-9" fill="#3B35B9"></path>
                        <path d="M7.65542409,7.25307659 C7.12755977,6.77396399 6.85714286,6.10323982 6.85714286,5.30923716 C6.85714286,4.43312323 7.12755977,3.72134342 7.66828858,3.17378616 C8.74995624,2.09233826 10.5138096,2.1333939 10.7198516,2.14706052 L12.2778206,2.14706052 C12.5996429,2.14706052 12.8571429,2.42089493 12.8571429,2.76306243 C12.8571429,3.1053415 12.5996429,3.37912013 12.2778206,3.37912013 L10.7069871,3.37912013 L10.6811531,3.37912013 C10.6682886,3.37912013 9.22625757,3.31067548 8.47943431,4.07723333 C8.17047642,4.3920676 8.02886197,4.78906892 8.02886197,5.30923716 C8.02886197,5.74729413 8.14474744,6.0758508 8.41511184,6.32224041 C9.13604859,6.99296458 10.6811531,6.93818654 11.2091749,6.85607527 C11.5309973,6.81501963 11.8270907,7.04774262 11.8658417,7.38996591 C11.9043827,7.7321892 11.6854762,8.04702347 11.3636539,8.08813489 C11.2863094,8.1018015 10.938653,8.14285714 10.4752162,8.14285714 C9.65110092,8.14285714 8.45370532,7.99224543 7.65542409,7.25307659" id="Fill-11" fill="#FF6786"></path>
                        <path d="M26.1428571,1.60979427 C26.1428571,1.31364823 26.3904458,1.0767314 26.6998812,1.0767314 L30.4758612,1.0767314 C31.3547909,1.0767314 31.9613933,0.24752248 31.9737627,0.235647676 C32.1470849,-0.0130956903 32.4937292,-0.0723248985 32.7537377,0.0934879215 C33.0136958,0.259349013 33.0755929,0.591071196 32.9022708,0.839814562 C32.8527429,0.887168966 31.949024,2.14285714 30.4758612,2.14285714 L26.6998812,2.14285714 C26.3904458,2.14285714 26.1428571,1.90594031 26.1428571,1.60979427" id="Fill-13" fill="#FF6786"></path>
                        <path d="M24.3095496,21.6428846 C24.3095496,22.3838395 24.8451928,22.9900654 25.5000243,22.9900654 L25.5238134,22.9900654 L26.3809493,26.1428571 L27,25.9272577 L26.1428641,22.7745758 C26.4762028,22.5320744 26.6904989,22.1144363 26.6904989,21.6428846 C26.6904989,20.9018748 26.1547586,20.2955391 25.5000243,20.2955391 L25.4762837,20.2955391 L24.6190022,17.1428571 L24,17.3584566 L24.8570874,20.5111385 C24.5357888,20.7536399 24.3214442,21.1578819 24.3095496,21.6428846" id="Fill-15" fill="#37394E"></path>
                        <path d="M21.8571429,17.5714286 C21.8571429,17.3303435 22.0292276,17.1428571 22.250551,17.1428571 L24.4636846,17.1428571 C24.685008,17.1428571 24.8571429,17.3437159 24.8571429,17.5714286 C24.8571429,17.8125136 24.6727736,18 24.4636846,18 L22.250551,18 C22.0415122,18 21.8694275,17.8125136 21.8571429,17.5714286" id="Fill-17" fill="#FF6786"></path>
                        <path d="M24.8571429,25.7142857 C24.8571429,25.4732006 25.0415122,25.2857143 25.250551,25.2857143 L27.4636846,25.2857143 C27.685008,25.2857143 27.8571429,25.486573 27.8571429,25.7142857 C27.8571429,25.9553708 27.685008,26.1428571 27.4636846,26.1428571 L25.250551,26.1428571 C25.0415122,26.1428571 24.8694275,25.9553708 24.8571429,25.7142857" id="Fill-19" fill="#FF6786"></path>
                        <path d="M25.0458551,19.2321087 C24.9379724,19.2321087 24.8571429,19.151755 24.8571429,19.0445985 C24.8571429,18.9374966 24.951444,18.8571429 25.0458551,18.8571429 L36.6683756,18.9105846 C36.7762583,18.9105846 36.8571429,18.990993 36.8571429,19.0982586 C36.8571429,19.2053606 36.7627867,19.2857143 36.6683756,19.2857143 L25.0458551,19.2321087 Z" id="Fill-21" fill="#FF6786"></path>
                        <path d="M38.1428571,20.3571429 C38.1428571,19.5287536 37.4713103,18.8571429 36.6428571,18.8571429 C35.8144652,18.8571429 35.1428571,19.5287536 35.1428571,20.3571429 C35.1428571,21.1855321 35.8144652,21.8571429 36.6428571,21.8571429 C37.4713103,21.8571429 38.1428571,21.1855321 38.1428571,20.3571429" id="Fill-23" fill="#37394E"></path>
                        <path d="M20.1428571,6.46925887 L20.1428571,29.4250497 C20.1428571,29.709834 20.3316536,30 20.5670786,30 L49.6853219,30 C49.9207468,30 50.1428571,29.709834 50.1428571,29.4250497 L50.1428571,6.46925887 C50.1428571,6.18624994 49.9207468,6 49.6853219,6 L20.5670786,6 C20.3316536,6 20.1428571,6.18624994 20.1428571,6.46925887" id="Fill-25" fill="#292188"></path>
                        <path d="M22.4387781,28.2857143 L46.9897933,28.2857143 C47.0742845,28.2857143 47.1428571,28.2148847 47.1428571,28.1274896 L47.1428571,8.30108184 C47.1428571,8.21368677 47.0742845,8.14285714 46.9897933,8.14285714 L22.4387781,8.14285714 C22.3542336,8.14285714 22.2857143,8.21368677 22.2857143,8.30108184 L22.2857143,28.1274896 C22.2857143,28.2148847 22.3542336,28.2857143 22.4387781,28.2857143" id="Fill-27" fill="#3B35B9"></path>
                        <path d="M24.5141345,12 L44.4858107,12 C44.7698396,12 45,12.1918586 45,12.4285904 C45,12.6653222 44.7698396,12.8571429 44.4858107,12.8571429 L24.5141345,12.8571429 C24.2301056,12.8571429 24,12.6653222 24,12.4285904 C24,12.1918586 24.2301056,12 24.5141345,12" id="Fill-29" fill="#585AFA"></path>
                        <path d="M24.5141345,15 L44.4858107,15 C44.7698396,15 45,15.1918586 45,15.4285904 C45,15.6653222 44.7698396,15.8571429 44.4858107,15.8571429 L24.5141345,15.8571429 C24.2301056,15.8571429 24,15.6653222 24,15.4285904 C24,15.1918586 24.2301056,15 24.5141345,15" id="Fill-31" fill="#585AFA"></path>
                        <path d="M24.5141345,18 L44.4858107,18 C44.7698396,18 45,18.1918501 45,18.4285714 C45,18.6652928 44.7698396,18.8571429 44.4858107,18.8571429 L24.5141345,18.8571429 C24.2301056,18.8571429 24,18.6652928 24,18.4285714 C24,18.1918501 24.2301056,18 24.5141345,18" id="Fill-33" fill="#585AFA"></path>
                        <path d="M22.010471,26.8382808 C22.2738259,27.2086322 22.3953216,27.6619323 22.352249,28.1139166 C22.3191294,28.4656761 22.5122411,28.8002166 22.8335982,28.9475791 C23.0801931,29.0604465 23.2968717,29.2249709 23.4727086,29.4267363 C23.4799732,29.4344019 23.4868373,29.4416671 23.4935871,29.4498475 C23.498106,29.4552821 23.5026249,29.4611743 23.507201,29.4666089 C23.5126351,29.4734164 23.5176117,29.4802239 23.5225882,29.4870314 C23.619144,29.6076216 23.7020859,29.7390809 23.7669522,29.8814093 C23.9142457,30.2023348 24.248759,30.3959198 24.60049,30.3623971 C25.0524377,30.3197214 25.5057011,30.4407692 25.8760225,30.7041455 C25.9834466,30.7807443 26.1053998,30.8283969 26.2304991,30.8478469 C26.2318719,30.8478469 26.2337024,30.8478469 26.235018,30.8483045 C26.3157291,30.860089 26.3977558,30.860089 26.4784097,30.8483045 C26.4802401,30.8483045 26.4825282,30.8478469 26.4843014,30.8478469 C26.6094007,30.8283969 26.7308963,30.7803438 26.8383204,30.7041455 C27.1597347,30.4752644 27.5436128,30.353759 27.9352703,30.353759 C27.9946453,30.353759 28.0540203,30.3569053 28.1138529,30.3623971 C28.4656411,30.3954621 28.8001544,30.2023348 28.9469903,29.8814093 C29.012257,29.7386232 29.0951989,29.6067063 29.1917547,29.4861161 C29.1963309,29.4802239 29.2008498,29.4743317 29.2053687,29.4688399 C29.2108028,29.4620896 29.2157793,29.4552821 29.2212706,29.4489322 C29.2271624,29.4416671 29.2339121,29.4348595 29.2402615,29.428052 C29.4161556,29.2258862 29.6332918,29.0604465 29.8807448,28.9475791 C30.2017014,28.8006742 30.3952135,28.4656761 30.3616935,28.1139166 C30.3190786,27.6619323 30.440517,27.2086322 30.7034715,26.8382808 C30.9083666,26.550878 30.9083666,26.1642229 30.7034715,25.8763625 C30.440517,25.5059538 30.3190786,25.0531114 30.3616935,24.6007267 C30.3952135,24.24891 30.2017014,23.9143695 29.8807448,23.7675218 C29.4678084,23.5785133 29.1360407,23.2466615 28.9469903,22.8336916 C28.8001544,22.5122513 28.4642682,22.3191811 28.1138529,22.3522462 C27.6610472,22.3953223 27.2082414,22.2738168 26.8383204,22.0104405 C26.5505406,21.8060436 26.1638596,21.8060436 25.8760225,22.0104405 C25.5057011,22.2738168 25.053353,22.3948646 24.60049,22.3522462 C24.248759,22.3191811 23.9142457,22.5127089 23.7669522,22.8336916 C23.5779019,23.2466615 23.2465346,23.5785133 22.8335982,23.7670641 C22.5122411,23.9143695 22.3191294,24.24891 22.352249,24.6007267 C22.3953216,25.0531114 22.2738259,25.5059538 22.010471,25.8763625 C21.8060335,26.1642229 21.8060335,26.5504204 22.010471,26.8382808" id="Fill-35" fill="#FBAA95"></path>
                        <path d="M23.1428571,25.9285714 C23.1428571,28.1771433 24.9657139,30 27.2142857,30 C29.4628575,30 31.2857143,28.1771433 31.2857143,25.9285714 C31.2857143,23.6799996 29.4628575,21.8571429 27.2142857,21.8571429 C24.9657139,21.8571429 23.1428571,23.6799996 23.1428571,25.9285714" id="Fill-37" fill="#FBAA95"></path>
                        <g id="Group-41" transform="translate(24.000000, 27.857143)">
                            <mask id="mask-2" fill="white">
                                <use xlink:href="#path-1"></use>
                            </mask>
                            <g id="Clip-40"></g>
                            <polygon id="Fill-39" fill="#FF6786" mask="url(#mask-2)" points="1.70137059 5.14286341 2.96519412 0.523511498 1.3089 0.00834773519 0.0450764706 4.62769965 1.21495882 3.63631986"></polygon>
                        </g>
                        <g id="Group-44" transform="translate(27.000000, 27.857143)">
                            <mask id="mask-4" fill="white">
                                <use xlink:href="#path-3"></use>
                            </mask>
                            <g id="Clip-43"></g>
                            <polygon id="Fill-42" fill="#FF6786" mask="url(#mask-4)" points="1.296414 5.14286341 0.007314 0.523511498 1.696734 0.00834773519 2.985834 4.62769965 1.792554 3.63631986"></polygon>
                        </g>
                        <path d="M24,26.1428571 C24,27.7996973 25.3431183,29.1428571 26.9999732,29.1428571 C28.6568817,29.1428571 30,27.7996973 30,26.1428571 C30,24.486017 28.6568817,23.1428571 26.9999732,23.1428571 C25.3431183,23.1428571 24,24.486017 24,26.1428571" id="Fill-45" fill="#F05068"></path>
                        <path d="M25.2857143,25.9285994 C25.2857143,26.9937085 26.1491486,27.8571429 27.2143137,27.8571429 C28.2794228,27.8571429 29.1428571,26.9937085 29.1428571,25.9285994 C29.1428571,24.8634343 28.2794228,24 27.2143137,24 C26.1491486,24 25.2857143,24.8634343 25.2857143,25.9285994" id="Fill-47" fill="#FBAA95"></path>
                        <path d="M44.0653264,25.5041856 C43.5455567,25.5378058 43.0120933,25.5266369 42.4964048,25.4496448 C42.1809665,25.4025311 41.7850845,25.3388057 41.5379536,25.1059585 C41.229926,24.8158491 41.5167418,24.3879704 41.7181196,24.1249613 C41.9673986,23.7994174 42.3768669,23.4313522 42.8015326,23.4435416 C43.3973963,23.4606636 43.2188412,24.2957273 43.1160043,24.6758686 C42.9625812,25.2429908 42.7183501,25.887672 42.2375134,26.2335694 C42.0169644,26.3922593 41.5812364,26.54596 41.3494639,26.3256424 C41.1422863,26.1287967 41.0893911,25.675235 41.0330053,25.406273 C40.9496617,25.0090097 40.888228,24.6070973 40.8135302,24.2079631 C40.7767452,24.0116843 40.6260072,22.8659876 40.2172906,23.2052517 C40.0040986,23.3822541 39.9119481,23.7737912 39.8417075,24.0330017 C39.7174439,24.4914391 39.6430683,24.9645606 39.571163,25.4346206 C39.5130588,25.8145918 39.4694538,26.2004027 39.385251,26.5752147 C39.3704832,26.6409245 39.3561451,26.7866312 39.3042165,26.8345386 C39.3528694,26.789636 39.3192527,26.8484289 39.3020685,26.7574331 C39.2879452,26.6828222 39.2520731,26.6067373 39.2325797,26.5326933 C39.1061681,26.0531653 39.107081,25.6073142 39.0872117,25.1209827 C39.0784048,24.9046338 38.9657406,24.8526443 38.7719345,24.8447636 C37.6513606,24.7990673 36.1720656,25.1391252 35.2810625,24.2266725 C35.2066333,24.1504175 35.0925728,24.2705546 35.1671632,24.346923 C35.5321136,24.7206578 35.9858851,24.8928979 36.4837449,24.9618959 C37.150601,25.0543091 37.837756,25.0315743 38.5086934,25.0178541 C38.5821023,25.01638 38.8420677,24.9697766 38.9047902,25.0311208 C38.9493081,25.0747194 38.9240151,25.1898674 38.9222429,25.2499076 C38.9079048,25.7265442 38.9656332,26.2067526 39.1004758,26.6629789 C39.1387107,26.7923007 39.2416014,27.1223802 39.4186528,26.9524079 C39.5887769,26.7890124 39.5960802,26.3347137 39.630019,26.1180246 C39.7083685,25.617576 39.7751185,25.1148596 39.8733909,24.6180395 C39.9208087,24.378559 39.9742947,24.1394753 40.0465759,23.9067982 C40.0981823,23.7406245 40.1590253,23.501314 40.2836111,23.3758475 C40.4643141,23.1937992 40.5466374,23.72509 40.5763339,23.8531078 C40.6779895,24.2912483 40.7408731,24.7388003 40.8242167,25.1809662 C40.8932222,25.5469905 40.9562132,25.9484492 41.1267131,26.280513 C41.2642945,26.5483412 41.5064849,26.6163188 41.7861585,26.5888216 C42.1869273,26.5494184 42.5142335,26.2659424 42.7451468,25.934729 C43.1020958,25.4227146 43.3759697,24.6853367 43.3878912,24.0470621 C43.3945501,23.6908461 43.2551429,23.3334962 42.8869705,23.2804295 C42.4960826,23.2240745 42.0991803,23.4898616 41.8252527,23.7564425 C41.5616893,24.0128749 41.1955038,24.4529998 41.2385181,24.8651172 C41.2698256,25.1642411 41.5293614,25.337445 41.7720352,25.4386459 C42.4264327,25.7115767 43.2063827,25.7067009 43.8998743,25.6819818 C43.9550787,25.6799974 44.0102294,25.677843 44.0653264,25.6742712 C44.1683245,25.6676379 44.1690763,25.4974956 44.0653264,25.5041856" id="Fill-49" fill="#585AFA"></path>
                        <path d="M41.1428571,16.8568936 C41.1428571,17.0483682 41.1513261,17.2381699 41.1700526,17.4264 C41.2056644,17.8175618 41.278729,18.2004603 41.3873529,18.5720031 C41.6862395,19.5948232 42.2517148,20.5309043 43.0532169,21.3017201 C44.2860583,22.488234 45.9230436,23.1428571 47.6652862,23.1428571 C47.7400341,23.1428571 47.8130462,23.1411842 47.8877416,23.139562 C48.6723057,23.1134034 49.4347242,22.9562493 50.1428571,22.6747912 L50.1428571,21.6699171 L50.0392305,21.5684767 C49.4058455,21.8074017 48.7317464,21.9498036 48.0388681,21.9874192 C48.0218776,21.9890921 48.0066229,21.9907144 47.9913156,21.9890921 C47.9557038,21.9923366 47.9217227,21.9956318 47.8877416,21.9956318 C47.8130462,21.9988763 47.7400341,22.0004985 47.6652862,22.0004985 C47.5566097,22.0004985 47.4479333,21.997254 47.3392568,21.9890921 C47.3240021,21.9907144 47.3070116,21.9890921 47.2917569,21.9874192 C45.6903834,21.9006803 44.1977389,21.2575142 43.0532169,20.1561677 C42.5624895,19.6848066 42.1600289,19.1496714 41.8526733,18.5720031 C41.6590441,18.2054284 41.5028677,17.8224285 41.3873529,17.4264 C41.278729,17.0565301 41.2056644,16.6752538 41.1700526,16.2857143 C41.1513261,16.4739444 41.1428571,16.665419 41.1428571,16.8568936" id="Fill-51" fill="#1A0F5B"></path>
                        <g id="Group-55" transform="translate(51.000000, 18.857143)">
                            <mask id="mask-6" fill="white">
                                <use xlink:href="#path-5"></use>
                            </mask>
                            <g id="Clip-54"></g>
                            <path d="M8.47892632,8.47137368 C9.17371579,7.77674211 9.17371579,6.64963684 8.47892632,5.9549 L2.56734737,0.0432684211 L0.0508736842,2.55979474 L5.96245263,8.47137368 C6.65718947,9.16616316 7.78371579,9.16616316 8.47892632,8.47137368" id="Fill-53" fill="#3B35B9" mask="url(#mask-6)"></path>
                        </g>
                        <polygon id="Fill-56" fill="#1A0F5B" points="52.4457064 24 54.8571429 21.2440495 51.2685793 17.1428571 48.8571429 19.89875"></polygon>
                        <path d="M51.9287751,21.0716322 C53.2645543,19.7356819 54,17.9595478 54,16.0714571 C54,14.1833664 53.2645543,12.4071753 51.9287751,11.0712249 C50.5928247,9.73607305 48.817261,9 46.9285999,9 C45.0398819,9 43.2643181,9.73607305 41.9283678,11.0712249 C40.5925885,12.4071753 39.8571429,14.182682 39.8571429,16.0714571 C39.8571429,17.9601181 40.5925885,19.7356819 41.9283678,21.0716322 C43.2643181,22.4067841 45.0398819,23.1428571 46.9285999,23.1428571 C48.817261,23.1428571 50.5928247,22.4067841 51.9287751,21.0716322" id="Fill-58" fill="#4C4CE0"></path>
                        <path d="M51.5110458,11.4889542 C52.5634411,12.5412946 53.1428571,13.9403509 53.1428571,15.4285989 C53.1428571,16.9168469 52.5634411,18.3158483 51.5110458,19.3681887 C50.4587054,20.4199798 49.0596491,21 47.571456,21 C46.0832081,21 44.6841517,20.4199798 43.6318113,19.3681887 C42.579471,18.3158483 42,16.9168469 42,15.4285989 C42,13.9403509 42.579471,12.5412946 43.6318113,11.4889542 C44.6841517,10.437218 46.0832081,9.85714286 47.571456,9.85714286 C49.0596491,9.85714286 50.4587054,10.437218 51.5110458,11.4889542" id="Fill-60" fill="#8CD3FF"></path>
                        <path d="M49.2847772,13.2857143 C48.6284214,12.6149396 47.704964,12.2886554 46.7837647,12.4016758 L46.6395148,11.1742438 C47.9352907,11.0141177 49.2231095,11.4727253 50.1428571,12.4116563 L49.2847772,13.2857143 Z M44.9997542,13.2857143 L44.1428571,12.4116563 C44.4797449,12.0680433 44.8651282,11.787384 45.2887379,11.5777395 L45.8178334,12.6897931 C45.516,12.8393355 45.2409413,13.0396027 44.9997542,13.2857143 L44.9997542,13.2857143 Z" id="Fill-62" fill="#D5F2FF"></path>
                    </g>
                </g>
            </g>
        </g>
    </g>
</svg>