<?xml version="1.0" encoding="UTF-8"?>
<svg width="60px" height="60px" viewBox="0 0 60 60" version="1.1" xmlns="http://www.w3.org/2000/svg" xmlns:xlink="http://www.w3.org/1999/xlink">
    <!-- Generator: sketchtool 56.3 (101010) - https://sketch.com -->
    <title>D1F3E1CF-FB06-4372-BBDE-24D721D39F54</title>
    <desc>Created with sketchtool.</desc>
    <defs>
        <polygon id="path-1" points="4e-05 0.0014 33.54404 0.0014 33.54404 51.19998 4e-05 51.19998"></polygon>
        <polygon id="path-3" points="0.04472 0.0014 17.69932 0.0014 17.69932 5.2978 0.04472 5.2978"></polygon>
    </defs>
    <g id="WD---Site-vitrine" stroke="none" stroke-width="1" fill="none" fill-rule="evenodd">
        <g id="Desktop---Home-HD" transform="translate(-570.000000, -1760.000000)">
            <g id="Group-51" transform="translate(331.000000, 1652.000000)">
                <g id="Group-53" transform="translate(239.000000, 108.000000)">
                    <path d="M37.6575789,60 C54.2321926,60 60,42.0452189 60,25.4766764 C60,8.90813387 34.0318581,8.8817842e-14 17.4572444,8.8817842e-14 C0.882630742,8.8817842e-14 -2.12066449,23.7073817 1.19899077,33.4678106 C4.51864602,43.2282394 21.0829652,60 37.6575789,60 Z" id="Oval" fill="#585AFA"></path>
                    <g id="Group-31" transform="translate(0.000000, 0.000000)">
                        <path d="M55.28604,25.11119 C54.12044,24.63619 52.58544,24.37459 50.96404,24.37459 C49.34264,24.37459 47.80774,24.63619 46.64204,25.11119 C45.27984,25.66629 44.52974,26.48119 44.52974,27.40589 C44.52974,28.33049 45.27974,29.14559 46.64204,29.70059 C47.80764,30.17559 49.34244,30.43719 50.96404,30.43719 C52.58544,30.43719 54.12034,30.17559 55.28604,29.70059 C56.64804,29.14559 57.39824,28.33049 57.39824,27.40589 C57.39824,26.48119 56.64804,25.66639 55.28604,25.11119" id="Fill-1" fill="#8CD3FF"></path>
                        <path d="M54.29268,13.83424 C54.29268,15.67244 52.80248,17.16264 50.96418,17.16264 C49.12598,17.16264 47.63578,15.67244 47.63578,13.83424 C47.63578,11.99594 49.12598,10.50584 50.96418,10.50584 C52.80248,10.50584 54.29268,11.99594 54.29268,13.83424 M50.96418,4.79854 C45.98188,4.79854 41.92848,8.85194 41.92848,13.83424 C41.92848,16.91134 43.38658,20.21304 46.26218,23.64754 C48.37208,26.16744 50.45398,27.78864 50.54158,27.85654 C50.66598,27.95284 50.81518,28.00094 50.96428,28.00094 C51.11338,28.00094 51.26238,27.95284 51.38698,27.85654 C51.47458,27.78864 53.55668,26.16744 55.66638,23.64754 C58.54198,20.21314 59.99998,16.91144 59.99998,13.83424 C59.99978,8.85194 55.94648,4.79854 50.96418,4.79854" id="Fill-3" fill="#FF6786"></path>
                        <path d="M50.96416,4.7985 C50.52256,4.7985 50.08816,4.8309 49.66326,4.8925 C54.03136,5.5251 57.39826,9.2936 57.39826,13.8342 C57.39826,16.9114 55.94016,20.2131 53.06466,23.6475 C51.76786,25.1964 50.48256,26.4047 49.66326,27.1225 C50.17696,27.5726 50.50776,27.8303 50.54146,27.8564 C50.66596,27.9527 50.81506,28.0008 50.96416,28.0008 C51.11326,28.0008 51.26236,27.9527 51.38696,27.8564 C51.47456,27.7885 53.55656,26.1673 55.66626,23.6474 C58.54186,20.2131 59.99986,16.9114 59.99986,13.8341 C59.99986,8.8519 55.94646,4.7985 50.96416,4.7985" id="Fill-5" fill="#F05068"></path>
                        <path d="M41.13721,28.15123 C40.79631,28.15123 40.49971,27.89883 40.45341,27.55153 C40.40311,27.17343 40.66891,26.82603 41.04701,26.77573 C41.27271,26.74573 41.50351,26.73043 41.73311,26.73043 L42.04841,26.73043 C42.43001,26.73043 42.73921,27.03963 42.73921,27.42113 C42.73921,27.80273 42.43001,28.11183 42.04841,28.11183 L41.73311,28.11183 C41.56421,28.11183 41.39461,28.12303 41.22921,28.14503 C41.19821,28.14923 41.16761,28.15123 41.13721,28.15123 L41.13721,28.15123 Z M38.09671,29.97893 C37.95701,29.97893 37.81621,29.93683 37.69421,29.84923 C37.38451,29.62673 37.31371,29.19513 37.53611,28.88533 C37.74051,28.60073 37.97471,28.33603 38.23221,28.09863 C38.51281,27.84003 38.94961,27.85773 39.20821,28.13793 C39.46691,28.41843 39.44921,28.85533 39.16881,29.11393 C38.98001,29.28813 38.80811,29.48243 38.65821,29.69113 C38.52321,29.87893 38.31151,29.97893 38.09671,29.97893 L38.09671,29.97893 Z M37.34181,33.44543 C37.01791,33.44543 36.72891,33.21653 36.66451,32.88683 C36.60131,32.56183 36.56911,32.22823 36.56911,31.89463 L36.56941,31.84013 C36.57381,31.46153 36.88221,31.15743 37.26001,31.15743 C37.26271,31.15743 37.26541,31.15743 37.26821,31.15743 C37.64961,31.16193 37.95531,31.47463 37.95081,31.85613 L37.95061,31.89453 C37.95061,32.13953 37.97411,32.38453 38.02051,32.62253 C38.09351,32.99693 37.84911,33.35963 37.47471,33.43253 C37.43011,33.44123 37.38551,33.44543 37.34181,33.44543 L37.34181,33.44543 Z M39.34921,36.37143 C39.22331,36.37143 39.09581,36.33693 38.98141,36.26493 C38.68531,36.07813 38.40711,35.86003 38.15431,35.61703 C37.87951,35.35273 37.87091,34.91543 38.13531,34.64053 C38.39961,34.36583 38.83691,34.35713 39.11191,34.62153 C39.29731,34.79973 39.50131,34.95973 39.71841,35.09653 C40.04111,35.30003 40.13771,35.72663 39.93421,36.04923 C39.80261,36.25733 39.57841,36.37143 39.34921,36.37143 L39.34921,36.37143 Z M42.86801,37.05843 L41.95581,37.05843 C41.57421,37.05843 41.26501,36.74923 41.26501,36.36773 C41.26501,35.98633 41.57421,35.67703 41.95581,35.67703 L42.86801,35.67703 C43.24941,35.67703 43.55861,35.98633 43.55861,36.36773 C43.55861,36.74913 43.24951,37.05843 42.86801,37.05843 L42.86801,37.05843 Z M46.51711,37.05843 L45.60491,37.05843 C45.22331,37.05843 44.91421,36.74923 44.91421,36.36773 C44.91421,35.98633 45.22331,35.67703 45.60491,35.67703 L46.51711,35.67703 C46.89861,35.67703 47.20781,35.98633 47.20781,36.36773 C47.20781,36.74913 46.89861,37.05843 46.51711,37.05843 L46.51711,37.05843 Z M50.16611,37.05843 L49.25391,37.05843 C48.87251,37.05843 48.56331,36.74923 48.56331,36.36773 C48.56331,35.98633 48.87251,35.67703 49.25391,35.67703 L50.16611,35.67703 C50.54761,35.67703 50.85681,35.98633 50.85681,36.36773 C50.85681,36.74913 50.54761,37.05843 50.16611,37.05843 L50.16611,37.05843 Z M53.81551,37.06423 C53.80531,37.06423 53.79481,37.06403 53.78451,37.06343 C53.70731,37.06013 53.62961,37.05833 53.55161,37.05833 L52.90291,37.05833 C52.52141,37.05833 52.21221,36.74913 52.21221,36.36763 C52.21221,35.98623 52.52131,35.67693 52.90291,35.67693 L53.55161,35.67693 C53.64891,35.67693 53.74781,35.67903 53.84561,35.68343 C54.22661,35.70023 54.52191,36.02293 54.50491,36.40393 C54.48871,36.77473 54.18291,37.06423 53.81551,37.06423 L53.81551,37.06423 Z M57.17781,38.31603 C57.02781,38.31603 56.87701,38.26763 56.75021,38.16753 C56.54011,38.00153 56.31541,37.85103 56.08271,37.71993 C55.75031,37.53273 55.63261,37.11143 55.81981,36.77913 C56.00701,36.44673 56.42851,36.32893 56.76051,36.51623 C57.05561,36.68243 57.34001,36.87313 57.60621,37.08313 C57.90561,37.31953 57.95671,37.75383 57.72031,38.05333 C57.58411,38.22603 57.38191,38.31603 57.17781,38.31603 L57.17781,38.31603 Z M59.18091,41.29563 C58.88081,41.29563 58.60441,41.09843 58.51751,40.79533 C58.44381,40.53863 58.34901,40.28553 58.23591,40.04313 C58.07461,39.69733 58.22411,39.28633 58.56971,39.12503 C58.91581,38.96393 59.32651,39.11333 59.48781,39.45893 C59.63141,39.76673 59.75171,40.08803 59.84531,40.41423 C59.95041,40.78083 59.73871,41.16343 59.37201,41.26863 C59.30821,41.28693 59.24401,41.29563 59.18091,41.29563 L59.18091,41.29563 Z M59.06921,44.88343 C58.99221,44.88343 58.91391,44.87043 58.83721,44.84323 C58.47781,44.71503 58.29051,44.31993 58.41851,43.96073 C58.50831,43.70903 58.57881,43.44833 58.62821,43.18533 C58.69891,42.81053 59.06041,42.56393 59.43481,42.63443 C59.80961,42.70503 60.05621,43.06613 59.98561,43.44093 C59.92281,43.77443 59.83341,44.10543 59.71951,44.42453 C59.61891,44.70723 59.35291,44.88343 59.06921,44.88343 L59.06921,44.88343 Z M56.88491,47.73163 C56.66601,47.73163 56.45081,47.62793 56.31661,47.43443 C56.09941,47.12083 56.17721,46.69063 56.49081,46.47313 C56.71081,46.32063 56.92051,46.14963 57.11431,45.96513 C57.39031,45.70183 57.82751,45.71243 58.09081,45.98863 C58.35391,46.26473 58.34341,46.70193 58.06731,46.96513 C57.82201,47.19903 57.55631,47.41543 57.27791,47.60833 C57.15771,47.69163 57.02071,47.73163 56.88491,47.73163 L56.88491,47.73163 Z M53.44881,48.77213 C53.06891,48.77213 52.76011,48.46523 52.7582003,48.08483 C52.75621,47.70333 53.06401,47.39263 53.44561,47.39083 L53.57481,47.39013 C53.80601,47.38913 54.03751,47.37273 54.26371,47.34143 C54.64081,47.28883 54.99001,47.55333 55.04241,47.93113 C55.09451,48.30893 54.83071,48.65763 54.45271,48.70993 C54.16621,48.74943 53.87281,48.77023 53.58111,48.77153 L53.45211,48.77213 L53.44881,48.77213 Z M49.79971,48.78873 C49.41981,48.78873 49.11081,48.48173 49.1092021,48.10113 C49.10741,47.71973 49.41521,47.40903 49.79671,47.40743 L50.70891,47.40323 L50.71211,47.40323 C51.09211,47.40323 51.40101,47.71033 51.4027179,48.09083 C51.40451,48.47223 51.09671,48.78293 50.71511,48.78463 L49.80291,48.78873 L49.79971,48.78873 Z M46.15081,48.80523 C45.77081,48.80523 45.46191,48.49813 45.460103,48.11763 C45.45841,47.73623 45.76621,47.42543 46.14771,47.42383 L47.06001,47.41973 L47.06321,47.41973 C47.44311,47.41973 47.75201,47.72673 47.753817,48.10733 C47.75551,48.48863 47.44771,48.79933 47.06621,48.80103 L46.15401,48.80523 L46.15081,48.80523 Z M42.50181,48.82173 C42.12181,48.82173 41.81291,48.51473 41.811103,48.13423 C41.80941,47.75283 42.11721,47.44203 42.49861,47.44043 L43.41081,47.43623 L43.41411,47.43623 C43.79391,47.43623 44.10291,47.74333 44.1046162,48.12383 C44.10621,48.50533 43.79851,48.81593 43.41711,48.81763 L42.50501,48.82173 L42.50181,48.82173 Z M38.85261,48.83843 C38.47271,48.83843 38.16381,48.53133 38.162003,48.15083 C38.16031,47.76933 38.46821,47.45863 38.84961,47.45703 L39.76181,47.45293 L39.76501,47.45293 C40.14501,47.45293 40.45391,47.75993 40.455717,48.14053 C40.45741,48.52193 40.14961,48.83253 39.76811,48.83423 L38.85591,48.83843 L38.85261,48.83843 Z M35.20371,48.85493 C34.82371,48.85493 34.51481,48.54793 34.5131021,48.16743 C34.51131,47.78593 34.81911,47.47523 35.20071,47.47363 L36.11291,47.46943 L36.11611,47.46943 C36.49601,47.46943 36.80511,47.77653 36.8067179,48.15703 C36.80851,48.53853 36.50061,48.84913 36.11911,48.85083 L35.20691,48.85493 L35.20371,48.85493 Z" id="Fill-7" fill="#1EA4E9"></path>
                        <g id="Group-11" transform="translate(0.000000, 0.098600)">
                            <mask id="mask-2" fill="white">
                                <use xlink:href="#path-1"></use>
                            </mask>
                            <g id="Clip-10"></g>
                            <path d="M33.54404,13.24238 L33.54404,22.95238 L27.47974,22.95238 C27.23604,22.95158 27.00284,23.05158 26.83524,23.22888 C26.66804,23.40628 26.58174,23.64488 26.59694,23.88818 L27.92074,45.02088 L28.20354,49.54028 C28.25704,50.47148 29.02734,51.19918 29.96014,51.19998 L1.76564,51.19998 C0.79184,51.19688 0.00274,50.40818 4e-05,49.43448 L4e-05,13.24238 L7.94474,5.29778 L7.94474,1.76648 C7.94744,0.79278 8.73614,0.00408 9.70984,0.00138 L23.83374,0.00138 C24.80754,0.00408 25.59654,0.79278 25.59934,1.76648 L25.59934,5.29778 L33.54404,13.24238 Z" id="Fill-9" fill="#3B35B9" mask="url(#mask-2)"></path>
                        </g>
                        <polygon id="Fill-12" fill="#1A0F5B" points="33.54404 13.34098 17.65454 13.34098 25.59934 5.39638"></polygon>
                        <polygon id="Fill-14" fill="#292188" points="33.6 51.2986 17.6546 51.2986 17.6546 13.341 33.544 13.341 33.544 19.5202"></polygon>
                        <polygon id="Fill-16" fill="#585AFA" points="25.59932 5.39635 17.65462 13.34095 2e-05 13.34095 7.94472 5.39635"></polygon>
                        <g id="Group-20" transform="translate(7.900000, 0.098600)">
                            <mask id="mask-4" fill="white">
                                <use xlink:href="#path-3"></use>
                            </mask>
                            <g id="Clip-19"></g>
                            <path d="M17.69932,1.7665 L17.69932,5.2978 L0.04472,5.2978 L0.04472,1.7665 C0.04742,0.7928 0.83612,0.0041 1.80982,0.0014 L15.93382,0.0014 C16.90752,0.0041 17.69662,0.7928 17.69932,1.7665" id="Fill-18" fill="#3B35B9" mask="url(#mask-4)"></path>
                        </g>
                        <path d="M12.81514,39.7985 L4.68484,39.7985 C4.41714,39.7985 4.20004,39.5814 4.20004,39.3136 L4.20004,19.4834 C4.20004,19.2156 4.41714,18.9985 4.68484,18.9985 L12.81514,18.9985 C13.08294,18.9985 13.30004,19.2156 13.30004,19.4834 L13.30004,39.3136 C13.30004,39.5814 13.08294,39.7985 12.81514,39.7985" id="Fill-21" fill="#8CD3FF"></path>
                        <path d="M29,26.3525 L29,23.8445 C29,23.5844 28.8612,23.3441 28.636,23.214 L26.464,21.96 C26.2388,21.8299 25.9612,21.8299 25.736,21.96 L23.564,23.214 C23.3388,23.3441 23.2,23.5844 23.2,23.8445 L23.2,26.3525 C23.2,26.6126 23.3388,26.8529 23.564,26.983 L25.736,28.237 C25.9612,28.3671 26.2388,28.3671 26.464,28.237 L28.636,26.983 C28.8612,26.8529 29,26.6126 29,26.3525" id="Fill-23" fill="#FF6786"></path>
                        <path d="M31.78008,30.7485 L20.49058,30.7485 C20.33008,30.7485 20.19998,30.9845 20.19998,31.2758 C20.19998,31.5672 20.33008,31.8032 20.49058,31.8032 L31.78008,31.8032 C31.94058,31.8032 32.07068,31.5672 32.07068,31.2758 C32.07068,30.9845 31.94058,30.7485 31.78008,30.7485" id="Fill-25" fill="#585AFA"></path>
                        <path d="M31.78008,33.12155 L20.49058,33.12155 C20.33008,33.12155 20.19998,33.35755 20.19998,33.64875 C20.19998,33.94015 20.33008,34.17615 20.49058,34.17615 L31.78008,34.17615 C31.94058,34.17615 32.07068,33.94015 32.07068,33.64875 C32.07068,33.35755 31.94058,33.12155 31.78008,33.12155" id="Fill-27" fill="#585AFA"></path>
                        <path d="M31.78008,35.34381 L20.49058,35.34381 C20.33008,35.34381 20.19998,35.57981 20.19998,35.87111 C20.19998,36.16251 20.33008,36.39851 20.49058,36.39851 L31.78008,36.39851 C31.94058,36.39851 32.07068,36.16251 32.07068,35.87111 C32.07068,35.57981 31.94058,35.34381 31.78008,35.34381" id="Fill-29" fill="#585AFA"></path>
                    </g>
                </g>
            </g>
        </g>
    </g>
</svg>