<?xml version="1.0" encoding="UTF-8"?>
<svg width="60px" height="60px" viewBox="0 0 60 60" version="1.1" xmlns="http://www.w3.org/2000/svg" xmlns:xlink="http://www.w3.org/1999/xlink">
    <!-- Generator: sketchtool 56.3 (101010) - https://sketch.com -->
    <title>483EA8E0-6B02-4F16-9D17-8BA94A5C67DC</title>
    <desc>Created with sketchtool.</desc>
    <defs>
        <polygon id="path-1" points="0.0309901478 0.047364532 11.7626158 0.047364532 11.7626158 47.6600837 0.0309901478 47.6600837"></polygon>
        <polygon id="path-3" points="0 47.6866256 59.9596552 47.6866256 59.9596552 0.0738916256 0 0.0738916256"></polygon>
    </defs>
    <g id="WD---Site-vitrine" stroke="none" stroke-width="1" fill="none" fill-rule="evenodd">
        <g id="Desktop---Home-HD" transform="translate(-810.000000, -1863.000000)">
            <g id="Group-51" transform="translate(331.000000, 1652.000000)">
                <g id="Group-61" transform="translate(479.000000, 211.000000)">
                    <path d="M37.6575789,60 C54.2321926,60 60,42.0452189 60,25.4766764 C60,8.90813387 34.0318581,8.8817842e-14 17.4572444,8.8817842e-14 C0.882630742,8.8817842e-14 -2.12066449,23.7073817 1.19899077,33.4678106 C4.51864602,43.2282394 21.0829652,60 37.6575789,60 Z" id="Oval-Copy-5" fill="#585AFA" transform="translate(30.000000, 30.000000) scale(1, -1) translate(-30.000000, -30.000000) "></path>
                    <g id="Group-136" transform="translate(30.000000, 25.866995) scale(-1, 1) translate(-30.000000, -25.866995) translate(0.000000, 2.000000)">
                        <path d="M58.1091133,41.1754877 L58.1091133,43.9512266 C58.1091133,44.3268916 58.0530296,44.6902167 57.9481034,45.0319655 C57.7568719,45.6587143 57.402266,46.2157094 56.9346059,46.653 C55.9353695,47.2859557 54.7510345,47.6523103 53.4828325,47.6523103 L52.4958621,47.6523103 C54.1613054,47.6523103 55.5726355,46.5475567 56.035936,45.0319655 C57.2844089,44.2029754 58.1091133,42.7835911 58.1091133,41.1754877" id="Fill-1" fill="#1A0F5B"></path>
                        <path d="M59.9596552,26.2787069 L59.9596552,41.1754803 C59.9596552,43.4787562 58.7512315,45.5050862 56.9346798,46.6529926 C57.402266,46.215702 57.7568719,45.6587069 57.9481034,45.0319581 C58.0530296,44.6902094 58.1091133,44.3268842 58.1091133,43.9512192 L58.1091133,26.2787069 C58.1091133,25.7513424 57.6803941,25.3226232 57.1530296,25.3226232 C56.6255911,25.3226232 56.1969458,25.7513424 56.1969458,26.2787069 L54.3464039,26.2787069 C54.3464039,24.7310468 55.6053695,23.4720813 57.1530296,23.4720813 C58.7006897,23.4720813 59.9596552,24.7310468 59.9596552,26.2787069" id="Fill-3" fill="#292188"></path>
                        <path d="M35.8411108,47.6523325 L34.8541404,47.6523325 C31.2826626,47.6523325 28.3773177,44.7469877 28.3773177,41.1755099 L28.3773177,26.2787365 C28.3773177,24.7310764 29.6362833,23.4721108 31.1839433,23.4721108 C32.7316034,23.4721108 33.990569,24.7310764 33.990569,26.2787365 L32.1400271,26.2787365 C32.1400271,25.751298 31.7113079,25.3226527 31.1839433,25.3226527 C30.6565049,25.3226527 30.2278596,25.751298 30.2278596,26.2787365 L30.2278596,41.1755099 C30.2278596,42.7836133 31.052564,44.2029236 32.3010369,45.0319877 C32.7642635,46.5475788 34.1755936,47.6523325 35.8411108,47.6523325" id="Fill-5" fill="#292188"></path>
                        <path d="M56.1969163,32.848101 L56.1969163,43.9512783 C56.1969163,44.3269433 56.1407586,44.6902685 56.0359064,45.0320172 C55.5726798,46.5475345 54.1613498,47.6523621 52.4958325,47.6523621 L44.168468,47.6523621 L44.168468,42.1315493 C45.6988374,42.1315493 46.9442808,40.8861798 46.9442808,39.3558103 L46.9442808,36.5491108 L52.4958325,36.5491108 C54.5370148,36.5491108 56.1969163,34.8892094 56.1969163,32.848101" id="Fill-7" fill="#292188"></path>
                        <path d="M44.1684901,42.131564 L44.1684901,47.652303 L35.8411256,47.652303 C34.1756084,47.652303 32.7642783,46.5475493 32.3010517,45.0319581 C32.1961995,44.6902094 32.1400419,44.3268842 32.1400419,43.9512192 L32.1400419,32.8481158 C32.1400419,34.8892241 33.7999433,36.5491256 35.8411256,36.5491256 L41.3926773,36.5491256 L41.3926773,39.3558251 C41.3926773,40.8861946 42.6381207,42.131564 44.1684901,42.131564" id="Fill-9" fill="#3B35B9"></path>
                        <path d="M56.1969163,26.2787069 L56.1969163,32.8481158 C56.1969163,34.8892241 54.5370148,36.5491256 52.4958325,36.5491256 L46.9442808,36.5491256 L46.9442808,30.9975739 L44.168468,30.9975739 L44.168468,26.2787069 L56.1969163,26.2787069 Z" id="Fill-11" fill="#3B35B9"></path>
                        <path d="M44.1684901,26.2787069 L44.1684901,30.9975739 L41.3926773,30.9975739 L41.3926773,36.5491256 L35.8411256,36.5491256 C33.7999433,36.5491256 32.1400419,34.8892241 32.1400419,32.8481158 L32.1400419,26.2787069 L44.1684901,26.2787069 Z" id="Fill-13" fill="#4C4CE0"></path>
                        <path d="M46.944266,30.9975665 L46.944266,39.3558177 C46.944266,40.8861872 45.6988966,42.1315567 44.1685271,42.1315567 L44.1685271,30.9975665 L46.944266,30.9975665 Z" id="Fill-15" fill="#FF6786"></path>
                        <path d="M44.1684901,30.9975665 L44.1684901,42.1315567 C42.6381207,42.1315567 41.3926773,40.8861872 41.3926773,39.3558177 L41.3926773,30.9975665 L44.1684901,30.9975665 Z" id="Fill-17" fill="#FBAA95"></path>
                        <path d="M37.5183547,47.22583 C37.6096108,47.2627792 37.7030099,47.2972707 37.7974433,47.32583 C37.7030099,47.2984572 37.6096108,47.2639656 37.5183547,47.22583 L37.5183547,47.22583 Z M35.8385025,46.005436 C35.7797586,45.9296232 35.7241182,45.8528498 35.6726897,45.772899 C35.7251527,45.8528498 35.7807931,45.9296232 35.8385025,46.005436 L35.8385025,46.005436 Z M36.9045369,35.9575049 C36.8174187,35.907702 36.7324433,35.8537611 36.6506453,35.7956823 C36.7334778,35.8527266 36.8174187,35.9066675 36.9045369,35.9575049 L36.9045369,35.9575049 Z M35.5248325,26.3050419 L35.5248325,46.8325049 C35.5248325,46.9041059 35.5174433,46.9705345 35.5048079,47.0317906 C35.4093399,47.4873325 35.0012365,47.6866182 34.8428128,47.6866182 L37.3609655,47.6866182 C37.4585025,47.6866182 37.6515813,47.6108793 37.8069015,47.4447709 C37.8372709,47.4126281 37.8666798,47.3773818 37.8929113,47.3379236 C37.981064,47.20817 38.0429852,47.041101 38.0429852,46.8325049 L38.0429852,26.3050419 L35.5248325,26.3050419 Z" id="Fill-19" fill="#1A0F5B"></path>
                        <g id="Group-23" transform="translate(23.866995, 0.026527)">
                            <mask id="mask-2" fill="white">
                                <use xlink:href="#path-1"></use>
                            </mask>
                            <g id="Clip-22"></g>
                            <path d="M8.75441379,11.9363645 C8.60537438,11.8072759 8.45116256,11.6866847 8.29273892,11.5743695 L8.29273892,0.976980296 C8.29273892,0.463876847 7.98638424,0.0473497537 7.61071921,0.0473497537 L4.18281281,0.0473497537 C3.80618719,0.0473497537 3.5007931,0.463876847 3.5007931,0.976980296 L3.5007931,11.5743695 C3.42106404,11.6310443 3.34340394,11.6887537 3.26581773,11.7506749 C1.95948768,12.7725961 0.9711133,14.3758966 0.450694581,16.2571773 C0.176852217,17.2350591 0.0309901478,18.2874975 0.0309901478,19.3734089 L0.0309901478,46.7304532 C0.0309901478,47.2435567 0.336310345,47.6600837 0.712935961,47.6600837 L11.0805961,47.6600837 C11.2600049,47.6600837 11.7626158,47.3998374 11.7626158,46.7965862 L11.7626158,19.3734089 C11.7626158,16.3233103 10.6084286,13.5290985 8.75441379,11.9363645" id="Fill-21" fill="#292188" mask="url(#mask-2)"></path>
                        </g>
                        <path d="M27.179298,39.4472217 L35.4459975,39.4472217 C35.5473768,39.4472217 35.6296182,39.3649803 35.6296182,39.263601 L35.6296182,23.6543645 C35.6296182,23.5529113 35.5473768,23.4707438 35.4459975,23.4707438 L27.179298,23.4707438 C27.0778448,23.4707438 26.9956773,23.5529113 26.9956773,23.6543645 L26.9956773,39.263601 C26.9956773,39.3649803 27.0778448,39.4472217 27.179298,39.4472217" id="Fill-24" fill="#FBAA95"></path>
                        <mask id="mask-4" fill="white">
                            <use xlink:href="#path-3"></use>
                        </mask>
                        <g id="Clip-27"></g>
                        <polygon id="Fill-26" fill="#FBAA95" mask="url(#mask-4)" points="27.8724384 39.4471921 35.6295813 39.4471921 35.6295813 23.4707143 27.8724384 23.4707143"></polygon>
                        <path d="M32.0008374,10.801803 L32.0008374,30.0030591 C32.0008374,31.4358916 31.7218966,32.8578621 31.1639409,34.2653498 C30.6042118,35.6746847 29.9122167,36.9245616 29.0880296,38.0168276 C28.2638424,39.1091675 27.2802709,40.1706207 26.1390148,41.2049557 C24.9959852,42.2375172 23.9417734,43.0961379 22.9744581,43.7790443 C22.0089163,44.4637241 21,45.1086502 19.9511823,45.7172217 C18.9005172,46.3240936 18.1542118,46.7389212 17.7121921,46.9544631 C17.2720197,47.1718522 16.9170443,47.3384778 16.6507389,47.4544138 C16.4496798,47.5540197 16.2341379,47.6047833 16.0004187,47.6047833 C15.7667734,47.6047833 15.5493842,47.5540197 15.3500985,47.4544138 C15.083867,47.3384778 14.7287438,47.1718522 14.286798,46.9544631 C13.8466256,46.7389212 13.1003202,46.3240936 12.0496552,45.7172217 C10.999064,45.1086502 9.99192118,44.4637241 9.02460591,43.7790443 C8.05906404,43.0961379 7.00485222,42.2375172 5.86182266,41.2049557 C4.72064039,40.1706207 3.73699507,39.1091675 2.91280788,38.0168276 C2.0867734,36.9245616 1.39477833,35.6746847 0.836896552,34.2653498 C0.278940887,32.8578621 0,31.4358916 0,30.0030591 L0,10.801803 C0,10.3688719 0.157610837,9.99394581 0.474605911,9.67695074 C0.791600985,9.35988177 1.16652709,9.20234483 1.59953202,9.20234483 L30.4013793,9.20234483 C30.8342365,9.20234483 31.2092365,9.35988177 31.5262315,9.67695074 C31.8432266,9.99394581 32.0008374,10.3688719 32.0008374,10.801803" id="Fill-28" fill="#FBAA95" mask="url(#mask-4)"></path>
                        <path d="M16.0004113,9.20234483 L16.0004113,47.6047833 C15.766766,47.6047833 15.5493768,47.5540197 15.3500911,47.4544138 C15.0838596,47.3384778 14.7288103,47.1718522 14.2867906,46.9544631 C13.8466182,46.7389212 13.1003128,46.3240936 12.0496478,45.7172217 C10.9990567,45.1086502 9.99191379,44.4637241 9.02459852,43.7789704 C8.05905665,43.0961379 7.00484483,42.2375172 5.86181527,41.2049557 C4.720633,40.1706207 3.73698768,39.1091675 2.91280049,38.0168276 C2.08676601,36.9245616 1.39477094,35.6746847 0.836889163,34.2653498 C0.278933498,32.8578621 -7.38916256e-06,31.4358916 -7.38916256e-06,30.0030591 L-7.38916256e-06,10.801803 C-7.38916256e-06,10.3688719 0.157603448,9.99394581 0.474598522,9.67695074 C0.791593596,9.35988177 1.1665936,9.20234483 1.59952463,9.20234483 L16.0004113,9.20234483 Z" id="Fill-29" fill="#FF6786" mask="url(#mask-4)"></path>
                        <path d="M30.0415862,12.9571478 L30.0415862,29.8071724 C30.0415862,31.0645862 29.7967833,32.312468 29.3071773,33.5475665 C28.8160197,34.7843645 28.2087783,35.8811379 27.4854532,36.839734 C26.762202,37.7982562 25.899,38.7298079 24.8975468,39.6374187 C23.8945419,40.5435517 22.9693448,41.2970246 22.1204778,41.8963596 C21.2731626,42.4971724 20.3877931,43.0631084 19.467399,43.597197 C18.5453793,44.129734 17.8904778,44.4937241 17.5026207,44.6828867 C17.1163153,44.8736749 16.8047882,45.0199803 16.571069,45.1216552 C16.3946897,45.2091429 16.2054532,45.2536256 16.0004039,45.2536256 C15.7953547,45.2536256 15.6046404,45.2091429 15.4297389,45.1216552 C15.1960936,45.0199803 14.8844926,44.8736749 14.4966355,44.6828867 C14.11033,44.4937241 13.4554286,44.129734 12.5334828,43.597197 C11.6114631,43.0631084 10.7276453,42.4971724 9.87877833,41.8963596 C9.03146305,41.2970246 8.1063399,40.5435517 7.10326108,39.6374187 C6.10180788,38.7298079 5.23860591,37.7982562 4.51535468,36.839734 C3.79047783,35.8811379 3.18323645,34.7843645 2.69363054,33.5475665 C2.20402463,32.312468 1.95922167,31.0645862 1.95922167,29.8071724 L1.95922167,12.9571478 C1.95922167,12.577197 2.0975468,12.2481576 2.37567488,11.9699557 C2.65395074,11.6917537 2.98299015,11.5535025 3.362867,11.5535025 L28.6379409,11.5535025 C29.0178916,11.5535025 29.346931,11.6917537 29.625133,11.9699557 C29.9032611,12.2481576 30.0415862,12.577197 30.0415862,12.9571478" id="Fill-30" fill="#4C4CE0" mask="url(#mask-4)"></path>
                        <path d="M16.0121749,11.5534951 L16.0121749,45.2536182 C15.8064606,45.2536182 15.6164113,45.2085443 15.4420271,45.1223128 C15.2069039,45.0204163 14.8953768,44.8735197 14.5074458,44.6834704 C14.121436,44.4934212 13.4670517,44.1289877 12.5461404,43.5980025 C11.6233079,43.063101 10.7397118,42.4968695 9.89128818,41.8953177 C9.04293842,41.2977562 8.11811084,40.5434704 7.11495813,39.6382241 C6.1137266,38.7291355 5.24971182,37.7984704 4.52668227,36.8403177 C3.80173153,35.8802438 3.19441626,34.7850222 2.70451478,33.5467463 C2.21668227,32.3123867 1.97180542,31.0642833 1.97180542,29.8064261 L1.97180542,12.9563276 C1.97180542,12.5762291 2.10894828,12.2490369 2.38715025,11.970835 C2.66535222,11.692633 2.99453941,11.5534951 3.37463793,11.5534951 L16.0121749,11.5534951 Z" id="Fill-31" fill="#3B35B9" mask="url(#mask-4)"></path>
                        <path d="M13.330101,35.7962586 C13.330101,35.4539926 13.0669729,35.1779335 12.7522685,35.1779335 C12.4323916,35.1779335 12.174436,35.4539926 12.174436,35.7962586 C12.174436,36.1385246 12.4323916,36.4145099 12.7522685,36.4145099 C13.0669729,36.4145099 13.330101,36.1385246 13.330101,35.7962586" id="Fill-32" fill="#F05068" mask="url(#mask-4)"></path>
                        <path d="M12.494165,34.2614926 C12.494165,33.9192266 12.2362094,33.6431675 11.9164064,33.6431675 C11.5965296,33.6431675 11.3385739,33.9192266 11.3385739,34.2614926 C11.3385739,34.6037586 11.5965296,34.8798177 11.9164064,34.8798177 C12.2362094,34.8742759 12.494165,34.5982167 12.494165,34.2614926" id="Fill-33" fill="#F05068" mask="url(#mask-4)"></path>
                        <path d="M14.160665,34.2614926 C14.160665,33.9192266 13.9027094,33.6431675 13.5828325,33.6431675 C13.2629557,33.6431675 13.005,33.9192266 13.005,34.2614926 C13.005,34.6037586 13.2629557,34.8798177 13.5828325,34.8798177 C13.9027094,34.8742759 14.160665,34.5982167 14.160665,34.2614926" id="Fill-34" fill="#F05068" mask="url(#mask-4)"></path>
                        <path d="M15.8217783,34.2614926 C15.8217783,33.9192266 15.5638227,33.6431675 15.2439458,33.6431675 C14.9241429,33.6431675 14.6661133,33.9192266 14.6661133,34.2614926 C14.6661133,34.6037586 14.9241429,34.8798177 15.2439458,34.8798177 C15.5638227,34.8742759 15.8217783,34.5982167 15.8217783,34.2614926" id="Fill-35" fill="#F05068" mask="url(#mask-4)"></path>
                        <path d="M17.4832611,34.2614926 C17.4832611,33.9192266 17.2253054,33.6431675 16.9054286,33.6431675 C16.5855517,33.6431675 16.3275961,33.9192266 16.3275961,34.2614926 C16.3275961,34.6037586 16.5855517,34.8798177 16.9054286,34.8798177 C17.2253054,34.8742759 17.4832611,34.5982167 17.4832611,34.2614926" id="Fill-36" fill="#F05068" mask="url(#mask-4)"></path>
                        <path d="M20.8108744,34.2614926 C20.8108744,33.9192266 20.5529187,33.6431675 20.2330419,33.6431675 C19.913165,33.6431675 19.6552094,33.9192266 19.6552094,34.2614926 C19.6552094,34.6037586 19.913165,34.8798177 20.2330419,34.8798177 C20.5529187,34.8742759 20.8108744,34.5982167 20.8108744,34.2614926" id="Fill-37" fill="#F05068" mask="url(#mask-4)"></path>
                        <path d="M22.4720246,34.2614926 C22.4720246,33.9192266 22.214069,33.6431675 21.8941921,33.6431675 C21.5743153,33.6431675 21.3163596,33.9192266 21.3163596,34.2614926 C21.3163596,34.6037586 21.5743153,34.8798177 21.8941921,34.8798177 C22.214069,34.8742759 22.4720246,34.5982167 22.4720246,34.2614926" id="Fill-38" fill="#F05068" mask="url(#mask-4)"></path>
                        <path d="M14.9915468,35.7962586 C14.9915468,35.4539926 14.7335911,35.1779335 14.4137882,35.1779335 C14.0939113,35.1779335 13.8358818,35.4539926 13.8358818,35.7962586 C13.8358818,36.1385246 14.0939113,36.4145099 14.4137882,36.4145099 C14.7335911,36.4145099 14.9915468,36.1385246 14.9915468,35.7962586" id="Fill-39" fill="#F05068" mask="url(#mask-4)"></path>
                        <path d="M16.6525567,35.7962586 C16.6525567,35.4539926 16.394601,35.1779335 16.0747241,35.1779335 C15.7548473,35.1779335 15.4968916,35.4539926 15.4968916,35.7962586 C15.4968916,36.1385246 15.7548473,36.4145099 16.0747241,36.4145099 C16.394601,36.4145099 16.6525567,36.1385246 16.6525567,35.7962586" id="Fill-40" fill="#F05068" mask="url(#mask-4)"></path>
                        <path d="M19.9749754,35.7962586 C19.9749754,35.4539926 19.7170197,35.1779335 19.4023153,35.1779335 C19.0824384,35.1779335 18.8244828,35.4539926 18.8244828,35.7962586 C18.8244828,36.1385246 19.0824384,36.4145099 19.4023153,36.4145099 C19.7170197,36.4145099 19.9749754,36.1385246 19.9749754,35.7962586" id="Fill-41" fill="#F05068" mask="url(#mask-4)"></path>
                        <path d="M11.6637857,32.7599187 C11.6637857,32.4176527 11.40583,32.1415936 11.0859532,32.1415936 C10.7660764,32.1415936 10.5081207,32.4176527 10.5081207,32.7599187 C10.5081207,33.1021847 10.7660764,33.3782438 11.0859532,33.3782438 C11.40583,33.3782438 11.6637857,33.1021847 11.6637857,32.7599187" id="Fill-42" fill="#F05068" mask="url(#mask-4)"></path>
                        <path d="M13.330101,32.7599187 C13.330101,32.4176527 13.0721453,32.1415936 12.7522685,32.1415936 C12.4323916,32.1415936 12.174436,32.4176527 12.174436,32.7599187 C12.174436,33.1021847 12.4323916,33.3782438 12.7522685,33.3782438 C13.0669729,33.3782438 13.330101,33.1021847 13.330101,32.7599187" id="Fill-43" fill="#F05068" mask="url(#mask-4)"></path>
                        <path d="M12.494165,31.2306724 C12.494165,30.8884064 12.2362094,30.6124212 11.9164064,30.6124212 C11.5965296,30.6124212 11.3385739,30.8884064 11.3385739,31.2306724 C11.3385739,31.5729384 11.5965296,31.8489975 11.9164064,31.8489975 C12.2362094,31.8489975 12.494165,31.5729384 12.494165,31.2306724" id="Fill-44" fill="#F05068" mask="url(#mask-4)"></path>
                        <path d="M10.8330517,31.2306724 C10.8330517,30.8884064 10.5750961,30.6124212 10.2552192,30.6124212 C9.93541626,30.6124212 9.6773867,30.8884064 9.6773867,31.2306724 C9.6773867,31.5729384 9.93541626,31.8489975 10.2552192,31.8489975 C10.5750961,31.8489975 10.8330517,31.5729384 10.8330517,31.2306724" id="Fill-45" fill="#F05068" mask="url(#mask-4)"></path>
                        <path d="M10.0023103,32.7599187 C10.0023103,32.4176527 9.74435468,32.1415936 9.42447783,32.1415936 C9.10467488,32.1415936 8.84664532,32.4176527 8.84664532,32.7599187 C8.84664532,33.1021847 9.10467488,33.3782438 9.42447783,33.3782438 C9.74435468,33.3782438 10.0023103,33.1021847 10.0023103,32.7599187" id="Fill-46" fill="#F05068" mask="url(#mask-4)"></path>
                        <path d="M9.17156897,31.2306724 C9.17156897,30.8884064 8.9136133,30.6124212 8.59373645,30.6124212 C8.2739335,30.6124212 8.01590394,30.8884064 8.01590394,31.2306724 C8.01590394,31.5729384 8.2739335,31.8489975 8.59373645,31.8489975 C8.9136133,31.8489975 9.17156897,31.5729384 9.17156897,31.2306724" id="Fill-47" fill="#F05068" mask="url(#mask-4)"></path>
                        <path d="M14.160665,31.2306724 C14.160665,30.8884064 13.9027094,30.6124212 13.5828325,30.6124212 C13.2629557,30.6124212 13.005,30.8884064 13.005,31.2306724 C13.005,31.5729384 13.2629557,31.8489975 13.5828325,31.8489975 C13.9027094,31.8489975 14.160665,31.5729384 14.160665,31.2306724" id="Fill-48" fill="#F05068" mask="url(#mask-4)"></path>
                        <path d="M15.8217783,31.2306724 C15.8217783,30.8884064 15.5638227,30.6124212 15.2439458,30.6124212 C14.9241429,30.6124212 14.6661133,30.8884064 14.6661133,31.2306724 C14.6661133,31.5729384 14.9241429,31.8489975 15.2439458,31.8489975 C15.5638227,31.8489975 15.8217783,31.5729384 15.8217783,31.2306724" id="Fill-49" fill="#F05068" mask="url(#mask-4)"></path>
                        <path d="M17.4832611,31.2306724 C17.4832611,30.8884064 17.2253054,30.6124212 16.9054286,30.6124212 C16.5855517,30.6124212 16.3275961,30.8884064 16.3275961,31.2306724 C16.3275961,31.5729384 16.5855517,31.8489975 16.9054286,31.8489975 C17.2253054,31.8489975 17.4832611,31.5729384 17.4832611,31.2306724" id="Fill-50" fill="#F05068" mask="url(#mask-4)"></path>
                        <path d="M19.144197,31.2306724 C19.144197,30.8884064 18.8863153,30.6124212 18.5664384,30.6124212 C18.2465616,30.6124212 17.9886059,30.8884064 17.9886059,31.2306724 C17.9886059,31.5729384 18.2465616,31.8489975 18.5664384,31.8489975 C18.8863153,31.8489975 19.144197,31.5729384 19.144197,31.2306724" id="Fill-51" fill="#F05068" mask="url(#mask-4)"></path>
                        <path d="M20.8108744,31.2306724 C20.8108744,30.8884064 20.5529187,30.6124212 20.2330419,30.6124212 C19.913165,30.6124212 19.6552094,30.8884064 19.6552094,31.2306724 C19.6552094,31.5729384 19.913165,31.8489975 20.2330419,31.8489975 C20.5529187,31.8489975 20.8108744,31.5729384 20.8108744,31.2306724" id="Fill-52" fill="#F05068" mask="url(#mask-4)"></path>
                        <path d="M22.4720246,31.2306724 C22.4720246,30.8884064 22.214069,30.6124212 21.8941921,30.6124212 C21.5743153,30.6124212 21.3163596,30.8884064 21.3163596,31.2306724 C21.3163596,31.5729384 21.5743153,31.8489975 21.8941921,31.8489975 C22.214069,31.8489975 22.4720246,31.5729384 22.4720246,31.2306724" id="Fill-53" fill="#F05068" mask="url(#mask-4)"></path>
                        <path d="M14.9915468,32.7599187 C14.9915468,32.4176527 14.7335911,32.1415936 14.4137882,32.1415936 C14.0939113,32.1415936 13.8358818,32.4176527 13.8358818,32.7599187 C13.8358818,33.1021847 14.0939113,33.3782438 14.4137882,33.3782438 C14.7335911,33.3782438 14.9915468,33.1021847 14.9915468,32.7599187" id="Fill-54" fill="#F05068" mask="url(#mask-4)"></path>
                        <path d="M16.6525567,32.7599187 C16.6525567,32.4176527 16.394601,32.1415936 16.0747241,32.1415936 C15.7548473,32.1415936 15.4968916,32.4176527 15.4968916,32.7599187 C15.4968916,33.1021847 15.7548473,33.3782438 16.0747241,33.3782438 C16.394601,33.3782438 16.6525567,33.1021847 16.6525567,32.7599187" id="Fill-55" fill="#F05068" mask="url(#mask-4)"></path>
                        <path d="M18.3140025,32.7599187 C18.3140025,32.4176527 18.0560468,32.1415936 17.73617,32.1415936 C17.4162931,32.1415936 17.1583374,32.4176527 17.1583374,32.7599187 C17.1583374,33.1021847 17.4162931,33.3782438 17.73617,33.3782438 C18.0560468,33.3782438 18.3140025,33.1021847 18.3140025,32.7599187" id="Fill-56" fill="#F05068" mask="url(#mask-4)"></path>
                        <path d="M21.6415788,32.7599187 C21.6415788,32.4176527 21.3836232,32.1415936 21.0638202,32.1415936 C20.7439433,32.1415936 20.4859877,32.4176527 20.4859877,32.7599187 C20.4859877,33.1021847 20.7439433,33.3782438 21.0638202,33.3782438 C21.3836232,33.3782438 21.6415788,33.1021847 21.6415788,32.7599187" id="Fill-57" fill="#F05068" mask="url(#mask-4)"></path>
                        <path d="M24.1332931,31.2306724 C24.1332931,30.8884064 23.8753374,30.6124212 23.5554606,30.6124212 C23.2356576,30.6124212 22.977702,30.8884064 22.977702,31.2306724 C22.977702,31.5729384 23.2356576,31.8489975 23.5554606,31.8489975 C23.8753374,31.8489975 24.1332931,31.5729384 24.1332931,31.2306724" id="Fill-58" fill="#F05068" mask="url(#mask-4)"></path>
                        <path d="M23.3027291,32.7599187 C23.3027291,32.4176527 23.0447734,32.1415936 22.7248966,32.1415936 C22.4050936,32.1415936 22.1471379,32.4176527 22.1471379,32.7599187 C22.1471379,33.1021847 22.4050936,33.3782438 22.7248966,33.3782438 C23.0447734,33.3782438 23.3027291,33.1021847 23.3027291,32.7599187" id="Fill-59" fill="#F05068" mask="url(#mask-4)"></path>
                        <path d="M8.34133744,29.718133 C8.34133744,29.375867 8.08338177,29.0998079 7.76350493,29.0998079 C7.44370197,29.0998079 7.18567241,29.375867 7.18567241,29.718133 C7.18567241,30.060399 7.44370197,30.3364581 7.76350493,30.3364581 C8.08338177,30.3309163 8.34133744,30.0548571 8.34133744,29.718133" id="Fill-60" fill="#F05068" mask="url(#mask-4)"></path>
                        <path d="M11.6637857,29.718133 C11.6637857,29.375867 11.40583,29.0998079 11.0859532,29.0998079 C10.7660764,29.0998079 10.5081207,29.375867 10.5081207,29.718133 C10.5081207,30.060399 10.7660764,30.3364581 11.0859532,30.3364581 C11.40583,30.3309163 11.6637857,30.0548571 11.6637857,29.718133" id="Fill-61" fill="#F05068" mask="url(#mask-4)"></path>
                        <path d="M16.6525567,29.718133 C16.6525567,29.375867 16.394601,29.0998079 16.0747241,29.0998079 C15.7548473,29.0998079 15.4968916,29.375867 15.4968916,29.718133 C15.4968916,30.060399 15.7548473,30.3364581 16.0747241,30.3364581 C16.394601,30.3309163 16.6525567,30.0548571 16.6525567,29.718133" id="Fill-62" fill="#F05068" mask="url(#mask-4)"></path>
                        <path d="M18.3140025,29.718133 C18.3140025,29.375867 18.0560468,29.0998079 17.73617,29.0998079 C17.4162931,29.0998079 17.1583374,29.375867 17.1583374,29.718133 C17.1583374,30.060399 17.4162931,30.3364581 17.73617,30.3364581 C18.0560468,30.3309163 18.3140025,30.0548571 18.3140025,29.718133" id="Fill-63" fill="#F05068" mask="url(#mask-4)"></path>
                        <path d="M19.9749754,29.718133 C19.9749754,29.375867 19.7170197,29.0998079 19.3971429,29.0998079 C19.077266,29.0998079 18.8193103,29.375867 18.8193103,29.718133 C18.8193103,30.060399 19.077266,30.3364581 19.3971429,30.3364581 C19.7170197,30.3309163 19.9749754,30.0548571 19.9749754,29.718133" id="Fill-64" fill="#F05068" mask="url(#mask-4)"></path>
                        <path d="M10.8330517,28.2 C10.8330517,27.857734 10.5750961,27.5816749 10.2552192,27.5816749 C9.93541626,27.5816749 9.6773867,27.857734 9.6773867,28.2 C9.6773867,28.542266 9.93541626,28.8182512 10.2552192,28.8182512 C10.5750961,28.8182512 10.8330517,28.542266 10.8330517,28.2" id="Fill-65" fill="#F05068" mask="url(#mask-4)"></path>
                        <path d="M8.34133744,26.68183 C8.34133744,26.339564 8.08338177,26.0635788 7.76350493,26.0635788 C7.44370197,26.0635788 7.18567241,26.339564 7.18567241,26.68183 C7.18567241,27.0240961 7.44370197,27.3001552 7.76350493,27.3001552 C8.08338177,27.3001552 8.34133744,27.0240961 8.34133744,26.68183" id="Fill-66" fill="#F05068" mask="url(#mask-4)"></path>
                        <path d="M7.51059606,28.2 C7.51059606,27.857734 7.25264039,27.5816749 6.93276355,27.5816749 C6.61296059,27.5816749 6.35493103,27.857734 6.35493103,28.2 C6.35493103,28.542266 6.61296059,28.8182512 6.93276355,28.8182512 C7.25264039,28.8182512 7.51059606,28.542266 7.51059606,28.2" id="Fill-67" fill="#F05068" mask="url(#mask-4)"></path>
                        <path d="M11.6637857,26.68183 C11.6637857,26.339564 11.40583,26.0635788 11.0859532,26.0635788 C10.7660764,26.0635788 10.5081207,26.339564 10.5081207,26.68183 C10.5081207,27.0240961 10.7660764,27.3001552 11.0859532,27.3001552 C11.40583,27.3001552 11.6637857,27.0240961 11.6637857,26.68183" id="Fill-68" fill="#F05068" mask="url(#mask-4)"></path>
                        <path d="M16.6525567,26.68183 C16.6525567,26.339564 16.394601,26.0635788 16.0747241,26.0635788 C15.7548473,26.0635788 15.4968916,26.339564 15.4968916,26.68183 C15.4968916,27.0240961 15.7548473,27.3001552 16.0747241,27.3001552 C16.394601,27.3001552 16.6525567,27.0240961 16.6525567,26.68183" id="Fill-69" fill="#F05068" mask="url(#mask-4)"></path>
                        <path d="M18.3140025,26.68183 C18.3140025,26.339564 18.0560468,26.0635788 17.73617,26.0635788 C17.4162931,26.0635788 17.1583374,26.339564 17.1583374,26.68183 C17.1583374,27.0240961 17.4162931,27.3001552 17.73617,27.3001552 C18.0560468,27.3001552 18.3140025,27.0240961 18.3140025,26.68183" id="Fill-70" fill="#F05068" mask="url(#mask-4)"></path>
                        <path d="M12.494165,28.2 C12.494165,27.857734 12.2362094,27.5816749 11.9164064,27.5816749 C11.5965296,27.5816749 11.3385739,27.857734 11.3385739,28.2 C11.3385739,28.542266 11.5965296,28.8182512 11.9164064,28.8182512 C12.2362094,28.8182512 12.494165,28.542266 12.494165,28.2" id="Fill-71" fill="#F05068" mask="url(#mask-4)"></path>
                        <path d="M15.8217783,28.2 C15.8217783,27.857734 15.5638227,27.5816749 15.2439458,27.5816749 C14.9241429,27.5816749 14.6661133,27.857734 14.6661133,28.2 C14.6661133,28.542266 14.9241429,28.8182512 15.2439458,28.8182512 C15.5638227,28.8182512 15.8217783,28.542266 15.8217783,28.2" id="Fill-72" fill="#F05068" mask="url(#mask-4)"></path>
                        <path d="M17.4832611,28.2 C17.4832611,27.857734 17.2253054,27.5816749 16.9054286,27.5816749 C16.5855517,27.5816749 16.3275961,27.857734 16.3275961,28.2 C16.3275961,28.542266 16.5855517,28.8182512 16.9054286,28.8182512 C17.2253054,28.8182512 17.4832611,28.542266 17.4832611,28.2" id="Fill-73" fill="#F05068" mask="url(#mask-4)"></path>
                        <path d="M20.8108744,28.2 C20.8108744,27.857734 20.5529187,27.5816749 20.2330419,27.5816749 C19.913165,27.5816749 19.6552094,27.857734 19.6552094,28.2 C19.6552094,28.542266 19.913165,28.8182512 20.2330419,28.8182512 C20.5529187,28.8182512 20.8108744,28.542266 20.8108744,28.2" id="Fill-74" fill="#F05068" mask="url(#mask-4)"></path>
                        <path d="M21.6621059,29.718133 C21.6621059,29.375867 21.4041502,29.0998079 21.0842734,29.0998079 C20.7644704,29.0998079 20.5065148,29.375867 20.5065148,29.718133 C20.5065148,30.060399 20.7644704,30.3364581 21.0842734,30.3364581 C21.4041502,30.3309163 21.6621059,30.0548571 21.6621059,29.718133" id="Fill-75" fill="#F05068" mask="url(#mask-4)"></path>
                        <path d="M23.3232562,29.718133 C23.3232562,29.375867 23.0653005,29.0998079 22.7454236,29.0998079 C22.4255468,29.0998079 22.1675911,29.375867 22.1675911,29.718133 C22.1675911,30.060399 22.4255468,30.3364581 22.7454236,30.3364581 C23.0653005,30.3309163 23.3232562,30.0548571 23.3232562,29.718133" id="Fill-76" fill="#F05068" mask="url(#mask-4)"></path>
                        <path d="M24.9897192,29.718133 C24.9897192,29.375867 24.7317635,29.0998079 24.4118867,29.0998079 C24.0920837,29.0998079 23.8340542,29.375867 23.8340542,29.718133 C23.8340542,30.060399 24.0920837,30.3364581 24.4118867,30.3364581 C24.7265911,30.3309163 24.9897192,30.0548571 24.9897192,29.718133" id="Fill-77" fill="#F05068" mask="url(#mask-4)"></path>
                        <path d="M23.3232562,26.68183 C23.3232562,26.339564 23.0653005,26.0635788 22.7454236,26.0635788 C22.4255468,26.0635788 22.1675911,26.339564 22.1675911,26.68183 C22.1675911,27.0240961 22.4255468,27.3001552 22.7454236,27.3001552 C23.0653005,27.3001552 23.3232562,27.0240961 23.3232562,26.68183" id="Fill-78" fill="#F05068" mask="url(#mask-4)"></path>
                        <path d="M24.9897192,26.68183 C24.9897192,26.339564 24.7317635,26.0635788 24.4118867,26.0635788 C24.0920837,26.0635788 23.8340542,26.339564 23.8340542,26.68183 C23.8340542,27.0240961 24.0920837,27.3001552 24.4118867,27.3001552 C24.7265911,27.3001552 24.9897192,27.0240961 24.9897192,26.68183" id="Fill-79" fill="#F05068" mask="url(#mask-4)"></path>
                        <path d="M22.4928473,28.2 C22.4928473,27.857734 22.2348916,27.5816749 21.9150148,27.5816749 C21.5951379,27.5816749 21.3371823,27.857734 21.3371823,28.2 C21.3371823,28.542266 21.5951379,28.8182512 21.9150148,28.8182512 C22.2348916,28.8182512 22.4928473,28.542266 22.4928473,28.2" id="Fill-80" fill="#F05068" mask="url(#mask-4)"></path>
                        <path d="M24.1539975,28.2 C24.1539975,27.857734 23.8960419,27.5816749 23.576165,27.5816749 C23.2562882,27.5816749 22.9983325,27.857734 22.9983325,28.2 C22.9983325,28.542266 23.2562882,28.8182512 23.576165,28.8182512 C23.8960419,28.8182512 24.1539975,28.542266 24.1539975,28.2" id="Fill-81" fill="#F05068" mask="url(#mask-4)"></path>
                        <path d="M25.8204606,28.2 C25.8204606,27.857734 25.5625049,27.5816749 25.2426281,27.5816749 C24.9228251,27.5816749 24.6647956,27.857734 24.6647956,28.2 C24.6647956,28.542266 24.9228251,28.8182512 25.2426281,28.8182512 C25.5625049,28.8182512 25.8204606,28.542266 25.8204606,28.2" id="Fill-82" fill="#F05068" mask="url(#mask-4)"></path>
                        <path d="M18.8449877,17.5674384 C18.8449877,17.9097044 19.1029433,18.1857635 19.4228202,18.1857635 C19.742697,18.1857635 20.0006527,17.9097044 20.0006527,17.5674384 C20.0006527,17.2251724 19.742697,16.9491133 19.4228202,16.9491133 C19.1029433,16.9491133 18.8449877,17.2251724 18.8449877,17.5674384" id="Fill-83" fill="#F05068" mask="url(#mask-4)"></path>
                        <path d="M19.6759064,19.1020936 C19.6759064,19.4443596 19.9338621,19.7204187 20.2537389,19.7204187 C20.5735419,19.7204187 20.8315714,19.4443596 20.8315714,19.1020936 C20.8315714,18.7598276 20.5735419,18.4837685 20.2537389,18.4837685 C19.9338621,18.4893103 19.6759064,18.7652956 19.6759064,19.1020936" id="Fill-84" fill="#F05068" mask="url(#mask-4)"></path>
                        <path d="M21.3372044,19.1020936 C21.3372044,19.4443596 21.5951601,19.7204187 21.9150369,19.7204187 C22.2349138,19.7204187 22.4928695,19.4443596 22.4928695,19.1020936 C22.4928695,18.7598276 22.2349138,18.4837685 21.9150369,18.4837685 C21.6003325,18.4893103 21.3372044,18.7652956 21.3372044,19.1020936" id="Fill-85" fill="#F05068" mask="url(#mask-4)"></path>
                        <path d="M18.0147857,19.1020936 C18.0147857,19.4443596 18.2727414,19.7204187 18.5926182,19.7204187 C18.9124951,19.7204187 19.1703768,19.4443596 19.1703768,19.1020936 C19.1703768,18.7598276 18.9124951,18.4837685 18.5926182,18.4837685 C18.2727414,18.4893103 18.0147857,18.7652956 18.0147857,19.1020936" id="Fill-86" fill="#F05068" mask="url(#mask-4)"></path>
                        <path d="M16.3532734,19.1020936 C16.3532734,19.4443596 16.6112291,19.7204187 16.9311059,19.7204187 C17.2509828,19.7204187 17.5089384,19.4443596 17.5089384,19.1020936 C17.5089384,18.7598276 17.2509828,18.4837685 16.9311059,18.4837685 C16.6112291,18.4893103 16.3532734,18.7652956 16.3532734,19.1020936" id="Fill-87" fill="#F05068" mask="url(#mask-4)"></path>
                        <path d="M14.6871429,19.1020936 C14.6871429,19.4443596 14.9450985,19.7204187 15.2649754,19.7204187 C15.5848522,19.7204187 15.8428079,19.4443596 15.8428079,19.1020936 C15.8428079,18.7598276 15.5848522,18.4837685 15.2649754,18.4837685 C14.9502709,18.4893103 14.6871429,18.7652956 14.6871429,19.1020936" id="Fill-88" fill="#F05068" mask="url(#mask-4)"></path>
                        <path d="M13.025697,19.1020936 C13.025697,19.4443596 13.2836527,19.7204187 13.6035296,19.7204187 C13.9234064,19.7204187 14.1813621,19.4443596 14.1813621,19.1020936 C14.1813621,18.7598276 13.9234064,18.4837685 13.6035296,18.4837685 C13.2836527,18.4893103 13.025697,18.7652956 13.025697,19.1020936" id="Fill-89" fill="#F05068" mask="url(#mask-4)"></path>
                        <path d="M11.3645394,19.1020936 C11.3645394,19.4443596 11.6224951,19.7204187 11.9423719,19.7204187 C12.2622488,19.7204187 12.5202044,19.4443596 12.5202044,19.1020936 C12.5202044,18.7598276 12.2622488,18.4837685 11.9423719,18.4837685 C11.6224951,18.4893103 11.3645394,18.7652956 11.3645394,19.1020936" id="Fill-90" fill="#F05068" mask="url(#mask-4)"></path>
                        <path d="M9.70324138,19.1020936 C9.70324138,19.4443596 9.96119704,19.7204187 10.2810739,19.7204187 C10.6009507,19.7204187 10.8589064,19.4443596 10.8589064,19.1020936 C10.8589064,18.7598276 10.6009507,18.4837685 10.2810739,18.4837685 C9.96119704,18.4893103 9.70324138,18.7652956 9.70324138,19.1020936" id="Fill-91" fill="#F05068" mask="url(#mask-4)"></path>
                        <path d="M17.1840148,17.5674384 C17.1840148,17.9097044 17.4419704,18.1857635 17.7618473,18.1857635 C18.0817241,18.1857635 18.3396798,17.9097044 18.3396798,17.5674384 C18.3396798,17.2251724 18.0817241,16.9491133 17.7618473,16.9491133 C17.4419704,16.9491133 17.1840148,17.2251724 17.1840148,17.5674384" id="Fill-92" fill="#F05068" mask="url(#mask-4)"></path>
                        <path d="M15.522569,17.5674384 C15.522569,17.9097044 15.7805246,18.1857635 16.1004015,18.1857635 C16.4202044,18.1857635 16.678234,17.9097044 16.678234,17.5674384 C16.678234,17.2251724 16.4202044,16.9491133 16.1004015,16.9491133 C15.7805246,16.9491133 15.522569,17.2251724 15.522569,17.5674384" id="Fill-93" fill="#F05068" mask="url(#mask-4)"></path>
                        <path d="M12.1953177,17.5674384 C12.1953177,17.9097044 12.4532734,18.1857635 12.7730764,18.1857635 C13.0929532,18.1857635 13.3509089,17.9097044 13.3509089,17.5674384 C13.3509089,17.2251724 13.0929532,16.9491133 12.7730764,16.9491133 C12.4532734,16.9491133 12.1953177,17.2251724 12.1953177,17.5674384" id="Fill-94" fill="#F05068" mask="url(#mask-4)"></path>
                        <path d="M20.5065,20.6037414 C20.5065,20.9460074 20.7644557,21.2220665 21.0842586,21.2220665 C21.4041355,21.2220665 21.6620911,20.9460074 21.6620911,20.6037414 C21.6620911,20.2614754 21.4041355,19.9854163 21.0842586,19.9854163 C20.7644557,19.9854163 20.5065,20.2614754 20.5065,20.6037414" id="Fill-95" fill="#F05068" mask="url(#mask-4)"></path>
                        <path d="M18.8449877,20.6037414 C18.8449877,20.9460074 19.1029433,21.2220665 19.4228202,21.2220665 C19.742697,21.2220665 20.0006527,20.9460074 20.0006527,20.6037414 C20.0006527,20.2614754 19.742697,19.9854163 19.4228202,19.9854163 C19.1029433,19.9854163 18.8449877,20.2614754 18.8449877,20.6037414" id="Fill-96" fill="#F05068" mask="url(#mask-4)"></path>
                        <path d="M19.6759064,22.1328768 C19.6759064,22.4751429 19.9338621,22.751202 20.2537389,22.751202 C20.5735419,22.751202 20.8315714,22.4751429 20.8315714,22.1328768 C20.8315714,21.7906108 20.5735419,21.5145517 20.2537389,21.5145517 C19.9338621,21.5145517 19.6759064,21.7906108 19.6759064,22.1328768" id="Fill-97" fill="#F05068" mask="url(#mask-4)"></path>
                        <path d="M21.3372044,22.1328768 C21.3372044,22.4751429 21.5951601,22.751202 21.9150369,22.751202 C22.2349138,22.751202 22.4928695,22.4751429 22.4928695,22.1328768 C22.4928695,21.7906108 22.2349138,21.5145517 21.9150369,21.5145517 C21.6003325,21.5145517 21.3372044,21.7906108 21.3372044,22.1328768" id="Fill-98" fill="#F05068" mask="url(#mask-4)"></path>
                        <path d="M22.1727414,20.6037414 C22.1727414,20.9460074 22.430697,21.2220665 22.7505739,21.2220665 C23.0704507,21.2220665 23.3284064,20.9460074 23.3284064,20.6037414 C23.3284064,20.2614754 23.0704507,19.9854163 22.7505739,19.9854163 C22.430697,19.9854163 22.1727414,20.2614754 22.1727414,20.6037414" id="Fill-99" fill="#F05068" mask="url(#mask-4)"></path>
                        <path d="M23.0035197,22.1328768 C23.0035197,22.4751429 23.2614754,22.751202 23.5813522,22.751202 C23.9011552,22.751202 24.1591847,22.4751429 24.1591847,22.1328768 C24.1591847,21.7906108 23.9011552,21.5145517 23.5813522,21.5145517 C23.2614754,21.5145517 23.0035197,21.7906108 23.0035197,22.1328768" id="Fill-100" fill="#F05068" mask="url(#mask-4)"></path>
                        <path d="M18.0147857,22.1328768 C18.0147857,22.4751429 18.2727414,22.751202 18.5926182,22.751202 C18.9124951,22.751202 19.1703768,22.4751429 19.1703768,22.1328768 C19.1703768,21.7906108 18.9124951,21.5145517 18.5926182,21.5145517 C18.2727414,21.5145517 18.0147857,21.7906108 18.0147857,22.1328768" id="Fill-101" fill="#F05068" mask="url(#mask-4)"></path>
                        <path d="M16.3532734,22.1328768 C16.3532734,22.4751429 16.6112291,22.751202 16.9311059,22.751202 C17.2509828,22.751202 17.5089384,22.4751429 17.5089384,22.1328768 C17.5089384,21.7906108 17.2509828,21.5145517 16.9311059,21.5145517 C16.6112291,21.5145517 16.3532734,21.7906108 16.3532734,22.1328768" id="Fill-102" fill="#F05068" mask="url(#mask-4)"></path>
                        <path d="M13.025697,22.1328768 C13.025697,22.4751429 13.2836527,22.751202 13.6035296,22.751202 C13.9234064,22.751202 14.1813621,22.4751429 14.1813621,22.1328768 C14.1813621,21.7906108 13.9234064,21.5145517 13.6035296,21.5145517 C13.2836527,21.5145517 13.025697,21.7906108 13.025697,22.1328768" id="Fill-103" fill="#F05068" mask="url(#mask-4)"></path>
                        <path d="M11.3645394,22.1328768 C11.3645394,22.4751429 11.6224951,22.751202 11.9423719,22.751202 C12.2622488,22.751202 12.5202044,22.4751429 12.5202044,22.1328768 C12.5202044,21.7906108 12.2622488,21.5145517 11.9423719,21.5145517 C11.6224951,21.5145517 11.3645394,21.7906108 11.3645394,22.1328768" id="Fill-104" fill="#F05068" mask="url(#mask-4)"></path>
                        <path d="M9.70324138,22.1328768 C9.70324138,22.4751429 9.96119704,22.751202 10.2810739,22.751202 C10.6009507,22.751202 10.8589064,22.4751429 10.8589064,22.1328768 C10.8589064,21.7906108 10.6009507,21.5145517 10.2810739,21.5145517 C9.96119704,21.5145517 9.70324138,21.7906108 9.70324138,22.1328768" id="Fill-105" fill="#F05068" mask="url(#mask-4)"></path>
                        <path d="M17.1840148,20.6037414 C17.1840148,20.9460074 17.4419704,21.2220665 17.7618473,21.2220665 C18.0817241,21.2220665 18.3396798,20.9460074 18.3396798,20.6037414 C18.3396798,20.2614754 18.0817241,19.9854163 17.7618473,19.9854163 C17.4419704,19.9854163 17.1840148,20.2614754 17.1840148,20.6037414" id="Fill-106" fill="#F05068" mask="url(#mask-4)"></path>
                        <path d="M15.522569,20.6037414 C15.522569,20.9460074 15.7805246,21.2220665 16.1004015,21.2220665 C16.4202044,21.2220665 16.678234,20.9460074 16.678234,20.6037414 C16.678234,20.2614754 16.4202044,19.9854163 16.1004015,19.9854163 C15.7805246,19.9854163 15.522569,20.2614754 15.522569,20.6037414" id="Fill-107" fill="#F05068" mask="url(#mask-4)"></path>
                        <path d="M10.5339828,20.6037414 C10.5339828,20.9460074 10.7919384,21.2220665 11.1118153,21.2220665 C11.4316921,21.2220665 11.6896478,20.9460074 11.6896478,20.6037414 C11.6896478,20.2614754 11.4316921,19.9854163 11.1118153,19.9854163 C10.7919384,19.9854163 10.5339828,20.2614754 10.5339828,20.6037414" id="Fill-108" fill="#F05068" mask="url(#mask-4)"></path>
                        <path d="M8.04212808,22.1328768 C8.04212808,22.4751429 8.30008374,22.751202 8.61996059,22.751202 C8.93976355,22.751202 9.1977931,22.4751429 9.1977931,22.1328768 C9.1977931,21.7906108 8.93976355,21.5145517 8.61996059,21.5145517 C8.30008374,21.5145517 8.04212808,21.7906108 8.04212808,22.1328768" id="Fill-109" fill="#F05068" mask="url(#mask-4)"></path>
                        <path d="M22.1727414,23.6455271 C22.1727414,23.9877931 22.430697,24.2638522 22.7505739,24.2638522 C23.0704507,24.2638522 23.3284064,23.9877931 23.3284064,23.6455271 C23.3284064,23.3032611 23.0704507,23.027202 22.7505739,23.027202 C22.430697,23.0327438 22.1727414,23.308803 22.1727414,23.6455271" id="Fill-110" fill="#F05068" mask="url(#mask-4)"></path>
                        <path d="M23.8340764,23.6455271 C23.8340764,23.9877931 24.092032,24.2638522 24.4119089,24.2638522 C24.7317857,24.2638522 24.9897414,23.9877931 24.9897414,23.6455271 C24.9897414,23.3032611 24.7317857,23.027202 24.4119089,23.027202 C24.092032,23.0327438 23.8340764,23.308803 23.8340764,23.6455271" id="Fill-111" fill="#F05068" mask="url(#mask-4)"></path>
                        <path d="M18.8449877,23.6455271 C18.8449877,23.9877931 19.1029433,24.2638522 19.4228202,24.2638522 C19.742697,24.2638522 20.0006527,23.9877931 20.0006527,23.6455271 C20.0006527,23.3032611 19.742697,23.027202 19.4228202,23.027202 C19.1029433,23.0327438 18.8449877,23.308803 18.8449877,23.6455271" id="Fill-112" fill="#F05068" mask="url(#mask-4)"></path>
                        <path d="M17.1840148,23.6455271 C17.1840148,23.9877931 17.4419704,24.2638522 17.7618473,24.2638522 C18.0817241,24.2638522 18.3396798,23.9877931 18.3396798,23.6455271 C18.3396798,23.3032611 18.0817241,23.027202 17.7618473,23.027202 C17.4419704,23.0327438 17.1840148,23.308803 17.1840148,23.6455271" id="Fill-113" fill="#F05068" mask="url(#mask-4)"></path>
                        <path d="M13.8564384,23.6455271 C13.8564384,23.9877931 14.1143941,24.2638522 14.434197,24.2638522 C14.7540739,24.2638522 15.0121034,23.9877931 15.0121034,23.6455271 C15.0121034,23.3032611 14.7540739,23.027202 14.434197,23.027202 C14.1143941,23.0327438 13.8564384,23.308803 13.8564384,23.6455271" id="Fill-114" fill="#F05068" mask="url(#mask-4)"></path>
                        <path d="M12.1953177,23.6455271 C12.1953177,23.9877931 12.4532734,24.2638522 12.7730764,24.2638522 C13.0929532,24.2638522 13.3509089,23.9877931 13.3509089,23.6455271 C13.3509089,23.3032611 13.0929532,23.027202 12.7730764,23.027202 C12.4532734,23.0327438 12.1953177,23.308803 12.1953177,23.6455271" id="Fill-115" fill="#F05068" mask="url(#mask-4)"></path>
                        <path d="M24.6648177,25.1636601 C24.6648177,25.5059261 24.9227734,25.7819852 25.2426502,25.7819852 C25.5625271,25.7819852 25.8204828,25.5059261 25.8204828,25.1636601 C25.8204828,24.8213941 25.5625271,24.5454089 25.2426502,24.5454089 C24.9227734,24.5454089 24.6648177,24.8213941 24.6648177,25.1636601" id="Fill-116" fill="#F05068" mask="url(#mask-4)"></path>
                        <path d="M16.3532734,25.1636601 C16.3532734,25.5059261 16.6112291,25.7819852 16.9311059,25.7819852 C17.2509828,25.7819852 17.5089384,25.5059261 17.5089384,25.1636601 C17.5089384,24.8213941 17.2509828,24.5454089 16.9311059,24.5454089 C16.6112291,24.5454089 16.3532734,24.8213941 16.3532734,25.1636601" id="Fill-117" fill="#F05068" mask="url(#mask-4)"></path>
                        <path d="M10.5133079,23.6455271 C10.5133079,23.9877931 10.7712635,24.2638522 11.0911404,24.2638522 C11.4109433,24.2638522 11.6689729,23.9877931 11.6689729,23.6455271 C11.6689729,23.3032611 11.4109433,23.027202 11.0911404,23.027202 C10.7712635,23.0327438 10.5133079,23.308803 10.5133079,23.6455271" id="Fill-118" fill="#F05068" mask="url(#mask-4)"></path>
                        <path d="M8.84667488,23.6455271 C8.84667488,23.9877931 9.10463054,24.2638522 9.42450739,24.2638522 C9.74438424,24.2638522 10.0023399,23.9877931 10.0023399,23.6455271 C10.0023399,23.3032611 9.74438424,23.027202 9.42450739,23.027202 C9.10463054,23.0327438 8.84667488,23.308803 8.84667488,23.6455271" id="Fill-119" fill="#F05068" mask="url(#mask-4)"></path>
                        <path d="M9.67740887,25.1636601 C9.67740887,25.5059261 9.93536453,25.7819852 10.2552414,25.7819852 C10.5751182,25.7819852 10.8330739,25.5059261 10.8330739,25.1636601 C10.8330739,24.8213941 10.5751182,24.5454089 10.2552414,24.5454089 C9.94053695,24.5454089 9.67740887,24.8213941 9.67740887,25.1636601" id="Fill-120" fill="#F05068" mask="url(#mask-4)"></path>
                        <path d="M6.35496059,25.1636601 C6.35496059,25.5059261 6.61291626,25.7819852 6.9327931,25.7819852 C7.25266995,25.7819852 7.51062562,25.5059261 7.51062562,25.1636601 C7.51062562,24.8213941 7.25266995,24.5454089 6.9327931,24.5454089 C6.61291626,24.5454089 6.35496059,24.8213941 6.35496059,25.1636601" id="Fill-121" fill="#F05068" mask="url(#mask-4)"></path>
                        <path d="M9.17156897,25.1636601 C9.17156897,24.8213941 8.9136133,24.5454089 8.59373645,24.5454089 C8.2739335,24.5454089 8.01590394,24.8213941 8.01590394,25.1636601 C8.01590394,25.5059261 8.2739335,25.7819852 8.59373645,25.7819852 C8.9136133,25.7819852 9.17156897,25.5004581 9.17156897,25.1636601" id="Fill-122" fill="#F05068" mask="url(#mask-4)"></path>
                        <path d="M12.494165,25.1636601 C12.494165,24.8213941 12.2362094,24.5454089 11.9164064,24.5454089 C11.5965296,24.5454089 11.3385739,24.8213941 11.3385739,25.1636601 C11.3385739,25.5059261 11.5965296,25.7819852 11.9164064,25.7819852 C12.2362094,25.7819852 12.494165,25.5004581 12.494165,25.1636601" id="Fill-123" fill="#F05068" mask="url(#mask-4)"></path>
                        <path d="M14.160665,25.1636601 C14.160665,24.8213941 13.9027094,24.5454089 13.5828325,24.5454089 C13.2629557,24.5454089 13.005,24.8213941 13.005,25.1636601 C13.005,25.5059261 13.2629557,25.7819852 13.5828325,25.7819852 C13.9027094,25.7819852 14.160665,25.5004581 14.160665,25.1636601" id="Fill-124" fill="#F05068" mask="url(#mask-4)"></path>
                        <path d="M15.8217783,25.1636601 C15.8217783,24.8213941 15.5638227,24.5454089 15.2439458,24.5454089 C14.9241429,24.5454089 14.6661133,24.8213941 14.6661133,25.1636601 C14.6661133,25.5059261 14.9241429,25.7819852 15.2439458,25.7819852 C15.5638227,25.7819852 15.8217783,25.5004581 15.8217783,25.1636601" id="Fill-125" fill="#F05068" mask="url(#mask-4)"></path>
                        <path d="M19.144197,25.1636601 C19.144197,24.8213941 18.8863153,24.5454089 18.5664384,24.5454089 C18.2465616,24.5454089 17.9886059,24.8213941 17.9886059,25.1636601 C17.9886059,25.5059261 18.2465616,25.7819852 18.5664384,25.7819852 C18.8863153,25.7819852 19.144197,25.5004581 19.144197,25.1636601" id="Fill-126" fill="#F05068" mask="url(#mask-4)"></path>
                        <path d="M20.8108744,25.1636601 C20.8108744,24.8213941 20.5529187,24.5454089 20.2330419,24.5454089 C19.913165,24.5454089 19.6552094,24.8213941 19.6552094,25.1636601 C19.6552094,25.5059261 19.913165,25.7819852 20.2330419,25.7819852 C20.5529187,25.7819852 20.8108744,25.5004581 20.8108744,25.1636601" id="Fill-127" fill="#F05068" mask="url(#mask-4)"></path>
                        <path d="M24.1539975,25.1636601 C24.1539975,24.8213941 23.8960419,24.5454089 23.576165,24.5454089 C23.2562882,24.5454089 22.9983325,24.8213941 22.9983325,25.1636601 C22.9983325,25.5059261 23.2562882,25.7819852 23.576165,25.7819852 C23.8960419,25.7819852 24.1539975,25.5004581 24.1539975,25.1636601" id="Fill-128" fill="#F05068" mask="url(#mask-4)"></path>
                        <path d="M10.0229852,26.68183 C10.0229852,26.339564 9.76502956,26.0635788 9.44515271,26.0635788 C9.12534975,26.0635788 8.8673202,26.339564 8.8673202,26.68183 C8.8673202,27.0240961 9.12534975,27.3001552 9.44515271,27.3001552 C9.76502956,27.3001552 10.0229852,27.0240961 10.0229852,26.68183" id="Fill-129" fill="#F05068" mask="url(#mask-4)"></path>
                        <path d="M15.0120739,26.68183 C15.0120739,26.339564 14.7541182,26.0635788 14.4342414,26.0635788 C14.1143645,26.0635788 13.8564089,26.339564 13.8564089,26.68183 C13.8564089,27.0240961 14.1143645,27.3001552 14.4342414,27.3001552 C14.7541182,27.3001552 15.0120739,27.0240961 15.0120739,26.68183" id="Fill-130" fill="#F05068" mask="url(#mask-4)"></path>
                        <path d="M20.0006232,26.68183 C20.0006232,26.339564 19.7426675,26.0635788 19.4227906,26.0635788 C19.1029877,26.0635788 18.8449581,26.339564 18.8449581,26.68183 C18.8449581,27.0240961 19.1029877,27.3001552 19.4227906,27.3001552 C19.7426675,27.3001552 20.0006232,27.0240961 20.0006232,26.68183" id="Fill-131" fill="#F05068" mask="url(#mask-4)"></path>
                        <path d="M21.6621059,26.68183 C21.6621059,26.339564 21.4041502,26.0635788 21.0842734,26.0635788 C20.7644704,26.0635788 20.5065148,26.339564 20.5065148,26.68183 C20.5065148,27.0240961 20.7644704,27.3001552 21.0842734,27.3001552 C21.4041502,27.3001552 21.6621059,27.0240961 21.6621059,26.68183" id="Fill-132" fill="#F05068" mask="url(#mask-4)"></path>
                        <path d="M9.17156897,28.2 C9.17156897,27.857734 8.9136133,27.5816749 8.59373645,27.5816749 C8.2739335,27.5816749 8.01590394,27.857734 8.01590394,28.2 C8.01590394,28.542266 8.2739335,28.8182512 8.59373645,28.8182512 C8.9136133,28.8182512 9.17156897,28.542266 9.17156897,28.2" id="Fill-133" fill="#F05068" mask="url(#mask-4)"></path>
                        <path d="M14.160665,28.2 C14.160665,27.857734 13.9027094,27.5816749 13.5828325,27.5816749 C13.2629557,27.5816749 13.005,27.857734 13.005,28.2 C13.005,28.542266 13.2629557,28.8182512 13.5828325,28.8182512 C13.9027094,28.8182512 14.160665,28.542266 14.160665,28.2" id="Fill-134" fill="#F05068" mask="url(#mask-4)"></path>
                        <path d="M10.0438374,29.7126133 C10.0438374,29.3703473 9.78588177,29.0943621 9.46600493,29.0943621 C9.14612808,29.0943621 8.88817241,29.3703473 8.88817241,29.7126133 C8.88817241,30.0548793 9.14612808,30.3309384 9.46600493,30.3309384 C9.78588177,30.3309384 10.0438374,30.0548793 10.0438374,29.7126133" id="Fill-135" fill="#F05068" mask="url(#mask-4)"></path>
                    </g>
                </g>
            </g>
        </g>
    </g>
</svg>