<?xml version="1.0" encoding="UTF-8"?>
<svg width="485px" height="598px" viewBox="0 0 485 598" version="1.1" xmlns="http://www.w3.org/2000/svg" xmlns:xlink="http://www.w3.org/1999/xlink">
    <!-- Generator: sketchtool 56.3 (101010) - https://sketch.com -->
    <title>C98F4D39-2A2E-478F-BEDD-C07E6BF37A53</title>
    <desc>Created with sketchtool.</desc>
    <g id="WD---Site-vitrine" stroke="none" stroke-width="1" fill="none" fill-rule="evenodd">
        <g id="Desktop---Home-HD" transform="translate(-885.000000, -3728.000000)">
            <g id="Group-36" transform="translate(-205.000000, 2668.479381)">
                <g id="Group-43" transform="translate(1019.552427, 1048.222412)">
                    <path d="M344.839118,70.5098788 C337.376968,39.0774914 313.977568,10.1364125 291.414301,15.6877839 C268.851034,21.2391552 280.404056,53.5975141 264.023506,65.347876 C247.642955,77.0982379 215.445798,81.3121083 224.504436,116.331387 C233.563073,151.350666 312.175727,160.434535 335.7269,137.031367 C359.278072,113.628198 352.301267,101.942266 344.839118,70.5098788 Z" id="Path-2-Copy-7" fill="#FBAA95" transform="translate(287.426946, 82.500000) scale(1, -1) rotate(-72.000000) translate(-287.426946, -82.500000) "></path>
                    <path d="M536.82452,323.637947 C506.108229,210.481352 409.789768,106.293468 316.913064,126.278405 C224.03636,146.263342 271.591823,262.753434 204.164908,305.054737 C136.737992,347.35604 4.20550912,362.525973 41.493388,488.595378 C78.7812669,614.664782 402.372889,647.366711 499.316088,563.115303 C596.259287,478.863896 567.540811,436.794541 536.82452,323.637947 Z" id="Path-2" fill="#3B35B9" transform="translate(300.500000, 366.802383) scale(-1, 1) rotate(104.000000) translate(-300.500000, -366.802383) "></path>
                </g>
            </g>
        </g>
    </g>
</svg>