<?xml version="1.0" encoding="UTF-8"?>
<svg width="674px" height="580px" viewBox="0 0 674 580" version="1.1" xmlns="http://www.w3.org/2000/svg" xmlns:xlink="http://www.w3.org/1999/xlink">
    <!-- Generator: sketchtool 56.3 (101010) - https://sketch.com -->
    <title>0934B2AA-C4FD-45E8-B98C-2DED09EED99D</title>
    <desc>Created with sketchtool.</desc>
    <g id="WD---Site-vitrine" stroke="none" stroke-width="1" fill="none" fill-rule="evenodd">
        <g id="Desktop---Home-HD" transform="translate(-766.000000, -95.000000)">
            <g id="Group-34" transform="translate(52.875220, 17.000000)">
                <g id="Group-47" transform="translate(685.124780, 59.000000)">
                    <path d="M144.203115,237.415478 C166.989767,226.840324 163.550272,197.193735 163.550272,156.05201 C163.550272,114.910285 166.257448,82.252462 144.203115,81.5583268 C122.148782,80.8641917 118.735214,130.21605 118.735214,156.05201 C118.735214,181.887969 121.416464,247.990631 144.203115,237.415478 Z" id="Oval" fill="#585AFA" transform="translate(141.235214, 160.051081) rotate(23.000000) translate(-141.235214, -160.051081) "></path>
                    <g id="Group-32">
                        <g id="Group-4" fill="#585AFA">
                            <path d="M575.529754,241.404569 C531.593108,110.419942 414.475949,-4.82059439 311.470759,26.0606885 C208.465568,56.9419713 271.651111,190.529426 199.161641,245.714669 C126.672172,300.899912 -21.4134723,329.230052 30.9921783,474.920245 C83.3978288,620.610438 450.711858,633.660246 553.00253,526.691745 C655.293201,419.723245 619.4664,372.389195 575.529754,241.404569 Z" id="Path-2-Copy-2" opacity="0.2" transform="translate(319.606652, 309.057724) rotate(-4.000000) translate(-319.606652, -309.057724) "></path>
                            <path d="M585.968866,254.235489 C553.168851,127.811242 450.316363,11.4072898 351.139114,33.735468 C251.961865,56.0636463 302.743383,186.212245 230.742378,233.473391 C158.741374,280.734537 17.2181868,297.683151 57.035591,438.53424 C96.8529951,579.38533 442.396341,615.921572 545.915947,521.791655 C649.435553,427.661738 618.76888,380.659737 585.968866,254.235489 Z" id="Path-2"></path>
                        </g>
                        <g id="Group-2" transform="translate(67.653954, 149.193990)" fill-rule="nonzero">
                            <path d="M180.680197,15.0004001 C180.471711,15.5652251 180.26403,16.0594982 180.193998,16.6950389 C178.874661,23.1911406 184.499755,31.0288757 190.54182,33.6414268 L237.625016,52 L242,41.5497138 L216.51401,30.5346026 L240.194464,29.7578761 L200.611125,9.28094304 C196.513854,7.51572772 190.88876,7.58633699 186.513777,9.42221068 C183.944329,10.6225764 181.721821,12.458401 180.680197,15.0004001 Z" id="Path" fill="#4C4CE0"></path>
                            <path d="M260.891785,60.4817457 L237,51.409042 L241.466407,41 L255.149144,46.7671576 L264.648991,41.9142896 L285.209255,52.2529765 L297.969949,44.9385785 C298.962666,44.3759011 300.2389,44.3055461 301.302291,44.7275948 L308.746851,47.8924308 C310.164431,48.4551082 310.447948,50.2836873 309.243209,51.2683319 C305.130992,54.7849431 297.048726,61.5367453 294.779775,63.5060346 C292.015287,65.826936 287.193869,69.5545308 278.899582,67.3039029 L260.891785,60.4817457 Z" id="Path" fill="#292188"></path>
                            <path d="M242.55964,41.348793 L217,30.4651247 L240.819121,29.6976669 L262.548165,29 C263.244857,29 264.010977,29.139501 264.637434,29.418584 L274.806072,33.7441672 C276.33831,34.3721241 276.407737,36.5348348 274.944926,37.2325826 L265.334127,42.1860418 L256.001843,47 L242.55964,41.348793 Z" id="Path" fill="#3B35B9"></path>
                            <path d="M186.380213,9 L200.167963,17.9460563 C200.922552,18.4391492 201.196875,19.4253351 200.854169,20.2705906 L199.687697,23.0882995 C199.344991,23.8631715 198.52202,24.2153341 197.767431,23.8631715 L180,16.1146149 C180.137559,15.5510568 180.274324,14.9874987 180.480265,14.4944058 C181.578355,11.9585576 183.772945,10.1270346 186.380213,9 Z" id="Path" fill="#8CD3FF"></path>
                            <path d="M10.6845903,103.301475 C13.5441465,106.245384 23.6572467,100.568774 24.7732263,104.143056 C25.958894,107.716526 17.4499134,116.476766 18.496124,122.504305 C19.5422539,128.531032 42.9070054,169.24779 79.8720105,171 C79.8720105,171 82.9409544,169.24779 86.7066983,165.253529 C95.2164065,156.143172 107.49105,135.328666 96.8898909,96.4339796 C95.843761,92.5794414 94.5882436,88.584369 93.0538121,84.3797136 C88.2411298,79.2639414 82.7315667,89.6363451 81.0580824,84.8005041 C80.7787641,79.5442788 86.4981191,74.2181113 86.3582579,67.9108846 C86.2887315,61.533472 17.2406874,-4.2024717 4.756268,0.212627599 C-7.65840674,4.62773502 7.82506636,100.358379 10.6845903,103.301475 Z" id="Path" fill="#FF6786"></path>
                            <path d="M107,282 C107,282 84.9660485,124.228854 34,50 C57.3712638,93.5566322 82.854288,162.043343 100.875242,281.159876 L107,282 Z" id="Path" fill="#292188"></path>
                            <path d="M87.468328,165 C96.1196103,155.865755 108.59965,134.997486 97.8210976,96 C89.1698153,107.101997 82.0786407,117.852959 82.5044236,119.468861 C83.4258571,122.981657 87.8932888,125.090311 88.5319631,128.041125 C88.17687,130.991938 83.0000742,126.073373 80.6603236,129.657027 C78.3910985,147.223447 82.2915322,158.184542 87.468328,165 Z" id="Path" fill="#F05068"></path>
                            <path d="M113.379599,169 C113.379599,169 86.4032994,162.888624 91.6855661,123.06128 C94.0099268,119.47962 99.1517686,124.396566 99.5036475,121.44591 C98.8701021,118.496068 94.4328347,116.458943 93.5168064,112.876468 C92.6015945,109.364829 127.184522,62.443127 135.847602,63.0050056 C144.5115,63.5669655 149.159404,118.917009 147.751072,120.954134 C146.34274,122.991259 139.016962,121.44591 138.735296,123.553056 C138.524658,125.731038 145.356499,129.242677 145.567953,132.75513 C145.849619,136.266769 136.975085,162.396848 113.379599,169 Z" id="Path" fill="#FF6786"></path>
                            <path d="M103,279 C103,279 110.228825,155.26839 127,97 C119.337127,131.142529 110.951959,184.895651 105.02444,278.364657 L103,279 Z" id="Path" fill="#292188"></path>
                            <path d="M25.5084603,214.984236 C27.2665733,215.195904 31.696907,210.894719 32.6814437,211.811673 C33.6659805,212.657526 30.3607966,217.592897 31.5562938,219.355704 C32.7517911,221.047411 48.9262182,228.521159 67.632253,219.98989 C67.632253,219.98989 73.3987786,214.27895 73.9613943,206.311583 C74.3130495,201.023978 72.3439761,194.749135 64.6787243,188.544576 C61.7251141,188.050957 60.1076143,192.77466 58.7011566,191.646855 C57.9979277,190.025432 60.248309,186.852869 59.4747328,184.808111 C59.0528118,183.680306 45.8319948,181.846398 33.2440594,181.212212 C23.258079,180.718593 13.6237538,181.000544 11.0921461,182.97502 C5.39589444,187.416771 23.7503474,214.702285 25.5084603,214.984236 Z" id="Path" fill="#FF6786"></path>
                            <path d="M105,276 C105,276 85.094442,222.265671 39,197 C60.1058809,211.825711 83.1879988,235.142967 99.4238582,275.720848 L105,276 Z" id="Path" fill="#292188"></path>
                            <path d="M122.486089,225.056912 C122.486089,225.056912 136.283854,231.548979 152.381247,210.466549 C153.077516,207.95323 148.757738,208.512374 149.941881,206.976547 C151.544431,205.789477 154.331932,206.347812 156.283425,204.951973 C158.23411,203.555325 165.760604,168.930423 161.927891,166.207525 C160.116137,164.881276 152.659916,170.117493 145.482364,176.051225 C137.956678,182.264125 130.639387,189.244939 130.500457,190.012853 C130.151514,191.478282 133.845296,193.294087 132.939015,194.410758 C132.033542,195.527429 127.643491,194.829105 125.901202,196.435332 C124.994921,197.272835 122.347159,201.880318 120.883539,207.674062 C119.629123,213.049458 119.350454,219.541526 122.486089,225.056912 Z" id="Path" fill="#FF6786"></path>
                            <path d="M100,279 C100,279 110.556105,231.349231 135,209 C123.819254,222.142821 111.597709,242.804902 102.917136,278.789004 L100,279 Z" id="Path" fill="#292188"></path>
                            <path d="M89.3870654,332 L116.613342,332 C117.879776,332 118.935001,330.613308 118.935001,328.87934 L138,273.12066 C138,271.387496 136.944775,270 135.678342,270 L70.3215769,270 C69.0553067,270 68,271.387496 68,273.12066 L87.065407,328.87934 C87.065407,330.544174 88.0505012,332 89.3870654,332 Z" id="Path" fill="#3B35B9"></path>
                            <path d="M78.0501712,336 L127.949584,336 C129.214746,336 130.268911,335.84809 130.268911,335.619342 L138,328.380658 C138,328.15191 136.945835,328 135.680673,328 L70.3192452,328 C69.0542468,328 68,328.15191 68,328.380658 L75.730926,335.619342 C75.730926,335.771252 76.7850913,336 78.0501712,336 Z" id="Path" fill="#292188"></path>
                            <path d="M33,181 C42.62125,191.884996 56.6287594,202.980008 73.9611631,206 C74.3149242,200.733329 72.3340593,194.483329 64.6229055,188.303334 C61.6516082,187.81167 60.0245044,192.516671 58.6095423,191.393332 C57.9021023,189.778328 60.1659596,186.617511 59.3877509,184.580848 C58.8925347,183.457508 45.6633159,181.631675 33,181 Z" id="Path" fill="#F05068"></path>
                            <path d="M121,208 C136.749728,199.73491 143.841374,181.933932 145,176 C137.63648,182.28684 130.476866,189.351552 130.340929,190.128605 C130.000296,191.611474 133.613692,193.448069 132.72694,194.578849 C131.840979,195.70881 127.545526,195.002175 125.840781,196.626698 C125.022788,197.474988 122.432081,202.137305 121,208 Z" id="Path" fill="#F05068"></path>
                            <path d="M241.617442,249.103459 C240.284477,248.051066 238.881569,247.068616 237.477849,246.156108 C230.251047,241.665953 221.621337,239 212.500407,239 C186.329883,239 165,260.329253 165,286.5 C165,312.670747 186.329883,334 212.500407,334 C236.285581,334 256.001104,316.459849 259.438837,293.656921 C259.719419,291.972605 259.860116,290.289102 259.930058,288.604786 C259.930058,287.903733 260,287.201866 260,286.5 C259.930058,271.345219 252.773198,257.803185 241.617442,249.103459 Z M254.386744,288.11356 C254.316802,289.86782 254.176918,291.552136 253.896337,293.165696 C250.738372,313.161972 233.338256,328.527395 212.430465,328.527395 C189.276395,328.527395 170.473372,309.72421 170.473372,286.569943 C170.473372,263.416488 189.276395,244.61249 212.430465,244.61249 C220.428256,244.61249 227.865698,246.857974 234.250755,250.786962 C235.723605,251.699469 237.057383,252.611163 238.390349,253.734312 C248.072442,261.451588 254.386744,273.309306 254.386744,286.640699 C254.386744,287.061168 254.386744,287.622335 254.386744,288.11356 Z" id="Shape" fill="#1A0F5B"></path>
                            <path d="M238.726522,253.087031 C237.398802,252.038559 236.002267,251.059768 234.605732,250.221152 C228.180052,246.236309 220.56671,244 212.465188,244 C189.067358,244 170,263.08317 170,286.499595 C170,309.91683 189.067358,329 212.465188,329 C233.627753,329 251.228141,313.412278 254.440576,293.14046 C254.720693,291.463229 254.859942,289.785187 254.929566,288.107955 C254.929566,287.548067 255,287.059482 255,286.499595 C254.929566,272.939135 248.57432,260.915733 238.726522,253.087031 Z M251.228141,287.757924 C251.158517,289.505648 251.018459,291.113198 250.739152,292.79124 C247.736399,311.244841 231.671794,325.365188 212.394754,325.365188 C190.952882,325.365188 173.562176,307.889567 173.562176,286.499595 C173.562176,265.039941 191.023316,247.634812 212.394754,247.634812 C219.728789,247.634812 226.573025,249.662075 232.440091,253.227206 C233.90706,254.135504 235.303595,255.044612 236.560881,256.162766 C245.501133,263.292217 251.228141,274.267146 251.228141,286.570087 C251.228141,286.919308 251.228141,287.339021 251.228141,287.757924 Z" id="Shape" fill="#F05068"></path>
                            <path d="M252,293.313062 C248.964407,311.830673 232.729306,326 213.246693,326 C191.576163,326 174,308.463761 174,286.999593 C174,265.465502 191.646529,248 213.246693,248 C220.658939,248 227.576163,250.034295 233.505796,253.610978 L215.576163,279.21366 C215.011591,279.073812 214.517387,279.003888 213.952816,279.003888 C210.070367,279.003888 206.894041,282.160216 206.894041,286.018221 C206.894041,289.876226 210.070367,293.032554 213.952816,293.032554 C216.282286,293.032554 218.32947,291.909708 219.67053,290.156734 L252,293.313062 Z" id="Path" fill="#FBAA95"></path>
                            <path d="M359.499593,240 C352.974651,240 346.800233,241.331985 341.117035,243.715579 C339.503489,244.416923 337.959884,245.188157 336.416279,246.029282 C321.822791,254.162596 312,269.727067 312,287.535352 C312,313.686622 333.32907,335 359.499593,335 C385.670117,335 407,313.686622 407,287.535352 C407,261.313378 385.670117,240 359.499593,240 Z M359.499593,329.741952 C336.20564,329.741952 317.191977,310.812168 317.191977,287.464648 C317.191977,272.110662 325.401221,258.7193 337.679302,251.288143 C339.152965,250.376314 340.69657,249.60508 342.310116,248.833845 C347.572035,246.520142 353.39593,245.188157 359.499593,245.188157 C382.793547,245.188157 401.808023,264.117941 401.808023,287.464648 C401.808023,310.741465 382.793547,329.741952 359.499593,329.741952 Z" id="Shape" fill="#1A0F5B"></path>
                            <path d="M359.5,245 C353.348588,245 347.547204,246.326923 342.304082,248.631835 C340.696547,249.330514 339.158694,250.168443 337.691333,251.075997 C325.318828,258.479727 317,272.029888 317,287.535217 C317,310.932461 336.082989,330 359.5,330 C382.986693,330 402,310.932461 402,287.535217 C402,263.997105 382.917011,245 359.5,245 Z M359.5,325.390176 C338.599623,325.390176 321.543877,308.418674 321.543877,287.464783 C321.543877,274.194741 328.394534,262.530931 338.739796,255.755446 C340.207157,254.778267 341.74501,253.939528 343.353354,253.171224 C348.245639,250.867122 353.698616,249.539389 359.5,249.539389 C380.400377,249.539389 397.456123,266.581326 397.456123,287.464783 C397.456123,308.348239 380.400377,325.390176 359.5,325.390176 Z" id="Shape" fill="#F05068"></path>
                            <path d="M397,287 C397,307.924538 379.924538,325 359,325 C338.075462,325 321,307.995112 321,287 C321,273.703853 327.858576,262.017099 338.215797,255.228285 C338.845277,257.398207 344.654179,276.642779 357.18051,288.81949 C357.670466,289.309446 358.299947,289.519543 358.930238,289.519543 C359.559718,289.519543 360.259772,289.239684 360.749728,288.749728 C361.72964,287.769815 361.72964,286.160423 360.679966,285.18051 C348.9924,273.773615 343.323834,254.878664 342.974213,253.688654 L342.694354,252.63898 C347.593105,250.329534 353.051574,249 358.860476,249 C379.924538,249 397,266.075462 397,287 Z" id="Path" fill="#FBAA95"></path>
                            <path d="M361.226054,285.810915 C349.490772,274.277557 343.798667,255.173126 343.447595,253.969923 L343.165759,252.908611 L342.182592,248.663364 L342.111726,248.309867 L340.987641,243.497877 L330.095423,195.807744 L343.095707,195.807744 C344.501628,195.807744 345.625712,194.675077 345.625712,193.260268 C345.625712,191.845459 344.501628,190.712792 343.095707,190.712792 L326.863272,190.712792 C326.09026,190.712792 325.3873,191.067109 324.895309,191.703568 C324.403318,192.340027 324.263215,193.118377 324.403318,193.896727 L328.338429,211.303387 L260.03399,218.87446 L254.201782,191.98653 C253.919946,190.642256 252.51484,189.722015 251.179786,190.076333 C249.77468,190.359294 248.930802,191.774103 249.282689,193.118377 L255.536836,221.067619 L237.617459,246.965594 L234.876484,250.927879 L234.454545,251.493802 L232.768418,253.899388 L214.919093,279.726007 L210.491991,286.093877 C210.491991,286.165233 210.421939,286.165233 210.421939,286.235768 C210.351887,286.306303 210.351887,286.376839 210.281021,286.448194 C210.21097,286.51873 210.21097,286.589265 210.140918,286.660621 C210.140918,286.731156 210.070052,286.801692 210.070052,286.872227 C210.070052,286.943583 210,287.084653 210,287.155189 C210,287.226544 210,287.226544 210,287.29708 L210,287.367615 C210,287.438151 210,287.580042 210,287.650577 C210,287.721933 210,287.792468 210,287.863003 C210,287.933539 210,288.004894 210.070052,288.07543 C210.070052,288.145965 210.140918,288.216501 210.140918,288.287856 C210.140918,288.358392 210.21097,288.428927 210.21097,288.500283 C210.281021,288.570818 210.281021,288.641353 210.351887,288.711889 C210.421939,288.783244 210.421939,288.85378 210.491991,288.924315 C210.562042,288.99485 210.562042,289.066206 210.632909,289.136741 C210.70296,289.207277 210.773012,289.278632 210.773012,289.278632 C210.843064,289.349168 210.91393,289.419703 210.983981,289.490239 L211.054033,289.561594 C211.124899,289.561594 211.194951,289.63213 211.194951,289.63213 C211.265003,289.63213 211.265003,289.702665 211.335054,289.702665 C211.475972,289.7732 211.616075,289.844556 211.756993,289.844556 C211.897911,289.915091 212.038015,289.915091 212.248984,289.915091 C212.248984,289.915091 212.248984,289.915091 212.319036,289.915091 L218.92507,290.55155 L251.179786,293.736306 L254.130916,294.019268 L254.833876,294.089803 L259.612051,294.585191 L274.088307,296 C274.158359,296 274.229225,296 274.299277,296 C274.440195,296 274.65035,296 274.791268,295.929465 C274.791268,295.929465 274.791268,295.929465 274.861319,295.929465 C274.931371,295.929465 274.931371,295.929465 275.002237,295.858929 C275.072289,295.858929 275.213207,295.787574 275.283258,295.787574 C275.283258,295.787574 275.283258,295.787574 275.35331,295.787574 C275.423362,295.787574 275.423362,295.717038 275.494228,295.717038 C275.564279,295.717038 275.634331,295.646503 275.704383,295.575967 C275.704383,295.575967 275.775249,295.575967 275.775249,295.504612 C275.845301,295.504612 275.845301,295.434076 275.915352,295.434076 C275.986218,295.363541 276.05627,295.293006 276.126322,295.293006 L276.196373,295.22165 L333.679461,233.096366 L336.490487,245.549965 L337.614572,250.503026 L337.684624,250.927879 L338.598554,255.031235 C338.598554,255.10259 338.598554,255.10259 338.598554,255.173126 C338.598554,255.173126 338.598554,255.243661 338.668605,255.315017 C339.301514,257.508176 345.133722,276.966104 357.712882,289.278632 C358.204058,289.7732 358.836966,289.985627 359.46906,289.985627 C360.101969,289.985627 360.804115,289.702665 361.296105,289.207277 C362.280087,288.428927 362.210035,286.801692 361.226054,285.810915 Z M259.963938,289.7732 L255.184949,289.278632 L254.482803,289.207277 L251.530859,288.924315 L220.119206,285.810915 L217.027159,285.527954 L218.995122,282.697516 L236.844447,256.871717 L238.530574,254.465311 L238.952513,253.828852 L241.692674,249.866567 L256.941942,227.860342 L270.99626,290.835332 L259.963938,289.7732 Z M275.634331,288.428927 L261.228941,223.827522 L329.673484,216.256449 L332.203489,227.294419 L275.634331,288.428927 Z" id="Shape" fill="#3B35B9"></path>
                            <path d="M252,287.728352 C252,288.152508 252,288.576663 252,289 L220.140125,285.891709 C219.998022,284.76172 219.570062,283.702149 219,282.783419 L237.103197,257 C246.226673,264.204913 252,275.296008 252,287.728352 Z" id="Path" fill="#FBAA95"></path>
                            <path d="M353.100841,220 C350.552087,220 348.639496,219.795307 348.215114,219.726283 C346.44453,219.520797 345.240336,217.946725 345.452938,216.235398 C345.665539,214.524864 347.294115,213.360972 349.064698,213.566458 C351.968061,213.97743 360.46637,214.251147 364.431919,210.896724 C365.918487,209.664601 366.556291,208.022298 366.556291,205.831768 C366.556291,203.231059 365.7773,201.246015 364.07731,199.671943 C359.970574,195.83911 352.038655,196.181058 351.968061,196.181058 C351.897468,196.181058 351.826053,196.181058 351.826053,196.181058 L343.186558,196.181058 C341.416795,196.181058 340,194.812473 340,193.101146 C340,191.389819 341.416795,190.021233 343.186558,190.021233 L351.75546,190.021233 C352.88906,189.952209 362.590742,189.747516 368.538655,195.154421 C371.513432,197.892385 373,201.451501 373,205.831768 C373,209.801856 371.513432,213.155486 368.610069,215.551502 C364.219317,219.316104 357.6336,220 353.100841,220 Z" id="Path" fill="#FF6786"></path>
                            <path d="M277.928936,286.590033 L283,270.126291 L279.285911,269 L274.142818,285.464558 C274.071616,285.464558 274.071616,285.464558 274.000414,285.464558 C270.071892,285.464558 266.857872,288.630568 266.857872,292.500408 C266.857872,294.962588 268.142818,297.144216 270.143094,298.409967 L265,314.874525 L268.714917,316 L273.857182,299.536258 C273.928384,299.536258 273.928384,299.536258 274.000414,299.536258 C277.928936,299.536258 281.142956,296.370248 281.142956,292.500408 C281.142956,290.037412 279.857182,287.8566 277.928936,286.590033 Z" id="Path" fill="#1A0F5B"></path>
                            <path d="M287.770214,273 L275.229786,273 C274.045036,273 273,272.124796 273,270.999638 C273,269.937511 273.975582,269 275.229786,269 L287.770214,269 C289.024418,269 290,269.875204 290,270.999638 C289.930546,272.062489 288.954964,273 287.770214,273 Z" id="Path" fill="#FF6786"></path>
                            <path d="M273.770214,318 L261.228979,318 C259.974774,318 259,317.124955 259,316 C259,314.937342 259.974774,314 261.228979,314 L273.770214,314 C274.954964,314 276,314.875045 276,316 C275.930546,317.062658 274.954964,318 273.770214,318 Z" id="Path" fill="#FF6786"></path>
                            <path d="M220,286 C220,287.540049 219.509939,289.009505 218.669371,290.130057 C217.410142,291.879448 215.309533,293 212.999594,293 C209.150507,293 206,289.850122 206,286 C206,282.149878 209.150507,279 212.999594,279 C213.560243,279 214.120081,279.069781 214.610142,279.209343 C216.359432,279.629651 217.829615,280.679611 218.809736,282.079286 C219.439351,282.989684 219.789858,284.039643 219.929412,285.159383 C220,285.439318 220,285.720065 220,286 Z" id="Path" fill="#1A0F5B"></path>
                            <path d="M245.246145,187.789116 C242.252589,186.890599 239.187148,185.7166 236.050648,186.061752 C235.266523,186.130623 234.482398,186.406905 233.912276,186.959469 C233.484271,187.443163 233.271094,188.065399 233.199209,188.686833 C232.558028,192.072691 233.484271,195.734031 235.694528,198.427982 C237.903959,201.122734 241.32552,202.850098 244.890025,202.987839 C249.665834,203.195251 254.085522,200.707911 258.433326,198.705065 C262.639012,196.701419 267.0587,195.042925 271.76345,194.697772 C273.473817,194.559231 280.174822,194.145208 278.820575,190.829021 C278.03645,188.894245 272.903695,189.239398 271.335445,189.239398 C262.35395,189.377939 253.87152,190.275656 245.246145,187.789116 Z" id="Path" fill="#1A0F5B"></path>
                            <path d="M124,137.862845 L124,150.96259 L132.330696,150.96259 C132.687266,150.96259 132.972026,151.102251 133.184978,151.312555 C133.398755,151.522859 133.541548,151.872824 133.541548,152.223602 L131.761174,180.664168 L131.40543,186.758111 C131.33362,188.019123 130.265561,189 128.984551,189 L167.578296,189 C168.931116,189 170,187.949292 170,186.61845 L170,137.862845 L159.104807,127.145463 L159.104807,122.38155 C159.104807,121.050708 158.036748,120 156.683928,120 L137.315246,120 C135.962427,120 134.894368,121.050708 134.894368,122.38155 L134.894368,127.145463 L124,137.862845 Z" id="Path" fill="#3B35B9"></path>
                            <polygon id="Path" fill="#1A0F5B" points="124 138 145 138 134.465681 127"></polygon>
                            <polygon id="Path" fill="#292188" points="124 189 145 189 145 138 124.068412 138 124.068412 146.324843"></polygon>
                            <polygon id="Path" fill="#585AFA" points="134 127 144.88385 138 169 138 158.11615 127"></polygon>
                            <path d="M135,122.333864 L135,127 L159,127 L159,122.333864 C159,121.029318 157.938111,120 156.592286,120 L137.406893,120 C136.061889,120 135,121.029318 135,122.333864 Z" id="Path" fill="#3B35B9"></path>
                            <path d="M154.312,173 L159.690248,173 C161.551734,173 163,171.456104 163,169.631573 L163,148.368427 C163,146.473941 161.482997,145 159.690248,145 L154.312,145 C152.450514,145 151.002247,146.543896 151.002247,148.368427 L151.002247,169.631573 C150.933511,171.456104 152.450514,173 154.312,173 Z" id="Path" fill="#8CD3FF"></path>
                            <path d="M130,153 C130,151.558972 130.785759,150.26163 132.000414,149.540699 C133.214241,148.819767 134.714552,148.819767 136.000414,149.540699 C137.214241,150.26163 138,151.558972 138,153 C138,154.441863 137.214241,155.73837 136.000414,156.459301 C134.785759,157.180233 133.286276,157.180233 132.000414,156.459301 C130.714552,155.811048 130,154.441863 130,153 Z" id="Path" fill="#FF6786"></path>
                            <path d="M126.418708,161 L141.580482,161 C141.790241,161 142,161.49971 142,161.99942 C142,162.50029 141.790241,163 141.580482,163 L126.418708,163 C126.208949,163 126,162.50029 126,161.99942 C126,161.49971 126.208949,161 126.418708,161 Z" id="Path" fill="#585AFA"></path>
                            <path d="M126.418708,164 L141.580482,164 C141.790241,164 142,164.500579 142,165 C142,165.499421 141.790241,166 141.580482,166 L126.418708,166 C126.208949,166 126,165.499421 126,165 C126,164.500579 126.208949,164 126.418708,164 Z" id="Path" fill="#585AFA"></path>
                            <path d="M126.418708,167 L141.580482,167 C141.790241,167 142,167.49971 142,167.99942 C142,168.50029 141.790241,169 141.580482,169 L126.418708,169 C126.208949,169 126,168.50029 126,167.99942 C126,167.49971 126.208949,167 126.418708,167 Z" id="Path" fill="#585AFA"></path>
                            <path d="M175.026291,116.032246 L175.026291,94.8907491 C175.026291,93.8406936 174.380081,93 173.589807,93 L166.548953,93 C165.758679,93 165.112469,93.8406936 165.112469,94.8907491 L165.112469,116.032246 C160.801352,119.042838 158,124.993423 158,131.574528 L158,186.17985 C158,187.229905 158.64621,188 159.364868,188 L180.629827,188 C180.98874,188 181.994695,187.509866 181.994695,186.249637 L181.994695,131.503929 C182.13876,124.993423 179.336576,119.042838 175.026291,116.032246 Z" id="Path" fill="#292188"></path>
                            <path d="M182,141.754595 L182,170.246219 C182,170.4569 182,170.596812 181.931109,170.807494 C181.723636,171.509494 181.032325,172 180.272123,172 L166.727076,172 C165.760202,172 165,171.228043 165,170.246219 L165,141.754595 C165,140.771957 165.760202,140 166.727076,140 L180.272123,140 C181.032325,140 181.654745,140.491319 181.931109,141.19332 C181.931109,141.403188 182,141.613869 182,141.754595 Z" id="Path" fill="#FBAA95"></path>
                            <polygon id="Path" fill="#FBAA95" points="182 140 167 140 167 172 182 172"></polygon>
                            <path d="M264.968977,174.718298 C262.969337,171.927779 261.102594,169.004818 259.303072,166.082627 C259.169402,165.883194 258.902835,166.082627 259.036505,166.28129 C260.769578,169.271242 262.635548,172.127212 264.70241,174.917731 C264.768859,175.116393 265.101874,174.917731 264.968977,174.718298 Z" id="Path" fill="#FFF3F3"></path>
                            <path d="M263.779881,186.413 C263.266057,186.327 262.679073,186.241 262.165249,186.155 C261.944917,186.155 261.944917,186.586 262.165249,186.586 C262.679073,186.672 263.266057,186.758 263.779881,186.845 C264.073373,186.845 264.073373,186.413 263.779881,186.413 Z" id="Path" fill="#FFF3F3"></path>
                            <polygon id="Path" fill="#1A0F5B" points="264 185 261 185 261 188 264 188"></polygon>
                            <path d="M262.222472,188 L175.777528,188 C175.353124,188 175,187.721829 175,187.388925 L175,185.611075 C175,185.278171 175.353124,185 175.777528,185 L262.222472,185 C262.646876,185 263,185.278171 263,185.611075 L263,187.388925 C263,187.721829 262.646876,188 262.222472,188 Z" id="Path" fill="#4C4CE0"></path>
                            <path d="M287.18897,185 L202.518443,185 C201.53127,185 200.826029,184.16051 201.037683,183.180699 L211.330271,131.189886 C211.471646,130.489905 212.10579,130 212.81103,130 L297.481557,130 C298.46873,130 299.173971,130.83949 298.962317,131.819301 L288.669729,183.810114 C288.528354,184.510095 287.89421,185 287.18897,185 Z" id="Path" fill="#4C4CE0"></path>
                            <polygon id="Path" fill="#4C4CE0" points="287.86007 185 201 185 207.139652 153.806295 297 138"></polygon>
                            <path d="M288.28773,187 L288,185.36981 L298.791963,131 L298.936245,131.921912 C298.936245,132.134724 299.079693,132.4182 298.936245,133.694251 L288.28773,187 Z" id="Path" fill="#1A0F5B"></path>
                            <path d="M287.374557,188 L263.625443,188 C263.277706,188 263,187.777849 263,187.499678 L263,185.500322 C263,185.222151 263.277706,185 263.625443,185 L287.374557,185 C287.722294,185 288,185.222151 288,185.500322 L288,187.499678 C288,187.777849 287.722294,188 287.374557,188 Z" id="Path" fill="#1A0F5B"></path>
                            <path d="M286.333172,185 L287.666828,185 C287.832931,185 288,185.143212 288,185.285596 L288,186.714404 C288,186.856788 287.832931,187 287.666828,187 L286.333172,187 C286.167069,187 286,186.856788 286,186.714404 L286,185.285596 C286.083052,185.143212 286.167069,185 286.333172,185 Z" id="Path" fill="#1A0F5B"></path>
                            <path d="M285.009253,183 L203.425725,183 C202.511859,183 201.879246,182.225344 202.019464,181.379671 L211.021981,134.127292 C211.1622,133.493037 211.724704,133 212.428242,133 L294.574275,133 C295.488141,133 296.120754,133.774656 295.980536,134.620329 L286.415514,181.872708 C286.275296,182.577164 285.711976,183 285.009253,183 Z" id="Path" fill="#FEFFFF"></path>
                            <path d="M275.717401,177 L214.080974,177 C213.445083,177 212.880392,176.445831 213.021974,175.821789 L219.799902,140.832056 C219.870284,140.346958 220.364593,140 220.858902,140 L282.919257,140 C283.55433,140 284.119021,140.554169 283.978257,141.178211 L276.776401,176.168747 C276.70602,176.653845 276.282092,177 275.717401,177 Z" id="Path" fill="#D5F2FF"></path>
                            <path d="M282.272751,180 L239.716655,180 C239.222549,180 238.94032,179.577734 239.010673,179.154651 L243.739037,154.563566 C243.80939,154.210725 244.092437,154 244.445019,154 L287.283345,154 C287.777451,154 288.05968,154.422266 287.989327,154.845349 L282.978734,179.436434 C282.978734,179.718217 282.625334,180 282.272751,180 Z" id="Path" fill="#8CD3FF"></path>
                            <path d="M247.791673,171 L231.292264,171 C231.086725,171 230.949435,170.863586 231.017683,170.65936 L232.866735,161.204226 C232.866735,161.067813 233.003231,161 233.140521,161 L249.708179,161 C249.913717,161 250.051007,161.135625 249.981965,161.339852 L248.065459,170.795774 C248.065459,170.863586 247.928169,171 247.791673,171 Z" id="Path" fill="#FEFFFF"></path>
                            <path d="M248.154619,132.7155 C250.695388,132.7155 253.304612,132.7155 255.845381,132.7155 C256.05154,132.7155 256.05154,132.2845 255.845381,132.2845 C253.304612,132.2845 250.695388,132.2845 248.154619,132.2845 C247.94846,132.2845 247.94846,132.7155 248.154619,132.7155 Z" id="Path" fill="#BBD0FF"></path>
                            <path d="M259.474926,131.010276 C259.086797,131.08902 258.698668,131.247423 258.40729,131.48457 C258.213788,131.642057 257.922409,132.037607 258.019161,132.273838 C258.213788,132.826875 259.281424,133.064022 259.864181,132.985278 C260.542563,132.906535 261.222071,132.353497 260.930692,131.80046 C260.542563,131.010276 259.378175,131.08902 258.505166,131.247423 C258.213788,131.326166 258.310539,131.642057 258.601917,131.642057 C259.184673,131.563313 259.960932,131.40491 260.349061,131.879204 C260.833941,132.353497 260.057683,132.669388 259.474926,132.669388 C259.184673,132.669388 258.505166,132.510985 258.40729,132.273838 C258.40729,132.116351 258.698668,131.879204 258.796544,131.721716 C258.990046,131.563313 259.184673,131.48457 259.474926,131.48457 C259.960932,131.326166 259.766305,130.931532 259.474926,131.010276 Z" id="Path" fill="#BBD0FF"></path>
                            <polygon id="Path" fill="#292188" points="194 333 194 249 185 249 185 333"></polygon>
                            <polygon id="Path" fill="#1A0F5B" points="185 301 185 230 194 230 194 297.612308"></polygon>
                            <path d="M301.213852,189.894117 C301.213852,188.841739 300.369262,188 299.31332,188 L85.5806571,188 C84.5247157,188 83.6793097,188.841739 83.6793097,189.894117 C83.6793097,189.894117 72.7676974,296.049242 72.0637092,303.415884 C71.3597211,310.78334 76.639673,314.99285 80.5116486,316.747084 C80.5820719,316.817025 83.1872443,325.376742 93.535307,325.236858 C106.77048,323.973843 132.818123,316.255866 142.322412,319.20236 C174.846877,329.375614 192.798697,326.218481 207.582693,322.008971 C222.366689,317.799461 244.260745,319.48294 247.006682,320.254737 C252.497741,321.798333 268.196505,325.58738 273.406034,323.13129 C279.179439,318.851839 302.622317,318.851839 306.14185,306.573017 C309.662199,294.295008 301.213852,189.894117 301.213852,189.894117 Z" id="Path" fill="#FBAA95"></path>
                            <path d="M229.599174,335 L148.401638,335 C147.630981,335 147,334.324544 147,333.499565 C147,332.674587 147.630981,332 148.401638,332 L229.599174,332 C230.369831,332 231,332.674587 231,333.499565 C231,334.324544 230.369831,335 229.599174,335 Z" id="Path" fill="#292188"></path>
                            <path d="M81.3956382,317 L88,209 L75.0016484,311.756747 C74.9313615,311.756747 77.1095222,315.182566 81.3956382,317 Z" id="Path" fill="#FF6786"></path>
                            <path d="M208,322 C221.425141,303.159048 243.267403,255.776755 252.102194,224.071216 C260.866836,192.294782 246.95468,320.242293 246.95468,320.242293 C236.659653,318.836617 219.407742,318.766537 208,322 Z" id="Path" fill="#FF6786"></path>
                            <path d="M116,322.364577 C138.562398,303.856245 144.709448,253.346669 145.617094,246 C147.99187,257.938746 154.83767,316.006253 152.532526,323 C138.562398,318.902504 133.114096,319.114585 116,322.364577 Z" id="Path" fill="#FF6786"></path>
                            <path d="M293,317 C295.190136,308.967302 302.397765,247.987294 301.690926,200 C304.800035,228.709143 309.463698,302.400909 305.435617,308.82723 C300.984087,315.393622 293,317 293,317 Z" id="Path" fill="#FF6786"></path>
                            <path d="M143,317 L143,325.122683 C143,326.210415 142.860092,327.298146 142.508693,328.313587 C141.947433,330.125912 140.96482,331.794496 139.631622,333.099942 C136.824504,334.9854 133.456126,336 129.807117,336 L127,336 C131.772344,336 135.771937,332.736805 137.03518,328.313587 C140.684189,325.848118 143,321.714065 143,317 Z" id="Path" fill="#1A0F5B"></path>
                            <path d="M149,276.004316 L149,318.412134 C149,324.942549 145.560854,330.699797 140.367972,334 C141.701169,332.736075 142.683782,331.191368 143.245043,329.36588 C143.525674,328.382736 143.73635,327.329601 143.73635,326.276466 L143.73635,276.004316 C143.73635,274.529601 142.543874,273.265676 141,273.265676 C139.456126,273.265676 138.262837,274.459609 138.262837,276.004316 L133,276.004316 C133,271.580985 136.579054,268 141,268 C145.420946,268 149,271.580985 149,276.004316 Z" id="Path" fill="#292188"></path>
                            <path d="M80,336 L77.2185708,336 C67.1357691,336 59,327.812171 59,317.820285 L59,275.910344 C59,271.538944 62.5463464,268 66.9271699,268 C71.3079129,268 74.8543399,271.538944 74.8543399,275.910344 L69.6390392,275.910344 C69.6390392,274.452942 68.4569238,273.203856 66.9271699,273.203856 C65.3973355,273.203856 64.21522,274.383772 64.21522,275.910344 L64.21522,317.820285 C64.21522,322.33083 66.5099717,326.355574 70.0563181,328.645431 C71.3774728,332.877686 75.3410174,336 80,336 Z" id="Path" fill="#292188"></path>
                            <path d="M138,294 L138,325.500406 C138,326.550365 137.857007,327.600325 137.497862,328.580503 C136.135273,332.850122 132.047506,336 127.241449,336 L103,336 L103,320.320389 C107.446912,320.320389 111.032542,316.819984 111.032542,312.479773 L111.032542,304.500406 L127.169952,304.500406 C133.194774,304.500406 138,299.809667 138,294 Z" id="Path" fill="#292188"></path>
                            <path d="M104,320.320389 L104,336 L79.758193,336 C74.8811499,336 70.7930599,332.850122 69.5020534,328.580503 C69.2151539,327.600325 69,326.550365 69,325.500406 L69,294 C69,299.809667 73.8052974,304.500406 79.758193,304.500406 L95.8951499,304.500406 L95.8951499,312.479773 C95.8951499,316.819984 99.5530984,320.320389 104,320.320389 Z" id="Path" fill="#3B35B9"></path>
                            <path d="M139,275 L139,294.182479 C139,300.1676 134.184938,305 128.22026,305 L112.049817,305 L112.049817,288.774137 L104,288.774137 L104,275 L139,275 Z" id="Path" fill="#3B35B9"></path>
                            <path d="M104,275 L104,288.774137 L95.9509589,288.774137 L95.9509589,305 L79.7803169,305 C73.8152626,305 69,300.1676 69,294.182479 L69,275 L104,275 Z" id="Path" fill="#4C4CE0"></path>
                            <path d="M112,289 L112,313.052637 C112,317.451938 108.428438,321 104,321 L104,289 L112,289 Z" id="Path" fill="#FF6786"></path>
                            <path d="M104,289 L104,321 C99.5719313,321 96,317.451938 96,313.052637 L96,289 L104,289 Z" id="Path" fill="#FBAA95"></path>
                            <path d="M228.687552,335 L271.844956,335 C277.980513,335 283,329.93169 283,323.737452 C283,321.837244 281.675424,320.218518 279.86272,319.866869 L266.26703,316.76975 C262.781432,316.065637 259.50434,314.375928 257.064503,311.771607 C256.994193,311.70144 256.855189,311.561107 256.784879,311.490125 L253.856912,308.252673 C252.532337,306.844446 250.719632,306 248.837426,306 L244.723887,306 C244.514573,306 244.374762,306.070982 244.30526,306.281482 C242.980684,308.534155 240.540038,310.012548 237.751075,310.012548 C235.101924,310.012548 232.80109,308.675304 231.407013,306.562964 C231.197699,306.211316 230.779072,306 230.361253,306 C228.408736,306 226.735843,307.408226 226.457028,309.378601 L225.062142,330.70597 C224.644323,332.958643 226.386718,335 228.687552,335 Z" id="Path" fill="#1A0F5B"></path>
                            <path d="M228.794273,335 L271.957538,335 C274.607049,335 277.117538,334.016784 279,332.471962 L236.39525,332.471962 C234.094103,332.471962 232.350664,330.435532 232.629517,328.118299 L233.884761,308.948835 C232.838859,308.38723 232.002299,307.544822 231.374273,306.561605 C231.164931,306.210806 230.747055,306 230.328371,306 C228.376397,306 226.702469,307.404013 226.423615,309.370446 L225.029349,330.646337 C224.750495,332.96357 226.493127,335 228.794273,335 Z" id="Path" fill="#4C4CE0"></path>
                            <path d="M262.155239,332 L275,319.559048 L266.69254,317.732954 C263.202371,317.057377 259.990574,315.501671 257.547536,313 L238,331.931815 L262.155239,331.931815 L262.155239,332 Z" id="Path" fill="#3B35B9"></path>
                            <path d="M238,332 L240.979686,332 L259,314.356806 C258.445677,313.949371 257.960444,313.475079 257.47521,313 L238,332 Z" id="Path" fill="#292188"></path>
                            <path d="M249.779164,313.384448 L242.670089,305.442486 C241.712915,304.405812 241.781058,302.748735 242.875311,301.781706 L244.105057,300.676988 C245.131166,299.70996 246.771356,299.778804 247.72853,300.884323 L256,310.138338 L252.308384,313.522137 C251.556432,314.212986 250.462972,314.144142 249.779164,313.384448 Z" id="Path" fill="#4C4CE0"></path>
                            <path d="M241.679033,306.424571 L248.813941,314.378157 C249.506877,315.145615 250.683984,315.215163 251.445973,314.517253 L252,314.028797 L245.211961,306.49412 C244.242011,305.378111 244.311064,303.703289 245.419922,302.726377 L246.527976,301.679916 C245.558027,300.773361 244.03405,300.773361 242.995048,301.679916 L241.886994,302.726377 C240.778136,303.633741 240.709083,305.307754 241.679033,306.424571 Z" id="Path" fill="#3B35B9"></path>
                            <path d="M255.248138,317.736037 C254.917287,317.406274 254.917287,316.878347 255.248138,316.547819 L258.559722,313.247896 C258.890573,312.917368 259.420243,312.917368 259.751862,313.247896 C260.082713,313.577659 260.082713,314.105585 259.751862,314.436113 L256.440278,317.736037 C256.308244,317.868401 256.04341,318 255.844592,318 C255.645774,318 255.38094,317.868401 255.248138,317.736037 Z" id="Path" fill="#F05068"></path>
                            <path d="M259.254909,320.728901 C258.91503,320.389439 258.91503,319.847242 259.254909,319.508565 L262.520424,316.254597 C262.861091,315.915134 263.405213,315.915134 263.745091,316.254597 C264.08497,316.593274 264.08497,317.135471 263.745091,317.474933 L260.479576,320.728901 C260.34394,320.864058 260.071091,321 259.867637,321 C259.663394,321 259.459151,320.931636 259.254909,320.728901 Z" id="Path" fill="#F05068"></path>
                            <path d="M264.241727,321.742816 C263.919424,321.420776 263.919424,320.906407 264.241727,320.585113 L267.597121,317.240971 C267.919424,316.919676 268.435408,316.919676 268.757712,317.240971 C269.080763,317.562265 269.080763,318.076633 268.757712,318.398673 L265.403066,321.742816 C265.274444,321.871035 265.016452,322 264.822771,322 C264.62909,322 264.371097,321.871035 264.241727,321.742816 Z" id="Path" fill="#F05068"></path>
                            <path d="M238.316954,327 L225.324382,327 L225.043528,330.686725 C224.691849,332.982461 226.51781,335 228.83547,335 L272.308486,335 C276.452107,335 280.034019,332.842959 282,329.573934 L246.323342,329.573934 C245.339944,329.573934 244.356546,329.295736 243.443973,328.808689 L242.389751,328.182139 C241.196323,327.416893 239.791237,327 238.316954,327 Z" id="Path" fill="#F05068"></path>
                            <path d="M225.04302,330.686725 C224.694749,332.982461 226.507214,335 228.807743,335 L271.95862,335 C274.608228,335 277.117235,334.095252 279,332.495414 L236.405872,332.495414 C234.105343,332.495414 232.362371,330.477875 232.641958,328.182139 L232.71145,327 L225.252306,327 L225.04302,330.686725 Z" id="Path" fill="#FF6786"></path>
                            <path d="M196.687552,336 L239.844956,336 C245.980513,336 251,330.93169 251,324.737452 C251,322.837244 249.675424,321.218518 247.86272,320.866053 L234.26703,317.768934 C230.781432,317.065637 227.50434,315.375928 225.064503,312.771607 C224.994193,312.70144 224.855189,312.560291 224.784879,312.490125 L221.856912,309.252673 C220.532337,307.844446 218.719632,307 216.837426,307 L212.723887,307 C212.514573,307 212.374762,307.070167 212.30526,307.281482 C210.980684,309.534155 208.540038,311.011732 205.751884,311.011732 C203.101924,311.011732 200.80109,309.674488 199.407013,307.562964 C199.197699,307.211316 198.779072,307 198.361253,307 C196.408736,307 194.735843,308.407411 194.457028,310.378601 L193.062142,331.70597 C192.644323,333.958643 194.386718,336 196.687552,336 Z" id="Path" fill="#1A0F5B"></path>
                            <path d="M195.795014,336 L238.956834,336 C241.606306,336 244.116757,335.016784 246,333.471962 L203.39507,333.471962 C201.093958,333.471962 199.350544,331.435532 199.629393,329.118299 L200.884619,309.948835 C199.838732,309.38723 199.002184,308.544822 198.374975,307.561605 C198.165636,307.210806 197.746958,307 197.32828,307 C195.376336,307 193.702432,308.404013 193.423583,310.370446 L192.029337,331.646337 C191.750487,333.96357 193.493901,336 195.795014,336 Z" id="Path" fill="#4C4CE0"></path>
                            <path d="M229.154711,332 L242,319.558535 L233.691912,317.733149 C230.20182,317.056761 226.990093,315.501774 224.547109,313 L205,331.932596 L229.154711,331.932596 L229.154711,332 Z" id="Path" fill="#3B35B9"></path>
                            <path d="M205,332 L207.98049,332 L226,314.357592 C225.445677,313.950157 224.960444,313.475079 224.47521,313 L205,332 Z" id="Path" fill="#292188"></path>
                            <path d="M216.779164,314.383993 L209.670089,306.441874 C208.712915,305.40598 208.781058,303.74887 209.875311,302.781823 L211.105057,301.677083 C212.131166,300.710035 213.771356,300.778881 214.72853,301.883621 L223,311.138619 L219.308384,314.522485 C218.556432,315.213348 217.462972,315.143701 216.779164,314.383993 Z" id="Path" fill="#4C4CE0"></path>
                            <path d="M208.678721,306.423903 L215.81329,314.377693 C216.506193,315.145171 217.683244,315.21553 218.445196,314.517602 L219,314.029133 L212.211481,306.494262 C211.241577,305.377415 211.31143,303.703359 212.419432,302.726421 L213.527434,301.679934 C212.557531,300.773355 211.033626,300.773355 209.994674,301.679934 L208.886672,302.726421 C207.77867,303.633808 207.708818,305.307865 208.678721,306.423903 Z" id="Path" fill="#3B35B9"></path>
                            <path d="M222.248138,318.736047 C221.917287,318.406297 221.917287,317.877625 222.248138,317.547875 L225.559722,314.247313 C225.890573,313.917562 226.420243,313.917562 226.751862,314.247313 C227.082713,314.577828 227.082713,315.105734 226.751862,315.435484 L223.440278,318.736047 C223.308244,318.867641 223.04341,319 222.844592,319 C222.645774,319 222.446956,318.867641 222.248138,318.736047 Z" id="Path" fill="#F05068"></path>
                            <path d="M226.254909,320.72887 C225.91503,320.390153 225.91503,319.847892 226.254909,319.508389 L229.520424,316.254037 C229.861091,315.915321 230.405213,315.915321 230.745091,316.254037 C231.08497,316.59354 231.08497,317.135801 230.745091,317.474518 L227.479576,320.72887 C227.34394,320.864828 227.071879,321 226.867637,321 C226.663394,321 226.459151,320.932414 226.254909,320.72887 Z" id="Path" fill="#F05068"></path>
                            <path d="M230.242288,321.742844 C229.919237,321.420841 229.919237,320.90653 230.242288,320.585271 L233.596934,317.241503 C233.919237,316.919499 234.435222,316.919499 234.758273,317.241503 C235.080576,317.562761 235.080576,318.077072 234.758273,318.39833 L231.403627,321.742844 C231.274257,321.871049 231.016265,322 230.822584,322 C230.564592,321.935152 230.37091,321.871049 230.242288,321.742844 Z" id="Path" fill="#F05068"></path>
                            <path d="M205.316942,328 L192.324367,328 L192.043512,331.687531 C191.691834,333.983268 193.518609,336 195.835456,336 L239.308483,336 C243.452105,336 247.034018,333.843766 249,330.573934 L213.323332,330.573934 C212.339934,330.573934 211.356536,330.295736 210.443962,329.808689 L209.390554,329.182945 C208.126302,328.4177 206.792039,328 205.316942,328 Z" id="Path" fill="#F05068"></path>
                            <path d="M192.04302,331.687531 C191.694749,333.983268 193.507214,336 195.807743,336 L238.959428,336 C241.608228,336 244.118043,335.096059 246,333.49622 L203.405872,333.49622 C201.105343,333.49622 199.363179,331.478682 199.641958,329.182945 L199.71145,328 L192.252306,328 L192.04302,331.687531 Z" id="Path" fill="#FF6786"></path>
                            <path d="M176,165.500322 C176,165.222151 175.777849,165 175.499678,165 C175.222151,165 175,165.222151 175,165.500322 C175,165.777849 175.222151,166 175.499678,166 C175.777849,166 176,165.777849 176,165.500322 Z" id="Path" fill="#F05068"></path>
                            <path d="M176,163.992072 C176,163.441772 175.777849,163 175.500322,163 C175.222151,163 175,163.441772 175,163.992072 C175,164.542373 175.222151,164.982868 175.500322,164.982868 C175.777849,165.09395 176,164.653454 176,163.992072 Z" id="Path" fill="#F05068"></path>
                            <path d="M177,163.992072 C177,163.441772 176.777849,163 176.500322,163 C176.222151,163 176,163.441772 176,163.992072 C176,164.542373 176.222151,164.982868 176.500322,164.982868 C176.833226,165.09395 177,164.653454 177,163.992072 Z" id="Path" fill="#F05068"></path>
                            <path d="M179,163.992072 C179,163.441772 178.777849,163 178.499678,163 C178.222151,163 178,163.441772 178,163.992072 C178,164.542373 178.222151,164.982868 178.499678,164.982868 C178.833226,165.09395 179,164.653454 179,163.992072 Z" id="Path" fill="#F05068"></path>
                            <path d="M181,163.992072 C181,163.441772 180.777706,163 180.5,163 C180.222294,163 180,163.441772 180,163.992072 C180,164.542373 180.222294,164.982868 180.5,164.982868 C180.833763,165.09395 181,164.653454 181,163.992072 Z" id="Path" fill="#F05068"></path>
                            <path d="M178,165.500322 C178,165.222151 177.777205,165 177.499678,165 C177.222151,165 177,165.222151 177,165.500322 C177,165.777849 177.222151,166 177.499678,166 C177.777205,166 178,165.777849 178,165.500322 Z" id="Path" fill="#F05068"></path>
                            <path d="M180,165.500322 C180,165.222151 179.777849,165 179.500322,165 C179.222151,165 179,165.222151 179,165.500322 C179,165.777849 179.222151,166 179.500322,166 C179.777849,166 180,165.777849 180,165.500322 Z" id="Path" fill="#F05068"></path>
                            <path d="M175,162.5 C175,162.222294 174.777849,162 174.499678,162 C174.222151,162 174,162.222294 174,162.5 C174,162.777706 174.222151,163 174.499678,163 C174.777849,163 175,162.777706 175,162.5 Z" id="Path" fill="#F05068"></path>
                            <path d="M176,162.5 C176,162.222294 175.777849,162 175.499678,162 C175.222151,162 175,162.222294 175,162.5 C175,162.777706 175.222151,163 175.499678,163 C175.777849,163 176,162.777706 176,162.5 Z" id="Path" fill="#F05068"></path>
                            <path d="M176,160.500322 C176,160.222151 175.777849,160 175.500322,160 C175.222151,160 175,160.222151 175,160.500322 C175,160.777849 175.222151,161 175.500322,161 C175.777849,161 176,160.777849 176,160.500322 Z" id="Path" fill="#F05068"></path>
                            <path d="M173,160.500322 C173,160.222151 172.777849,160 172.500322,160 C172.222151,160 172,160.222151 172,160.500322 C172,160.777849 172.222151,161 172.500322,161 C172.777849,161 173,160.777849 173,160.500322 Z" id="Path" fill="#F05068"></path>
                            <path d="M172,162.5 C172,162.222294 171.777849,162 171.500322,162 C171.222151,162 171,162.222294 171,162.5 C171,162.777706 171.222151,163 171.500322,163 C171.777849,163 172,162.777706 172,162.5 Z" id="Path" fill="#F05068"></path>
                            <path d="M171,160.500322 C171,160.222151 170.777706,160 170.5,160 C170.222294,160 170,160.222151 170,160.500322 C170,160.777849 170.222294,161 170.5,161 C170.777706,161 171,160.777849 171,160.500322 Z" id="Path" fill="#F05068"></path>
                            <path d="M177,160.500322 C177,160.222151 176.777849,160 176.500322,160 C176.222151,160 176,160.222151 176,160.500322 C176,160.777849 176.222151,161 176.500322,161 C176.833226,161 177,160.777849 177,160.500322 Z" id="Path" fill="#F05068"></path>
                            <path d="M179,160.500322 C179,160.222151 178.777849,160 178.499678,160 C178.222151,160 178,160.222151 178,160.500322 C178,160.777849 178.222151,161 178.499678,161 C178.833226,161 179,160.777849 179,160.500322 Z" id="Path" fill="#F05068"></path>
                            <path d="M181,160.500322 C181,160.222151 180.777706,160 180.5,160 C180.222294,160 180,160.222151 180,160.500322 C180,160.777849 180.222294,161 180.5,161 C180.833763,161 181,160.777849 181,160.500322 Z" id="Path" fill="#F05068"></path>
                            <path d="M182,159.071112 L182,160.786232 L181.923283,160.893116 C181.846566,160.893116 181.768956,161 181.692239,161 C181.307761,161 181,160.57122 181,160.035556 C181,159.499892 181.307761,159.071112 181.692239,159.071112 C181.768956,159.071112 181.846566,159.071112 181.923283,159.177997 C181.923283,158.962985 181.923283,158.962985 182,159.071112 Z" id="Path" fill="#F05068"></path>
                            <path d="M178,162.5 C178,162.222294 177.777205,162 177.499678,162 C177.222151,162 177,162.222294 177,162.5 C177,162.777706 177.222151,163 177.499678,163 C177.777205,163 178,162.777706 178,162.5 Z" id="Path" fill="#F05068"></path>
                            <path d="M180,162.5 C180,162.222294 179.777849,162 179.500322,162 C179.222151,162 179,162.222294 179,162.5 C179,162.777706 179.222151,163 179.500322,163 C179.777849,163 180,162.777706 180,162.5 Z" id="Path" fill="#F05068"></path>
                            <path d="M182,162.5 C182,162.222294 181.777849,162 181.500322,162 C181.222151,162 181,162.222294 181,162.5 C181,162.777706 181.222151,163 181.500322,163 C181.777849,163 182,162.777706 182,162.5 Z" id="Path" fill="#F05068"></path>
                            <path d="M171,159.500322 C171,159.222151 170.777849,159 170.500322,159 C170.222795,159 170,159.222151 170,159.500322 C170,159.777849 170.222795,160 170.500322,160 C170.777849,160 171,159.777849 171,159.500322 Z" id="Path" fill="#F05068"></path>
                            <path d="M175,159.500322 C175,159.222151 174.777849,159 174.499678,159 C174.222151,159 174,159.222151 174,159.500322 C174,159.777849 174.222151,160 174.499678,160 C174.777849,160 175,159.777849 175,159.500322 Z" id="Path" fill="#F05068"></path>
                            <path d="M180,159.500322 C180,159.222151 179.777849,159 179.500322,159 C179.222151,159 179,159.222151 179,159.500322 C179,159.777849 179.222151,160 179.500322,160 C179.777849,160 180,159.777849 180,159.500322 Z" id="Path" fill="#F05068"></path>
                            <path d="M182,159.500322 C182,159.222151 181.777849,159 181.500322,159 C181.222151,159 181,159.222151 181,159.500322 C181,159.777849 181.222151,160 181.500322,160 C181.777849,160 182,159.777849 182,159.500322 Z" id="Path" fill="#F05068"></path>
                            <path d="M173,156.992298 C173,156.441163 172.777849,156 172.500322,156 C172.222151,156 172,156.441163 172,156.992298 C172,157.544711 172.222151,157.985875 172.500322,157.985875 C172.777849,158.095846 173,157.544711 173,156.992298 Z" id="Path" fill="#F05068"></path>
                            <path d="M171,155.992298 C171,155.441163 170.777849,155 170.500322,155 C170.222795,155 170,155.441163 170,155.992298 C170,156.544711 170.222795,156.985875 170.500322,156.985875 C170.777849,157.095846 171,156.544711 171,155.992298 Z" id="Path" fill="#F05068"></path>
                            <path d="M170,156.992298 C170,156.441163 169.777849,156 169.499678,156 C169.222151,156 169,156.441163 169,156.992298 C169,157.544711 169.222151,157.985875 169.499678,157.985875 C169.777849,158.095846 170,157.544711 170,156.992298 Z" id="Path" fill="#F05068"></path>
                            <path d="M175,155.992298 C175,155.441163 174.777849,155 174.499678,155 C174.222151,155 174,155.441163 174,155.992298 C174,156.544711 174.222151,156.985875 174.499678,156.985875 C174.777849,157.095846 175,156.544711 175,155.992298 Z" id="Path" fill="#F05068"></path>
                            <path d="M180,155.992298 C180,155.441163 179.777849,155 179.500322,155 C179.222151,155 179,155.441163 179,155.992298 C179,156.544711 179.222151,156.985875 179.500322,156.985875 C179.777849,157.095846 180,156.544711 180,155.992298 Z" id="Path" fill="#F05068"></path>
                            <path d="M182,155.992298 C182,155.441163 181.777849,155 181.500322,155 C181.222151,155 181,155.441163 181,155.992298 C181,156.544711 181.222151,156.985875 181.500322,156.985875 C181.777849,157.095846 182,156.544711 182,155.992298 Z" id="Path" fill="#F05068"></path>
                            <path d="M176,156.992298 C176,156.441163 175.777849,156 175.500322,156 C175.222151,156 175,156.441163 175,156.992298 C175,157.544711 175.222151,157.985875 175.500322,157.985875 C175.777849,158.095846 176,157.544711 176,156.992298 Z" id="Path" fill="#F05068"></path>
                            <path d="M179,156.992298 C179,156.441163 178.777849,156 178.499678,156 C178.222151,156 178,156.441163 178,156.992298 C178,157.544711 178.222151,157.985875 178.499678,157.985875 C178.833226,158.095846 179,157.544711 179,156.992298 Z" id="Path" fill="#F05068"></path>
                            <path d="M181,156.992298 C181,156.441163 180.777706,156 180.5,156 C180.222294,156 180,156.441163 180,156.992298 C180,157.544711 180.222294,157.985875 180.5,157.985875 C180.833763,158.095846 181,157.544711 181,156.992298 Z" id="Path" fill="#F05068"></path>
                            <path d="M182,148.055377 L182,149 L181.916908,149 C181.833816,149 181.749758,149 181.749758,149 C181.333333,149 181,148.777849 181,148.499678 C181,148.222151 181.333333,148 181.749758,148 C181.833816,148 181.916908,148 181.916908,148 C181.916908,148 181.916908,148.055377 182,148.055377 Z" id="Path" fill="#F05068"></path>
                            <path d="M180,148.499678 C180,148.777849 180.222151,149 180.499678,149 C180.777849,149 181,148.777849 181,148.499678 C181,148.222151 180.777849,148 180.499678,148 C180.222151,148 180,148.222151 180,148.499678 Z" id="Path" fill="#F05068"></path>
                            <path d="M178,148.499678 C178,148.777849 178.222151,149 178.500322,149 C178.777849,149 179,148.777849 179,148.499678 C179,148.222151 178.777849,148 178.500322,148 C178.222151,148 178,148.222151 178,148.499678 Z" id="Path" fill="#F05068"></path>
                            <path d="M176,148.499678 C176,148.777849 176.222795,149 176.500322,149 C176.777849,149 177,148.777849 177,148.499678 C177,148.222151 176.777849,148 176.500322,148 C176.222795,148 176,148.222151 176,148.499678 Z" id="Path" fill="#F05068"></path>
                            <path d="M175,148.499678 C175,148.777849 175.222294,149 175.5,149 C175.777706,149 176,148.777849 176,148.499678 C176,148.222151 175.777706,148 175.5,148 C175.222294,148 175,148.222151 175,148.499678 Z" id="Path" fill="#F05068"></path>
                            <path d="M173,148.499678 C173,148.777849 173.222151,149 173.499678,149 C173.777849,149 174,148.777849 174,148.499678 C174,148.222151 173.777849,148 173.499678,148 C173.222151,148 173,148.222151 173,148.499678 Z" id="Path" fill="#F05068"></path>
                            <path d="M181,146.5 C181,146.777706 181.222151,147 181.500322,147 C181.777849,147 182,146.777706 182,146.5 C182,146.222294 181.777849,146 181.500322,146 C181.222151,146 181,146.222294 181,146.5 Z" id="Path" fill="#F05068"></path>
                            <path d="M179,146.5 C179,146.777706 179.222294,147 179.5,147 C179.777706,147 180,146.777706 180,146.5 C180,146.222294 179.777706,146 179.5,146 C179.222294,146 179,146.222294 179,146.5 Z" id="Path" fill="#F05068"></path>
                            <path d="M175,146.5 C175,146.777706 175.222151,147 175.500322,147 C175.777849,147 176,146.777706 176,146.5 C176,146.222294 175.777849,146 175.500322,146 C175.222151,146 175,146.222294 175,146.5 Z" id="Path" fill="#F05068"></path>
                            <path d="M182,150.055377 L182,151 L181.916908,151 C181.833816,151 181.749758,151 181.749758,151 C181.333333,151 181,150.777849 181,150.499678 C181,150.222151 181.333333,150 181.749758,150 C181.833816,150 181.916908,150 181.916908,150 C181.916908,150.055377 181.916908,150.055377 182,150.055377 Z" id="Path" fill="#F05068"></path>
                            <path d="M180,150.500322 C180,150.777849 180.222151,151 180.499678,151 C180.777849,151 181,150.777849 181,150.500322 C181,150.222151 180.777849,150 180.499678,150 C180.222151,150 180,150.222151 180,150.500322 Z" id="Path" fill="#F05068"></path>
                            <path d="M176,150.500322 C176,150.777849 176.222795,151 176.500322,151 C176.777849,151 177,150.777849 177,150.500322 C177,150.222151 176.777849,150 176.500322,150 C176.222795,150 176,150.222151 176,150.500322 Z" id="Path" fill="#F05068"></path>
                            <path d="M175,150.500322 C175,150.777849 175.222294,151 175.5,151 C175.777706,151 176,150.777849 176,150.500322 C176,150.222151 175.777706,150 175.5,150 C175.222294,150 175,150.222151 175,150.500322 Z" id="Path" fill="#F05068"></path>
                            <path d="M173,150.500322 C173,150.777849 173.222151,151 173.499678,151 C173.777849,151 174,150.777849 174,150.500322 C174,150.222151 173.777849,150 173.499678,150 C173.222151,150 173,150.222151 173,150.500322 Z" id="Path" fill="#F05068"></path>
                            <path d="M181,149.006424 C181,149.558837 181.222151,150 181.500322,150 C181.777849,150 182,149.558837 182,149.006424 C182,148.455289 181.777849,148.014126 181.500322,148.014126 C181.222151,147.904155 181,148.455289 181,149.006424 Z" id="Path" fill="#F05068"></path>
                            <path d="M179,149.006424 C179,149.558837 179.222294,150 179.5,150 C179.777706,150 180,149.558837 180,149.006424 C180,148.455289 179.777706,148.014126 179.5,148.014126 C179.222294,147.904155 179,148.455289 179,149.006424 Z" id="Path" fill="#F05068"></path>
                            <path d="M174,149.006424 C174,149.558837 174.222151,150 174.500322,150 C174.777849,150 175,149.558837 175,149.006424 C175,148.455289 174.777849,148.014126 174.500322,148.014126 C174.222151,147.904155 174,148.455289 174,149.006424 Z" id="Path" fill="#F05068"></path>
                            <path d="M170,150.500322 C170,150.777849 170.222151,151 170.499678,151 C170.777849,151 171,150.777849 171,150.500322 C171,150.222151 170.777849,150 170.499678,150 C170.222151,150 170,150.222151 170,150.500322 Z" id="Path" fill="#F05068"></path>
                            <path d="M181,153.007206 C181,153.558616 181.222151,154 181.500322,154 C181.777849,154 182,153.558616 182,153.007206 C182,152.455796 181.777849,152.014412 181.500322,152.014412 C181.222151,151.903107 181,152.455796 181,153.007206 Z" id="Path" fill="#F05068"></path>
                            <path d="M177,153.007206 C177,153.558616 177.222151,154 177.499678,154 C177.777849,154 178,153.558616 178,153.007206 C178,152.455796 177.777849,152.014412 177.499678,152.014412 C177.222151,151.903107 177,152.455796 177,153.007206 Z" id="Path" fill="#F05068"></path>
                            <path d="M175,153.007206 C175,153.558616 175.222151,154 175.500322,154 C175.777849,154 176,153.558616 176,153.007206 C176,152.455796 175.777849,152.014412 175.500322,152.014412 C175.222151,151.903107 175,152.455796 175,153.007206 Z" id="Path" fill="#F05068"></path>
                            <path d="M180,154.500322 C180,154.777849 180.222151,155 180.499678,155 C180.777849,155 181,154.777849 181,154.500322 C181,154.222795 180.777849,154 180.499678,154 C180.222151,154 180,154.222795 180,154.500322 Z" id="Path" fill="#F05068"></path>
                            <path d="M174,153.007206 C174,153.558616 174.222151,154 174.499678,154 C174.777849,154 175,153.558616 175,153.007206 C175,152.455796 174.777849,152.014412 174.499678,152.014412 C174.222151,151.903107 174,152.455796 174,153.007206 Z" id="Path" fill="#F05068"></path>
                            <path d="M171,153.007206 C171,153.558616 171.222151,154 171.500322,154 C171.777849,154 172,153.558616 172,153.007206 C172,152.455796 171.777849,152.014412 171.500322,152.014412 C171.222151,151.903107 171,152.455796 171,153.007206 Z" id="Path" fill="#F05068"></path>
                            <path d="M173,154.500322 C173,154.777849 173.222151,155 173.499678,155 C173.777849,155 174,154.777849 174,154.500322 C174,154.222795 173.777849,154 173.499678,154 C173.222151,154 173,154.222795 173,154.500322 Z" id="Path" fill="#F05068"></path>
                            <path d="M169,154.500322 C169,154.777849 169.222151,155 169.500322,155 C169.777849,155 170,154.777849 170,154.500322 C170,154.222795 169.777849,154 169.500322,154 C169.222151,154 169,154.222795 169,154.500322 Z" id="Path" fill="#F05068"></path>
                            <path d="M171,153.992072 C171,153.441772 170.777706,153 170.5,153 C170.222294,153 170,153.441772 170,153.992072 C170,154.542373 170.222294,154.982868 170.5,154.982868 C170.777706,155.09395 171,154.653454 171,153.992072 Z" id="Path" fill="#F05068"></path>
                            <path d="M176,153.992072 C176,153.441772 175.777849,153 175.500322,153 C175.222151,153 175,153.441772 175,153.992072 C175,154.542373 175.222151,154.982868 175.500322,154.982868 C175.777849,155.09395 176,154.653454 176,153.992072 Z" id="Path" fill="#F05068"></path>
                            <path d="M177,153.992072 C177,153.441772 176.777849,153 176.500322,153 C176.222151,153 176,153.441772 176,153.992072 C176,154.542373 176.222151,154.982868 176.500322,154.982868 C176.833226,155.09395 177,154.653454 177,153.992072 Z" id="Path" fill="#F05068"></path>
                            <path d="M179,153.992072 C179,153.441772 178.777849,153 178.499678,153 C178.222151,153 178,153.441772 178,153.992072 C178,154.542373 178.222151,154.982868 178.499678,154.982868 C178.833226,155.09395 179,154.653454 179,153.992072 Z" id="Path" fill="#F05068"></path>
                            <path d="M182,154 L182,154.888603 L181.923283,154.943979 C181.846566,154.943979 181.768956,155 181.692239,155 C181.307761,155 181,154.777849 181,154.499678 C181,154.222151 181.307761,154 181.692239,154 C181.768956,154 181.846566,154 181.923283,154.055377 C181.923283,154 181.923283,154 182,154 Z" id="Path" fill="#F05068"></path>
                            <path d="M172,155.992298 C172,155.441163 171.777849,155 171.500322,155 C171.222151,155 171,155.441163 171,155.992298 C171,156.544711 171.222151,156.985875 171.500322,156.985875 C171.777849,157.095846 172,156.544711 172,155.992298 Z" id="Path" fill="#F05068"></path>
                            <path d="M178,155.992298 C178,155.441163 177.777205,155 177.499678,155 C177.222151,155 177,155.441163 177,155.992298 C177,156.544711 177.222151,156.985875 177.499678,156.985875 C177.777205,157.095846 178,156.544711 178,155.992298 Z" id="Path" fill="#F05068"></path>
                            <path d="M171,156.992298 C171,156.441163 170.777706,156 170.5,156 C170.222294,156 170,156.441163 170,156.992298 C170,157.544711 170.222294,157.985875 170.5,157.985875 C170.777706,158.095846 171,157.544711 171,156.992298 Z" id="Path" fill="#F05068"></path>
                            <path d="M177,156.992298 C177,156.441163 176.777849,156 176.500322,156 C176.222151,156 176,156.441163 176,156.992298 C176,157.544711 176.222151,157.985875 176.500322,157.985875 C176.833226,158.095846 177,157.544711 177,156.992298 Z" id="Path" fill="#F05068"></path>
                            <path d="M172,159.500322 C172,159.222151 171.777849,159 171.500322,159 C171.222151,159 171,159.222151 171,159.500322 C171,159.777849 171.222151,160 171.500322,160 C171.833226,160 172,159.777849 172,159.500322 Z" id="Path" fill="#F05068"></path>
                            <path d="M673.217419,179.452994 C672.261549,180.309716 671.112731,180.879762 669.677818,181.26016 C670.156862,186.206437 668.530109,190.677492 664.703304,194.102177 C660.972973,197.430935 655.61589,199.334028 649.301828,200 L603.09518,183.352901 L595.538044,180.690114 C595.154366,180.309716 594.771796,179.928216 594.389226,179.643744 C594.293861,179.833392 594.102022,180.024142 594.006657,180.118966 L550.191901,164.328589 L546.747666,163.092571 L538.520756,160.143108 L527.424019,156.148378 L510.491155,150.059804 L499.585149,146.159897 L488.391938,142.165167 L459.500725,131.796289 L453.186663,129.513901 L440.750378,125.042846 L438.167756,124.091299 L415.208034,115.816264 L391.195969,107.159728 L350.920814,92.7012956 L344.416022,90.322981 L331.978628,85.8525876 L313.898056,79.2891229 L306.91422,76.8159845 L294,72.154951 C295.434913,69.2061496 300.887362,68.730597 306.34092,71.29889 C306.436285,70.9183818 306.628124,70.4427188 306.818854,70.0622106 C309.593316,64.0695635 320.690052,63.3085469 331.500693,68.2549341 C338.48453,71.4890891 343.649774,76.3403216 345.754461,80.9062004 C350.059201,80.7160014 354.93835,81.3818633 359.912864,82.8086316 C369.001387,78.433062 383.446994,78.7184156 398.370536,84.045311 C402.197341,82.5232779 408.128833,83.0940955 413.963851,85.7574329 C419.704613,88.4209909 423.913988,92.4157214 425.252427,96.2208042 C425.922201,96.5063784 426.591975,96.7919526 427.261749,97.0775267 C432.714198,99.5506652 436.732842,103.354645 438.358486,106.97008 C438.83753,107.159728 439.315465,107.350479 439.794508,107.540126 C446.777235,110.775163 451.943589,115.625514 454.048276,120.191393 C457.492511,120.096569 461.318207,120.476967 465.336852,121.333689 C465.049647,119.810995 465.241487,118.289402 465.814787,116.957458 C468.589248,110.964811 479.687093,110.204015 490.496626,115.150292 C494.131591,116.862634 497.288622,118.955375 499.775879,121.237763 C502.072406,121.808911 504.367824,122.569707 506.759715,123.42643 C508.673672,122.664531 511.064455,122.474883 513.743552,122.664531 C520.440183,118.480153 532.015963,118.860551 543.399905,123.046032 C543.687109,121.618161 544.356883,120.382143 545.599957,119.335773 C550.76631,114.67507 563.010756,115.911088 572.960892,122.189309 C576.308654,124.28205 578.891276,126.660364 580.709868,129.038679 C583.005285,129.989122 585.205338,130.940669 587.501865,132.081863 C592.189174,131.415891 598.407871,132.938585 603.764954,136.362168 C605.104502,137.21889 606.347576,138.07451 607.39992,139.026056 C617.348948,139.216807 628.829363,142.165167 639.638895,147.682592 C644.327314,147.01662 650.544902,148.538212 655.901985,151.962897 C661.163703,155.291655 664.225369,159.477136 664.320734,162.996645 C664.990508,163.377043 665.564917,163.662617 666.234691,164.138941 C674.269762,168.989292 677.236063,175.838661 673.217419,179.452994 Z" id="Path" fill="#8CD3FF"></path>
                        </g>
                    </g>
                </g>
            </g>
        </g>
    </g>
</svg>