<svg xmlns="http://www.w3.org/2000/svg" viewBox="0 0 570.59 157.8"><title>Fichier 1</title><g id="Calque_2" data-name="Calque 2"><g id="_00" data-name="00"><path d="M79,157.8a78.83,78.83,0,0,1-79-79C0,35.46,35.38.11,78.9,0h.21C122.23,0,157.59,35.27,158,78.72a77.51,77.51,0,0,1-22.72,55.42,78.55,78.55,0,0,1-56,23.66H79Zm.08-141.45H79c-34.53.09-62.61,28.1-62.6,62.45A62.48,62.48,0,0,0,79,141.45h.22a62.32,62.32,0,0,0,44.38-18.8,61.22,61.22,0,0,0,18-43.78C141.32,44.36,113.28,16.35,79.11,16.35Z"/><path d="M197.66,56.81A28.41,28.41,0,1,1,226.07,28.4,28.43,28.43,0,0,1,197.66,56.81Zm0-41.82A13.42,13.42,0,1,0,211.08,28.4,13.43,13.43,0,0,0,197.66,15Z"/><path d="M207.66,111.49c0,19.9,12.49,30.57,26.6,30.57,16.27,0,22.23-11,24.22-17.91l15,6.52c-4.16,12.48-16.64,27.13-39.24,27.13-25.34,0-44-19.9-44-46.31,0-27.14,19-46.13,43.76-46.13,23.16,0,35.1,14.47,38.71,27.68l-15.36,6.51c-2.18-8.5-8.52-18.45-23.35-18.45C220.32,81.1,207.66,91.23,207.66,111.49Z"/><path d="M455.64,141.88c-4.15,8.32-13.39,15.56-26.95,15.56-25.49,0-41.24-20.26-41.24-46.13,0-24.6,16.65-45.59,41.24-45.59,15.37,0,23.7,7.6,26.6,14.66V24.11h16.82V139a142,142,0,0,0,.89,16.1H456.55a72.91,72.91,0,0,1-.91-11.76Zm-25.32.55c15.56,0,25.14-13.57,25.14-31.48s-9.41-30.21-25-30.21-25.68,12.66-25.68,30.57S414.05,142.43,430.32,142.43Z"/><path d="M570.05,130.31c-4.88,15.37-18.81,27.49-39.06,27.49-23.34,0-43.77-17-43.77-46.49,0-27.32,19.71-45.95,41.59-45.95,26.77,0,41.78,18.45,41.78,45.59a40.43,40.43,0,0,1-.35,5.43H504.76c.35,15.55,11.58,26.41,26.23,26.41,14.11,0,21.15-7.78,24.42-17.55Zm-17.18-27.68c-.36-12.49-8.51-22.25-23.88-22.25-14.29,0-23,11-23.68,22.25Z"/><path d="M329.73,157.8a45.22,45.22,0,0,1-32.13-13.27,46.18,46.18,0,0,1,32.06-78.88h.12c24.94,0,45.39,20.59,45.62,46a46,46,0,0,1-45.5,46.2h-.17Zm0-77.16h-.07a31.19,31.19,0,0,0-21.52,53.27,30.33,30.33,0,0,0,21.56,8.9h.1a31,31,0,0,0,30.57-31.08C360.26,94.57,346.52,80.64,329.77,80.64Z"/></g></g></svg>