<?xml version="1.0" encoding="UTF-8"?>
<svg width="140px" height="140px" viewBox="0 0 140 140" version="1.1" xmlns="http://www.w3.org/2000/svg" xmlns:xlink="http://www.w3.org/1999/xlink">
    <!-- Generator: sketchtool 56.3 (101010) - https://sketch.com -->
    <title>807B3203-CF5A-4789-B432-B50D85ACA599</title>
    <desc>Created with sketchtool.</desc>
    <defs>
        <polygon id="path-1" points="0 127.718681 108 127.718681 108 0.0618901099 0 0.0618901099"></polygon>
    </defs>
    <g id="WD---Site-vitrine" stroke="none" stroke-width="1" fill="none" fill-rule="evenodd">
        <g id="Desktop---Home-HD" transform="translate(-890.000000, -1017.000000)">
            <g id="Group-30" transform="translate(410.000000, 1017.000000)">
                <g id="Group-15" transform="translate(480.000000, 0.000000)">
                    <path d="M137.0603,111.699535 C150.747573,94.8428768 108.708191,57 86.564782,57 C64.4213732,57 32.6737582,85.6579143 43.0139502,122.618509 C53.3541423,159.579104 123.373028,128.556193 137.0603,111.699535 Z" id="Path-5-Copy" fill="#585AFA"></path>
                    <g id="Group-29">
                        <polygon id="Fill-1" fill="#4C4CE0" points="0 38.0134977 0 125 4.31442314 124.057231 37 91.8885742 37 68.8492549 4.63726337 37"></polygon>
                        <polygon id="Fill-2" fill="#3B35B9" points="37 104 37 117.222222 21.4136035 120.494292 19 121 21.4136035 118.720212 34.8929088 105.990031"></polygon>
                        <polygon id="Fill-3" fill="#4C4CE0" points="37 30 37 57 22.6893035 43.2545956 14 34.9080882 22.7785821 33.0358456 30.3913754 31.4117647"></polygon>
                        <polygon id="Fill-4" fill="#4C4CE0" points="101 29 72 38.666481 72 58"></polygon>
                        <polygon id="Fill-5" fill="#3B35B9" points="71 69.2326963 71 123 108 108.909476 108 33"></polygon>
                        <polygon id="Fill-6" fill="#3B35B9" points="54.5474177 75 72 57.7463101 72 38.1416926 37 30 37 57.6525553"></polygon>
                        <polygon id="Fill-7" fill="#3B35B9" points="36 69 36 92 48 80.5009807"></polygon>
                        <polygon id="Fill-8" fill="#292188" points="36 103.367742 36 116.934989 71 123 71 69"></polygon>
                        <polygon id="Fill-9" fill="#FBAA95" points="37 57.5328889 14.4063238 35 5 37.0856963 37 69"></polygon>
                        <polygon id="Fill-10" fill="#FBAA95" points="36 92 36 103.3833 33.9673676 105.415932 20.9643836 118.418637 18.6360702 120.74723 15.3805078 121.470378 4 124"></polygon>
                        <polygon id="Fill-11" fill="#FBAA95" points="100.701016 28.3915356 71 57.5739302 71 69 108 32.6432789 108 26"></polygon>
                        <polygon id="Fill-12" fill="#FF6786" points="54.5474177 75.2690105 37 58 37 69.4619789 48.7250343 81.0009839 37 92.5380211 37 104 72 69.5553097 72 58.0933308"></polygon>
                        <g id="Group-28" transform="translate(0.000000, 0.000000)">
                            <path d="M92.7042597,94.8776791 C89.7153173,94.8776791 86.5386471,95.8617319 86.5386471,97.6852396 C86.5386471,99.5090286 89.7153173,100.493081 92.7042597,100.493081 C95.6929194,100.493081 98.8698723,99.5090286 98.8698723,97.6852396 C98.8698723,95.8617319 95.6929194,94.8776791 92.7042597,94.8776791" id="Fill-13" fill="#8CD3FF"></path>
                            <path d="M89.4336408,84.4153248 C89.4336408,82.6176985 90.8981435,81.1604677 92.7047403,81.1604677 C94.5113372,81.1604677 95.9758398,82.6176985 95.9758398,84.4153248 C95.9758398,86.2129512 94.5113372,87.670182 92.7047403,87.670182 C90.8981435,87.670182 89.4336408,86.2129512 89.4336408,84.4153248 M92.7047403,75.7366435 C92.3711277,75.7366435 92.0428869,75.7563358 91.720866,75.7929073 C87.3725937,76.2795886 83.9827508,79.9620501 83.9827508,84.4153248 C83.9827508,87.3860501 85.4020178,90.5818303 88.2037979,93.9098303 C88.6222272,94.4077644 89.0378293,94.8663138 89.4364681,95.2854787 L89.4392953,95.2854787 C90.3553162,96.2475886 91.180866,96.9930831 91.7236932,97.4544457 C91.771756,97.4966435 91.8169916,97.5360281 91.8594,97.5754127 C91.9357351,97.640116 92.0064157,97.699193 92.0686147,97.7498303 C92.2549288,97.9017424 92.3654733,97.9889512 92.3849812,98.0030171 C92.4078817,98.0198963 92.4333267,98.0367754 92.4587717,98.0480281 C92.4842168,98.0620941 92.5096618,98.0733468 92.5376513,98.0817864 C92.5633791,98.0930391 92.5916513,98.0986655 92.6199236,98.1042919 C92.6481958,98.1071051 92.6764681,98.1099182 92.7047403,98.1099182 C92.7330126,98.1099182 92.7612848,98.1071051 92.7895571,98.1042919 C92.8178293,98.0986655 92.8461016,98.0930391 92.8715466,98.0817864 C92.8998188,98.0733468 92.9252639,98.0620941 92.9504262,98.0480281 C92.9761539,98.0367754 93.001599,98.0198963 93.0242168,98.0030171 C93.0324157,97.9973908 93.0609707,97.9748853 93.1062063,97.9383138 C93.1288241,97.9214347 93.1542691,97.8989292 93.1853686,97.8736105 C93.1995047,97.8623578 93.2164681,97.8482919 93.2362586,97.8342259 C93.2673581,97.8089073 93.3012848,97.7807754 93.3380387,97.7498303 C93.5783529,97.5529073 93.9345832,97.2490831 94.3728031,96.8496105 C94.5054,96.7286435 94.6442168,96.5992369 94.7912325,96.4613908 C94.8588031,96.3966875 94.9269393,96.3319842 94.9976199,96.2644677 C95.124845,96.1406875 95.2577246,96.0084677 95.3962586,95.8734347 L95.5150021,95.7552809 C95.6620178,95.606182 95.814688,95.4486435 95.9701853,95.2854787 L95.9730126,95.2854787 C96.1709183,95.0744897 96.3744785,94.8550611 96.580866,94.627193 C96.6600283,94.5399842 96.7391906,94.4499622 96.8183529,94.3599402 C96.8437979,94.3318084 96.8692429,94.3036765 96.8918607,94.2755446 C96.9964681,94.1573908 97.1010754,94.0336105 97.2056827,93.9098303 C100.004636,90.5818303 101.42673,87.3860501 101.42673,84.4153248 C101.42673,79.6300941 97.5138503,75.7366435 92.7047403,75.7366435" id="Fill-15" fill="#FF6786"></path>
                            <path d="M92.7042597,99.1966242 C90.0913382,99.1966242 87.3353592,98.4446593 86.6828356,97.037222 C86.5889717,97.2397714 86.5386471,97.4561055 86.5386471,97.6853802 C86.5386471,99.5091692 89.7153173,100.493222 92.7042597,100.493222 C95.6929194,100.493222 98.8698723,99.5088879 98.8698723,97.6853802 C98.8698723,97.4561055 98.8195476,97.2397714 98.7256838,97.037222 C98.0731602,98.4446593 95.3171812,99.1966242 92.7042597,99.1966242" id="Fill-17" fill="#D5F2FF"></path>
                            <path d="M92.7042597,75.7366154 C92.3720607,75.7366154 92.0446681,75.7557451 91.721799,75.7920352 C96.0703539,76.2792791 99.4613277,79.9603341 99.4613277,84.4152967 C99.4613277,87.3865846 98.0409298,90.5809582 95.2397152,93.9103648 C93.8639874,95.545389 92.5021131,96.7893802 91.721799,97.4569495 C92.1113906,97.7903121 92.3567937,97.9804835 92.385066,98.0021451 C92.4789298,98.0747253 92.5917361,98.1107341 92.7042597,98.1107341 C92.8167832,98.1107341 92.9295895,98.0747253 93.0237361,98.0021451 C93.1091183,97.9363165 95.1418932,96.3612132 97.2046366,93.9100835 C100.005851,90.5809582 101.426532,87.3863033 101.426532,84.4152967 C101.426532,79.6297846 97.5136524,75.7366154 92.7042597,75.7366154" id="Fill-19" fill="#F05068"></path>
                            <path d="M44.9614461,31.9381099 C44.5599801,31.5920879 44.1440953,31.2685714 43.717467,30.9675604 L43.717467,2.55437363 C43.717467,1.17872527 42.8919173,0.0618901099 41.8797707,0.0618901099 L32.6432262,0.0618901099 C31.6282524,0.0618901099 30.8055298,1.17872527 30.8055298,2.55437363 L30.8055298,30.9675604 C30.5906607,31.1194725 30.3814461,31.2741978 30.1719487,31.4401758 C26.6520534,34.1802198 23.9888073,38.4787692 22.5865037,43.5228132 C21.8488806,46.1447033 21.4556136,48.9663297 21.4556136,51.877978 L21.4556136,125.226198 C21.4556136,126.601846 22.2786188,127.718681 23.2933099,127.718681 L51.2294042,127.718681 C51.7128597,127.718681 53.0671005,127.021011 53.0671005,125.403429 L53.0671005,51.877978 C53.0671005,43.700044 49.9571529,36.2085275 44.9614461,31.9381099" id="Fill-21" fill="#292188"></path>
                            <path d="M30.6237675,105.627541 L52.4827414,105.627541 C52.8709194,105.627541 53.1855895,105.314715 53.1855895,104.928464 L53.1855895,63.4913477 C53.1855895,63.1053785 52.8709194,62.7922708 52.4827414,62.7922708 L30.6237675,62.7922708 C30.2355895,62.7922708 29.9212021,63.1053785 29.9212021,63.4913477 L29.9212021,104.928464 C29.9212021,105.314715 30.2355895,105.627541 30.6237675,105.627541" id="Fill-23" fill="#FBAA95"></path>
                            <mask id="mask-2" fill="white">
                                <use xlink:href="#path-1"></use>
                            </mask>
                            <g id="Clip-26"></g>
                            <polygon id="Fill-25" fill="#FBAA95" mask="url(#mask-2)" points="32.2835183 105.627569 53.1854764 105.627569 53.1854764 62.7922989 32.2835183 62.7922989"></polygon>
                            <path d="M30.1720618,31.4401758 C26.6521665,34.1802198 23.9889204,38.4787692 22.5866168,43.5228132 C21.8489937,46.1447033 21.4557267,48.9663297 21.4557267,51.877978 L21.4557267,120.553495 L19.0978209,121.073934 L15.8012764,121.802549 L15.8012764,51.877978 C15.8012764,50.7105055 15.8634754,49.5570989 15.9878733,48.4261978 C16.3412764,45.1825934 17.1840723,42.1134066 18.4362503,39.3930549 C19.5473497,36.9765275 20.9779257,34.8385055 22.6742607,33.0971429 L30.1720618,31.4401758 Z" id="Fill-27" fill="#1A0F5B" mask="url(#mask-2)"></path>
                        </g>
                    </g>
                </g>
            </g>
        </g>
    </g>
</svg>