<?xml version="1.0" encoding="UTF-8"?>
<svg width="132px" height="136px" viewBox="0 0 132 136" version="1.1" xmlns="http://www.w3.org/2000/svg" xmlns:xlink="http://www.w3.org/1999/xlink">
    <!-- Generator: sketchtool 56.3 (101010) - https://sketch.com -->
    <title>AF1C8A4B-E697-4E4B-88EA-FB80379AC16B</title>
    <desc>Created with sketchtool.</desc>
    <defs>
        <polygon id="path-1" points="0.145920856 0.0263293686 9.89249943 0.0263293686 9.89249943 16.0999868 0.145920856 16.0999868"></polygon>
        <polygon id="path-3" points="0.0761018887 0.0263293686 9.82268046 0.0263293686 9.82268046 16.0999868 0.0761018887 16.0999868"></polygon>
        <polygon id="path-5" points="0 0.164808889 31.1727747 0.164808889 31.1727747 126.679094 0 126.679094"></polygon>
        <polygon id="path-7" points="-4.97379915e-14 131 114.27751 131 114.27751 1.85815603 -4.97379915e-14 1.85815603"></polygon>
    </defs>
    <g id="WD---Site-vitrine" stroke="none" stroke-width="1" fill="none" fill-rule="evenodd">
        <g id="Desktop---Home-HD" transform="translate(-417.000000, -826.000000)">
            <g id="Group-33" transform="translate(410.000000, 826.000000)">
                <g id="Group-23">
                    <path d="M82.1586989,114.695722 C91.4023486,95.9698342 63.1209975,53.9843136 48.1999374,54.0006622 C33.2788773,54.0170204 11.8510326,85.8590624 18.7733603,126.888405 C25.6956881,167.917747 72.9150491,133.421609 82.1586989,114.695722 Z" id="Path-5-Copy-2" fill="#585AFA" transform="translate(50.704868, 100.067954) scale(-1, 1) rotate(-81.000000) translate(-50.704868, -100.067954) "></path>
                    <g id="Group-238" transform="translate(24.419355, 0.000000)">
                        <path d="M114.27747,34.3669925 L114.27747,115.604973 C114.27747,116.612793 113.595381,117.639462 112.744634,117.639462 L7.54555331,117.639462 C6.69480645,117.639462 5.89255589,116.612793 5.89255589,115.604973 L5.89255589,34.3669925 C5.89255589,33.3654555 6.69480645,32.7063378 7.54555331,32.7063378 L112.744634,32.7063378 C113.595381,32.7063378 114.27747,33.3654555 114.27747,34.3669925" id="Fill-1" fill="#292188"></path>
                        <path d="M105.416038,110.918817 L14.874817,110.918817 C14.5632234,110.918817 14.3103358,110.666126 14.3103358,110.354336 L14.3103358,39.6215962 C14.3103358,39.3098062 14.5632234,39.057115 14.874817,39.057115 L105.416038,39.057115 C105.727828,39.057115 105.980519,39.3098062 105.980519,39.6215962 L105.980519,110.354336 C105.980519,110.666126 105.727828,110.918817 105.416038,110.918817" id="Fill-3" fill="#3B35B9"></path>
                        <path d="M103.643586,108.293714 C102.739631,109.565024 102.322602,111.120636 102.470447,112.672125 C102.584129,113.879231 101.92128,115.027632 100.818039,115.533211 C99.9718076,115.920788 99.2280667,116.485466 98.6245136,117.177765 C98.5995782,117.204271 98.5760173,117.229207 98.552849,117.257087 C98.5371417,117.27574 98.5216307,117.296159 98.5061198,117.314615 C98.4874674,117.33798 98.4703857,117.361541 98.4531076,117.384709 C98.1218799,117.798596 97.837185,118.249789 97.6147303,118.738286 C97.1089551,119.839957 95.9607511,120.50418 94.7534485,120.389124 C93.2021558,120.242849 91.6463474,120.658308 90.3752338,121.562263 C90.0065048,121.825164 89.5879052,121.98852 89.1585067,122.055472 C89.1537945,122.055472 89.147708,122.055472 89.1429958,122.057043 C88.8659582,122.097489 88.5844048,122.097489 88.3075635,122.057043 C88.3010843,122.057043 88.293427,122.055472 88.287144,122.055472 C87.8579419,121.98852 87.440913,121.823593 87.0721841,121.562263 C85.9689423,120.776505 84.6512958,120.359476 83.3069469,120.359476 C83.1031446,120.359476 82.8993424,120.370471 82.6939694,120.389124 C81.4864704,120.502805 80.3382664,119.839957 79.834062,118.738286 C79.6102329,118.248218 79.325538,117.795651 78.9941139,117.381568 C78.9784066,117.361541 78.9628956,117.341121 78.9473846,117.322469 C78.9287322,117.299104 78.9116505,117.27574 78.8928018,117.254142 C78.8727749,117.229207 78.8494103,117.205842 78.8274201,117.182281 C78.2238669,116.488411 77.4785554,115.920788 76.6291829,115.533211 C75.5277082,115.029202 74.8632892,113.879231 74.9783452,112.672125 C75.1246195,111.120636 74.7075906,109.565024 73.8052059,108.293714 C73.1019114,107.307492 73.1019114,105.980224 73.8052059,104.992431 C74.7075906,103.721121 75.1246195,102.166884 74.9783452,100.61402 C74.8632892,99.4067177 75.5277082,98.2585138 76.6291829,97.7543093 C78.0465707,97.1055976 79.1855466,95.9668181 79.834062,94.5492339 C80.3382664,93.4461885 81.4911825,92.7833402 82.6939694,92.8970218 C84.2482071,93.0448668 85.8026412,92.6278379 87.0721841,91.7236862 C88.0601735,91.0221587 89.3872443,91.0221587 90.3752338,91.7236862 C91.6463474,92.6278379 93.1992107,93.0430998 94.7534485,92.8970218 C95.9607511,92.7833402 97.1089551,93.4477592 97.6147303,94.5492339 C98.2634419,95.9668181 99.4008471,97.1055976 100.818039,97.7527386 C101.92128,98.2585138 102.584129,99.4067177 102.470447,100.61402 C102.322602,102.166884 102.739631,103.721121 103.643586,104.992431 C104.34531,105.980224 104.34531,107.305921 103.643586,108.293714" id="Fill-5" fill="#FBAA95"></path>
                        <path d="M102.820268,106.642464 C102.820268,114.427593 96.5088772,120.738788 88.7237482,120.738788 C80.9388156,120.738788 74.6274244,114.427593 74.6274244,106.642464 C74.6274244,98.8573351 80.9388156,92.5461403 88.7237482,92.5461403 C96.5088772,92.5461403 102.820268,98.8573351 102.820268,106.642464" id="Fill-7" fill="#FBAA95"></path>
                        <g id="Group-11" transform="translate(88.353586, 114.105907)">
                            <mask id="mask-2" fill="white">
                                <use xlink:href="#path-1"></use>
                            </mask>
                            <g id="Clip-10"></g>
                            <polygon id="Fill-9" fill="#FF6786" mask="url(#mask-2)" points="4.36411739 16.1000064 0.145920856 1.63888048 5.67410656 0.0263293686 9.89249943 14.4872589 5.98785996 11.383692"></polygon>
                        </g>
                        <g id="Group-14" transform="translate(79.125545, 114.105907)">
                            <mask id="mask-4" fill="white">
                                <use xlink:href="#path-3"></use>
                            </mask>
                            <g id="Clip-13"></g>
                            <polygon id="Fill-12" fill="#FF6786" mask="url(#mask-4)" points="5.60428759 16.1000064 9.82268046 1.63888048 4.29449476 0.0263293686 0.0761018887 14.4872589 3.98074136 11.383692"></polygon>
                        </g>
                        <path d="M99.7016223,106.642464 C99.7016223,112.722762 94.7726703,117.651714 88.6923728,117.651714 C82.6118791,117.651714 77.6827307,112.722762 77.6827307,106.642464 C77.6827307,100.562167 82.6118791,95.6332146 88.6923728,95.6332146 C94.7726703,95.6332146 99.7016223,100.562167 99.7016223,106.642464" id="Fill-15" fill="#F05068"></path>
                        <path d="M95.3475969,106.59279 C95.3475969,110.334073 92.3147128,113.366957 88.5734293,113.366957 C84.8319494,113.366957 81.7990653,110.334073 81.7990653,106.59279 C81.7990653,102.85131 84.8319494,99.8184258 88.5734293,99.8184258 C92.3147128,99.8184258 95.3475969,102.85131 95.3475969,106.59279" id="Fill-17" fill="#FBAA95"></path>
                        <path d="M28.076551,102.369547 C30.5592867,102.521515 40.5316578,102.739062 37.9968916,97.9614886 C37.1977825,96.4553545 35.880725,95.095102 34.2988032,94.4189025 C33.2513223,93.971048 31.8602442,93.8029799 31.0701668,94.8051059 C29.9090043,96.2782547 30.8278816,98.7933867 31.3766556,100.299521 C32.0143721,102.049315 32.9770335,103.8908 34.6054883,104.908633 C35.552246,105.500209 37.0055643,105.853427 38.0616842,105.311329 C38.911253,104.875451 39.2112625,103.616314 39.4419636,102.781668 C39.8570291,101.280835 40.101474,99.7354323 40.388525,98.2067189 C40.6060711,97.0481089 40.7207345,95.5480614 41.3466705,94.5178585 C41.9398176,93.5408642 42.631528,95.826277 42.770145,96.2484108 C43.3177409,97.9180972 43.6091114,99.6712287 43.8924319,101.400996 C43.9800001,101.9374 44.4957887,107.673707 45.7093743,106.844755 C46.0076167,106.641149 46.1305264,106.10926 46.2290897,105.793347 C46.5143736,104.879574 46.6993271,103.921822 46.8094746,102.97153 C46.8897782,102.280801 46.9035221,101.593999 46.8807465,100.899736 C46.8740709,100.694952 46.7825758,100.292453 46.9447537,100.142251 C47.1766328,99.9270614 48.1188747,100.091006 48.3929672,100.096308 C49.6169589,100.120261 50.8415396,100.120065 52.0661203,100.10691 C54.1930856,100.083545 56.4826215,100.075888 58.4719516,99.2214108 C59.2779326,98.8750647 59.9820125,98.3818554 60.6101084,97.7728047 C60.8828264,97.5083329 60.4659938,97.0920894 60.1936685,97.3561684 C58.7124697,98.7927977 56.8012834,99.2585193 54.795657,99.4167704 C52.6164649,99.588569 50.4099814,99.5441959 48.2258807,99.5037496 C47.6539385,99.4933435 46.6414064,99.3156546 46.3465018,99.973987 C46.0470813,100.642136 46.325886,101.763638 46.2697323,102.477928 C46.1937483,103.44432 46.0058496,104.408944 45.7462864,105.342351 C45.6852243,105.56186 45.6274999,105.788831 45.5397354,105.999898 C45.5008598,106.093356 45.4606098,106.181514 45.4176111,106.272812 C45.3225819,106.475044 45.3492843,106.269671 45.4841708,106.387672 C45.2943088,106.221567 45.242082,105.717166 45.1878918,105.489607 C45.0386724,104.85994 44.9375566,104.217708 44.8332994,103.579402 C44.3646327,100.712623 44.1337353,97.5580073 42.8742059,94.9013131 C42.6262268,94.3778672 42.1339992,93.3861473 41.3916327,93.6531715 C40.7468479,93.8852469 40.5238041,94.9368509 40.3696762,95.4985834 C39.657939,98.09343 39.5248196,100.84103 38.6399093,103.390915 C38.2650938,104.470399 37.843549,105.016228 36.6225025,104.963412 C34.9068722,104.889195 33.6335988,103.477698 32.8350787,102.08819 C32.2641182,101.09431 31.8616186,100.011685 31.5476688,98.9119769 C31.2623849,97.912796 30.9077925,96.6795763 31.2775032,95.6521222 C31.8311857,94.1130028 33.6604976,94.6629548 34.7181882,95.292425 C35.6296045,95.8351123 36.4124173,96.6083044 37.0130253,97.4794707 C37.4212189,98.0712434 37.990805,98.8897903 37.80271,99.6568958 C37.5121249,100.842601 35.7851068,101.215257 34.7818028,101.424164 C32.6083045,101.876338 30.2891211,101.915999 28.076551,101.780523 C27.6980049,101.757355 27.6993793,102.346379 28.076551,102.369547" id="Fill-19" fill="#585AFA"></path>
                        <path d="M56.6001121,83.7184586 C56.6001121,83.0579665 56.0923735,82.5252925 55.4848935,82.5252925 C54.8677928,82.5252925 54.3700676,83.0579665 54.3700676,83.7184586 C54.3700676,84.3787544 54.8677928,84.9114284 55.4848935,84.9114284 C56.0923735,84.9114284 56.6001121,84.3787544 56.6001121,83.7184586" id="Fill-21" fill="#F05068"></path>
                        <path d="M54.9870113,80.7566501 C54.9870113,80.096158 54.4892861,79.5636803 53.871989,79.5636803 C53.254692,79.5636803 52.7569668,80.096158 52.7569668,80.7566501 C52.7569668,81.4171422 53.254692,81.9498162 53.871989,81.9498162 C54.4892861,81.9392138 54.9870113,81.4065398 54.9870113,80.7566501" id="Fill-23" fill="#F05068"></path>
                        <path d="M58.2028658,80.7566501 C58.2028658,80.096158 57.7051406,79.5636803 57.0878436,79.5636803 C56.4705465,79.5636803 55.9728213,80.096158 55.9728213,80.7566501 C55.9728213,81.4171422 56.4705465,81.9498162 57.0878436,81.9498162 C57.7051406,81.9392138 58.2028658,81.4065398 58.2028658,80.7566501" id="Fill-25" fill="#F05068"></path>
                        <path d="M61.4083536,80.7566501 C61.4083536,80.096158 60.9106284,79.5636803 60.2933313,79.5636803 C59.6760343,79.5636803 59.1783091,80.096158 59.1783091,80.7566501 C59.1783091,81.4171422 59.6760343,81.9498162 60.2933313,81.9498162 C60.9106284,81.9392138 61.4083536,81.4065398 61.4083536,80.7566501" id="Fill-27" fill="#F05068"></path>
                        <path d="M64.6146267,80.7566501 C64.6146267,80.096158 64.1167051,79.5636803 63.4994081,79.5636803 C62.8823073,79.5636803 62.3845821,80.096158 62.3845821,80.7566501 C62.3845821,81.4171422 62.8823073,81.9498162 63.4994081,81.9498162 C64.1167051,81.9392138 64.6146267,81.4065398 64.6146267,80.7566501" id="Fill-29" fill="#F05068"></path>
                        <path d="M71.0359886,80.7566501 C71.0359886,80.096158 70.538067,79.5636803 69.92077,79.5636803 C69.3036693,79.5636803 68.8059441,80.096158 68.8059441,80.7566501 C68.8059441,81.4171422 69.3036693,81.9498162 69.92077,81.9498162 C70.538067,81.9392138 71.0359886,81.4065398 71.0359886,80.7566501" id="Fill-31" fill="#F05068"></path>
                        <path d="M74.2414959,80.7566501 C74.2414959,80.096158 73.7437707,79.5636803 73.1264737,79.5636803 C72.5091766,79.5636803 72.0114514,80.096158 72.0114514,80.7566501 C72.0114514,81.4171422 72.5091766,81.9498162 73.1264737,81.9498162 C73.7437707,81.9392138 74.2414959,81.4065398 74.2414959,80.7566501" id="Fill-33" fill="#F05068"></path>
                        <path d="M59.8061889,83.7184586 C59.8061889,83.0579665 59.3084637,82.5252925 58.6911666,82.5252925 C58.0740659,82.5252925 57.5761444,83.0579665 57.5761444,83.7184586 C57.5761444,84.3787544 58.0740659,84.9114284 58.6911666,84.9114284 C59.3084637,84.9114284 59.8061889,84.3787544 59.8061889,83.7184586" id="Fill-35" fill="#F05068"></path>
                        <path d="M63.0114999,83.7184586 C63.0114999,83.0579665 62.5137747,82.5252925 61.8962813,82.5252925 C61.2791806,82.5252925 60.7814554,83.0579665 60.7814554,83.7184586 C60.7814554,84.3787544 61.2791806,84.9114284 61.8962813,84.9114284 C62.5137747,84.9114284 63.0114999,84.3787544 63.0114999,83.7184586" id="Fill-37" fill="#F05068"></path>
                        <path d="M69.4228877,83.7184586 C69.4228877,83.0579665 68.9251625,82.5252925 68.3178789,82.5252925 C67.7005818,82.5252925 67.2026603,83.0579665 67.2026603,83.7184586 C67.2026603,84.3787544 67.7005818,84.9114284 68.3178789,84.9114284 C68.9251625,84.9114284 69.4228877,84.3787544 69.4228877,83.7184586" id="Fill-39" fill="#F05068"></path>
                        <path d="M53.3846306,77.8590844 C53.3846306,77.1987886 52.8867091,76.6659183 52.269412,76.6659183 C51.6523113,76.6659183 51.1545861,77.1987886 51.1545861,77.8590844 C51.1545861,78.5195766 51.6523113,79.0522505 52.269412,79.0522505 C52.8867091,79.0522505 53.3846306,78.5195766 53.3846306,77.8590844" id="Fill-41" fill="#F05068"></path>
                        <path d="M56.6001121,77.8590844 C56.6001121,77.1987886 56.1023869,76.6659183 55.4848935,76.6659183 C54.8677928,76.6659183 54.3700676,77.1987886 54.3700676,77.8590844 C54.3700676,78.5195766 54.8677928,79.0522505 55.4848935,79.0522505 C56.0923735,79.0522505 56.6001121,78.5195766 56.6001121,77.8590844" id="Fill-43" fill="#F05068"></path>
                        <path d="M54.9870113,74.9080354 C54.9870113,74.2477396 54.4892861,73.7150656 53.871989,73.7150656 C53.254692,73.7150656 52.7569668,74.2477396 52.7569668,74.9080354 C52.7569668,75.5685275 53.254692,76.1012015 53.871989,76.1012015 C54.4892861,76.1012015 54.9870113,75.5685275 54.9870113,74.9080354" id="Fill-45" fill="#F05068"></path>
                        <path d="M51.7815039,74.9080354 C51.7815039,74.2477396 51.2837787,73.7150656 50.6662853,73.7150656 C50.0491846,73.7150656 49.5514594,74.2477396 49.5514594,74.9080354 C49.5514594,75.5685275 50.0491846,76.1012015 50.6662853,76.1012015 C51.2837787,76.1012015 51.7815039,75.5685275 51.7815039,74.9080354" id="Fill-47" fill="#F05068"></path>
                        <path d="M50.1783575,77.8590844 C50.1783575,77.1987886 49.6806323,76.6659183 49.0633353,76.6659183 C48.4460382,76.6659183 47.948313,77.1987886 47.948313,77.8590844 C47.948313,78.5195766 48.4460382,79.0522505 49.0633353,79.0522505 C49.6806323,79.0522505 50.1783575,78.5195766 50.1783575,77.8590844" id="Fill-49" fill="#F05068"></path>
                        <path d="M48.5752308,74.9080354 C48.5752308,74.2477396 48.0775056,73.7150656 47.4602086,73.7150656 C46.8429115,73.7150656 46.3451863,74.2477396 46.3451863,74.9080354 C46.3451863,75.5685275 46.8429115,76.1012015 47.4602086,76.1012015 C48.0775056,76.1012015 48.5752308,75.5685275 48.5752308,74.9080354" id="Fill-51" fill="#F05068"></path>
                        <path d="M58.2028658,74.9080354 C58.2028658,74.2477396 57.7051406,73.7150656 57.0878436,73.7150656 C56.4705465,73.7150656 55.9728213,74.2477396 55.9728213,74.9080354 C55.9728213,75.5685275 56.4705465,76.1012015 57.0878436,76.1012015 C57.7051406,76.1012015 58.2028658,75.5685275 58.2028658,74.9080354" id="Fill-53" fill="#F05068"></path>
                        <path d="M61.4083536,74.9080354 C61.4083536,74.2477396 60.9106284,73.7150656 60.2933313,73.7150656 C59.6760343,73.7150656 59.1783091,74.2477396 59.1783091,74.9080354 C59.1783091,75.5685275 59.6760343,76.1012015 60.2933313,76.1012015 C60.9106284,76.1012015 61.4083536,75.5685275 61.4083536,74.9080354" id="Fill-55" fill="#F05068"></path>
                        <path d="M64.6146267,74.9080354 C64.6146267,74.2477396 64.1167051,73.7150656 63.4994081,73.7150656 C62.8823073,73.7150656 62.3845821,74.2477396 62.3845821,74.9080354 C62.3845821,75.5685275 62.8823073,76.1012015 63.4994081,76.1012015 C64.1167051,76.1012015 64.6146267,75.5685275 64.6146267,74.9080354" id="Fill-57" fill="#F05068"></path>
                        <path d="M67.8197413,74.9080354 C67.8197413,74.2477396 67.3220161,73.7150656 66.7047191,73.7150656 C66.0876184,73.7150656 65.5896968,74.2477396 65.5896968,74.9080354 C65.5896968,75.5685275 66.0876184,76.1012015 66.7047191,76.1012015 C67.3220161,76.1012015 67.8197413,75.5685275 67.8197413,74.9080354" id="Fill-59" fill="#F05068"></path>
                        <path d="M71.0359886,74.9080354 C71.0359886,74.2477396 70.538067,73.7150656 69.92077,73.7150656 C69.3036693,73.7150656 68.8059441,74.2477396 68.8059441,74.9080354 C68.8059441,75.5685275 69.3036693,76.1012015 69.92077,76.1012015 C70.538067,76.1012015 71.0359886,75.5685275 71.0359886,74.9080354" id="Fill-61" fill="#F05068"></path>
                        <path d="M74.2414959,74.9080354 C74.2414959,74.2477396 73.7437707,73.7150656 73.1264737,73.7150656 C72.5091766,73.7150656 72.0114514,74.2477396 72.0114514,74.9080354 C72.0114514,75.5685275 72.5091766,76.1012015 73.1264737,76.1012015 C73.7437707,76.1012015 74.2414959,75.5685275 74.2414959,74.9080354" id="Fill-63" fill="#F05068"></path>
                        <path d="M59.8061889,77.8590844 C59.8061889,77.1987886 59.3084637,76.6659183 58.6911666,76.6659183 C58.0740659,76.6659183 57.5761444,77.1987886 57.5761444,77.8590844 C57.5761444,78.5195766 58.0740659,79.0522505 58.6911666,79.0522505 C59.3084637,79.0522505 59.8061889,78.5195766 59.8061889,77.8590844" id="Fill-65" fill="#F05068"></path>
                        <path d="M63.0114999,77.8590844 C63.0114999,77.1987886 62.5137747,76.6659183 61.8962813,76.6659183 C61.2791806,76.6659183 60.7814554,77.1987886 60.7814554,77.8590844 C60.7814554,78.5195766 61.2791806,79.0522505 61.8962813,79.0522505 C62.5137747,79.0522505 63.0114999,78.5195766 63.0114999,77.8590844" id="Fill-67" fill="#F05068"></path>
                        <path d="M66.2175767,77.8590844 C66.2175767,77.1987886 65.7198515,76.6659183 65.1025544,76.6659183 C64.4854537,76.6659183 63.9877285,77.1987886 63.9877285,77.8590844 C63.9877285,78.5195766 64.4854537,79.0522505 65.1025544,79.0522505 C65.7198515,79.0522505 66.2175767,78.5195766 66.2175767,77.8590844" id="Fill-69" fill="#F05068"></path>
                        <path d="M72.6389386,77.8590844 C72.6389386,77.1987886 72.1412134,76.6659183 71.5239163,76.6659183 C70.9068156,76.6659183 70.4090904,77.1987886 70.4090904,77.8590844 C70.4090904,78.5195766 70.9068156,79.0522505 71.5239163,79.0522505 C72.1412134,79.0522505 72.6389386,78.5195766 72.6389386,77.8590844" id="Fill-71" fill="#F05068"></path>
                        <path d="M77.4473764,74.9080354 C77.4473764,74.2477396 76.9496512,73.7150656 76.3321578,73.7150656 C75.715057,73.7150656 75.2173318,74.2477396 75.2173318,74.9080354 C75.2173318,75.5685275 75.715057,76.1012015 76.3321578,76.1012015 C76.9496512,76.1012015 77.4473764,75.5685275 77.4473764,74.9080354" id="Fill-73" fill="#F05068"></path>
                        <path d="M75.8446227,77.8590844 C75.8446227,77.1987886 75.3467011,76.6659183 74.7294041,76.6659183 C74.1123034,76.6659183 73.6145782,77.1987886 73.6145782,77.8590844 C73.6145782,78.5195766 74.1123034,79.0522505 74.7294041,79.0522505 C75.3467011,79.0522505 75.8446227,78.5195766 75.8446227,77.8590844" id="Fill-75" fill="#F05068"></path>
                        <path d="M46.9730662,71.9891667 C46.9730662,71.3288709 46.475341,70.7961969 45.8580439,70.7961969 C45.2409432,70.7961969 44.743218,71.3288709 44.743218,71.9891667 C44.743218,72.6496588 45.2409432,73.1823328 45.8580439,73.1823328 C46.475341,73.1717304 46.9730662,72.6392527 46.9730662,71.9891667" id="Fill-77" fill="#F05068"></path>
                        <path d="M53.3846306,71.9891667 C53.3846306,71.3288709 52.8867091,70.7961969 52.269412,70.7961969 C51.6523113,70.7961969 51.1545861,71.3288709 51.1545861,71.9891667 C51.1545861,72.6496588 51.6523113,73.1823328 52.269412,73.1823328 C52.8867091,73.1717304 53.3846306,72.6392527 53.3846306,71.9891667" id="Fill-79" fill="#F05068"></path>
                        <path d="M63.0114999,71.9891667 C63.0114999,71.3288709 62.5137747,70.7961969 61.8962813,70.7961969 C61.2791806,70.7961969 60.7814554,71.3288709 60.7814554,71.9891667 C60.7814554,72.6496588 61.2791806,73.1823328 61.8962813,73.1823328 C62.5137747,73.1717304 63.0114999,72.6392527 63.0114999,71.9891667" id="Fill-81" fill="#F05068"></path>
                        <path d="M66.2175767,71.9891667 C66.2175767,71.3288709 65.7198515,70.7961969 65.1025544,70.7961969 C64.4854537,70.7961969 63.9877285,71.3288709 63.9877285,71.9891667 C63.9877285,72.6496588 64.4854537,73.1823328 65.1025544,73.1823328 C65.7198515,73.1717304 66.2175767,72.6392527 66.2175767,71.9891667" id="Fill-83" fill="#F05068"></path>
                        <path d="M69.4228877,71.9891667 C69.4228877,71.3288709 68.9251625,70.7961969 68.3076691,70.7961969 C67.6905684,70.7961969 67.1928432,71.3288709 67.1928432,71.9891667 C67.1928432,72.6496588 67.6905684,73.1823328 68.3076691,73.1823328 C68.9251625,73.1717304 69.4228877,72.6392527 69.4228877,71.9891667" id="Fill-85" fill="#F05068"></path>
                        <path d="M51.7815039,69.0595974 C51.7815039,68.3993016 51.2837787,67.8666276 50.6662853,67.8666276 C50.0491846,67.8666276 49.5514594,68.3993016 49.5514594,69.0595974 C49.5514594,69.7200895 50.0491846,70.2527635 50.6662853,70.2527635 C51.2837787,70.2527635 51.7815039,69.7200895 51.7815039,69.0595974" id="Fill-87" fill="#F05068"></path>
                        <path d="M46.9730662,66.1300085 C46.9730662,65.4695163 46.475341,64.9370387 45.8580439,64.9370387 C45.2409432,64.9370387 44.743218,65.4695163 44.743218,66.1300085 C44.743218,66.7905006 45.2409432,67.3231746 45.8580439,67.3231746 C46.475341,67.3231746 46.9730662,66.7905006 46.9730662,66.1300085" id="Fill-89" fill="#F05068"></path>
                        <path d="M45.3701161,69.0595974 C45.3701161,68.3993016 44.8721946,67.8666276 44.2548975,67.8666276 C43.6377968,67.8666276 43.1400716,68.3993016 43.1400716,69.0595974 C43.1400716,69.7200895 43.6377968,70.2527635 44.2548975,70.2527635 C44.8721946,70.2527635 45.3701161,69.7200895 45.3701161,69.0595974" id="Fill-91" fill="#F05068"></path>
                        <path d="M53.3846306,66.1300085 C53.3846306,65.4695163 52.8867091,64.9370387 52.269412,64.9370387 C51.6523113,64.9370387 51.1545861,65.4695163 51.1545861,66.1300085 C51.1545861,66.7905006 51.6523113,67.3231746 52.269412,67.3231746 C52.8867091,67.3231746 53.3846306,66.7905006 53.3846306,66.1300085" id="Fill-93" fill="#F05068"></path>
                        <path d="M63.0114999,66.1300085 C63.0114999,65.4695163 62.5137747,64.9370387 61.8962813,64.9370387 C61.2791806,64.9370387 60.7814554,65.4695163 60.7814554,66.1300085 C60.7814554,66.7905006 61.2791806,67.3231746 61.8962813,67.3231746 C62.5137747,67.3231746 63.0114999,66.7905006 63.0114999,66.1300085" id="Fill-95" fill="#F05068"></path>
                        <path d="M66.2175767,66.1300085 C66.2175767,65.4695163 65.7198515,64.9370387 65.1025544,64.9370387 C64.4854537,64.9370387 63.9877285,65.4695163 63.9877285,66.1300085 C63.9877285,66.7905006 64.4854537,67.3231746 65.1025544,67.3231746 C65.7198515,67.3231746 66.2175767,66.7905006 66.2175767,66.1300085" id="Fill-97" fill="#F05068"></path>
                        <path d="M54.9870113,69.0595974 C54.9870113,68.3993016 54.4892861,67.8666276 53.871989,67.8666276 C53.254692,67.8666276 52.7569668,68.3993016 52.7569668,69.0595974 C52.7569668,69.7200895 53.254692,70.2527635 53.871989,70.2527635 C54.4892861,70.2527635 54.9870113,69.7200895 54.9870113,69.0595974" id="Fill-99" fill="#F05068"></path>
                        <path d="M61.4083536,69.0595974 C61.4083536,68.3993016 60.9106284,67.8666276 60.2933313,67.8666276 C59.6760343,67.8666276 59.1783091,68.3993016 59.1783091,69.0595974 C59.1783091,69.7200895 59.6760343,70.2527635 60.2933313,70.2527635 C60.9106284,70.2527635 61.4083536,69.7200895 61.4083536,69.0595974" id="Fill-101" fill="#F05068"></path>
                        <path d="M64.6146267,69.0595974 C64.6146267,68.3993016 64.1167051,67.8666276 63.4994081,67.8666276 C62.8823073,67.8666276 62.3845821,68.3993016 62.3845821,69.0595974 C62.3845821,69.7200895 62.8823073,70.2527635 63.4994081,70.2527635 C64.1167051,70.2527635 64.6146267,69.7200895 64.6146267,69.0595974" id="Fill-103" fill="#F05068"></path>
                        <path d="M71.0359886,69.0595974 C71.0359886,68.3993016 70.538067,67.8666276 69.92077,67.8666276 C69.3036693,67.8666276 68.8059441,68.3993016 68.8059441,69.0595974 C68.8059441,69.7200895 69.3036693,70.2527635 69.92077,70.2527635 C70.538067,70.2527635 71.0359886,69.7200895 71.0359886,69.0595974" id="Fill-105" fill="#F05068"></path>
                        <path d="M72.6786192,71.9891667 C72.6786192,71.3288709 72.180894,70.7961969 71.5635969,70.7961969 C70.9462999,70.7961969 70.4485747,71.3288709 70.4485747,71.9891667 C70.4485747,72.6496588 70.9462999,73.1823328 71.5635969,73.1823328 C72.180894,73.1717304 72.6786192,72.6392527 72.6786192,71.9891667" id="Fill-107" fill="#F05068"></path>
                        <path d="M75.8841265,71.9891667 C75.8841265,71.3288709 75.3864013,70.7961969 74.7691043,70.7961969 C74.1520036,70.7961969 73.654082,71.3288709 73.654082,71.9891667 C73.654082,72.6496588 74.1520036,73.1823328 74.7691043,73.1823328 C75.3864013,73.1717304 75.8841265,72.6392527 75.8841265,71.9891667" id="Fill-109" fill="#F05068"></path>
                        <path d="M79.0999811,71.9891667 C79.0999811,71.3288709 78.6022559,70.7961969 77.9849588,70.7961969 C77.3678581,70.7961969 76.8699366,71.3288709 76.8699366,71.9891667 C76.8699366,72.6496588 77.3678581,73.1823328 77.9849588,73.1823328 C78.5922425,73.1717304 79.0999811,72.6392527 79.0999811,71.9891667" id="Fill-111" fill="#F05068"></path>
                        <path d="M75.8841265,66.1300085 C75.8841265,65.4695163 75.3864013,64.9370387 74.7691043,64.9370387 C74.1520036,64.9370387 73.654082,65.4695163 73.654082,66.1300085 C73.654082,66.7905006 74.1520036,67.3231746 74.7691043,67.3231746 C75.3864013,67.3231746 75.8841265,66.7905006 75.8841265,66.1300085" id="Fill-113" fill="#F05068"></path>
                        <path d="M79.0999811,66.1300085 C79.0999811,65.4695163 78.6022559,64.9370387 77.9849588,64.9370387 C77.3678581,64.9370387 76.8699366,65.4695163 76.8699366,66.1300085 C76.8699366,66.7905006 77.3678581,67.3231746 77.9849588,67.3231746 C78.5922425,67.3231746 79.0999811,66.7905006 79.0999811,66.1300085" id="Fill-115" fill="#F05068"></path>
                        <path d="M74.2817459,69.0595974 C74.2817459,68.3993016 73.7840207,67.8666276 73.1665273,67.8666276 C72.5494266,67.8666276 72.0517014,68.3993016 72.0517014,69.0595974 C72.0517014,69.7200895 72.5494266,70.2527635 73.1665273,70.2527635 C73.7840207,70.2527635 74.2817459,69.7200895 74.2817459,69.0595974" id="Fill-117" fill="#F05068"></path>
                        <path d="M77.4872533,69.0595974 C77.4872533,68.3993016 76.9895281,67.8666276 76.3720347,67.8666276 C75.754934,67.8666276 75.2572088,68.3993016 75.2572088,69.0595974 C75.2572088,69.7200895 75.754934,70.2527635 76.3720347,70.2527635 C76.9895281,70.2527635 77.4872533,69.7200895 77.4872533,69.0595974" id="Fill-119" fill="#F05068"></path>
                        <path d="M80.7031078,69.0595974 C80.7031078,68.3993016 80.2053826,67.8666276 79.5878892,67.8666276 C78.9707885,67.8666276 78.4730633,68.3993016 78.4730633,69.0595974 C78.4730633,69.7200895 78.9707885,70.2527635 79.5878892,70.2527635 C80.2053826,70.2527635 80.7031078,69.7200895 80.7031078,69.0595974" id="Fill-121" fill="#F05068"></path>
                        <path d="M67.242223,48.541735 C67.242223,49.2022271 67.7401446,49.7349011 68.3574416,49.7349011 C68.9745423,49.7349011 69.4722675,49.2022271 69.4722675,48.541735 C69.4722675,47.8812428 68.9745423,47.3485689 68.3574416,47.3485689 C67.7401446,47.3485689 67.242223,47.8812428 67.242223,48.541735" id="Fill-123" fill="#F05068"></path>
                        <path d="M68.8457424,51.5031508 C68.8457424,52.163643 69.3434676,52.6963169 69.9607647,52.6963169 C70.5780618,52.6963169 71.075787,52.163643 71.075787,51.5031508 C71.075787,50.8426587 70.5780618,50.3099848 69.9607647,50.3099848 C69.3434676,50.3207835 68.8457424,50.8532611 68.8457424,51.5031508" id="Fill-125" fill="#F05068"></path>
                        <path d="M72.0516229,51.5031508 C72.0516229,52.163643 72.5493481,52.6963169 73.1666451,52.6963169 C73.7839422,52.6963169 74.2816674,52.163643 74.2816674,51.5031508 C74.2816674,50.8426587 73.7839422,50.3099848 73.1666451,50.3099848 C72.5593615,50.3207835 72.0516229,50.8532611 72.0516229,51.5031508" id="Fill-127" fill="#F05068"></path>
                        <path d="M65.6402351,51.5031508 C65.6402351,52.163643 66.1379603,52.6963169 66.7552573,52.6963169 C67.3725544,52.6963169 67.8702796,52.163643 67.8702796,51.5031508 C67.8702796,50.8426587 67.3725544,50.3099848 66.7552573,50.3099848 C66.1379603,50.3207835 65.6402351,50.8532611 65.6402351,51.5031508" id="Fill-129" fill="#F05068"></path>
                        <path d="M62.4339816,51.5031508 C62.4339816,52.163643 62.9317068,52.6963169 63.5492002,52.6963169 C64.1663009,52.6963169 64.6640261,52.163643 64.6640261,51.5031508 C64.6640261,50.8426587 64.1663009,50.3099848 63.5492002,50.3099848 C62.9317068,50.3207835 62.4339816,50.8532611 62.4339816,51.5031508" id="Fill-131" fill="#F05068"></path>
                        <path d="M59.2188928,51.5031508 C59.2188928,52.163643 59.716618,52.6963169 60.3339151,52.6963169 C60.9510158,52.6963169 61.4489373,52.163643 61.4489373,51.5031508 C61.4489373,50.8426587 60.9510158,50.3099848 60.3339151,50.3099848 C59.7266314,50.3207835 59.2188928,50.8532611 59.2188928,51.5031508" id="Fill-133" fill="#F05068"></path>
                        <path d="M56.0126197,51.5031508 C56.0126197,52.163643 56.5103449,52.6963169 57.127642,52.6963169 C57.744939,52.6963169 58.2426642,52.163643 58.2426642,51.5031508 C58.2426642,50.8426587 57.744939,50.3099848 57.127642,50.3099848 C56.5103449,50.3207835 56.0126197,50.8532611 56.0126197,51.5031508" id="Fill-135" fill="#F05068"></path>
                        <path d="M52.8071123,51.5031508 C52.8071123,52.163643 53.3048375,52.6963169 53.9221346,52.6963169 C54.5392353,52.6963169 55.0371568,52.163643 55.0371568,51.5031508 C55.0371568,50.8426587 54.5392353,50.3099848 53.9221346,50.3099848 C53.3048375,50.3207835 52.8071123,50.8532611 52.8071123,51.5031508" id="Fill-137" fill="#F05068"></path>
                        <path d="M49.6012319,51.5031508 C49.6012319,52.163643 50.0989571,52.6963169 50.7162542,52.6963169 C51.3335512,52.6963169 51.8312764,52.163643 51.8312764,51.5031508 C51.8312764,50.8426587 51.3335512,50.3099848 50.7162542,50.3099848 C50.0989571,50.3207835 49.6012319,50.8532611 49.6012319,51.5031508" id="Fill-139" fill="#F05068"></path>
                        <path d="M64.0371084,48.541735 C64.0371084,49.2022271 64.5348336,49.7349011 65.1523269,49.7349011 C65.7694277,49.7349011 66.2671529,49.2022271 66.2671529,48.541735 C66.2671529,47.8812428 65.7694277,47.3485689 65.1523269,47.3485689 C64.5348336,47.3485689 64.0371084,47.8812428 64.0371084,48.541735" id="Fill-141" fill="#F05068"></path>
                        <path d="M60.8308353,48.541735 C60.8308353,49.2022271 61.3287568,49.7349011 61.9460538,49.7349011 C62.5631546,49.7349011 63.0608798,49.2022271 63.0608798,48.541735 C63.0608798,47.8812428 62.5631546,47.3485689 61.9460538,47.3485689 C61.3287568,47.3485689 60.8308353,47.8812428 60.8308353,48.541735" id="Fill-143" fill="#F05068"></path>
                        <path d="M54.4102587,48.541735 C54.4102587,49.2022271 54.9079839,49.7349011 55.525281,49.7349011 C56.1423817,49.7349011 56.6401069,49.2022271 56.6401069,48.541735 C56.6401069,47.8812428 56.1423817,47.3485689 55.525281,47.3485689 C54.9079839,47.3485689 54.4102587,47.8812428 54.4102587,48.541735" id="Fill-145" fill="#F05068"></path>
                        <path d="M70.4484961,54.4009129 C70.4484961,55.061405 70.9462213,55.5940789 71.5637147,55.5940789 C72.1808154,55.5940789 72.6785406,55.061405 72.6785406,54.4009129 C72.6785406,53.7404207 72.1808154,53.2077468 71.5637147,53.2077468 C70.9462213,53.2077468 70.4484961,53.7404207 70.4484961,54.4009129" id="Fill-147" fill="#F05068"></path>
                        <path d="M67.242223,54.4009129 C67.242223,55.061405 67.7401446,55.5940789 68.3574416,55.5940789 C68.9745423,55.5940789 69.4722675,55.061405 69.4722675,54.4009129 C69.4722675,53.7404207 68.9745423,53.2077468 68.3574416,53.2077468 C67.7401446,53.2077468 67.242223,53.7404207 67.242223,54.4009129" id="Fill-149" fill="#F05068"></path>
                        <path d="M68.8457424,57.3517852 C68.8457424,58.0122773 69.3434676,58.5449513 69.9607647,58.5449513 C70.5780618,58.5449513 71.075787,58.0122773 71.075787,57.3517852 C71.075787,56.691293 70.5780618,56.1586191 69.9607647,56.1586191 C69.3434676,56.1586191 68.8457424,56.691293 68.8457424,57.3517852" id="Fill-151" fill="#F05068"></path>
                        <path d="M72.0516229,57.3517852 C72.0516229,58.0122773 72.5493481,58.5449513 73.1666451,58.5449513 C73.7839422,58.5449513 74.2816674,58.0122773 74.2816674,57.3517852 C74.2816674,56.691293 73.7839422,56.1586191 73.1666451,56.1586191 C72.5593615,56.1586191 72.0516229,56.691293 72.0516229,57.3517852" id="Fill-153" fill="#F05068"></path>
                        <path d="M73.6639776,54.4009129 C73.6639776,55.061405 74.1617028,55.5940789 74.7791962,55.5940789 C75.3962969,55.5940789 75.8940221,55.061405 75.8940221,54.4009129 C75.8940221,53.7404207 75.3962969,53.2077468 74.7791962,53.2077468 C74.1617028,53.2077468 73.6639776,53.7404207 73.6639776,54.4009129" id="Fill-155" fill="#F05068"></path>
                        <path d="M75.2671044,57.3517852 C75.2671044,58.0122773 75.7648296,58.5449513 76.382323,58.5449513 C76.9994237,58.5449513 77.4971489,58.0122773 77.4971489,57.3517852 C77.4971489,56.691293 76.9994237,56.1586191 76.382323,56.1586191 C75.7648296,56.1586191 75.2671044,56.691293 75.2671044,57.3517852" id="Fill-157" fill="#F05068"></path>
                        <path d="M65.6402351,57.3517852 C65.6402351,58.0122773 66.1379603,58.5449513 66.7552573,58.5449513 C67.3725544,58.5449513 67.8702796,58.0122773 67.8702796,57.3517852 C67.8702796,56.691293 67.3725544,56.1586191 66.7552573,56.1586191 C66.1379603,56.1586191 65.6402351,56.691293 65.6402351,57.3517852" id="Fill-159" fill="#F05068"></path>
                        <path d="M62.4339816,57.3517852 C62.4339816,58.0122773 62.9317068,58.5449513 63.5492002,58.5449513 C64.1663009,58.5449513 64.6640261,58.0122773 64.6640261,57.3517852 C64.6640261,56.691293 64.1663009,56.1586191 63.5492002,56.1586191 C62.9317068,56.1586191 62.4339816,56.691293 62.4339816,57.3517852" id="Fill-161" fill="#F05068"></path>
                        <path d="M56.0126197,57.3517852 C56.0126197,58.0122773 56.5103449,58.5449513 57.127642,58.5449513 C57.744939,58.5449513 58.2426642,58.0122773 58.2426642,57.3517852 C58.2426642,56.691293 57.744939,56.1586191 57.127642,56.1586191 C56.5103449,56.1586191 56.0126197,56.691293 56.0126197,57.3517852" id="Fill-163" fill="#F05068"></path>
                        <path d="M52.8071123,57.3517852 C52.8071123,58.0122773 53.3048375,58.5449513 53.9221346,58.5449513 C54.5392353,58.5449513 55.0371568,58.0122773 55.0371568,57.3517852 C55.0371568,56.691293 54.5392353,56.1586191 53.9221346,56.1586191 C53.3048375,56.1586191 52.8071123,56.691293 52.8071123,57.3517852" id="Fill-165" fill="#F05068"></path>
                        <path d="M49.6012319,57.3517852 C49.6012319,58.0122773 50.0989571,58.5449513 50.7162542,58.5449513 C51.3335512,58.5449513 51.8312764,58.0122773 51.8312764,57.3517852 C51.8312764,56.691293 51.3335512,56.1586191 50.7162542,56.1586191 C50.0989571,56.1586191 49.6012319,56.691293 49.6012319,57.3517852" id="Fill-167" fill="#F05068"></path>
                        <path d="M64.0371084,54.4009129 C64.0371084,55.061405 64.5348336,55.5940789 65.1523269,55.5940789 C65.7694277,55.5940789 66.2671529,55.061405 66.2671529,54.4009129 C66.2671529,53.7404207 65.7694277,53.2077468 65.1523269,53.2077468 C64.5348336,53.2077468 64.0371084,53.7404207 64.0371084,54.4009129" id="Fill-169" fill="#F05068"></path>
                        <path d="M60.8308353,54.4009129 C60.8308353,55.061405 61.3287568,55.5940789 61.9460538,55.5940789 C62.5631546,55.5940789 63.0608798,55.061405 63.0608798,54.4009129 C63.0608798,53.7404207 62.5631546,53.2077468 61.9460538,53.2077468 C61.3287568,53.2077468 60.8308353,53.7404207 60.8308353,54.4009129" id="Fill-171" fill="#F05068"></path>
                        <path d="M51.2043587,54.4009129 C51.2043587,55.061405 51.7020839,55.5940789 52.3193809,55.5940789 C52.9364816,55.5940789 53.4344032,55.061405 53.4344032,54.4009129 C53.4344032,53.7404207 52.9364816,53.2077468 52.3193809,53.2077468 C51.7020839,53.2077468 51.2043587,53.7404207 51.2043587,54.4009129" id="Fill-173" fill="#F05068"></path>
                        <path d="M46.3957246,57.3517852 C46.3957246,58.0122773 46.8934498,58.5449513 47.5107468,58.5449513 C48.1278475,58.5449513 48.6257691,58.0122773 48.6257691,57.3517852 C48.6257691,56.691293 48.1278475,56.1586191 47.5107468,56.1586191 C46.8934498,56.1586191 46.3957246,56.691293 46.3957246,57.3517852" id="Fill-175" fill="#F05068"></path>
                        <path d="M73.6639776,60.2708306 C73.6639776,60.9313227 74.1617028,61.4639967 74.7791962,61.4639967 C75.3962969,61.4639967 75.8940221,60.9313227 75.8940221,60.2708306 C75.8940221,59.6103385 75.3962969,59.0776645 74.7791962,59.0776645 C74.1617028,59.0884633 73.6639776,59.6209409 73.6639776,60.2708306" id="Fill-177" fill="#F05068"></path>
                        <path d="M76.869858,60.2708306 C76.869858,60.9313227 77.3677796,61.4639967 77.9850766,61.4639967 C78.6021774,61.4639967 79.0999026,60.9313227 79.0999026,60.2708306 C79.0999026,59.6103385 78.6021774,59.0776645 77.9850766,59.0776645 C77.3677796,59.0884633 76.869858,59.6209409 76.869858,60.2708306" id="Fill-179" fill="#F05068"></path>
                        <path d="M67.242223,60.2708306 C67.242223,60.9313227 67.7401446,61.4639967 68.3574416,61.4639967 C68.9745423,61.4639967 69.4722675,60.9313227 69.4722675,60.2708306 C69.4722675,59.6103385 68.9745423,59.0776645 68.3574416,59.0776645 C67.7401446,59.0884633 67.242223,59.6209409 67.242223,60.2708306" id="Fill-181" fill="#F05068"></path>
                        <path d="M64.0371084,60.2708306 C64.0371084,60.9313227 64.5348336,61.4639967 65.1523269,61.4639967 C65.7694277,61.4639967 66.2671529,60.9313227 66.2671529,60.2708306 C66.2671529,59.6103385 65.7694277,59.0776645 65.1523269,59.0776645 C64.5348336,59.0884633 64.0371084,59.6209409 64.0371084,60.2708306" id="Fill-183" fill="#F05068"></path>
                        <path d="M57.6157464,60.2708306 C57.6157464,60.9313227 58.1134716,61.4639967 58.7307687,61.4639967 C59.3480657,61.4639967 59.8457909,60.9313227 59.8457909,60.2708306 C59.8457909,59.6103385 59.3480657,59.0776645 58.7307687,59.0776645 C58.1134716,59.0884633 57.6157464,59.6209409 57.6157464,60.2708306" id="Fill-185" fill="#F05068"></path>
                        <path d="M54.4102587,60.2708306 C54.4102587,60.9313227 54.9079839,61.4639967 55.525281,61.4639967 C56.1423817,61.4639967 56.6401069,60.9313227 56.6401069,60.2708306 C56.6401069,59.6103385 56.1423817,59.0776645 55.525281,59.0776645 C54.9079839,59.0884633 54.4102587,59.6209409 54.4102587,60.2708306" id="Fill-187" fill="#F05068"></path>
                        <path d="M78.4729848,63.2004195 C78.4729848,63.8609117 78.97071,64.3935856 79.588007,64.3935856 C80.2053041,64.3935856 80.7030293,63.8609117 80.7030293,63.2004195 C80.7030293,62.5399274 80.2053041,62.0072534 79.588007,62.0072534 C78.97071,62.0072534 78.4729848,62.5399274 78.4729848,63.2004195" id="Fill-189" fill="#F05068"></path>
                        <path d="M62.4339816,63.2004195 C62.4339816,63.8609117 62.9317068,64.3935856 63.5492002,64.3935856 C64.1663009,64.3935856 64.6640261,63.8609117 64.6640261,63.2004195 C64.6640261,62.5399274 64.1663009,62.0072534 63.5492002,62.0072534 C62.9317068,62.0072534 62.4339816,62.5399274 62.4339816,63.2004195" id="Fill-191" fill="#F05068"></path>
                        <path d="M51.1644817,60.2708306 C51.1644817,60.9313227 51.6622069,61.4639967 52.279504,61.4639967 C52.8966047,61.4639967 53.3943299,60.9313227 53.3943299,60.2708306 C53.3943299,59.6103385 52.8966047,59.0776645 52.279504,59.0776645 C51.6622069,59.0884633 51.1644817,59.6209409 51.1644817,60.2708306" id="Fill-193" fill="#F05068"></path>
                        <path d="M47.9482345,60.2708306 C47.9482345,60.9313227 48.4459597,61.4639967 49.0634531,61.4639967 C49.6805538,61.4639967 50.178279,60.9313227 50.178279,60.2708306 C50.178279,59.6103385 49.6805538,59.0776645 49.0634531,59.0776645 C48.4459597,59.0884633 47.9482345,59.6209409 47.9482345,60.2708306" id="Fill-195" fill="#F05068"></path>
                        <path d="M49.5513809,63.2004195 C49.5513809,63.8609117 50.0491061,64.3935856 50.6664031,64.3935856 C51.2837002,64.3935856 51.7814254,63.8609117 51.7814254,63.2004195 C51.7814254,62.5399274 51.2837002,62.0072534 50.6664031,62.0072534 C50.0591195,62.0072534 49.5513809,62.5399274 49.5513809,63.2004195" id="Fill-197" fill="#F05068"></path>
                        <path d="M43.1399931,63.2004195 C43.1399931,63.8609117 43.6377183,64.3935856 44.2550153,64.3935856 C44.8721161,64.3935856 45.3700376,63.8609117 45.3700376,63.2004195 C45.3700376,62.5399274 44.8721161,62.0072534 44.2550153,62.0072534 C43.6377183,62.0072534 43.1399931,62.5399274 43.1399931,63.2004195" id="Fill-199" fill="#F05068"></path>
                        <path d="M48.5752308,63.2004195 C48.5752308,62.5399274 48.0775056,62.0072534 47.4602086,62.0072534 C46.8429115,62.0072534 46.3451863,62.5399274 46.3451863,63.2004195 C46.3451863,63.8609117 46.8429115,64.3935856 47.4602086,64.3935856 C48.0775056,64.3935856 48.5752308,63.8503092 48.5752308,63.2004195" id="Fill-201" fill="#F05068"></path>
                        <path d="M54.9870113,63.2004195 C54.9870113,62.5399274 54.4892861,62.0072534 53.871989,62.0072534 C53.254692,62.0072534 52.7569668,62.5399274 52.7569668,63.2004195 C52.7569668,63.8609117 53.254692,64.3935856 53.871989,64.3935856 C54.4892861,64.3935856 54.9870113,63.8503092 54.9870113,63.2004195" id="Fill-203" fill="#F05068"></path>
                        <path d="M58.2028658,63.2004195 C58.2028658,62.5399274 57.7051406,62.0072534 57.0878436,62.0072534 C56.4705465,62.0072534 55.9728213,62.5399274 55.9728213,63.2004195 C55.9728213,63.8609117 56.4705465,64.3935856 57.0878436,64.3935856 C57.7051406,64.3935856 58.2028658,63.8503092 58.2028658,63.2004195" id="Fill-205" fill="#F05068"></path>
                        <path d="M61.4083536,63.2004195 C61.4083536,62.5399274 60.9106284,62.0072534 60.2933313,62.0072534 C59.6760343,62.0072534 59.1783091,62.5399274 59.1783091,63.2004195 C59.1783091,63.8609117 59.6760343,64.3935856 60.2933313,64.3935856 C60.9106284,64.3935856 61.4083536,63.8503092 61.4083536,63.2004195" id="Fill-207" fill="#F05068"></path>
                        <path d="M67.8197413,63.2004195 C67.8197413,62.5399274 67.3220161,62.0072534 66.7047191,62.0072534 C66.0876184,62.0072534 65.5896968,62.5399274 65.5896968,63.2004195 C65.5896968,63.8609117 66.0876184,64.3935856 66.7047191,64.3935856 C67.3220161,64.3935856 67.8197413,63.8503092 67.8197413,63.2004195" id="Fill-209" fill="#F05068"></path>
                        <path d="M71.0359886,63.2004195 C71.0359886,62.5399274 70.538067,62.0072534 69.92077,62.0072534 C69.3036693,62.0072534 68.8059441,62.5399274 68.8059441,63.2004195 C68.8059441,63.8609117 69.3036693,64.3935856 69.92077,64.3935856 C70.538067,64.3935856 71.0359886,63.8503092 71.0359886,63.2004195" id="Fill-211" fill="#F05068"></path>
                        <path d="M77.4872533,63.2004195 C77.4872533,62.5399274 76.9895281,62.0072534 76.3720347,62.0072534 C75.754934,62.0072534 75.2572088,62.5399274 75.2572088,63.2004195 C75.2572088,63.8609117 75.754934,64.3935856 76.3720347,64.3935856 C76.9895281,64.3935856 77.4872533,63.8503092 77.4872533,63.2004195" id="Fill-213" fill="#F05068"></path>
                        <path d="M50.2182541,66.1300085 C50.2182541,65.4695163 49.7205289,64.9370387 49.1032318,64.9370387 C48.4859348,64.9370387 47.9882096,65.4695163 47.9882096,66.1300085 C47.9882096,66.7905006 48.4859348,67.3231746 49.1032318,67.3231746 C49.7205289,67.3231746 50.2182541,66.7905006 50.2182541,66.1300085" id="Fill-215" fill="#F05068"></path>
                        <path d="M59.8458695,66.1300085 C59.8458695,65.4695163 59.3481443,64.9370387 58.7306509,64.9370387 C58.1135502,64.9370387 57.615825,65.4695163 57.615825,66.1300085 C57.615825,66.7905006 58.1135502,67.3231746 58.7306509,67.3231746 C59.3481443,67.3231746 59.8458695,66.7905006 59.8458695,66.1300085" id="Fill-217" fill="#F05068"></path>
                        <path d="M69.4723461,66.1300085 C69.4723461,65.4695163 68.9746209,64.9370387 68.3573238,64.9370387 C67.7402231,64.9370387 67.2423016,65.4695163 67.2423016,66.1300085 C67.2423016,66.7905006 67.7402231,67.3231746 68.3573238,67.3231746 C68.9746209,67.3231746 69.4723461,66.7905006 69.4723461,66.1300085" id="Fill-219" fill="#F05068"></path>
                        <path d="M72.6786192,66.1300085 C72.6786192,65.4695163 72.180894,64.9370387 71.5635969,64.9370387 C70.9462999,64.9370387 70.4485747,65.4695163 70.4485747,66.1300085 C70.4485747,66.7905006 70.9462999,67.3231746 71.5635969,67.3231746 C72.180894,67.3231746 72.6786192,66.7905006 72.6786192,66.1300085" id="Fill-221" fill="#F05068"></path>
                        <path d="M48.5752308,69.0595974 C48.5752308,68.3993016 48.0775056,67.8666276 47.4602086,67.8666276 C46.8429115,67.8666276 46.3451863,68.3993016 46.3451863,69.0595974 C46.3451863,69.7200895 46.8429115,70.2527635 47.4602086,70.2527635 C48.0775056,70.2527635 48.5752308,69.7200895 48.5752308,69.0595974" id="Fill-223" fill="#F05068"></path>
                        <path d="M58.2028658,69.0595974 C58.2028658,68.3993016 57.7051406,67.8666276 57.0878436,67.8666276 C56.4705465,67.8666276 55.9728213,68.3993016 55.9728213,69.0595974 C55.9728213,69.7200895 56.4705465,70.2527635 57.0878436,70.2527635 C57.7051406,70.2527635 58.2028658,69.7200895 58.2028658,69.0595974" id="Fill-225" fill="#F05068"></path>
                        <path d="M50.2585237,71.9786232 C50.2585237,71.318131 49.7606022,70.7854571 49.1433051,70.7854571 C48.5262044,70.7854571 48.0284792,71.318131 48.0284792,71.9786232 C48.0284792,72.6391153 48.5262044,73.1717893 49.1433051,73.1717893 C49.7606022,73.1717893 50.2585237,72.6391153 50.2585237,71.9786232" id="Fill-227" fill="#F05068"></path>
                        <path d="M35.884377,62.3657727 L35.3974505,62.3657727 C35.6664381,62.3657727 35.884377,62.5835152 35.884377,62.8525027 L35.884377,104.329603 C35.884377,104.598787 35.6664381,104.816529 35.3974505,104.816529 L35.2325239,104.816529 C35.4502664,104.930407 35.6664381,105.022884 35.884377,105.091407 L35.884377,117.639776 L30.5831618,117.639776 L30.5831618,51.549134 C30.5831618,47.0275901 29.6289431,42.7178986 27.9284311,39.0579003 C26.7916149,36.6057938 25.3210186,34.4460395 23.5796676,32.7062592 L28.8808827,32.7062592 C30.6222337,34.4460395 32.0928301,36.6057938 33.2296462,39.0579003 C34.9301582,42.7178986 35.884377,47.0275901 35.884377,51.549134 L35.884377,62.3657727 Z" id="Fill-229" fill="#1A0F5B"></path>
                        <g id="Group-233" transform="translate(0.000000, 0.031611)">
                            <mask id="mask-6" fill="white">
                                <use xlink:href="#path-5"></use>
                            </mask>
                            <g id="Clip-232"></g>
                            <path d="M23.179524,31.7557317 C22.7835036,31.4127235 22.3737393,31.0920981 21.9527835,30.7938557 L21.9527835,2.63497881 C21.9527835,1.27158481 21.1385562,0.164808889 20.1405533,0.164808889 L11.0322803,0.164808889 C10.031136,0.164808889 9.21985376,1.27158481 9.21985376,2.63497881 L9.21985376,30.7938557 C9.0080015,30.9442531 8.80164679,31.0975957 8.59548842,31.2621297 C5.12437054,33.9777262 2.49810929,38.2379398 1.1152775,43.2367893 C0.387636633,45.8351701 -0.000137438911,48.631463 -0.000137438911,51.5168947 L-0.000137438911,124.208924 C-0.000137438911,125.572122 0.811341163,126.679094 1.81228912,126.679094 L29.3603482,126.679094 C29.8372612,126.679094 31.1727747,125.98758 31.1727747,124.384453 L31.1727747,51.5168947 C31.1727747,43.4123185 28.1059236,35.9878685 23.179524,31.7557317" id="Fill-231" fill="#292188" mask="url(#mask-6)"></path>
                        </g>
                        <path d="M8.71890857,104.817295 L30.6847881,104.817295 C30.9543647,104.817295 31.1726962,104.598963 31.1726962,104.329387 L31.1726962,62.8532685 C31.1726962,62.5836919 30.9543647,62.3653603 30.6847881,62.3653603 L8.71890857,62.3653603 C8.4495283,62.3653603 8.23119677,62.5836919 8.23119677,62.8532685 L8.23119677,104.329387 C8.23119677,104.598963 8.4495283,104.817295 8.71890857,104.817295" id="Fill-234" fill="#FBAA95"></path>
                        <mask id="mask-8" fill="white">
                            <use xlink:href="#path-7"></use>
                        </mask>
                        <g id="Clip-237"></g>
                        <polygon id="Fill-236" fill="#FBAA95" mask="url(#mask-8)" points="10.5610023 104.817197 31.1729122 104.817197 31.1729122 62.3652622 10.5610023 62.3652622"></polygon>
                    </g>
                </g>
            </g>
        </g>
    </g>
</svg>