<?xml version="1.0" encoding="UTF-8"?>
<svg width="141px" height="140px" viewBox="0 0 141 140" version="1.1" xmlns="http://www.w3.org/2000/svg" xmlns:xlink="http://www.w3.org/1999/xlink">
    <!-- Generator: sketchtool 56.3 (101010) - https://sketch.com -->
    <title>3E72E973-3330-410D-B9A1-36C0C417FFE9</title>
    <desc>Created with sketchtool.</desc>
    <defs>
        <polygon id="path-1" points="0.831661154 114 105.831661 114 105.831661 0 0.831661154 0"></polygon>
    </defs>
    <g id="WD---Site-vitrine" stroke="none" stroke-width="1" fill="none" fill-rule="evenodd">
        <g id="Desktop---Home-HD" transform="translate(-410.000000, -1207.000000)">
            <g id="Group-31" transform="translate(410.000000, 1207.000000)">
                <g id="Group-20">
                    <path d="M133.474012,124.084466 C148.171622,105.941346 137.706125,41 113.928183,41 C90.1502405,41 56.05915,71.8450209 67.1626116,111.626364 C78.2660731,151.407708 118.776403,142.227586 133.474012,124.084466 Z" id="Path-5" fill="#585AFA"></path>
                    <g id="Group-26">
                        <path d="M91.8316612,17.2173913 L91.8316612,85.7826087 C91.8316612,89.768413 88.9532362,93 85.4031862,93 L53.2601362,93 C49.7100862,93 46.8316612,89.768413 46.8316612,85.7826087 L46.8316612,17.2173913 C46.8316612,13.231587 49.7100862,10 53.2601362,10 L85.4031862,10 C88.9532362,10 91.8316612,13.231587 91.8316612,17.2173913" id="Fill-1" fill="#3B35B9" transform="translate(69.331661, 51.500000) scale(-1, 1) translate(-69.331661, -51.500000) "></path>
                        <path d="M80.8316612,10 L80.8316612,13.5 C80.8263812,15.43025 79.4221212,16.9940938 77.6887412,17 L61.9745812,17 C60.2412012,16.9940938 58.8369412,15.43025 58.8316612,13.5 L58.8316612,10 L80.8316612,10 Z" id="Fill-3" fill="#1A0F5B" transform="translate(69.831661, 13.500000) scale(-1, 1) translate(-69.831661, -13.500000) "></path>
                        <mask id="mask-2" fill="white">
                            <use xlink:href="#path-1"></use>
                        </mask>
                        <g id="Clip-6" transform="translate(53.331661, 57.000000) scale(-1, 1) translate(-53.331661, -57.000000) "></g>
                        <polygon id="Fill-5" fill="#8CD3FF" mask="url(#mask-2)" transform="translate(69.331661, 53.000000) scale(-1, 1) translate(-69.331661, -53.000000) " points="46.8316612 82 91.8316612 82 91.8316612 24 46.8316612 24"></polygon>
                        <path d="M53.8316612,51.6666667 L53.8316612,55.3333333 C53.8249112,57.3545833 52.2161612,58.993125 50.2316612,59 L41.2316612,59 C38.2504112,59 35.8316612,56.5364583 35.8316612,53.5 C35.8316612,50.4635417 38.2504112,48 41.2316612,48 L50.2316612,48 C52.2161612,48.006875 53.8249112,49.6454167 53.8316612,51.6666667" id="Fill-7" fill="#FF6786" mask="url(#mask-2)" transform="translate(44.831661, 53.500000) scale(-1, 1) translate(-44.831661, -53.500000) "></path>
                        <path d="M53.8316612,61.6666667 L53.8316612,65.3333333 C53.8249112,67.3545833 52.2161612,68.993125 50.2316612,69 L41.2316612,69 C38.2504112,69 35.8316612,66.5364583 35.8316612,63.5 C35.8316612,60.4635417 38.2504112,58 41.2316612,58 L50.2316612,58 C52.2161612,58.006875 53.8249112,59.6454167 53.8316612,61.6666667" id="Fill-8" fill="#FF6786" mask="url(#mask-2)" transform="translate(44.831661, 63.500000) scale(-1, 1) translate(-44.831661, -63.500000) "></path>
                        <path d="M53.8316612,72.6666667 L53.8316612,76.3333333 C53.8249112,78.3545833 52.2161612,79.993125 50.2316612,80 L41.2316612,80 C38.2504112,80 35.8316612,77.5364583 35.8316612,74.5 C35.8316612,71.4635417 38.2504112,69 41.2316612,69 L50.2316612,69 C52.2161612,69.006875 53.8249112,70.6454167 53.8316612,72.6666667" id="Fill-9" fill="#FF6786" mask="url(#mask-2)" transform="translate(44.831661, 74.500000) scale(-1, 1) translate(-44.831661, -74.500000) "></path>
                        <path d="M48.8316612,42.5 C48.8316612,45.5364583 46.3681195,48 43.3316612,48 C42.6464528,48 41.9887445,47.8739583 41.3837445,47.6425 C39.3072653,46.85875 37.8316612,44.85125 37.8316612,42.5 C37.8316612,40.14875 39.3072653,38.14125 41.3837445,37.3575 C41.9887445,37.1260417 42.6464528,37 43.3316612,37 C46.3681195,37 48.8316612,39.4635417 48.8316612,42.5" id="Fill-10" fill="#FF6786" mask="url(#mask-2)" transform="translate(43.331661, 42.500000) scale(-1, 1) translate(-43.331661, -42.500000) "></path>
                        <path d="M53.8316612,51.6666667 L53.8316612,55.3333333 C53.8249945,57.3545833 52.2361056,58.993125 50.2761056,59 L45.1649945,59 C42.22055,59 39.8316612,56.5364583 39.8316612,53.5 C39.8316612,50.4635417 42.22055,48 45.1649945,48 L50.2761056,48 C52.2361056,48.006875 53.8249945,49.6454167 53.8316612,51.6666667" id="Fill-11" fill="#FBAA95" mask="url(#mask-2)" transform="translate(46.831661, 53.500000) scale(-1, 1) translate(-46.831661, -53.500000) "></path>
                        <path d="M53.8316612,61.6666667 L53.8316612,65.3333333 C53.8249945,67.3545833 52.2361056,68.993125 50.2761056,69 L45.1649945,69 C42.22055,69 39.8316612,66.5364583 39.8316612,63.5 C39.8316612,60.4635417 42.22055,58 45.1649945,58 L50.2761056,58 C52.2361056,58.006875 53.8249945,59.6454167 53.8316612,61.6666667" id="Fill-12" fill="#FBAA95" mask="url(#mask-2)" transform="translate(46.831661, 63.500000) scale(-1, 1) translate(-46.831661, -63.500000) "></path>
                        <path d="M53.8316612,72.6666667 L53.8316612,76.3333333 C53.8249945,78.3545833 52.2361056,79.993125 50.2761056,80 L45.1649945,80 C42.22055,80 39.8316612,77.5364583 39.8316612,74.5 C39.8316612,71.4635417 42.22055,69 45.1649945,69 L50.2761056,69 C52.2361056,69.006875 53.8249945,70.6454167 53.8316612,72.6666667" id="Fill-13" fill="#FBAA95" mask="url(#mask-2)" transform="translate(46.831661, 74.500000) scale(-1, 1) translate(-46.831661, -74.500000) "></path>
                        <path d="M48.8316612,42 C48.8316612,44.2860963 47.3776934,46.2379679 45.3316612,47 C43.2856289,46.2379679 41.8316612,44.2860963 41.8316612,42 C41.8316612,39.7139037 43.2856289,37.7620321 45.3316612,37 C47.3776934,37.7620321 48.8316612,39.7139037 48.8316612,42" id="Fill-14" fill="#FBAA95" mask="url(#mask-2)" transform="translate(45.331661, 42.000000) scale(-1, 1) translate(-45.331661, -42.000000) "></path>
                        <path d="M50.6441612,103 L105.019161,103 C106.020114,103 106.831661,103.820875 106.831661,104.833333 L106.831661,112.166667 C106.831661,113.179125 106.020114,114 105.019161,114 L50.6441612,114 C49.643208,114 48.8316612,113.179125 48.8316612,112.166667 L48.8316612,104.833333 C48.8316612,103.820875 49.643208,103 50.6441612,103" id="Fill-15" fill="#FF6786" mask="url(#mask-2)" transform="translate(77.831661, 108.500000) scale(-1, 1) translate(-77.831661, -108.500000) "></path>
                        <path d="M73.8316612,63 C73.8316612,62.4463415 73.3763907,62 72.8318061,62 C72.2782321,62 71.8316612,62.4463415 71.8316612,63 C71.8316612,63.5536585 72.2782321,64 72.8318061,64 C73.3763907,64 73.8316612,63.5536585 73.8316612,63" id="Fill-16" fill="#3B35B9" mask="url(#mask-2)" transform="translate(72.831661, 63.000000) scale(-1, 1) translate(-72.831661, -63.000000) "></path>
                        <path d="M74.8316612,61 C74.8316612,60.4463415 74.3853802,60 73.8318061,60 C73.2779421,60 72.8316612,60.4463415 72.8316612,61 C72.8316612,61.5536585 73.2779421,62 73.8318061,62 C74.3853802,61.9913279 74.8316612,61.5447154 74.8316612,61" id="Fill-17" fill="#3B35B9" mask="url(#mask-2)" transform="translate(73.831661, 61.000000) scale(-1, 1) translate(-73.831661, -61.000000) "></path>
                        <path d="M72.8316612,61 C72.8316612,60.4463415 72.3851549,60 71.8316612,60 C71.2781674,60 70.8316612,60.4463415 70.8316612,61 C70.8316612,61.5536585 71.2781674,62 71.8316612,62 C72.3851549,61.9913279 72.8316612,61.5447154 72.8316612,61" id="Fill-18" fill="#3B35B9" mask="url(#mask-2)" transform="translate(71.831661, 61.000000) scale(-1, 1) translate(-71.831661, -61.000000) "></path>
                        <path d="M70.8316612,61 C70.8316612,60.4463415 70.3850902,60 69.8315162,60 C69.2779421,60 68.8316612,60.4463415 68.8316612,61 C68.8316612,61.5536585 69.2779421,62 69.8315162,62 C70.3850902,61.9913279 70.8316612,61.5447154 70.8316612,61" id="Fill-19" fill="#3B35B9" mask="url(#mask-2)" transform="translate(69.831661, 61.000000) scale(-1, 1) translate(-69.831661, -61.000000) "></path>
                        <path d="M68.8316612,61 C68.8316612,60.4463415 68.3850902,60 67.8315162,60 C67.2779421,60 66.8316612,60.4463415 66.8316612,61 C66.8316612,61.5536585 67.2779421,62 67.8315162,62 C68.3850902,61.9913279 68.8316612,61.5447154 68.8316612,61" id="Fill-20" fill="#3B35B9" mask="url(#mask-2)" transform="translate(67.831661, 61.000000) scale(-1, 1) translate(-67.831661, -61.000000) "></path>
                        <path d="M63.8316612,61 C63.8316612,60.4463415 63.3851549,60 62.8316612,60 C62.2781674,60 61.8316612,60.4463415 61.8316612,61 C61.8316612,61.5536585 62.2781674,62 62.8316612,62 C63.3851549,61.9913279 63.8316612,61.5447154 63.8316612,61" id="Fill-21" fill="#3B35B9" mask="url(#mask-2)" transform="translate(62.831661, 61.000000) scale(-1, 1) translate(-62.831661, -61.000000) "></path>
                        <path d="M61.8316612,61 C61.8316612,60.4463415 61.3851549,60 60.8316612,60 C60.2781674,60 59.8316612,60.4463415 59.8316612,61 C59.8316612,61.5536585 60.2781674,62 60.8316612,62 C61.3851549,61.9913279 61.8316612,61.5447154 61.8316612,61" id="Fill-22" fill="#3B35B9" mask="url(#mask-2)" transform="translate(60.831661, 61.000000) scale(-1, 1) translate(-60.831661, -61.000000) "></path>
                        <path d="M71.8316612,63 C71.8316612,62.4463415 71.3853802,62 70.8318061,62 C70.2782321,62 69.8316612,62.4463415 69.8316612,63 C69.8316612,63.5536585 70.2782321,64 70.8318061,64 C71.3853802,64 71.8316612,63.5536585 71.8316612,63" id="Fill-23" fill="#3B35B9" mask="url(#mask-2)" transform="translate(70.831661, 63.000000) scale(-1, 1) translate(-70.831661, -63.000000) "></path>
                        <path d="M69.8316612,63 C69.8316612,62.4463415 69.3851549,62 68.8316612,62 C68.2781674,62 67.8316612,62.4463415 67.8316612,63 C67.8316612,63.5536585 68.2781674,64 68.8316612,64 C69.3851549,64 69.8316612,63.5536585 69.8316612,63" id="Fill-24" fill="#3B35B9" mask="url(#mask-2)" transform="translate(68.831661, 63.000000) scale(-1, 1) translate(-68.831661, -63.000000) "></path>
                        <path d="M64.8316612,63 C64.8316612,62.4463415 64.3831392,62 63.8358842,62 C63.2798918,62 62.8316612,62.4463415 62.8316612,63 C62.8316612,63.5536585 63.2798918,64 63.8358842,64 C64.3831392,64 64.8316612,63.5536585 64.8316612,63" id="Fill-25" fill="#3B35B9" mask="url(#mask-2)" transform="translate(63.831661, 63.000000) scale(-1, 1) translate(-63.831661, -63.000000) "></path>
                        <path d="M75.8316612,58.9998645 C75.8316612,58.446552 75.3851549,58 74.8316612,58 C74.2781674,58 73.8316612,58.446552 73.8316612,58.9998645 C73.8316612,59.553448 74.2781674,60 74.8316612,60 C75.3851549,60 75.8316612,59.553448 75.8316612,58.9998645" id="Fill-26" fill="#3B35B9" mask="url(#mask-2)" transform="translate(74.831661, 59.000000) scale(-1, 1) translate(-74.831661, -59.000000) "></path>
                        <path d="M73.8316612,58.9998645 C73.8316612,58.446552 73.3853802,58 72.8318061,58 C72.2782321,58 71.8316612,58.446552 71.8316612,58.9998645 C71.8316612,59.553448 72.2782321,60 72.8318061,60 C73.3763907,60 73.8316612,59.553448 73.8316612,58.9998645" id="Fill-27" fill="#3B35B9" mask="url(#mask-2)" transform="translate(72.831661, 59.000000) scale(-1, 1) translate(-72.831661, -59.000000) "></path>
                        <path d="M74.8316612,57 C74.8316612,56.4463415 74.3853802,56 73.8318061,56 C73.2779421,56 72.8316612,56.4463415 72.8316612,57 C72.8316612,57.5536585 73.2779421,58 73.8318061,58 C74.3853802,58 74.8316612,57.5536585 74.8316612,57" id="Fill-28" fill="#3B35B9" mask="url(#mask-2)" transform="translate(73.831661, 57.000000) scale(-1, 1) translate(-73.831661, -57.000000) "></path>
                        <path d="M77.8316612,57 C77.8316612,56.4463415 77.3853802,56 76.8315162,56 C76.2779421,56 75.8316612,56.4463415 75.8316612,57 C75.8316612,57.5536585 76.2779421,58 76.8315162,58 C77.3853802,58 77.8316612,57.5536585 77.8316612,57" id="Fill-29" fill="#3B35B9" mask="url(#mask-2)" transform="translate(76.831661, 57.000000) scale(-1, 1) translate(-76.831661, -57.000000) "></path>
                        <path d="M78.8316612,58.9998645 C78.8316612,58.446552 78.3851549,58 77.8316612,58 C77.2781674,58 76.8316612,58.446552 76.8316612,58.9998645 C76.8316612,59.553448 77.2781674,60 77.8316612,60 C78.3851549,60 78.8316612,59.553448 78.8316612,58.9998645" id="Fill-30" fill="#3B35B9" mask="url(#mask-2)" transform="translate(77.831661, 59.000000) scale(-1, 1) translate(-77.831661, -59.000000) "></path>
                        <path d="M79.8316612,57 C79.8316612,56.4463415 79.3850902,56 78.8315162,56 C78.2779421,56 77.8316612,56.4463415 77.8316612,57 C77.8316612,57.5536585 78.2779421,58 78.8315162,58 C79.3850902,58 79.8316612,57.5536585 79.8316612,57" id="Fill-31" fill="#3B35B9" mask="url(#mask-2)" transform="translate(78.831661, 57.000000) scale(-1, 1) translate(-78.831661, -57.000000) "></path>
                        <path d="M72.8316612,57 C72.8316612,56.4463415 72.3851549,56 71.8316612,56 C71.2781674,56 70.8316612,56.4463415 70.8316612,57 C70.8316612,57.5536585 71.2781674,58 71.8316612,58 C72.3851549,58 72.8316612,57.5536585 72.8316612,57" id="Fill-32" fill="#3B35B9" mask="url(#mask-2)" transform="translate(71.831661, 57.000000) scale(-1, 1) translate(-71.831661, -57.000000) "></path>
                        <path d="M70.8316612,57 C70.8316612,56.4463415 70.3850902,56 69.8315162,56 C69.2779421,56 68.8316612,56.4463415 68.8316612,57 C68.8316612,57.5536585 69.2779421,58 69.8315162,58 C70.3850902,58 70.8316612,57.5536585 70.8316612,57" id="Fill-33" fill="#3B35B9" mask="url(#mask-2)" transform="translate(69.831661, 57.000000) scale(-1, 1) translate(-69.831661, -57.000000) "></path>
                        <path d="M68.8316612,57 C68.8316612,56.4463415 68.3850902,56 67.8315162,56 C67.2779421,56 66.8316612,56.4463415 66.8316612,57 C66.8316612,57.5536585 67.2779421,58 67.8315162,58 C68.3850902,58 68.8316612,57.5536585 68.8316612,57" id="Fill-34" fill="#3B35B9" mask="url(#mask-2)" transform="translate(67.831661, 57.000000) scale(-1, 1) translate(-67.831661, -57.000000) "></path>
                        <path d="M65.8316612,57 C65.8316612,56.4463415 65.3850902,56 64.8315162,56 C64.2779421,56 63.8316612,56.4463415 63.8316612,57 C63.8316612,57.5536585 64.2779421,58 64.8315162,58 C65.3850902,58 65.8316612,57.5536585 65.8316612,57" id="Fill-35" fill="#3B35B9" mask="url(#mask-2)" transform="translate(64.831661, 57.000000) scale(-1, 1) translate(-64.831661, -57.000000) "></path>
                        <path d="M63.8316612,57 C63.8316612,56.4463415 63.3851549,56 62.8316612,56 C62.2781674,56 61.8316612,56.4463415 61.8316612,57 C61.8316612,57.5536585 62.2781674,58 62.8316612,58 C63.3851549,58 63.8316612,57.5536585 63.8316612,57" id="Fill-36" fill="#3B35B9" mask="url(#mask-2)" transform="translate(62.831661, 57.000000) scale(-1, 1) translate(-62.831661, -57.000000) "></path>
                        <path d="M61.8316612,57 C61.8316612,56.4463415 61.3851549,56 60.8316612,56 C60.2781674,56 59.8316612,56.4463415 59.8316612,57 C59.8316612,57.5536585 60.2781674,58 60.8316612,58 C61.3851549,58 61.8316612,57.5536585 61.8316612,57" id="Fill-37" fill="#3B35B9" mask="url(#mask-2)" transform="translate(60.831661, 57.000000) scale(-1, 1) translate(-60.831661, -57.000000) "></path>
                        <path d="M71.8316612,58.9998645 C71.8316612,58.446552 71.3853802,58 70.8318061,58 C70.2782321,58 69.8316612,58.446552 69.8316612,58.9998645 C69.8316612,59.553448 70.2782321,60 70.8318061,60 C71.3853802,60 71.8316612,59.553448 71.8316612,58.9998645" id="Fill-38" fill="#3B35B9" mask="url(#mask-2)" transform="translate(70.831661, 59.000000) scale(-1, 1) translate(-70.831661, -59.000000) "></path>
                        <path d="M69.8316612,58.9998645 C69.8316612,58.446552 69.3851549,58 68.8316612,58 C68.2781674,58 67.8316612,58.446552 67.8316612,58.9998645 C67.8316612,59.553448 68.2781674,60 68.8316612,60 C69.3851549,60 69.8316612,59.553448 69.8316612,58.9998645" id="Fill-39" fill="#3B35B9" mask="url(#mask-2)" transform="translate(68.831661, 59.000000) scale(-1, 1) translate(-68.831661, -59.000000) "></path>
                        <path d="M67.8316612,58.9998645 C67.8316612,58.446552 67.3851549,58 66.8316612,58 C66.2781674,58 65.8316612,58.446552 65.8316612,58.9998645 C65.8316612,59.553448 66.2781674,60 66.8316612,60 C67.3851549,60 67.8316612,59.553448 67.8316612,58.9998645" id="Fill-40" fill="#3B35B9" mask="url(#mask-2)" transform="translate(66.831661, 59.000000) scale(-1, 1) translate(-66.831661, -59.000000) "></path>
                        <path d="M62.8316612,58.9998645 C62.8316612,58.446552 62.3853802,58 61.8315162,58 C61.2782321,58 60.8316612,58.446552 60.8316612,58.9998645 C60.8316612,59.553448 61.2782321,60 61.8315162,60 C62.3853802,60 62.8316612,59.553448 62.8316612,58.9998645" id="Fill-41" fill="#3B35B9" mask="url(#mask-2)" transform="translate(61.831661, 59.000000) scale(-1, 1) translate(-61.831661, -59.000000) "></path>
                        <path d="M59.8316612,57 C59.8316612,56.4463415 59.3851549,56 58.8316612,56 C58.2781674,56 57.8316612,56.4463415 57.8316612,57 C57.8316612,57.5536585 58.2781674,58 58.8316612,58 C59.3851549,58 59.8316612,57.5536585 59.8316612,57" id="Fill-42" fill="#3B35B9" mask="url(#mask-2)" transform="translate(58.831661, 57.000000) scale(-1, 1) translate(-58.831661, -57.000000) "></path>
                        <path d="M60.8316612,58.9998645 C60.8316612,58.446552 60.3853802,58 59.8318061,58 C59.2779421,58 58.8316612,58.446552 58.8316612,58.9998645 C58.8316612,59.553448 59.2779421,60 59.8318061,60 C60.3853802,60 60.8316612,59.553448 60.8316612,58.9998645" id="Fill-43" fill="#3B35B9" mask="url(#mask-2)" transform="translate(59.831661, 59.000000) scale(-1, 1) translate(-59.831661, -59.000000) "></path>
                        <path d="M80.8316612,55 C80.8316612,54.4463415 80.3851549,54 79.8316612,54 C79.2781674,54 78.8316612,54.4463415 78.8316612,55 C78.8316612,55.5536585 79.2781674,56 79.8316612,56 C80.3851549,55.9913279 80.8316612,55.5447154 80.8316612,55" id="Fill-44" fill="#3B35B9" mask="url(#mask-2)" transform="translate(79.831661, 55.000000) scale(-1, 1) translate(-79.831661, -55.000000) "></path>
                        <path d="M75.8316612,55 C75.8316612,54.4463415 75.3851549,54 74.8316612,54 C74.2781674,54 73.8316612,54.4463415 73.8316612,55 C73.8316612,55.5536585 74.2781674,56 74.8316612,56 C75.3851549,55.9913279 75.8316612,55.5447154 75.8316612,55" id="Fill-45" fill="#3B35B9" mask="url(#mask-2)" transform="translate(74.831661, 55.000000) scale(-1, 1) translate(-74.831661, -55.000000) "></path>
                        <path d="M69.8316612,55 C69.8316612,54.4463415 69.3851549,54 68.8316612,54 C68.2781674,54 67.8316612,54.4463415 67.8316612,55 C67.8316612,55.5536585 68.2781674,56 68.8316612,56 C69.3851549,55.9913279 69.8316612,55.5447154 69.8316612,55" id="Fill-46" fill="#3B35B9" mask="url(#mask-2)" transform="translate(68.831661, 55.000000) scale(-1, 1) translate(-68.831661, -55.000000) "></path>
                        <path d="M67.8316612,55 C67.8316612,54.4463415 67.3851549,54 66.8316612,54 C66.2781674,54 65.8316612,54.4463415 65.8316612,55 C65.8316612,55.5536585 66.2781674,56 66.8316612,56 C67.3851549,55.9913279 67.8316612,55.5447154 67.8316612,55" id="Fill-47" fill="#3B35B9" mask="url(#mask-2)" transform="translate(66.831661, 55.000000) scale(-1, 1) translate(-66.831661, -55.000000) "></path>
                        <path d="M64.8316612,55 C64.8316612,54.4463415 64.3851549,54 63.8316612,54 C63.2781674,54 62.8316612,54.4463415 62.8316612,55 C62.8316612,55.5536585 63.2781674,56 63.8316612,56 C64.3851549,55.9913279 64.8316612,55.5447154 64.8316612,55" id="Fill-48" fill="#3B35B9" mask="url(#mask-2)" transform="translate(63.831661, 55.000000) scale(-1, 1) translate(-63.831661, -55.000000) "></path>
                        <path d="M77.8316612,53.0001355 C77.8316612,52.446552 77.3853802,52 76.8315162,52 C76.2779421,52 75.8316612,52.446552 75.8316612,53.0001355 C75.8316612,53.553448 76.2779421,54 76.8315162,54 C77.3853802,54 77.8316612,53.553448 77.8316612,53.0001355" id="Fill-49" fill="#3B35B9" mask="url(#mask-2)" transform="translate(76.831661, 53.000000) scale(-1, 1) translate(-76.831661, -53.000000) "></path>
                        <path d="M80.8316612,50.9998645 C80.8316612,50.446281 80.3851549,50 79.8316612,50 C79.2781674,50 78.8316612,50.446281 78.8316612,50.9998645 C78.8316612,51.553448 79.2781674,52 79.8316612,52 C80.3851549,52 80.8316612,51.553448 80.8316612,50.9998645" id="Fill-50" fill="#3B35B9" mask="url(#mask-2)" transform="translate(79.831661, 51.000000) scale(-1, 1) translate(-79.831661, -51.000000) "></path>
                        <path d="M81.8316612,53.0001355 C81.8316612,52.446552 81.3850902,52 80.8315162,52 C80.2779421,52 79.8316612,52.446552 79.8316612,53.0001355 C79.8316612,53.553448 80.2779421,54 80.8315162,54 C81.3850902,54 81.8316612,53.553448 81.8316612,53.0001355" id="Fill-51" fill="#3B35B9" mask="url(#mask-2)" transform="translate(80.831661, 53.000000) scale(-1, 1) translate(-80.831661, -53.000000) "></path>
                        <path d="M75.8316612,50.9998645 C75.8316612,50.446281 75.3851549,50 74.8316612,50 C74.2781674,50 73.8316612,50.446281 73.8316612,50.9998645 C73.8316612,51.553448 74.2781674,52 74.8316612,52 C75.3851549,52 75.8316612,51.553448 75.8316612,50.9998645" id="Fill-52" fill="#3B35B9" mask="url(#mask-2)" transform="translate(74.831661, 51.000000) scale(-1, 1) translate(-74.831661, -51.000000) "></path>
                        <path d="M69.8316612,50.9998645 C69.8316612,50.446281 69.3851549,50 68.8316612,50 C68.2781674,50 67.8316612,50.446281 67.8316612,50.9998645 C67.8316612,51.553448 68.2781674,52 68.8316612,52 C69.3851549,52 69.8316612,51.553448 69.8316612,50.9998645" id="Fill-53" fill="#3B35B9" mask="url(#mask-2)" transform="translate(68.831661, 51.000000) scale(-1, 1) translate(-68.831661, -51.000000) "></path>
                        <path d="M67.8316612,50.9998645 C67.8316612,50.446281 67.3851549,50 66.8316612,50 C66.2781674,50 65.8316612,50.446281 65.8316612,50.9998645 C65.8316612,51.553448 66.2781674,52 66.8316612,52 C67.3851549,52 67.8316612,51.553448 67.8316612,50.9998645" id="Fill-54" fill="#3B35B9" mask="url(#mask-2)" transform="translate(66.831661, 51.000000) scale(-1, 1) translate(-66.831661, -51.000000) "></path>
                        <path d="M74.8316612,53.0001355 C74.8316612,52.446552 74.3853802,52 73.8318061,52 C73.2779421,52 72.8316612,52.446552 72.8316612,53.0001355 C72.8316612,53.553448 73.2779421,54 73.8318061,54 C74.3853802,54 74.8316612,53.553448 74.8316612,53.0001355" id="Fill-55" fill="#3B35B9" mask="url(#mask-2)" transform="translate(73.831661, 53.000000) scale(-1, 1) translate(-73.831661, -53.000000) "></path>
                        <path d="M70.8316612,53.0001355 C70.8316612,52.446552 70.3850902,52 69.8315162,52 C69.2779421,52 68.8316612,52.446552 68.8316612,53.0001355 C68.8316612,53.553448 69.2779421,54 69.8315162,54 C70.3850902,54 70.8316612,53.553448 70.8316612,53.0001355" id="Fill-56" fill="#3B35B9" mask="url(#mask-2)" transform="translate(69.831661, 53.000000) scale(-1, 1) translate(-69.831661, -53.000000) "></path>
                        <path d="M68.8316612,53.0001355 C68.8316612,52.446552 68.3850902,52 67.8315162,52 C67.2779421,52 66.8316612,52.446552 66.8316612,53.0001355 C66.8316612,53.553448 67.2779421,54 67.8315162,54 C68.3850902,54 68.8316612,53.553448 68.8316612,53.0001355" id="Fill-57" fill="#3B35B9" mask="url(#mask-2)" transform="translate(67.831661, 53.000000) scale(-1, 1) translate(-67.831661, -53.000000) "></path>
                        <path d="M63.8316612,53.0001355 C63.8316612,52.446552 63.3851549,52 62.8316612,52 C62.2781674,52 61.8316612,52.446552 61.8316612,53.0001355 C61.8316612,53.553448 62.2781674,54 62.8316612,54 C63.3851549,54 63.8316612,53.553448 63.8316612,53.0001355" id="Fill-58" fill="#3B35B9" mask="url(#mask-2)" transform="translate(62.831661, 53.000000) scale(-1, 1) translate(-62.831661, -53.000000) "></path>
                        <path d="M62.8316612,55 C62.8316612,54.4463415 62.3851549,54 61.8316612,54 C61.2781674,54 60.8316612,54.4463415 60.8316612,55 C60.8316612,55.5536585 61.2781674,56 61.8316612,56 C62.3851549,55.9913279 62.8316612,55.5447154 62.8316612,55" id="Fill-59" fill="#3B35B9" mask="url(#mask-2)" transform="translate(61.831661, 55.000000) scale(-1, 1) translate(-61.831661, -55.000000) "></path>
                        <path d="M60.8316612,55 C60.8316612,54.4463415 60.3851549,54 59.8316612,54 C59.2781674,54 58.8316612,54.4463415 58.8316612,55 C58.8316612,55.5536585 59.2781674,56 59.8316612,56 C60.3851549,55.9913279 60.8316612,55.5447154 60.8316612,55" id="Fill-60" fill="#3B35B9" mask="url(#mask-2)" transform="translate(59.831661, 55.000000) scale(-1, 1) translate(-59.831661, -55.000000) "></path>
                        <path d="M58.8316612,55 C58.8316612,54.4463415 58.3853802,54 57.8318061,54 C57.2782321,54 56.8316612,54.4463415 56.8316612,55 C56.8316612,55.5536585 57.2782321,56 57.8318061,56 C58.3763907,55.9913279 58.8316612,55.5447154 58.8316612,55" id="Fill-61" fill="#3B35B9" mask="url(#mask-2)" transform="translate(57.831661, 55.000000) scale(-1, 1) translate(-57.831661, -55.000000) "></path>
                        <path d="M60.8316612,50.9998645 C60.8316612,50.446281 60.3851549,50 59.8316612,50 C59.2781674,50 58.8316612,50.446281 58.8316612,50.9998645 C58.8316612,51.553448 59.2781674,52 59.8316612,52 C60.3851549,52 60.8316612,51.553448 60.8316612,50.9998645" id="Fill-62" fill="#3B35B9" mask="url(#mask-2)" transform="translate(59.831661, 51.000000) scale(-1, 1) translate(-59.831661, -51.000000) "></path>
                        <path d="M58.8316612,50.9998645 C58.8316612,50.446281 58.3853802,50 57.8318061,50 C57.2782321,50 56.8316612,50.446281 56.8316612,50.9998645 C56.8316612,51.553448 57.2782321,52 57.8318061,52 C58.3763907,52 58.8316612,51.553448 58.8316612,50.9998645" id="Fill-63" fill="#3B35B9" mask="url(#mask-2)" transform="translate(57.831661, 51.000000) scale(-1, 1) translate(-57.831661, -51.000000) "></path>
                        <path d="M61.8316612,53.0001355 C61.8316612,52.446552 61.3853802,52 60.8315162,52 C60.2779421,52 59.8316612,52.446552 59.8316612,53.0001355 C59.8316612,53.553448 60.2779421,54 60.8315162,54 C61.3853802,54 61.8316612,53.553448 61.8316612,53.0001355" id="Fill-64" fill="#3B35B9" mask="url(#mask-2)" transform="translate(60.831661, 53.000000) scale(-1, 1) translate(-60.831661, -53.000000) "></path>
                        <path d="M59.8316612,53.0001355 C59.8316612,52.446552 59.3853802,52 58.8315162,52 C58.2779421,52 57.8316612,52.446552 57.8316612,53.0001355 C57.8316612,53.553448 58.2779421,54 58.8315162,54 C59.3853802,54 59.8316612,53.553448 59.8316612,53.0001355" id="Fill-65" fill="#3B35B9" mask="url(#mask-2)" transform="translate(58.831661, 53.000000) scale(-1, 1) translate(-58.831661, -53.000000) "></path>
                        <path d="M56.8316612,53.0001355 C56.8316612,52.446552 56.3851549,52 55.8316612,52 C55.2781674,52 54.8316612,52.446552 54.8316612,53.0001355 C54.8316612,53.553448 55.2781674,54 55.8316612,54 C56.3851549,54 56.8316612,53.553448 56.8316612,53.0001355" id="Fill-66" fill="#3B35B9" mask="url(#mask-2)" transform="translate(55.831661, 53.000000) scale(-1, 1) translate(-55.831661, -53.000000) "></path>
                        <path d="M62.8316612,39 C62.8316612,39.5536585 63.2782321,40 63.8318061,40 C64.3853802,40 64.8316612,39.5536585 64.8316612,39 C64.8316612,38.4463415 64.3853802,38 63.8318061,38 C63.2782321,38 62.8316612,38.4463415 62.8316612,39" id="Fill-67" fill="#3B35B9" mask="url(#mask-2)" transform="translate(63.831661, 39.000000) scale(-1, 1) translate(-63.831661, -39.000000) "></path>
                        <path d="M61.8316612,41 C61.8316612,41.5536585 62.2779421,42 62.8315162,42 C63.3850902,42 63.8316612,41.5536585 63.8316612,41 C63.8316612,40.4463415 63.3850902,40 62.8315162,40 C62.2779421,40.0086721 61.8316612,40.4552846 61.8316612,41" id="Fill-68" fill="#3B35B9" mask="url(#mask-2)" transform="translate(62.831661, 41.000000) scale(-1, 1) translate(-62.831661, -41.000000) "></path>
                        <path d="M59.8316612,41 C59.8316612,41.5536585 60.2779421,42 60.8315162,42 C61.3853802,42 61.8316612,41.5536585 61.8316612,41 C61.8316612,40.4463415 61.3853802,40 60.8315162,40 C60.2869316,40.0086721 59.8316612,40.4552846 59.8316612,41" id="Fill-69" fill="#3B35B9" mask="url(#mask-2)" transform="translate(60.831661, 41.000000) scale(-1, 1) translate(-60.831661, -41.000000) "></path>
                        <path d="M63.8316612,41 C63.8316612,41.5536585 64.2779421,42 64.8315162,42 C65.3853802,42 65.8316612,41.5536585 65.8316612,41 C65.8316612,40.4463415 65.3853802,40 64.8315162,40 C64.2779421,40.0086721 63.8316612,40.4552846 63.8316612,41" id="Fill-70" fill="#3B35B9" mask="url(#mask-2)" transform="translate(64.831661, 41.000000) scale(-1, 1) translate(-64.831661, -41.000000) "></path>
                        <path d="M66.8316612,41 C66.8316612,41.5536585 67.2781674,42 67.8316612,42 C68.3851549,42 68.8316612,41.5536585 68.8316612,41 C68.8316612,40.4463415 68.3851549,40 67.8316612,40 C67.2781674,40.0086721 66.8316612,40.4552846 66.8316612,41" id="Fill-71" fill="#3B35B9" mask="url(#mask-2)" transform="translate(67.831661, 41.000000) scale(-1, 1) translate(-67.831661, -41.000000) "></path>
                        <path d="M68.8316612,41 C68.8316612,41.5536585 69.2782321,42 69.8318061,42 C70.3853802,42 70.8316612,41.5536585 70.8316612,41 C70.8316612,40.4463415 70.3853802,40 69.8318061,40 C69.2869316,40.0086721 68.8316612,40.4552846 68.8316612,41" id="Fill-72" fill="#3B35B9" mask="url(#mask-2)" transform="translate(69.831661, 41.000000) scale(-1, 1) translate(-69.831661, -41.000000) "></path>
                        <path d="M70.8316612,41 C70.8316612,41.5536585 71.2782321,42 71.8318061,42 C72.3853802,42 72.8316612,41.5536585 72.8316612,41 C72.8316612,40.4463415 72.3853802,40 71.8318061,40 C71.2782321,40.0086721 70.8316612,40.4552846 70.8316612,41" id="Fill-73" fill="#3B35B9" mask="url(#mask-2)" transform="translate(71.831661, 41.000000) scale(-1, 1) translate(-71.831661, -41.000000) "></path>
                        <path d="M72.8316612,41 C72.8316612,41.5536585 73.2779421,42 73.8318061,42 C74.3853802,42 74.8316612,41.5536585 74.8316612,41 C74.8316612,40.4463415 74.3853802,40 73.8318061,40 C73.2779421,40.0086721 72.8316612,40.4552846 72.8316612,41" id="Fill-74" fill="#3B35B9" mask="url(#mask-2)" transform="translate(73.831661, 41.000000) scale(-1, 1) translate(-73.831661, -41.000000) "></path>
                        <path d="M75.8316612,41 C75.8316612,41.5536585 76.2782321,42 76.8315162,42 C77.3853802,42 77.8316612,41.5536585 77.8316612,41 C77.8316612,40.4463415 77.3853802,40 76.8315162,40 C76.2782321,40.0086721 75.8316612,40.4552846 75.8316612,41" id="Fill-75" fill="#3B35B9" mask="url(#mask-2)" transform="translate(76.831661, 41.000000) scale(-1, 1) translate(-76.831661, -41.000000) "></path>
                        <path d="M65.8316612,39 C65.8316612,39.5536585 66.2781674,40 66.8316612,40 C67.3851549,40 67.8316612,39.5536585 67.8316612,39 C67.8316612,38.4463415 67.3851549,38 66.8316612,38 C66.2781674,38 65.8316612,38.4463415 65.8316612,39" id="Fill-76" fill="#3B35B9" mask="url(#mask-2)" transform="translate(66.831661, 39.000000) scale(-1, 1) translate(-66.831661, -39.000000) "></path>
                        <path d="M67.8316612,39 C67.8316612,39.5536585 68.2781674,40 68.8316612,40 C69.3851549,40 69.8316612,39.5536585 69.8316612,39 C69.8316612,38.4463415 69.3851549,38 68.8316612,38 C68.2781674,38 67.8316612,38.4463415 67.8316612,39" id="Fill-77" fill="#3B35B9" mask="url(#mask-2)" transform="translate(68.831661, 39.000000) scale(-1, 1) translate(-68.831661, -39.000000) "></path>
                        <path d="M71.8316612,39 C71.8316612,39.5536585 72.2781674,40 72.8316612,40 C73.3851549,40 73.8316612,39.5536585 73.8316612,39 C73.8316612,38.4463415 73.3851549,38 72.8316612,38 C72.2781674,38 71.8316612,38.4463415 71.8316612,39" id="Fill-78" fill="#3B35B9" mask="url(#mask-2)" transform="translate(72.831661, 39.000000) scale(-1, 1) translate(-72.831661, -39.000000) "></path>
                        <path d="M60.8316612,43.0001355 C60.8316612,43.553448 61.2781674,44 61.8316612,44 C62.3851549,44 62.8316612,43.553448 62.8316612,43.0001355 C62.8316612,42.446552 62.3851549,42 61.8316612,42 C61.2781674,42 60.8316612,42.446552 60.8316612,43.0001355" id="Fill-79" fill="#3B35B9" mask="url(#mask-2)" transform="translate(61.831661, 43.000000) scale(-1, 1) translate(-61.831661, -43.000000) "></path>
                        <path d="M62.8316612,43.0001355 C62.8316612,43.553448 63.2782321,44 63.8318061,44 C64.3853802,44 64.8316612,43.553448 64.8316612,43.0001355 C64.8316612,42.446552 64.3853802,42 63.8318061,42 C63.2782321,42 62.8316612,42.446552 62.8316612,43.0001355" id="Fill-80" fill="#3B35B9" mask="url(#mask-2)" transform="translate(63.831661, 43.000000) scale(-1, 1) translate(-63.831661, -43.000000) "></path>
                        <path d="M61.8316612,45 C61.8316612,45.5536585 62.2779421,46 62.8315162,46 C63.3850902,46 63.8316612,45.5536585 63.8316612,45 C63.8316612,44.4463415 63.3850902,44 62.8315162,44 C62.2779421,44 61.8316612,44.4463415 61.8316612,45" id="Fill-81" fill="#3B35B9" mask="url(#mask-2)" transform="translate(62.831661, 45.000000) scale(-1, 1) translate(-62.831661, -45.000000) "></path>
                        <path d="M59.8316612,45 C59.8316612,45.5536585 60.2779421,46 60.8315162,46 C61.3853802,46 61.8316612,45.5536585 61.8316612,45 C61.8316612,44.4463415 61.3853802,44 60.8315162,44 C60.2869316,44 59.8316612,44.4463415 59.8316612,45" id="Fill-82" fill="#3B35B9" mask="url(#mask-2)" transform="translate(60.831661, 45.000000) scale(-1, 1) translate(-60.831661, -45.000000) "></path>
                        <path d="M58.8316612,43.0001355 C58.8316612,43.553448 59.2779421,44 59.8318061,44 C60.3853802,44 60.8316612,43.553448 60.8316612,43.0001355 C60.8316612,42.446552 60.3853802,42 59.8318061,42 C59.2779421,42 58.8316612,42.446552 58.8316612,43.0001355" id="Fill-83" fill="#3B35B9" mask="url(#mask-2)" transform="translate(59.831661, 43.000000) scale(-1, 1) translate(-59.831661, -43.000000) "></path>
                        <path d="M57.8316612,45 C57.8316612,45.5536585 58.2781674,46 58.8316612,46 C59.3851549,46 59.8316612,45.5536585 59.8316612,45 C59.8316612,44.4463415 59.3851549,44 58.8316612,44 C58.2781674,44 57.8316612,44.4463415 57.8316612,45" id="Fill-84" fill="#3B35B9" mask="url(#mask-2)" transform="translate(58.831661, 45.000000) scale(-1, 1) translate(-58.831661, -45.000000) "></path>
                        <path d="M63.8316612,45 C63.8316612,45.5536585 64.2779421,46 64.8315162,46 C65.3853802,46 65.8316612,45.5536585 65.8316612,45 C65.8316612,44.4463415 65.3853802,44 64.8315162,44 C64.2779421,44 63.8316612,44.4463415 63.8316612,45" id="Fill-85" fill="#3B35B9" mask="url(#mask-2)" transform="translate(64.831661, 45.000000) scale(-1, 1) translate(-64.831661, -45.000000) "></path>
                        <path d="M66.8316612,45 C66.8316612,45.5536585 67.2781674,46 67.8316612,46 C68.3851549,46 68.8316612,45.5536585 68.8316612,45 C68.8316612,44.4463415 68.3851549,44 67.8316612,44 C67.2781674,44 66.8316612,44.4463415 66.8316612,45" id="Fill-86" fill="#3B35B9" mask="url(#mask-2)" transform="translate(67.831661, 45.000000) scale(-1, 1) translate(-67.831661, -45.000000) "></path>
                        <path d="M70.8316612,45 C70.8316612,45.5536585 71.2782321,46 71.8318061,46 C72.3853802,46 72.8316612,45.5536585 72.8316612,45 C72.8316612,44.4463415 72.3853802,44 71.8318061,44 C71.2782321,44 70.8316612,44.4463415 70.8316612,45" id="Fill-87" fill="#3B35B9" mask="url(#mask-2)" transform="translate(71.831661, 45.000000) scale(-1, 1) translate(-71.831661, -45.000000) "></path>
                        <path d="M72.8316612,45 C72.8316612,45.5536585 73.2779421,46 73.8318061,46 C74.3853802,46 74.8316612,45.5536585 74.8316612,45 C74.8316612,44.4463415 74.3853802,44 73.8318061,44 C73.2779421,44 72.8316612,44.4463415 72.8316612,45" id="Fill-88" fill="#3B35B9" mask="url(#mask-2)" transform="translate(73.831661, 45.000000) scale(-1, 1) translate(-73.831661, -45.000000) "></path>
                        <path d="M75.8316612,45 C75.8316612,45.5536585 76.2782321,46 76.8315162,46 C77.3853802,46 77.8316612,45.5536585 77.8316612,45 C77.8316612,44.4463415 77.3853802,44 76.8315162,44 C76.2782321,44 75.8316612,44.4463415 75.8316612,45" id="Fill-89" fill="#3B35B9" mask="url(#mask-2)" transform="translate(76.831661, 45.000000) scale(-1, 1) translate(-76.831661, -45.000000) "></path>
                        <path d="M65.8316612,43.0001355 C65.8316612,43.553448 66.2781674,44 66.8316612,44 C67.3851549,44 67.8316612,43.553448 67.8316612,43.0001355 C67.8316612,42.446552 67.3851549,42 66.8316612,42 C66.2781674,42 65.8316612,42.446552 65.8316612,43.0001355" id="Fill-90" fill="#3B35B9" mask="url(#mask-2)" transform="translate(66.831661, 43.000000) scale(-1, 1) translate(-66.831661, -43.000000) "></path>
                        <path d="M67.8316612,43.0001355 C67.8316612,43.553448 68.2781674,44 68.8316612,44 C69.3851549,44 69.8316612,43.553448 69.8316612,43.0001355 C69.8316612,42.446552 69.3851549,42 68.8316612,42 C68.2781674,42 67.8316612,42.446552 67.8316612,43.0001355" id="Fill-91" fill="#3B35B9" mask="url(#mask-2)" transform="translate(68.831661, 43.000000) scale(-1, 1) translate(-68.831661, -43.000000) "></path>
                        <path d="M73.8316612,43.0001355 C73.8316612,43.553448 74.2781674,44 74.8316612,44 C75.3851549,44 75.8316612,43.553448 75.8316612,43.0001355 C75.8316612,42.446552 75.3851549,42 74.8316612,42 C74.2781674,42 73.8316612,42.446552 73.8316612,43.0001355" id="Fill-92" fill="#3B35B9" mask="url(#mask-2)" transform="translate(74.831661, 43.000000) scale(-1, 1) translate(-74.831661, -43.000000) "></path>
                        <path d="M77.8316612,45 C77.8316612,45.5536585 78.2779421,46 78.8315162,46 C79.3850902,46 79.8316612,45.5536585 79.8316612,45 C79.8316612,44.4463415 79.3850902,44 78.8315162,44 C78.2779421,44 77.8316612,44.4463415 77.8316612,45" id="Fill-93" fill="#3B35B9" mask="url(#mask-2)" transform="translate(78.831661, 45.000000) scale(-1, 1) translate(-78.831661, -45.000000) "></path>
                        <path d="M58.8316612,46.9998645 C58.8316612,47.553448 59.2779421,48 59.8318061,48 C60.3853802,48 60.8316612,47.553448 60.8316612,46.9998645 C60.8316612,46.446281 60.3853802,46 59.8318061,46 C59.2779421,46.0086709 58.8316612,46.4552229 58.8316612,46.9998645" id="Fill-94" fill="#3B35B9" mask="url(#mask-2)" transform="translate(59.831661, 47.000000) scale(-1, 1) translate(-59.831661, -47.000000) "></path>
                        <path d="M56.8316612,46.9998645 C56.8316612,47.553448 57.2782321,48 57.8318061,48 C58.3853802,48 58.8316612,47.553448 58.8316612,46.9998645 C58.8316612,46.446281 58.3853802,46 57.8318061,46 C57.2782321,46.0086709 56.8316612,46.4552229 56.8316612,46.9998645" id="Fill-95" fill="#3B35B9" mask="url(#mask-2)" transform="translate(57.831661, 47.000000) scale(-1, 1) translate(-57.831661, -47.000000) "></path>
                        <path d="M62.8316612,46.9998645 C62.8316612,47.553448 63.2782321,48 63.8318061,48 C64.3853802,48 64.8316612,47.553448 64.8316612,46.9998645 C64.8316612,46.446281 64.3853802,46 63.8318061,46 C63.2782321,46.0086709 62.8316612,46.4552229 62.8316612,46.9998645" id="Fill-96" fill="#3B35B9" mask="url(#mask-2)" transform="translate(63.831661, 47.000000) scale(-1, 1) translate(-63.831661, -47.000000) "></path>
                        <path d="M65.8316612,46.9998645 C65.8316612,47.553448 66.2781674,48 66.8316612,48 C67.3851549,48 67.8316612,47.553448 67.8316612,46.9998645 C67.8316612,46.446281 67.3851549,46 66.8316612,46 C66.2781674,46.0086709 65.8316612,46.4552229 65.8316612,46.9998645" id="Fill-97" fill="#3B35B9" mask="url(#mask-2)" transform="translate(66.831661, 47.000000) scale(-1, 1) translate(-66.831661, -47.000000) "></path>
                        <path d="M69.8316612,46.9998645 C69.8316612,47.553448 70.2781674,48 70.8316612,48 C71.3851549,48 71.8316612,47.553448 71.8316612,46.9998645 C71.8316612,46.446281 71.3851549,46 70.8316612,46 C70.2781674,46.0086709 69.8316612,46.4552229 69.8316612,46.9998645" id="Fill-98" fill="#3B35B9" mask="url(#mask-2)" transform="translate(70.831661, 47.000000) scale(-1, 1) translate(-70.831661, -47.000000) "></path>
                        <path d="M71.8316612,46.9998645 C71.8316612,47.553448 72.2781674,48 72.8316612,48 C73.3851549,48 73.8316612,47.553448 73.8316612,46.9998645 C73.8316612,46.446281 73.3851549,46 72.8316612,46 C72.2781674,46.0086709 71.8316612,46.4552229 71.8316612,46.9998645" id="Fill-99" fill="#3B35B9" mask="url(#mask-2)" transform="translate(72.831661, 47.000000) scale(-1, 1) translate(-72.831661, -47.000000) "></path>
                        <path d="M54.8316612,49 C54.8316612,49.5536585 55.2781674,50 55.8316612,50 C56.3851549,50 56.8316612,49.5536585 56.8316612,49 C56.8316612,48.4463415 56.3851549,48 55.8316612,48 C55.2781674,48 54.8316612,48.4463415 54.8316612,49" id="Fill-100" fill="#3B35B9" mask="url(#mask-2)" transform="translate(55.831661, 49.000000) scale(-1, 1) translate(-55.831661, -49.000000) "></path>
                        <path d="M66.8316612,49 C66.8316612,49.5536585 67.2781674,50 67.8316612,50 C68.3851549,50 68.8316612,49.5536585 68.8316612,49 C68.8316612,48.4463415 68.3851549,48 67.8316612,48 C67.2781674,48 66.8316612,48.4463415 66.8316612,49" id="Fill-101" fill="#3B35B9" mask="url(#mask-2)" transform="translate(67.831661, 49.000000) scale(-1, 1) translate(-67.831661, -49.000000) "></path>
                        <path d="M73.8316612,46.9998645 C73.8316612,47.553448 74.2782321,48 74.8318061,48 C75.3853802,48 75.8316612,47.553448 75.8316612,46.9998645 C75.8316612,46.446281 75.3853802,46 74.8318061,46 C74.2782321,46.0086709 73.8316612,46.4552229 73.8316612,46.9998645" id="Fill-102" fill="#3B35B9" mask="url(#mask-2)" transform="translate(74.831661, 47.000000) scale(-1, 1) translate(-74.831661, -47.000000) "></path>
                        <path d="M76.8316612,46.9998645 C76.8316612,47.553448 77.2781674,48 77.8316612,48 C78.3851549,48 78.8316612,47.553448 78.8316612,46.9998645 C78.8316612,46.446281 78.3851549,46 77.8316612,46 C77.2781674,46.0086709 76.8316612,46.4552229 76.8316612,46.9998645" id="Fill-103" fill="#3B35B9" mask="url(#mask-2)" transform="translate(77.831661, 47.000000) scale(-1, 1) translate(-77.831661, -47.000000) "></path>
                        <path d="M75.8316612,49 C75.8316612,49.5536585 76.2779421,50 76.8315162,50 C77.3853802,50 77.8316612,49.5536585 77.8316612,49 C77.8316612,48.4463415 77.3853802,48 76.8315162,48 C76.2869316,48 75.8316612,48.4463415 75.8316612,49" id="Fill-104" fill="#3B35B9" mask="url(#mask-2)" transform="translate(76.831661, 49.000000) scale(-1, 1) translate(-76.831661, -49.000000) "></path>
                        <path d="M79.8316612,49 C79.8316612,49.5536585 80.2779421,50 80.8315162,50 C81.3850902,50 81.8316612,49.5536585 81.8316612,49 C81.8316612,48.4463415 81.3850902,48 80.8315162,48 C80.2779421,48 79.8316612,48.4463415 79.8316612,49" id="Fill-105" fill="#3B35B9" mask="url(#mask-2)" transform="translate(80.831661, 49.000000) scale(-1, 1) translate(-80.831661, -49.000000) "></path>
                        <path d="M79.8316612,49 C79.8316612,48.4463415 79.3850902,48 78.8315162,48 C78.2779421,48 77.8316612,48.4463415 77.8316612,49 C77.8316612,49.5536585 78.2779421,50 78.8315162,50 C79.3850902,50 79.8316612,49.5447154 79.8316612,49" id="Fill-106" fill="#3B35B9" mask="url(#mask-2)" transform="translate(78.831661, 49.000000) scale(-1, 1) translate(-78.831661, -49.000000) "></path>
                        <path d="M74.8316612,49 C74.8316612,48.4463415 74.3853802,48 73.8318061,48 C73.2779421,48 72.8316612,48.4463415 72.8316612,49 C72.8316612,49.5536585 73.2779421,50 73.8318061,50 C74.3853802,50 74.8316612,49.5447154 74.8316612,49" id="Fill-107" fill="#3B35B9" mask="url(#mask-2)" transform="translate(73.831661, 49.000000) scale(-1, 1) translate(-73.831661, -49.000000) "></path>
                        <path d="M72.8316612,49 C72.8316612,48.4463415 72.3851549,48 71.8316612,48 C71.2781674,48 70.8316612,48.4463415 70.8316612,49 C70.8316612,49.5536585 71.2781674,50 71.8316612,50 C72.3851549,50 72.8316612,49.5447154 72.8316612,49" id="Fill-108" fill="#3B35B9" mask="url(#mask-2)" transform="translate(71.831661, 49.000000) scale(-1, 1) translate(-71.831661, -49.000000) "></path>
                        <path d="M70.8316612,49 C70.8316612,48.4463415 70.3850902,48 69.8315162,48 C69.2779421,48 68.8316612,48.4463415 68.8316612,49 C68.8316612,49.5536585 69.2779421,50 69.8315162,50 C70.3850902,50 70.8316612,49.5447154 70.8316612,49" id="Fill-109" fill="#3B35B9" mask="url(#mask-2)" transform="translate(69.831661, 49.000000) scale(-1, 1) translate(-69.831661, -49.000000) "></path>
                        <path d="M65.8316612,49 C65.8316612,48.4463415 65.3850902,48 64.8315162,48 C64.2779421,48 63.8316612,48.4463415 63.8316612,49 C63.8316612,49.5536585 64.2779421,50 64.8315162,50 C65.3850902,50 65.8316612,49.5447154 65.8316612,49" id="Fill-110" fill="#3B35B9" mask="url(#mask-2)" transform="translate(64.831661, 49.000000) scale(-1, 1) translate(-64.831661, -49.000000) "></path>
                        <path d="M63.8316612,49 C63.8316612,48.4463415 63.3851549,48 62.8316612,48 C62.2781674,48 61.8316612,48.4463415 61.8316612,49 C61.8316612,49.5536585 62.2781674,50 62.8316612,50 C63.3851549,50 63.8316612,49.5447154 63.8316612,49" id="Fill-111" fill="#3B35B9" mask="url(#mask-2)" transform="translate(62.831661, 49.000000) scale(-1, 1) translate(-62.831661, -49.000000) "></path>
                        <path d="M59.8316612,49 C59.8316612,48.4463415 59.3853802,48 58.8315162,48 C58.2779421,48 57.8316612,48.4463415 57.8316612,49 C57.8316612,49.5536585 58.2779421,50 58.8315162,50 C59.3853802,50 59.8316612,49.5447154 59.8316612,49" id="Fill-112" fill="#3B35B9" mask="url(#mask-2)" transform="translate(58.831661, 49.000000) scale(-1, 1) translate(-58.831661, -49.000000) "></path>
                        <path d="M78.8316612,50.9998645 C78.8316612,50.446281 78.3850902,50 77.8315162,50 C77.2779421,50 76.8316612,50.446281 76.8316612,50.9998645 C76.8316612,51.553448 77.2779421,52 77.8315162,52 C78.3850902,52 78.8316612,51.553448 78.8316612,50.9998645" id="Fill-113" fill="#3B35B9" mask="url(#mask-2)" transform="translate(77.831661, 51.000000) scale(-1, 1) translate(-77.831661, -51.000000) "></path>
                        <path d="M71.8316612,50.9998645 C71.8316612,50.446281 71.3851549,50 70.8316612,50 C70.2781674,50 69.8316612,50.446281 69.8316612,50.9998645 C69.8316612,51.553448 70.2781674,52 70.8316612,52 C71.3851549,52 71.8316612,51.553448 71.8316612,50.9998645" id="Fill-114" fill="#3B35B9" mask="url(#mask-2)" transform="translate(70.831661, 51.000000) scale(-1, 1) translate(-70.831661, -51.000000) "></path>
                        <path d="M64.8316612,50.9998645 C64.8316612,50.446281 64.3853802,50 63.8318061,50 C63.2782321,50 62.8316612,50.446281 62.8316612,50.9998645 C62.8316612,51.553448 63.2782321,52 63.8318061,52 C64.3853802,52 64.8316612,51.553448 64.8316612,50.9998645" id="Fill-115" fill="#3B35B9" mask="url(#mask-2)" transform="translate(63.831661, 51.000000) scale(-1, 1) translate(-63.831661, -51.000000) "></path>
                        <path d="M62.8316612,50.9998645 C62.8316612,50.446281 62.3851549,50 61.8316612,50 C61.2781674,50 60.8316612,50.446281 60.8316612,50.9998645 C60.8316612,51.553448 61.2781674,52 61.8316612,52 C62.3851549,52 62.8316612,51.553448 62.8316612,50.9998645" id="Fill-116" fill="#3B35B9" mask="url(#mask-2)" transform="translate(61.831661, 51.000000) scale(-1, 1) translate(-61.831661, -51.000000) "></path>
                        <path d="M79.8316612,53.0001355 C79.8316612,52.446552 79.3850902,52 78.8315162,52 C78.2779421,52 77.8316612,52.446552 77.8316612,53.0001355 C77.8316612,53.553448 78.2779421,54 78.8315162,54 C79.3850902,54 79.8316612,53.553448 79.8316612,53.0001355" id="Fill-117" fill="#3B35B9" mask="url(#mask-2)" transform="translate(78.831661, 53.000000) scale(-1, 1) translate(-78.831661, -53.000000) "></path>
                        <path d="M72.8316612,53.0001355 C72.8316612,52.446552 72.3851549,52 71.8316612,52 C71.2781674,52 70.8316612,52.446552 70.8316612,53.0001355 C70.8316612,53.553448 71.2781674,54 71.8316612,54 C72.3851549,54 72.8316612,53.553448 72.8316612,53.0001355" id="Fill-118" fill="#3B35B9" mask="url(#mask-2)" transform="translate(71.831661, 53.000000) scale(-1, 1) translate(-71.831661, -53.000000) "></path>
                        <path d="M78.8316612,55.0001355 C78.8316612,54.446552 78.3853802,54 77.8318061,54 C77.2782321,54 76.8316612,54.446552 76.8316612,55.0001355 C76.8316612,55.553719 77.2782321,56 77.8318061,56 C78.3853802,56 78.8316612,55.553719 78.8316612,55.0001355" id="Fill-119" fill="#3B35B9" mask="url(#mask-2)" transform="translate(77.831661, 55.000000) scale(-1, 1) translate(-77.831661, -55.000000) "></path>
                        <path d="M51.3428667,0 L6.32045558,0 C3.28888407,0 0.831661154,2.45141818 0.831661154,5.47532727 L0.831661154,21.0050121 C0.831661154,24.0289212 3.28888407,26.4803394 6.32045558,26.4803394 L6.2860621,26.4803394 L0.831661154,37 L19.2854479,26.4803394 L51.3428667,26.4803394 C54.3742134,26.4803394 56.8316612,24.0289212 56.8316612,21.0050121 L56.8316612,5.47532727 C56.8316612,2.45141818 54.3742134,0 51.3428667,0" id="Fill-120" fill="#4C4CE0" mask="url(#mask-2)" transform="translate(28.831661, 18.500000) scale(-1, 1) translate(-28.831661, -18.500000) "></path>
                        <path d="M41.7837667,8.64977165 C42.4294627,7.09026596 43.9047428,6.00044775 45.6208132,6.00044775 C47.9320488,6.00044775 49.5969293,8.01531298 49.8060829,10.4165846 C49.8060829,10.4165846 49.9190083,11.0127608 49.6703088,12.0857885 C49.3317524,13.5472374 48.5357822,14.8457061 47.462991,15.8367959 L41.7837667,21 L36.2003313,15.836572 C35.1273204,14.8457061 34.3315699,13.5470135 33.9930135,12.0855646 C33.744314,11.0123131 33.8572394,10.4163607 33.8572394,10.4163607 C34.0666127,8.01486523 35.7312735,6 38.0427288,6 C39.7587992,6 41.1380708,7.09026596 41.7837667,8.64977165" id="Fill-121" fill="#FF6786" mask="url(#mask-2)" transform="translate(41.831661, 13.500000) scale(-1, 1) translate(-41.831661, -13.500000) "></path>
                        <path d="M59.9745183,48 L67.1173754,48 C71.0620183,48 74.2602326,51.2353548 74.2602326,55.2258065 C74.2602326,59.2162581 71.0620183,62.4516129 67.1173754,62.4516129 L63.5459469,62.4516129 L63.5459469,85.9354839 C63.5459469,89.9259355 66.7441612,93.1612903 70.688804,93.1612903 L102.831661,93.1612903 L99.2602326,104 L54.6173754,104 L52.8316612,93.1612903 L52.8316612,55.2258065 C52.8316612,51.2353548 56.0298754,48 59.9745183,48" id="Fill-122" fill="#FBAA95" mask="url(#mask-2)" transform="translate(77.831661, 76.000000) scale(-1, 1) translate(-77.831661, -76.000000) "></path>
                        <path d="M23.5475581,13.5595901 L22.893598,8.34568829 L21.6680197,8.49370015 L21.6684747,8.49280716 L19.292609,7.18056932 C19.0392136,7.0405943 18.7482867,6.97964825 18.4587245,7.00599123 L14.7073815,7.34644082 C14.2460837,7.38818776 13.8341457,7.64648296 13.6014496,8.03961852 L10.9574034,12.506094 C10.7622389,12.836051 10.9155499,13.2588782 11.2788106,13.3937186 L11.3870836,13.4339028 C11.5952136,13.5109226 11.8092576,13.5555717 12.0228466,13.5732081 L11.6877916,13.859409 L11.017454,14.4327038 L9.11107482,16.0286868 C8.77169793,16.3186829 8.73666841,16.8236645 9.03237214,17.156747 L9.22548941,17.373965 C9.6051275,17.8012572 10.2659116,17.8456831 10.7019609,17.4730861 L11.4305293,18.2932906 C11.6675472,18.5600691 12.0146579,18.6783893 12.3481207,18.6379818 C12.5485169,18.6138713 12.7439088,18.5321634 12.9072282,18.3921884 L13.6351143,19.2123928 C13.8728146,19.4800644 14.2196979,19.5972683 14.5531607,19.5570841 C14.7535568,19.5327503 14.9491762,19.4521587 15.1124956,19.3121836 L15.5078288,19.6474986 C15.8876943,20.0754605 16.5491608,20.1198864 16.9852101,19.7470661 L17.5231634,19.2867336 L22.043336,15.8315609 L22.0481128,15.8273193 L23.8316612,15.8255333 L23.5475581,13.5595901 Z" id="Fill-123" fill="#FBAA95" mask="url(#mask-2)" transform="translate(16.331661, 13.500000) scale(-1, 1) translate(-16.331661, -13.500000) "></path>
                        <path d="M23.6344425,14 L21.6101643,14.2416726 L21.6053874,14.2463336 L17.0848256,17.853011 L16.547308,18.3337926 C16.1112432,18.7227526 15.4495256,18.6766087 15.0698739,18.2296193 L14.6740717,17.8795787 C14.5109739,18.0257008 14.31512,18.1100648 14.1149442,18.1354673 C13.7816969,18.1774162 13.4345738,18.0548321 13.1966375,17.7756385 L12.4689529,16.9191808 C12.3056276,17.065536 12.1100012,17.1505991 11.9098254,17.1757685 C11.5763506,17.2179505 11.2292275,17.0946672 10.9924286,16.8159398 L10.2638341,15.9597151 C9.89032416,16.2927431 9.35257908,16.3057939 8.9672406,16.0228716 C8.76956696,16.3281667 8.78549004,16.742063 9.0318428,17.0317438 L9.22519446,17.2587342 C9.60484613,17.7047914 10.2656539,17.7511683 10.7017187,17.3619752 L11.4305407,18.2181999 C11.6673396,18.4969274 12.0144627,18.6202107 12.3479375,18.5782617 C12.5483408,18.5528593 12.7437397,18.4677962 12.907065,18.3214409 L13.6347496,19.1778987 C13.8726859,19.4573253 14.2195815,19.5796764 14.5530563,19.5377274 C14.7534596,19.512325 14.9488585,19.4281941 15.1121838,19.2818388 L15.5077585,19.6321126 C15.8876377,20.0788689 16.5493553,20.1250127 16.9854201,19.7360527 L17.5231652,19.2555042 L22.0434995,15.6485937 L22.0482764,15.6439327 L23.8316612,15.6420683 L23.6344425,14 Z" id="Fill-124" fill="#F05068" mask="url(#mask-2)" transform="translate(16.331661, 17.000000) scale(-1, 1) translate(-16.331661, -17.000000) "></path>
                        <path d="M25.5546172,16.5131221 L23.1835132,14.4680015 L22.5240937,13.8996896 L22.052189,13.4931161 L20.0236001,11.7438474 L20.2578822,9.74885225 C20.337164,9.07405156 19.912472,8.44224742 19.2581747,8.26112726 L14.8357662,7.03717381 C14.3680929,6.90773862 13.8734726,7.12472636 13.6523299,7.55714238 L13.096244,8.64297222 L10.7091055,8.48078836 L10.0975669,13.6876031 L9.83166115,15.950157 L12.1553297,16.1047663 L12.1600064,16.1092219 L17.0142333,20.294813 L17.5433723,20.7512893 C17.9722956,21.1208813 18.6196892,21.0732064 18.9893739,20.6439093 L19.6971196,19.8222966 C19.8579101,19.9613113 20.0496562,20.040621 20.246079,20.0637901 C20.5727823,20.1021083 20.9117341,19.9833665 21.1431211,19.7149166 L21.8510895,18.8924128 C22.0118801,19.0312047 22.2036261,19.1116283 22.400049,19.1347974 C22.7267522,19.1731156 23.065704,19.0532599 23.2962002,18.7857011 L24.0050594,17.9631973 C24.4339827,18.3325666 25.0807082,18.2848916 25.4499474,17.8564856 L25.6381303,17.638384 C25.9258608,17.3044367 25.8884469,16.8009539 25.5546172,16.5131221" id="Fill-125" fill="#FF6786" mask="url(#mask-2)" transform="translate(17.831661, 14.000000) scale(-1, 1) translate(-17.831661, -14.000000) "></path>
                        <path d="M18.5420038,16.6094964 L17.786901,16 C18.0323153,16.3047482 18.0271928,16.7381097 17.750345,17.0391521 L17.5414868,17.2654244 C17.1314541,17.7105573 16.4138386,17.7602588 15.9374463,17.3763807 L15.1511428,18.2306784 C14.8952507,18.508832 14.5187471,18.6330855 14.1562139,18.5931936 C13.9385078,18.5692148 13.7252256,18.4859432 13.5471023,18.3416346 L12.7612645,19.1959324 C12.5044411,19.4747399 12.1281703,19.5983395 11.7656371,19.5584476 C11.5476981,19.5344688 11.3346487,19.4518511 11.1562926,19.3075426 L10.3706877,20.1609683 C10.2228338,20.322062 10.0339998,20.4306204 9.83166115,20.4864255 L10.1660206,20.7567315 C10.6147049,21.1183747 11.2913403,21.0715072 11.6778561,20.6514429 L12.4178243,19.8475006 C12.5859354,19.9835255 12.7864113,20.0611295 12.9917769,20.0838003 C13.3333544,20.1212944 13.6877382,20.0051064 13.9296598,19.74243 L14.6698608,18.9376157 C14.8379719,19.0736407 15.0384478,19.1521166 15.2438135,19.1747875 C15.585391,19.2122815 15.9397747,19.0952216 16.180765,18.8331992 L16.9218973,18.0283849 C17.3705816,18.3900281 18.0465186,18.3431606 18.4325687,17.9239683 L18.6293192,17.7105573 C18.9301495,17.3837923 18.8910323,16.8911378 18.5420038,16.6094964" id="Fill-126" fill="#F05068" mask="url(#mask-2)" transform="translate(14.331661, 18.500000) scale(-1, 1) translate(-14.331661, -18.500000) "></path>
                        <path d="M12.7061227,17.3693387 L11.4306432,16.1014625 C11.2793781,15.9507289 11.0502945,15.9701378 10.919577,16.1450694 C10.7888595,16.3197489 10.8059096,16.5836588 10.9573933,16.7343924 L12.2304683,18 L12.4704814,17.679124 C12.5660058,17.7741517 12.673334,17.843721 12.7854713,17.8903527 C12.8680988,17.7204623 12.8388075,17.5014197 12.7061227,17.3693387" id="Fill-127" fill="#F05068" mask="url(#mask-2)" transform="translate(11.831661, 17.000000) scale(-1, 1) translate(-11.831661, -17.000000) "></path>
                        <path d="M14.7782048,18.8867904 C14.8714786,18.7044717 14.8415562,18.4662205 14.6973208,18.3231623 L13.4721379,17.1082426 C13.310136,16.9474365 13.0653799,16.9681423 12.9255861,17.1547634 C12.7860261,17.3411156 12.8040263,17.6226608 12.9660282,17.7834669 L14.1912111,18.9986555 C14.1916786,18.9989244 14.1921461,18.9994622 14.1928474,19 L14.4457854,18.6619845 C14.5467736,18.7622866 14.659684,18.8367737 14.7782048,18.8867904" id="Fill-128" fill="#F05068" mask="url(#mask-2)" transform="translate(13.831661, 18.000000) scale(-1, 1) translate(-13.831661, -18.000000) "></path>
                        <path d="M22.2730837,16.3296377 L22.0075513,16.6660072 C21.718472,17.0322225 21.7935275,17.5539179 22.1753224,17.831201 C22.5573275,18.1086856 23.1010067,18.0364912 23.390086,17.670276 L23.6556184,17.3339064 C23.9449079,16.9678928 23.8698524,16.4461974 23.4878473,16.1687127 C23.1062627,15.8914297 22.562163,15.9634224 22.2730837,16.3296377" id="Fill-129" fill="#FBAA95" mask="url(#mask-2)" transform="translate(22.831661, 17.000000) scale(-1, 1) translate(-22.831661, -17.000000) "></path>
                        <path d="M20.4367306,16.4305314 L19.9890426,17.2578189 C19.7302907,17.7361233 19.7976603,18.417233 20.1392129,18.7796486 C20.4809537,19.1418009 20.9677837,19.047773 21.2265357,18.5694686 L21.6742237,17.7421811 C21.9329756,17.2641401 21.8657942,16.5825037 21.5240534,16.2203514 C21.1823126,15.8581991 20.6954826,15.952227 20.4367306,16.4305314" id="Fill-130" fill="#FBAA95" mask="url(#mask-2)" transform="translate(20.831661, 17.500000) scale(-1, 1) translate(-20.831661, -17.500000) "></path>
                        <path d="M18.8961989,17.3913617 L18.0500758,18.416083 C17.6911066,18.8508713 17.784308,19.4702531 18.2584085,19.7996962 C18.7325089,20.1288999 19.4078932,20.0434266 19.7671234,19.6086383 L20.6132465,18.5836776 C20.9722157,18.1491287 20.8790143,17.5297469 20.4049138,17.2003038 C19.9308134,16.8711001 19.2554291,16.9565734 18.8961989,17.3913617" id="Fill-131" fill="#FBAA95" mask="url(#mask-2)" transform="translate(19.331661, 18.500000) scale(-1, 1) translate(-19.331661, -18.500000) "></path>
                        <path d="M17.9274237,18.3837661 L17.0466621,19.4468236 C16.6932272,19.8731736 16.7851819,20.4807692 17.2516337,20.8035837 C17.7180855,21.1263982 18.3823169,21.0425838 18.7357517,20.6162339 L19.6167702,19.5529416 C19.9699482,19.1268264 19.8782503,18.5194656 19.4117986,18.1964163 C18.9453468,17.8736018 18.2808585,17.9574162 17.9274237,18.3837661" id="Fill-132" fill="#FBAA95" mask="url(#mask-2)" transform="translate(18.331661, 19.500000) scale(-1, 1) translate(-18.331661, -19.500000) "></path>
                        <path d="M21.8316612,8.58754222 L19.4109857,7.1921559 C19.1525795,7.04331152 18.8563973,6.97850369 18.5613739,7.00627847 L14.7390474,7.36853767 C14.2692811,7.41292985 13.8495738,7.68759163 13.612489,8.10563779 L10.918575,12.8551264 C10.7197297,13.2059908 10.8759322,13.65561 11.2460441,13.7989944 L11.3563592,13.8414875 C12.3440968,14.2236875 13.4590675,13.8984614 14.1021862,13.0412412 L15.1344206,11.665321 C15.1344206,11.665321 17.6155839,14.6077867 20.347042,11.1713096" id="Fill-133" fill="#FBAA95" mask="url(#mask-2)" transform="translate(16.331661, 10.500000) scale(-1, 1) translate(-16.331661, -10.500000) "></path>
                        <path d="M9.82868274,16.2264321 L8.53925379,6.32467405 C8.5265082,6.22739237 8.4736376,6.13881248 8.39173537,6.07834612 C8.30983315,6.01810287 8.20598019,5.99088185 8.10283531,6.00270738 L5.08779495,6.35368005 C4.30488522,6.44493741 3.74596746,7.12122361 3.84250351,7.86154614 L4.87772873,15.8125387 C4.96694787,16.4968574 5.58534506,17 6.29720992,17 C6.35503714,17 6.41380847,16.9966532 6.47281584,16.9897363 L9.48809223,16.6387637 C9.70264301,16.6137739 9.85511804,16.429251 9.82868274,16.2264321" id="Fill-134" fill="#3B35B9" mask="url(#mask-2)" transform="translate(6.831661, 11.500000) scale(-1, 1) translate(-6.831661, -11.500000) "></path>
                        <path d="M8.82871773,16.2256479 L8.68876376,15.1373995 C8.62531796,15.2265416 8.52408459,15.2902145 8.40372417,15.3042895 L5.27995151,15.6726988 C5.21883828,15.6798481 5.1579583,15.6834227 5.09777809,15.6834227 C4.57178441,15.6834227 4.09547439,15.4146559 3.83166115,15 L3.93592686,15.810992 C4.02409787,16.4964254 4.63499695,17 5.33849892,17 C5.39588005,17 5.45396095,16.9966488 5.5122751,16.989723 L8.49212843,16.6385165 C8.7041587,16.6134942 8.85484248,16.428731 8.82871773,16.2256479" id="Fill-135" fill="#292188" mask="url(#mask-2)" transform="translate(6.331661, 16.000000) scale(-1, 1) translate(-6.331661, -16.000000) "></path>
                        <path d="M28.5756748,6.35370016 L25.5603048,6.00272079 C25.4571567,5.99089504 25.3535365,6.01789346 25.2716318,6.07836098 C25.189727,6.1388285 25.1368547,6.22741007 25.1241088,6.3246936 L23.8346398,16.2266405 C23.8082036,16.4294633 23.9606834,16.6139896 24.1750048,16.6389799 L27.1906109,16.9897361 C27.2496201,16.9966531 27.3081572,17 27.3662223,17 C28.0781092,17 28.6965256,16.4968478 28.7855115,15.8125161 L29.8207689,7.86137187 C29.917544,7.12125835 29.3586088,6.44473613 28.5756748,6.35370016" id="Fill-136" fill="#3B35B9" mask="url(#mask-2)" transform="translate(26.831661, 11.500000) scale(-1, 1) translate(-26.831661, -11.500000) "></path>
                        <path d="M24.8346047,16.2256479 L24.9745652,15.1373995 C25.0377807,15.2265416 25.1392521,15.2902145 25.2596181,15.3042895 L28.3835365,15.6726988 C28.4446526,15.6798481 28.5055354,15.6834227 28.5654851,15.6834227 C29.0915034,15.6834227 29.5680689,15.4146559 29.8316612,15 L29.7276238,15.810992 C29.6394487,16.4964254 29.0282879,17 28.3249864,17 C28.2676025,17 28.2095189,16.9966488 28.1512021,16.989723 L25.1712097,16.6385165 C24.9591696,16.6134942 24.8084787,16.428731 24.8346047,16.2256479" id="Fill-137" fill="#292188" mask="url(#mask-2)" transform="translate(27.331661, 16.000000) scale(-1, 1) translate(-27.331661, -16.000000) "></path>
                    </g>
                </g>
            </g>
        </g>
    </g>
</svg>