<?xml version="1.0" encoding="UTF-8"?>
<svg width="806px" height="558px" viewBox="0 0 806 558" version="1.1" xmlns="http://www.w3.org/2000/svg" xmlns:xlink="http://www.w3.org/1999/xlink">
    <!-- Generator: sketchtool 56.3 (101010) - https://sketch.com -->
    <title>EF4FBF18-5559-4743-821A-3E5B5B8A123C</title>
    <desc>Created with sketchtool.</desc>
    <g id="WD---Site-vitrine" stroke="none" stroke-width="1" fill="none" fill-rule="evenodd">
        <g id="Desktop---Home-HD" transform="translate(-21.000000, -825.000000)">
            <g id="Group-48" transform="translate(20.963000, 825.000000)">
                <path d="M139.385239,425.123286 C217.5972,434.205399 290.104662,406.027904 330.936323,376.065078 C371.767985,346.102251 460.810954,210.041172 381.391394,192.264365 C272.003608,167.779646 326.446939,3.56095787 213.385239,18.1232858 C100.323539,32.6856137 -14.0420044,92.0411722 -2.14548715,227.777816 C9.75103015,363.514459 61.1732777,416.041172 139.385239,425.123286 Z" id="Oval" fill="#585AFA" transform="translate(205.133902, 222.032539) rotate(-90.000000) translate(-205.133902, -222.032539) "></path>
                <path d="M243.422239,555.912394 C321.6342,564.994507 394.141662,536.817012 434.973323,506.854186 C475.804984,476.89136 564.847954,340.83028 485.428394,323.053473 C376.040607,298.568754 430.483939,134.350066 317.422239,148.912394 C204.360539,163.474722 89.9949953,222.83028 101.891513,358.566924 C113.78803,494.303567 165.210277,546.83028 243.422239,555.912394 Z" id="Oval-Copy" fill="#292188" transform="translate(309.170902, 352.821647) rotate(-360.000000) translate(-309.170902, -352.821647) "></path>
                <path d="M279.822689,63.8745913 C423.736497,-54.1051402 670.775449,5.37459133 670.775449,128.374591 C670.775449,251.374591 470.159729,177.254943 470.157231,253.814767 C470.154733,330.374591 764.078071,121.89486 801.988892,280.374591 C839.899712,438.854323 584.441897,645.005474 304.946775,518.374591 C25.4516517,391.743709 135.90888,181.854323 279.822689,63.8745913 Z" id="Path-8" fill="#F8F8F8"></path>
            </g>
        </g>
    </g>
</svg>