<?xml version="1.0" encoding="UTF-8"?>
<svg width="291px" height="500px" viewBox="0 0 291 500" version="1.1" xmlns="http://www.w3.org/2000/svg" xmlns:xlink="http://www.w3.org/1999/xlink">
    <!-- Generator: sketchtool 56.3 (101010) - https://sketch.com -->
    <title>A4C14443-9FF5-454F-80F4-0C6B83492B5B</title>
    <desc>Created with sketchtool.</desc>
    <g id="WD---Site-vitrine" stroke="none" stroke-width="1" fill="none" fill-rule="evenodd">
        <g id="Desktop---Home-HD" transform="translate(-1149.000000, -830.000000)">
            <g id="Group-50" transform="translate(1149.000000, 830.000000)">
                <path d="M226.980113,403.968078 C256.997387,366.93391 168.932985,329 91.7309391,329 C14.528893,329 34.3744485,409.576105 91.7309391,477.543698 C149.08743,545.511292 196.96284,441.002245 226.980113,403.968078 Z" id="Path-5-Copy-15" fill="#8CD3FF" transform="translate(137.000000, 414.500000) rotate(-360.000000) translate(-137.000000, -414.500000) "></path>
                <path d="M104.934111,471.914058 C134.66333,509.823839 255.599722,479.859961 286.56425,457.157016 C317.528777,434.45407 385.054158,331.360081 324.826651,317.890527 C241.87286,299.338364 361.864938,85.7636983 308.216664,43.0877251 C254.56839,0.411751907 109.653055,-39.1803057 41.4626306,73.6110557 C-26.7277941,186.402417 105.403874,186.402417 115.131638,288.169059 C124.859402,389.935701 75.2048922,434.004276 104.934111,471.914058 Z" id="Oval-Copy-2" fill="#3B35B9" transform="translate(185.500000, 245.000000) rotate(-360.000000) translate(-185.500000, -245.000000) "></path>
                <path d="M113.467314,180.013076 C133.41539,155.355589 96.7269857,111 45.4221172,111 C-5.88275133,111 -14.5294011,163.416421 23.5870396,208.669499 C61.7034802,253.922577 93.5192385,204.670563 113.467314,180.013076 Z" id="Path-5-Copy-3" fill="#FBAA95" transform="translate(59.496126, 169.051687) rotate(-360.000000) translate(-59.496126, -169.051687) "></path>
            </g>
        </g>
    </g>
</svg>