<?xml version="1.0" encoding="UTF-8"?>
<svg width="156px" height="104px" viewBox="0 0 156 104" version="1.1" xmlns="http://www.w3.org/2000/svg" xmlns:xlink="http://www.w3.org/1999/xlink">
    <!-- Generator: sketchtool 56.3 (101010) - https://sketch.com -->
    <title>6A894703-20C6-4950-A87B-1311A9D21EA4</title>
    <desc>Created with sketchtool.</desc>
    <g id="WD---Site-vitrine" stroke="none" stroke-width="1" fill="none" fill-rule="evenodd">
        <g id="Desktop---Home-HD" transform="translate(-248.000000, -3116.000000)">
            <g id="Group-36" transform="translate(-205.000000, 2668.479381)">
                <g id="Group-17" transform="translate(442.000000, 422.520619)">
                    <path d="M162.985163,62.5173333 C164.103417,22.087635 101.783268,32.1965865 53.254825,44.4201962 C4.72638196,56.6438058 9.47332863,102.35883 40.7194827,129.301088 C71.9656367,156.243346 161.866908,102.947032 162.985163,62.5173333 Z" id="Path-5-Copy-5" fill="#FBAA95" transform="translate(90.000000, 85.107367) scale(-1, 1) rotate(36.000000) translate(-90.000000, -85.107367) "></path>
                    <path d="M168.998342,60.8747215 C170.040004,17.6973738 111.988358,28.4933415 66.7837813,41.5476819 C21.5792041,54.6020222 26.0010175,103.423893 55.107024,132.197178 C84.2130305,160.970464 167.956681,104.052069 168.998342,60.8747215 Z" id="Path-5-Copy-6" fill="#FF6786" transform="translate(101.012163, 85.000000) scale(-1, 1) rotate(36.000000) translate(-101.012163, -85.000000) "></path>
                </g>
            </g>
        </g>
    </g>
</svg>