<?xml version="1.0" encoding="UTF-8"?>
<svg width="761px" height="616px" viewBox="0 0 761 616" version="1.1" xmlns="http://www.w3.org/2000/svg" xmlns:xlink="http://www.w3.org/1999/xlink">
    <!-- Generator: sketchtool 56.3 (101010) - https://sketch.com -->
    <title>748E0EA3-EB19-4873-A09C-564F3CB4A368</title>
    <desc>Created with sketchtool.</desc>
    <g id="WD---Site-vitrine" stroke="none" stroke-width="1" fill="none" fill-rule="evenodd">
        <g id="Desktop---Home-HD" transform="translate(-41.000000, -2902.000000)">
            <g id="Group-36" transform="translate(-205.000000, 2668.479381)">
                <g id="Group-42" transform="translate(107.430592, 0.000000)">
                    <path d="M776.47297,414.13821 C736.964069,257.209105 613.074221,112.718089 493.611342,140.433825 C374.148464,168.14956 435.31679,329.701663 348.588761,388.366433 C261.860732,447.031202 91.3905136,468.069341 139.352136,642.906334 C187.313758,817.743327 603.534244,863.095384 728.227661,746.252897 C852.921079,629.41041 815.981871,571.067314 776.47297,414.13821 Z" id="Path-2-Copy-5" fill="#F8F8F8" transform="translate(472.500000, 474.000000) scale(1, -1) rotate(-125.000000) translate(-472.500000, -474.000000) "></path>
                    <path d="M867.23859,329.77273 C859.77644,285.767387 836.37704,245.249877 813.813773,253.021797 C791.250506,260.793717 802.803528,306.095419 786.422978,322.545926 C770.042427,338.996432 737.845271,344.895851 746.903908,393.922842 C755.962545,442.949832 834.575199,455.667249 858.126372,422.902813 C881.677544,390.138376 874.700739,373.778072 867.23859,329.77273 Z" id="Path-2-Copy-6" fill="#FBAA95" transform="translate(809.826418, 346.558899) scale(1, -1) rotate(-125.000000) translate(-809.826418, -346.558899) "></path>
                </g>
            </g>
        </g>
    </g>
</svg>